<?xml version="1.0" encoding="utf-8"?>
<!-- Generator: Adobe Illustrator 25.3.1, SVG Export Plug-In . SVG Version: 6.00 Build 0)  -->
<svg version="1.1" id="Layer_1" xmlns="http://www.w3.org/2000/svg" xmlns:xlink="http://www.w3.org/1999/xlink" x="0px" y="0px"
	 viewBox="0 0 1159 771" style="enable-background:new 0 0 1159 771;" xml:space="preserve">
<style type="text/css">
	.st0{fill:#FFFFFF;}
	.st1{fill:#DDE7E3;}
	.st2{fill:#4F76C6;}
	.st3{fill:#050E12;}
	.st4{fill:#D1E2DC;}
	.st5{fill:#F56F6F;}
</style>
<g id="Rectangle">
	<g>
		<rect class="st0" width="1159" height="771"/>
	</g>
</g>
<g id="background">
	<g>
		<g>
			<path class="st1" d="M865.5,635.5H712.5V226H865.5V635.5z M715.5,632.5H862.5V229H715.5V632.5z"/>
		</g>
	</g>
	<g>
		<g>
			<g>
				<g>
					<path class="st2" d="M909.08,620.29c-1.31,0-2.63-0.44-3.73-1.33l-31.85-26.02c-4.13-3.38-9.07-4.91-13.9-4.32l-84.07,10.3
						c-3.19,0.39-6.35,1.71-9.13,3.82l-17.94,13.61c-2.6,1.97-6.3,1.46-8.27-1.14s-1.46-6.3,1.14-8.27l17.94-13.61
						c4.44-3.37,9.57-5.49,14.83-6.13l84.07-10.3c8.06-0.99,16.16,1.46,22.81,6.89l31.85,26.02c2.53,2.06,2.9,5.78,0.84,8.31
						C912.49,619.55,910.79,620.29,909.08,620.29z"/>
				</g>
			</g>
			<g>
				<g>
					<circle class="st3" cx="741.78" cy="622.65" r="12.84"/>
				</g>
			</g>
			<g>
				<g>
					<circle class="st3" cx="912.07" cy="622.6" r="12.84"/>
				</g>
			</g>
			<g>
				<g>
					<circle class="st4" cx="912.07" cy="622.6" r="6.51"/>
				</g>
			</g>
			<g>
				<g>
					<circle class="st4" cx="741.69" cy="622.54" r="6.51"/>
				</g>
			</g>
		</g>
		<g>
			<g>
				<path class="st3" d="M871.94,575.36c-0.42,0-0.84-0.04-1.27-0.11l-148.42-25.26c-3.59-0.61-6.2-3.7-6.2-7.35v-66.6
					c0-3.74,2.8-6.92,6.51-7.4l187.7-23.98c2.57-0.33,5.08,0.67,6.72,2.68c1.64,2,2.12,4.66,1.29,7.11l-39.29,115.85
					C877.94,573.37,875.09,575.36,871.94,575.36z M911.23,448.66c-0.15,0-0.3,0.01-0.45,0.03l-187.7,23.98
					c-1.69,0.21-2.96,1.66-2.96,3.36v66.6c0,1.66,1.19,3.06,2.82,3.34l148.42,25.26c1.65,0.28,3.24-0.67,3.78-2.25l39.29-115.85
					c0.38-1.13,0.17-2.31-0.59-3.23C913.17,449.1,912.25,448.66,911.23,448.66z"/>
			</g>
		</g>
		<g>
			<g>
				<path class="st3" d="M718.09,493.77c-0.44,0-0.83-0.33-0.88-0.78c-0.06-0.49,0.29-0.93,0.78-0.99l190.99-22.73
					c0.49-0.05,0.93,0.29,0.99,0.78c0.06,0.49-0.29,0.93-0.78,0.99l-190.99,22.73C718.16,493.76,718.12,493.77,718.09,493.77z"/>
			</g>
		</g>
		<g>
			<g>
				<path class="st3" d="M718.09,538.25c-0.48,0-0.87-0.38-0.89-0.86c-0.02-0.49,0.37-0.9,0.86-0.92l171.92-5.91
					c0.01,0,0.02,0,0.03,0c0.48,0,0.87,0.38,0.89,0.86c0.02,0.49-0.37,0.9-0.86,0.92l-171.92,5.91
					C718.11,538.25,718.1,538.25,718.09,538.25z"/>
			</g>
		</g>
		<g>
			<g>
				<path class="st3" d="M720.32,513.48c-0.45,0-0.83-0.33-0.88-0.79c-0.06-0.49,0.29-0.93,0.78-0.99l183.28-21.22
					c0.5-0.07,0.93,0.29,0.99,0.78c0.06,0.49-0.29,0.93-0.78,0.99l-183.28,21.22C720.39,513.48,720.35,513.48,720.32,513.48z"/>
			</g>
		</g>
		<g>
			<g>
				<path class="st3" d="M718.09,532.34c-0.47,0-0.87-0.37-0.89-0.85c-0.02-0.49,0.36-0.91,0.85-0.93l172.01-7.69
					c0.49,0.01,0.91,0.36,0.93,0.85c0.02,0.49-0.36,0.91-0.85,0.93l-172.01,7.69C718.11,532.34,718.1,532.34,718.09,532.34z"/>
			</g>
		</g>
		<g>
			<g>
				<path class="st3" d="M864.27,570.61c-0.1,0-0.19-0.02-0.29-0.05c-0.46-0.16-0.71-0.67-0.55-1.13l42.12-122.74
					c0.16-0.46,0.66-0.71,1.13-0.55c0.46,0.16,0.71,0.67,0.55,1.13l-42.12,122.74C864.98,570.38,864.64,570.61,864.27,570.61z"/>
			</g>
			<g>
				<path class="st3" d="M845.59,567.61c-0.09,0-0.18-0.01-0.26-0.04c-0.47-0.15-0.73-0.64-0.59-1.11l36.1-116.43
					c0.15-0.47,0.64-0.73,1.11-0.59c0.47,0.15,0.73,0.64,0.59,1.11l-36.1,116.43C846.32,567.36,845.97,567.61,845.59,567.61z"/>
			</g>
			<g>
				<path class="st3" d="M826.92,564.6c-0.08,0-0.16-0.01-0.24-0.03c-0.47-0.13-0.75-0.62-0.62-1.09l30.09-110.12
					c0.13-0.47,0.62-0.75,1.09-0.62c0.47,0.13,0.75,0.62,0.62,1.09l-30.08,110.12C827.67,564.34,827.31,564.6,826.92,564.6z"/>
			</g>
			<g>
				<path class="st3" d="M808.25,561.6c-0.07,0-0.13-0.01-0.2-0.02c-0.48-0.11-0.78-0.59-0.66-1.07l24.07-103.8
					c0.11-0.48,0.58-0.78,1.07-0.67c0.48,0.11,0.78,0.59,0.66,1.07l-24.07,103.8C809.02,561.32,808.65,561.6,808.25,561.6z"/>
			</g>
			<g>
				<path class="st3" d="M789.57,558.6c-0.05,0-0.11,0-0.16-0.02c-0.48-0.09-0.8-0.55-0.71-1.04l18.05-97.49
					c0.09-0.48,0.55-0.81,1.04-0.71c0.48,0.09,0.8,0.55,0.71,1.04l-18.05,97.49C790.37,558.3,789.99,558.6,789.57,558.6z"/>
			</g>
			<g>
				<path class="st3" d="M770.9,555.6c-0.04,0-0.08,0-0.12-0.01c-0.49-0.06-0.83-0.51-0.77-1l12.03-91.18
					c0.07-0.49,0.52-0.83,1-0.77c0.49,0.06,0.83,0.51,0.77,1l-12.03,91.18C771.72,555.27,771.34,555.6,770.9,555.6z"/>
			</g>
			<g>
				<path class="st3" d="M752.22,552.59c-0.02,0-0.04,0-0.06,0c-0.49-0.03-0.86-0.46-0.82-0.95l6.02-84.87
					c0.04-0.49,0.46-0.87,0.95-0.82c0.49,0.03,0.86,0.46,0.82,0.95l-6.02,84.87C753.08,552.24,752.69,552.59,752.22,552.59z"/>
			</g>
			<g>
				<path class="st3" d="M733.55,549.59c-0.49,0-0.89-0.4-0.89-0.89v-78.56c0-0.49,0.4-0.89,0.89-0.89s0.89,0.4,0.89,0.89v78.56
					C734.44,549.19,734.04,549.59,733.55,549.59z"/>
			</g>
		</g>
		<g>
			<g>
				<path class="st3" d="M913,464.92c-0.22,0-0.45-0.04-0.67-0.11c-1.06-0.37-1.62-1.53-1.25-2.59l11.45-33.01
					c1.72-4.97,5.81-8.62,10.94-9.78l19.72-4.91c1.09-0.27,2.19,0.39,2.47,1.48c0.27,1.09-0.39,2.19-1.48,2.47l-19.77,4.92
					c-3.79,0.85-6.78,3.52-8.04,7.15l-11.45,33.01C914.63,464.39,913.84,464.92,913,464.92z"/>
			</g>
		</g>
	</g>
	<g>
		<g>
			<path class="st3" d="M946,635.5H212c-0.56,0-1.01-0.45-1.01-1.01c0-0.56,0.45-1.01,1.01-1.01h734c0.56,0,1.01,0.45,1.01,1.01
				C947.01,635.04,946.56,635.5,946,635.5z"/>
		</g>
	</g>
	<g>
		<g>
			<g>
				<path class="st3" d="M748.25,178.97c-0.33,0-0.59-0.27-0.59-0.59v-41.1l-1.17-0.19c-0.32-0.05-0.54-0.36-0.49-0.68
					c0.05-0.32,0.36-0.54,0.68-0.49l2.17,0.35v42.12C748.84,178.71,748.58,178.97,748.25,178.97z"/>
			</g>
		</g>
		<g>
			<g>
				<path class="st3" d="M684.81,168.7c-0.33,0-0.59-0.27-0.59-0.59V136.5c0-0.33,0.27-0.59,0.59-0.59c0.33,0,0.59,0.27,0.59,0.59
					v31.61C685.4,168.44,685.14,168.7,684.81,168.7z"/>
			</g>
		</g>
		<g>
			<g>
				<polygon class="st3" points="748.5,193.53 759.18,193.53 753.84,184.29 748.5,175.04 743.17,184.29 737.83,193.53 				"/>
			</g>
		</g>
		<g>
			<g>
				<polygon class="st3" points="684.81,180.18 695.49,180.18 690.15,170.93 684.81,161.68 679.47,170.93 674.14,180.18 				"/>
			</g>
		</g>
		<g>
			<g>
				<path class="st3" d="M779.5,137.38h-244c-0.49,0-0.88-0.4-0.88-0.88s0.4-0.88,0.88-0.88h244c0.49,0,0.88,0.4,0.88,0.88
					S779.99,137.38,779.5,137.38z"/>
			</g>
		</g>
	</g>
	<g>
		<g>
			<g>
				<g>
					<path class="st4" d="M810.83,290.5l-31.8,0.14c-3.2,0.01-5.81-2.57-5.82-5.77l-0.11-26.04c-0.01-3.2,2.57-5.81,5.77-5.82
						l31.8-0.14c3.2-0.01,5.81,2.57,5.82,5.77l0.11,26.04C816.62,287.88,814.04,290.48,810.83,290.5z"/>
				</g>
			</g>
		</g>
		<g>
			<g>
				<g>
					<g>
						<path class="st5" d="M794.52,253.7c-0.02-0.03-0.09-0.05-0.13-0.03c-0.05,0.03-0.01-0.01-0.01-0.01l0.03-0.08l0.07-0.15
							l0.15-0.3l0.28-0.6l0.58-1.17c0.38-0.78,0.79-1.52,1.15-2.29c0.39-0.74,0.77-1.48,1.12-2.23c0.35-0.74,0.7-1.47,1.01-2.19
							c0.62-1.43,1.14-2.88,1.25-4.01c0.06-0.56,0.01-0.97-0.09-1.13c-0.02-0.04-0.02-0.09-0.05-0.1c-0.01-0.01-0.01-0.03-0.02-0.05
							c-0.02-0.01-0.03-0.02-0.04-0.04c-0.01-0.03-0.06-0.06-0.1-0.09c-0.04-0.05-0.08-0.05-0.1-0.07
							c-0.07-0.07,0.13,0.09,0.46,0.05c0.37-0.01,0.61-0.18,0.6-0.2c0-0.01-0.05,0.04-0.09,0.06c-0.06,0.08-0.12,0.13-0.19,0.23
							l-0.22,0.33c-0.07,0.14-0.16,0.27-0.24,0.4c-0.64,1.18-1.21,2.69-1.76,4.21c-0.54,1.54-1.12,3.12-1.66,4.74
							c-0.31,0.8-0.57,1.62-0.89,2.43l-0.47,1.23l-0.26,0.61l-0.13,0.31l-0.07,0.15l-0.03,0.08c0,0-0.01,0.02-0.01,0.02
							c0-0.01-0.01-0.03-0.02-0.05C794.6,253.72,794.55,253.7,794.52,253.7z M794.38,254c-0.03-0.02-0.07-0.08-0.08-0.14
							c-0.01-0.07-0.01-0.1-0.01-0.1l0-0.08l0.01-0.16l0.02-0.32l0.05-0.64l0.11-1.28c0.08-0.85,0.17-1.7,0.27-2.55
							c0.22-1.69,0.5-3.38,0.85-5.06c0.37-1.67,0.8-3.34,1.5-4.94c0.37-0.79,0.79-1.59,1.5-2.21c0.36-0.3,0.83-0.54,1.34-0.57
							c0.5,0,1,0.16,1.38,0.42c0.78,0.5,1.39,1.27,1.66,2.16c0.27,0.89,0.23,1.82,0.06,2.68c-0.36,1.73-1.16,3.29-2.05,4.76
							c-0.89,1.47-1.91,2.86-2.99,4.19c-0.55,0.66-1.11,1.31-1.68,1.94l-0.87,0.94l-0.45,0.46l-0.23,0.23l-0.11,0.11l-0.06,0.06
							c-0.02,0.02,0.01,0-0.06,0.05C794.51,254.01,794.43,254.01,794.38,254z"/>
					</g>
				</g>
			</g>
		</g>
		<g>
			<g>
				<g>
					<g>
						<path class="st5" d="M795.57,254.5c-0.04,0-0.09,0.06-0.09,0.11c0.01,0.06-0.01,0.01-0.02,0.01l-0.05-0.07l-0.11-0.13
							l-0.2-0.27l-0.41-0.53l-0.78-1.05c-0.52-0.69-1-1.4-1.52-2.07c-0.49-0.69-0.97-1.36-1.48-2.01c-0.51-0.65-0.99-1.29-1.5-1.89
							c-0.99-1.2-2.05-2.32-3-2.93c-0.47-0.31-0.86-0.45-1.04-0.43c-0.05,0-0.09-0.02-0.12,0c-0.02,0-0.03,0-0.05,0
							c-0.02,0.01-0.03,0.02-0.05,0.02c-0.03-0.01-0.08,0.02-0.13,0.05c-0.06,0.01-0.08,0.04-0.1,0.05
							c-0.1,0.03,0.14-0.08,0.25-0.39c0.16-0.34,0.11-0.62,0.09-0.63c-0.01,0,0.01,0.06,0.01,0.11c0.05,0.09,0.06,0.17,0.12,0.28
							l0.2,0.35c0.09,0.13,0.17,0.26,0.25,0.4c0.76,1.11,1.85,2.3,2.96,3.48c1.13,1.18,2.27,2.41,3.47,3.62
							c0.57,0.64,1.18,1.24,1.76,1.9l0.88,0.98l0.43,0.51l0.22,0.25l0.11,0.13l0.05,0.07c0,0,0.01,0.01,0.01,0.01
							c-0.01,0-0.03-0.01-0.05-0.01C795.62,254.43,795.58,254.47,795.57,254.5z M795.78,254.75c-0.04,0.01-0.1,0.03-0.16,0.01
							c-0.07-0.02-0.1-0.04-0.1-0.04l-0.07-0.04l-0.14-0.08l-0.28-0.16l-0.55-0.33l-1.09-0.67c-0.72-0.46-1.44-0.92-2.15-1.4
							c-1.41-0.96-2.79-1.98-4.12-3.05c-1.32-1.09-2.62-2.23-3.72-3.58c-0.53-0.69-1.06-1.42-1.29-2.34
							c-0.1-0.46-0.1-0.98,0.11-1.45c0.23-0.45,0.6-0.82,1-1.04c0.8-0.47,1.76-0.67,2.67-0.5c0.91,0.16,1.72,0.62,2.41,1.16
							c1.38,1.11,2.41,2.53,3.32,3.98c0.91,1.46,1.68,3,2.38,4.56c0.34,0.79,0.66,1.58,0.97,2.38l0.44,1.2l0.21,0.61l0.1,0.3
							l0.05,0.15l0.02,0.08c0.01,0.03,0,0,0.02,0.08C795.84,254.64,795.81,254.72,795.78,254.75z"/>
					</g>
				</g>
			</g>
		</g>
		<g>
			<g>
				<g>
					<g>
						
							<rect x="793.22" y="253.05" transform="matrix(1 -4.252390e-03 4.252390e-03 1 -1.1486 3.3825)" class="st5" width="3.27" height="37.52"/>
					</g>
				</g>
			</g>
		</g>
		<g>
			<g>
				<g>
					
						<rect x="778.05" y="257.39" transform="matrix(1 -4.244307e-03 4.244307e-03 1 -1.0962 3.3269)" class="st0" width="10.51" height="5.08"/>
				</g>
			</g>
		</g>
	</g>
	<g>
		<g>
			<g>
				<path class="st3" d="M742.42,317.7c-0.54,0-1.09-0.1-1.62-0.29c-1.82-0.68-3-2.37-3-4.32v-60.82c0-9.68,7.87-17.55,17.55-17.55
					h75.61c9.68,0,17.55,7.87,17.55,17.55v31.87c0,9.68-7.87,17.55-17.55,17.55h-61.62c-6.99,0-13.62,3.04-18.19,8.33l-5.26,6.09
					C744.99,317.14,743.73,317.7,742.42,317.7z M755.34,236.49c-8.7,0-15.78,7.08-15.78,15.78v60.82c0,1.45,0.96,2.33,1.85,2.66
					c0.89,0.33,2.19,0.3,3.14-0.81l5.26-6.09c4.9-5.68,12.02-8.94,19.53-8.94h61.62c8.7,0,15.78-7.08,15.78-15.78v-31.87
					c0-8.7-7.08-15.78-15.78-15.78H755.34z"/>
			</g>
		</g>
		<g>
			<g>
				<path class="st3" d="M742.42,317.7c-0.54,0-1.09-0.1-1.62-0.29c-1.82-0.68-3-2.37-3-4.32v-60.82c0-9.68,7.87-17.55,17.55-17.55
					h75.61c9.68,0,17.55,7.87,17.55,17.55v31.87c0,9.68-7.87,17.55-17.55,17.55h-61.62c-6.99,0-13.62,3.04-18.19,8.33l-5.26,6.09
					C744.99,317.14,743.73,317.7,742.42,317.7z M755.34,236.49c-8.7,0-15.78,7.08-15.78,15.78v60.82c0,1.45,0.96,2.33,1.85,2.66
					c0.89,0.33,2.19,0.3,3.14-0.81l5.26-6.09c4.9-5.68,12.02-8.94,19.53-8.94h61.62c8.7,0,15.78-7.08,15.78-15.78v-31.87
					c0-8.7-7.08-15.78-15.78-15.78H755.34z"/>
			</g>
		</g>
	</g>
</g>
<g id="people">
	<g>
		<g>
			<g>
				<path class="st4" d="M697.72,304.58l-34.44,40.7l-36.53-26.09l-5.22,12.52c0,0,33.4,37.57,43.83,37.57s39.66-36.53,39.66-36.53
					L697.72,304.58z"/>
			</g>
		</g>
		<g>
			<g>
				<g>
					<path class="st0" d="M622.93,320.66c0,0-19.88-6.33-21.01-5.42c-1.13,0.9,0.45,2.03,2.03,2.71s8.36,2.71,8.36,2.71
						s-11.52-2.03-13.33-1.36c-1.81,0.68-0.23,2.71,1.58,2.94c0,0-2.48,1.13-0.68,2.71c3.77,1.2,7.53,2.41,11.3,3.61
						c-2.79-0.02-4.87-0.24-6.33-0.45c-0.94-0.14-2.47-0.4-3.39,0.45c-0.1,0.1-0.52,0.48-0.45,0.9c0.11,0.7,1.49,1.01,2.03,1.13
						c12.98,2.91,14.84,3.96,20.78,3.61c0.48-0.03,6.33-0.45,6.33-0.45c0.38-3.01,0.75-6.02,1.13-9.04
						c-1.07-0.74-2.35-1.52-3.84-2.26C625.8,321.66,624.26,321.08,622.93,320.66z"/>
				</g>
			</g>
			<g>
				<g>
					<path class="st3" d="M621.84,335.18c-3.36,0-5.81-0.59-10.98-1.83c-2.11-0.51-4.7-1.13-8.01-1.87
						c-0.82-0.18-2.52-0.56-2.73-1.86c-0.07-0.41,0.01-1.04,0.73-1.71c0.77-0.72,1.79-0.87,2.69-0.84l-3.93-1.26
						c-0.12-0.04-0.23-0.1-0.32-0.18c-0.92-0.81-1.02-1.59-0.95-2.11c0.06-0.38,0.22-0.72,0.44-1c-0.81-0.52-1.4-1.28-1.49-2.06
						c-0.1-0.89,0.41-1.64,1.37-2c0.67-0.25,2.26-0.22,4.15-0.05c-1.03-0.54-2.03-1.31-2.17-2.28c-0.05-0.35-0.02-1.01,0.71-1.59
						c0.41-0.33,1.5-1.21,21.84,5.27c1.59,0.49,3.15,1.12,4.65,1.86c1.36,0.67,2.69,1.46,3.95,2.32c0.28,0.19,0.42,0.52,0.38,0.85
						l-1.13,9.04c-0.05,0.43-0.4,0.76-0.83,0.79c0,0-5.86,0.42-6.34,0.45C623.15,335.16,622.48,335.18,621.84,335.18z
						 M601.99,329.32c0.17,0.1,0.52,0.24,1.25,0.41c3.32,0.74,5.92,1.37,8.04,1.88c6.14,1.47,8.2,1.97,12.5,1.72
						c0.37-0.02,3.99-0.28,5.58-0.4l0.97-7.75c-1.05-0.7-2.15-1.33-3.28-1.89c-1.41-0.7-2.89-1.29-4.39-1.75c0,0,0,0-0.01,0
						c-8.5-2.7-17.97-5.37-20.1-5.47c0.23,0.25,0.77,0.65,1.75,1.08c1.52,0.65,8.2,2.66,8.26,2.68c0.46,0.14,0.73,0.61,0.62,1.07
						c-0.11,0.46-0.56,0.77-1.03,0.68c-5.43-0.96-11.88-1.76-12.86-1.4c-0.15,0.06-0.21,0.11-0.23,0.13c0,0.22,0.7,0.96,1.6,1.07
						c0.4,0.05,0.72,0.36,0.78,0.76c0.06,0.4-0.15,0.79-0.52,0.96c-0.35,0.16-0.78,0.51-0.81,0.72c-0.01,0.07,0.06,0.2,0.22,0.38
						l11.1,3.55c0.42,0.14,0.69,0.56,0.62,1c-0.07,0.44-0.42,0.74-0.9,0.76c-2.31-0.02-4.48-0.17-6.45-0.46
						c-0.89-0.13-2.08-0.31-2.64,0.22C602.04,329.26,602.01,329.29,601.99,329.32z M602.47,315.95L602.47,315.95
						C602.48,315.95,602.48,315.94,602.47,315.95C602.48,315.94,602.48,315.95,602.47,315.95z"/>
				</g>
			</g>
			<g>
				<g>
					<path class="st3" d="M610.05,324.72c-0.05,0-0.1,0-0.15-0.01l-9.49-1.58c-0.49-0.08-0.82-0.55-0.74-1.04
						c0.08-0.49,0.54-0.83,1.04-0.74l9.49,1.58c0.49,0.08,0.82,0.55,0.74,1.04C610.87,324.41,610.48,324.72,610.05,324.72z"/>
				</g>
			</g>
			<g>
				<g>
					<path class="st0" d="M628.78,324.01c0,0-1.79-3.8-5.4-6.74c-0.68-0.55-5.71-5.98-6.78-5.2c-0.32,0.24-0.17,0.96,0,1.81
						c0.41,1.99,1.32,3.25,1.81,4.07c2.18,3.62,0.34,5.46,2.48,7.68c1.46,1.51,3.37,1.75,3.84,1.81c0.95,0.12,2.47,0.31,3.42-0.71
						C629.07,325.75,628.83,324.28,628.78,324.01z"/>
				</g>
			</g>
			<g>
				<g>
					<path class="st3" d="M625.95,328.44c-0.51,0-0.97-0.06-1.32-0.1c-2.23-0.28-3.61-1.28-4.38-2.07c-1.31-1.35-1.4-2.65-1.48-3.91
						c-0.08-1.14-0.16-2.32-1.13-3.94l-0.2-0.32c-0.53-0.85-1.33-2.13-1.72-4.03c-0.23-1.1-0.44-2.14,0.35-2.72
						c1.25-0.91,3.28,0.71,7.07,4.44c0.39,0.39,0.68,0.68,0.81,0.78c3.73,3.03,5.57,6.89,5.65,7.05c0.03,0.07,0.06,0.15,0.07,0.23
						c0.12,0.65,0.26,2.29-0.86,3.49C627.99,328.23,626.89,328.44,625.95,328.44z M617.37,313.12c0.03,0.2,0.08,0.41,0.11,0.58
						c0.33,1.59,1,2.66,1.49,3.44l0.21,0.34c1.2,1.99,1.3,3.52,1.38,4.75c0.08,1.14,0.13,1.89,0.98,2.77
						c0.57,0.58,1.6,1.32,3.31,1.54c0.85,0.11,2.01,0.25,2.64-0.42c0.53-0.57,0.47-1.48,0.42-1.84c-0.32-0.63-2.04-3.82-5.1-6.31
						c-0.15-0.12-0.48-0.45-0.94-0.9C619.71,314.94,618.2,313.62,617.37,313.12z"/>
				</g>
			</g>
		</g>
	</g>
	<g>
		<g>
			<g>
				<g>
					<path class="st0" d="M709.51,630.83c4.96,1.9,12.21,3.57,18.1,0.31c5.81-3.21,3.92-7.67,13.49-19.03
						c3.57-4.25,3.88-5.74,3.77-7.34c-0.2-2.98-2.98-5.06-4.36-5.95c-1.56-1.75-3.22-3.86-4.83-6.34
						c-2.52-3.88-4.19-7.56-5.32-10.63c-3.18-3.93-8.32-4.11-10.63-1.77c-1.58,1.6-1.89,4.45-0.89,7.09
						c1.43,1.84,3.01,4.2,4.43,7.09c1.99,4.04,3,7.77,3.54,10.63c-0.55,4.93-1.59,8.82-2.49,11.52c-1.08,3.26-2.19,5.53-4.42,7.04
						c-0.44,0.3-0.89,0.5-1.83,0.95c-3.16,1.53-6.21,2.37-8.89,2.85c-0.02,0.01-0.03,0.02-0.03,0.02
						C707.76,628.11,707.96,630.24,709.51,630.83z"/>
				</g>
			</g>
		</g>
		<g>
			<g>
				<g>
					<path class="st3" d="M709.51,630.83c4.96,1.9,12.21,3.57,18.1,0.31c5.81-3.21,3.92-7.67,13.49-19.03
						c3.57-4.25,3.88-5.74,3.77-7.34c-0.2-2.98-2.98-5.06-4.36-5.95c-2.87,6.36-5.47,11.72-7.55,15.87
						c-4.52,9.05-6.62,12.48-9.06,12.34c-1.73-0.1-3.08-1.93-3.98-3.59c-0.58,0.33-1.19,0.65-1.83,0.95
						c-3.16,1.53-6.21,2.37-8.89,2.85c-0.02,0.01-0.03,0.02-0.03,0.02C707.76,628.11,707.96,630.24,709.51,630.83z"/>
				</g>
			</g>
		</g>
		<g>
			<g>
				<g>
					<path class="st3" d="M740.39,607.41c1.79-0.98,3.58-1.95,5.37-2.93l-0.66,26.99l-2.27,0.56l-0.9-10.68
						c-0.14-1.62-0.9-3.17-2.23-4.12c-2.33-1.66-3.12,0.4-3.12,0.4L740.39,607.41z"/>
				</g>
			</g>
		</g>
		<g>
			<g>
				<g>
					<path class="st3" d="M719.91,633.74c-3.85,0-7.64-1.05-10.66-2.2l0,0c-1-0.38-1.67-1.28-1.76-2.34
						c-0.09-1.04,0.4-2.02,1.28-2.56c0.07-0.05,0.15-0.09,0.22-0.11c3.17-0.57,6.09-1.51,8.78-2.81l0.34-0.16
						c0.68-0.33,1.06-0.51,1.4-0.74c2.07-1.4,3.08-3.5,4.13-6.65c1.18-3.55,2-7.34,2.44-11.25c-0.69-3.59-1.85-7.06-3.46-10.33
						c-1.21-2.45-2.67-4.79-4.35-6.96c-0.05-0.06-0.08-0.12-0.11-0.19c-1.14-2.99-0.73-6.08,1.05-7.88c1.19-1.2,3.03-1.82,5.01-1.74
						c2.56,0.13,5.02,1.43,6.74,3.56c0.05,0.06,0.09,0.14,0.12,0.21c1.35,3.68,3.11,7.21,5.24,10.48c1.4,2.16,2.98,4.24,4.7,6.17
						c2.87,1.88,4.46,4.12,4.62,6.48c0.13,1.95-0.44,3.71-3.95,7.87c-4.65,5.52-6.58,9.43-7.99,12.28
						c-1.49,3.01-2.56,5.18-5.72,6.93C725.43,633.21,722.65,633.74,719.91,633.74z M709.49,627.96c-0.36,0.25-0.55,0.66-0.51,1.11
						c0.04,0.49,0.34,0.89,0.8,1.07h0c4.88,1.87,11.87,3.45,17.46,0.35c2.74-1.52,3.63-3.31,5.1-6.28
						c1.44-2.92,3.42-6.92,8.19-12.58c3.48-4.13,3.69-5.47,3.6-6.8c-0.16-2.38-2.27-4.24-4.02-5.37c-0.06-0.04-0.11-0.08-0.15-0.13
						c-1.79-2.01-3.44-4.17-4.9-6.43c-2.16-3.33-3.96-6.92-5.35-10.66c-1.45-1.75-3.48-2.81-5.57-2.91
						c-1.57-0.07-2.97,0.39-3.86,1.29c-1.33,1.34-1.62,3.82-0.76,6.19c1.71,2.22,3.2,4.61,4.44,7.12c1.68,3.42,2.9,7.06,3.61,10.82
						c0.01,0.07,0.02,0.15,0.01,0.22c-0.45,4.06-1.3,7.98-2.52,11.67c-1.12,3.38-2.3,5.8-4.71,7.42c-0.43,0.29-0.84,0.49-1.58,0.85
						l-0.33,0.16C715.65,626.41,712.65,627.38,709.49,627.96z"/>
				</g>
			</g>
		</g>
	</g>
	<g>
		<g>
			<g>
				<g>
					<path class="st0" d="M661.51,630.83c4.96,1.9,12.21,3.57,18.1,0.31c5.81-3.21,3.92-7.67,13.49-19.03
						c3.57-4.25,3.88-5.74,3.77-7.34c-0.13-1.98-1.41-3.57-2.66-4.67c-1.09-0.96-1.7-2.35-1.6-3.8c0.08-1.05,0.2-2.15,0.38-3.3
						c0.37-2.33,0.93-4.46,1.58-6.36c0.97-2.86-1.05-5.86-4.06-6.05c-1.73-0.11-3.46-0.22-5.19-0.32c-2.44-0.15-4.58,1.63-4.85,4.07
						c-0.16,1.39-0.32,2.96-0.48,4.66c-0.57,6.15-0.47,7.47-1,13c-0.17,1.8-0.77,7.84-2.66,14.4c-0.56,1.95-1.56,5.11-4.42,7.04
						c-0.44,0.3-0.89,0.5-1.83,0.95c-3.16,1.53-6.21,2.37-8.89,2.85c-0.02,0.01-0.03,0.02-0.03,0.02
						C659.76,628.11,659.96,630.24,661.51,630.83z"/>
				</g>
			</g>
		</g>
		<g>
			<g>
				<g>
					<path class="st3" d="M661.51,630.83c4.96,1.9,12.21,3.57,18.1,0.31c5.81-3.21,3.92-7.67,13.49-19.03
						c3.57-4.25,3.88-5.74,3.77-7.34c-0.2-2.98-2.98-5.06-4.36-5.95c-2.87,6.36-5.47,11.72-7.55,15.87
						c-4.52,9.05-6.62,12.48-9.06,12.34c-1.73-0.1-3.08-1.93-3.98-3.59c-0.58,0.33-1.19,0.65-1.83,0.95
						c-3.16,1.53-6.21,2.37-8.89,2.85c-0.02,0.01-0.03,0.02-0.03,0.02C659.76,628.11,659.96,630.24,661.51,630.83z"/>
				</g>
			</g>
		</g>
		<g>
			<g>
				<g>
					<path class="st3" d="M691.91,607.26c1.84-0.89,3.67-1.77,5.51-2.66l-1.98,26.93l-2.29,0.45l-0.38-10.71
						c-0.06-1.63-0.74-3.22-2.02-4.22c-2.25-1.77-3.14,0.25-3.14,0.25L691.91,607.26z"/>
				</g>
			</g>
		</g>
		<g>
			<g>
				<g>
					<path class="st3" d="M671.91,633.74c-3.85,0-7.64-1.05-10.66-2.2l0,0c-1-0.38-1.67-1.28-1.76-2.34
						c-0.09-1.04,0.4-2.02,1.28-2.56c0.07-0.05,0.15-0.09,0.22-0.11c3.17-0.57,6.09-1.51,8.78-2.81l0.34-0.16
						c0.68-0.33,1.06-0.51,1.4-0.74c2.74-1.85,3.67-5.07,4.12-6.62c0.87-3.02,2.03-7.95,2.64-14.27c0.26-2.73,0.37-4.42,0.48-6.2
						c0.11-1.81,0.23-3.69,0.52-6.8c0.16-1.71,0.32-3.28,0.48-4.67c0.32-2.83,2.77-4.94,5.65-4.74l5.19,0.32
						c1.68,0.1,3.18,0.96,4.11,2.36c0.93,1.39,1.16,3.1,0.62,4.68c-0.69,2.03-1.21,4.12-1.55,6.23c-0.17,1.07-0.3,2.16-0.38,3.23
						c-0.09,1.19,0.4,2.35,1.34,3.19c1.81,1.6,2.79,3.35,2.91,5.19c0.13,1.95-0.44,3.71-3.95,7.87c-4.65,5.52-6.58,9.43-7.99,12.28
						c-1.49,3.01-2.56,5.18-5.72,6.93C677.43,633.21,674.65,633.74,671.91,633.74z M661.49,627.96c-0.36,0.25-0.55,0.66-0.51,1.11
						c0.04,0.49,0.34,0.89,0.8,1.07h0c4.88,1.87,11.87,3.45,17.46,0.35c2.74-1.52,3.63-3.31,5.1-6.28
						c1.44-2.92,3.42-6.92,8.19-12.58c3.48-4.13,3.69-5.47,3.6-6.8c-0.09-1.43-0.9-2.83-2.41-4.16c-1.3-1.15-1.97-2.76-1.85-4.42
						c0.08-1.12,0.21-2.25,0.39-3.36c0.35-2.19,0.89-4.37,1.61-6.48c0.39-1.14,0.23-2.36-0.44-3.36c-0.67-1-1.75-1.62-2.95-1.7
						l-5.19-0.32c-2.05-0.12-3.83,1.37-4.06,3.4c-0.15,1.39-0.32,2.95-0.48,4.65c-0.29,3.09-0.41,4.95-0.52,6.75
						c-0.11,1.8-0.22,3.49-0.48,6.25c-0.62,6.43-1.8,11.46-2.69,14.54c-0.5,1.72-1.53,5.3-4.72,7.45c-0.43,0.29-0.84,0.49-1.58,0.85
						l-0.33,0.16C667.65,626.41,664.65,627.38,661.49,627.96z"/>
				</g>
			</g>
		</g>
	</g>
	<g>
		<g>
			<path class="st3" d="M581.3,284.27c0,0-14.91,3.91-22.82,21.42c-7.91,17.51-25.93,47.93-13.76,55.13
				C556.89,368.03,606.85,317.89,581.3,284.27z"/>
		</g>
	</g>
	<g>
		<g>
			<path class="st3" d="M627.57,283.91c0,0,12.43,0.09,22.43,11.09s29.59,41.94,29.59,41.94c12.47,4.69,24.94,9.38,37.41,14.06
				c-3.33,7-6.67,14-10,21c-6.45-1.17-15.14-3.22-25-7c-2.34-0.9-11.37-4.37-19-9c0,0-13.64-8.29-41-51l0,0L627.57,283.91z"/>
		</g>
	</g>
	<g>
		<g>
			<path class="st3" d="M678.9,395.11c-0.06,37.28-0.3,74.56-0.71,111.84c-0.3,27.35-0.7,54.7-1.19,82.05c3.02,0.46,6.37,0.82,10,1
				c3.61,0.18,6.96,0.15,10,0c0.17-5.24,0.6-13.28,1.77-23.04c2.29-19.11,5.12-23.99,6.71-41.32c1.35-14.74-0.06-15.62,1.38-28.16
				c1.96-17.01,6.1-28.88,8.34-35.94c4.59-14.5,9.92-36.44,12.37-67.94C725.71,390.91,720.74,384.54,678.9,395.11z"/>
		</g>
	</g>
	<g>
		<g>
			<g>
				<g>
					<path class="st0" d="M596.31,578.22l-5.28,44.91c-2.81,3.45-7.23,4.85-10.79,3.57c-4.72-1.7-7.57-7.98-5.07-13.84
						c0.56-16.03,1.11-32.06,1.67-48.09L596.31,578.22z"/>
				</g>
			</g>
			<g>
				<g>
					<path class="st3" d="M582.97,628.01c-1.03,0-2.05-0.17-3.01-0.51c-2.41-0.87-4.45-2.86-5.59-5.46
						c-1.28-2.92-1.29-6.33-0.04-9.36l1.66-47.93c0.01-0.31,0.19-0.59,0.47-0.73c0.28-0.14,0.61-0.12,0.86,0.06l19.47,13.45
						c0.26,0.18,0.4,0.49,0.36,0.8l-5.28,44.91c-0.02,0.16-0.08,0.31-0.18,0.44C589.44,626.44,586.14,628.01,582.97,628.01z
						 M577.64,566.36l-1.61,46.54c0,0.1-0.03,0.21-0.07,0.3c-1.13,2.64-1.13,5.61-0.02,8.16c0.95,2.18,2.63,3.83,4.6,4.54
						c3.19,1.15,7.14-0.14,9.68-3.12l5.19-44.15L577.64,566.36z"/>
				</g>
			</g>
		</g>
		<g>
			<g>
				<path class="st3" d="M596.15,633h-43.46c-0.51,0-0.92-0.41-0.92-0.92v-1.94c0-0.51,0.41-0.92,0.92-0.92h43.46
					c0.51,0,0.92,0.41,0.92,0.92v1.94C597.07,632.59,596.66,633,596.15,633z"/>
			</g>
		</g>
		<g>
			<g>
				<path class="st3" d="M589.52,631.11h-37.74c0-1.57,0-3.14,0-4.72c-0.03-0.32-0.03-0.64,0-0.94c0.55-5.73,11.08-8.84,13.21-9.43
					c0.21-0.21,0.54-0.53,0.94-0.94c2.01-2.05,3.29-2.83,4.92-5.37c0.67-1.04,1.61-1.88,2.74-2.37c0.77-0.33,1.68-0.62,2.72-0.74
					c3.48-0.42,6.3,1.17,7.94,2.43c0.92,0.71,1.62,1.67,2.03,2.77c0.77,2.04,1.53,4.09,2.3,6.13c0.35,0.92,1.68,0.85,1.91-0.11
					c0.62-2.48,1.24-4.96,1.86-7.44c0.66,3.37,1.29,6.78,1.93,10.24c0.96,5.14,1.9,10.33,1.84,10.52H589.52z"/>
			</g>
		</g>
		<g>
			<g>
				<path class="st0" d="M579.63,619.71c-0.09,0-0.19-0.03-0.27-0.09c-3.03-2.16-7.73-4.53-12.89-3.55
					c-0.6,0.11-1.21,0.27-1.79,0.47c-0.25,0.08-0.52-0.05-0.6-0.29c-0.08-0.25,0.05-0.51,0.29-0.6c0.63-0.22,1.28-0.39,1.92-0.51
					c5.49-1.03,10.43,1.45,13.61,3.71c0.21,0.15,0.26,0.45,0.11,0.66C579.92,619.64,579.78,619.71,579.63,619.71z"/>
			</g>
		</g>
		<g>
			<g>
				<path class="st0" d="M595.76,630.15h-42.24c-0.25,0-0.45-0.2-0.45-0.45s0.2-0.45,0.45-0.45h42.24c0.25,0,0.45,0.2,0.45,0.45
					S596.01,630.15,595.76,630.15z"/>
			</g>
		</g>
	</g>
	<g>
		<g>
			<g>
				<g>
					<path class="st0" d="M662.92,577.21l6.11,44.8c-1.86,4.04-5.79,6.5-9.55,6.15c-4.99-0.46-9.32-5.84-8.37-12.13
						c-3.47-15.66-6.93-31.32-10.4-46.98L662.92,577.21z"/>
				</g>
			</g>
			<g>
				<g>
					<path class="st3" d="M660.19,629.04c-0.26,0-0.52-0.01-0.78-0.04c-2.55-0.24-5.02-1.66-6.78-3.9c-1.96-2.51-2.83-5.8-2.38-9.05
						l-10.37-46.83c-0.07-0.3,0.04-0.62,0.27-0.82c0.23-0.21,0.56-0.27,0.85-0.16l22.21,8.16c0.29,0.11,0.51,0.37,0.55,0.68
						l6.11,44.8c0.02,0.16,0,0.32-0.07,0.47C667.96,626.39,664.08,629.04,660.19,629.04z M641.88,570.39l10.07,45.46
						c0.02,0.1,0.03,0.21,0.01,0.31c-0.43,2.84,0.3,5.72,2.01,7.91c1.46,1.87,3.5,3.06,5.6,3.25c3.37,0.31,6.88-1.92,8.6-5.44
						l-6.01-44.05L641.88,570.39z"/>
				</g>
			</g>
		</g>
		<g>
			<g>
				<path class="st3" d="M671.09,633h-43.46c-0.51,0-0.92-0.41-0.92-0.92v-1.94c0-0.51,0.41-0.92,0.92-0.92h43.46
					c0.51,0,0.92,0.41,0.92,0.92v1.94C672,632.59,671.59,633,671.09,633z"/>
			</g>
		</g>
		<g>
			<g>
				<path class="st3" d="M664.46,631.11h-37.74c0-1.57,0-3.14,0-4.72c-0.03-0.32-0.03-0.64,0-0.94c0.55-5.73,11.08-8.84,13.21-9.43
					c0.21-0.21,0.54-0.53,0.94-0.94c2.01-2.05,3.29-2.83,4.92-5.37c0.67-1.04,1.61-1.88,2.74-2.37c0.77-0.33,1.68-0.62,2.72-0.74
					c3.48-0.42,6.3,1.17,7.94,2.43c0.92,0.71,1.62,1.67,2.03,2.77c0.77,2.04,1.53,4.09,2.3,6.13c0.35,0.92,1.68,0.85,1.91-0.11
					c0.62-2.48,1.24-4.96,1.86-7.44c0.66,3.37,1.29,6.78,1.93,10.24c0.96,5.14,1.9,10.33,1.84,10.52H664.46z"/>
			</g>
		</g>
		<g>
			<g>
				<path class="st0" d="M654.57,619.71c-0.09,0-0.19-0.03-0.27-0.09c-3.03-2.16-7.73-4.53-12.89-3.55c-0.6,0.11-1.2,0.27-1.79,0.47
					c-0.24,0.08-0.51-0.05-0.6-0.29c-0.08-0.25,0.05-0.51,0.29-0.6c0.63-0.22,1.28-0.39,1.92-0.51c5.48-1.03,10.43,1.45,13.61,3.71
					c0.21,0.15,0.26,0.45,0.11,0.66C654.86,619.64,654.72,619.71,654.57,619.71z"/>
			</g>
		</g>
		<g>
			<g>
				<path class="st0" d="M670.7,630.15h-42.24c-0.25,0-0.45-0.2-0.45-0.45s0.2-0.45,0.45-0.45h42.24c0.25,0,0.45,0.2,0.45,0.45
					S670.95,630.15,670.7,630.15z"/>
			</g>
		</g>
	</g>
	<g>
		<g>
			<path class="st2" d="M573.3,375.65c-2.77,75.74-5.54,151.48-8.32,227.22c10.26,0.38,20.53,0.75,30.79,1.13
				c6.74-66.33,13.49-132.67,20.23-199c2.03-8.83,4.07-17.67,6.1-26.5C605.83,377.55,589.56,376.6,573.3,375.65z"/>
		</g>
	</g>
	<g>
		<g>
			<path class="st2" d="M601,375.56c2.66,14.39,6.83,36.83,12,64.44c9.33,49.79,12.2,64.33,16,87c3.02,17.99,7.18,44.41,11.31,77
				c10.27,0,20.54,0,30.81,0l-22.31-227.38C632.87,376.27,616.93,375.92,601,375.56z"/>
		</g>
	</g>
	<g>
		<g>
			<path class="st3" d="M568,398c8.78,3.57,24.67,8.71,45,8c18.95-0.66,33.58-6.12,42-10c-5-36.33-10-72.67-15-109
				c-5.77-3.04-19.21-9.13-37-8c-14.02,0.89-24.48,5.86-30,9C571.33,324.67,569.67,361.33,568,398z"/>
		</g>
	</g>
	<g>
		<g>
			<path class="st3" d="M678.73,413.09l2.14,41.76l2.14,41.76c0.04,0.84,0.15,1.67,0.33,2.49c0.17,0.82,0.41,1.62,0.71,2.41
				l19.25,49.95c5.9,15.18,11.79,30.36,17.69,45.54c2.95-1.34,5.95-2.67,9-4c2.35-1.02,4.68-2.02,7-3
				c-1.34-12.15-3.42-25.41-6.59-39.54c-4.96-22.16-11.49-41.51-18.13-57.79c0,0,5.31-20.03,10.21-41.99
				c4.9-21.96,9.38-45.86,7.72-53.61c-2.21-10.31-17.76-17.27-29.38-15.7c-1.36,0.18-4.43,0.73-7.83,2.63
				C679.27,391.67,678.75,410.97,678.73,413.09z"/>
		</g>
	</g>
	<g>
		<g>
			<path class="st0" d="M704.5,556.23c-0.4,0-0.78-0.24-0.93-0.64l-20.88-54.62c-0.45-1.17-0.71-2.4-0.78-3.65l-3.9-70.27
				c-0.03-0.55,0.39-1.02,0.94-1.05c0.57-0.05,1.02,0.39,1.05,0.94l3.9,70.27c0.06,1.04,0.28,2.07,0.65,3.05l20.88,54.62
				c0.2,0.52-0.06,1.09-0.58,1.29C704.74,556.21,704.62,556.23,704.5,556.23z"/>
		</g>
	</g>
	<g>
		<g>
			<path class="st3" d="M678.93,413.12c17.05-5.22,34.09-10.44,51.14-15.65c-0.17-1.96-0.63-5-2.09-8.35
				c-3.03-6.99-7.57-8.91-10.44-13.57c-1.44-2.33-2.7-5.75-2.52-10.86c0.18-5.43-3.33-10.3-8.56-11.76
				c-9.18-2.55-18.35-5.1-27.53-7.65c0,9.05,0,18.09,0,27.14C678.93,385.99,678.93,399.56,678.93,413.12z"/>
		</g>
	</g>
	<g>
		<g>
			<path class="st3" d="M689.25,246.34c-2.31-0.13-7.06-0.04-11.37,2.93c0,0,0,0,0,0c0,0-4.18,2.44-6.44,8.66
				C658.94,292.35,676,316,676,316c5.12,7.68,11.56,11.69,15,14c12.22,8.22,24.37,10.35,31,11c-6.47-14.85-6.81-26.36-6-34
				c1.5-14.14,7.33-19.91,4.95-33.01c-0.56-3.07-2.47-12.54-10.77-19.79C702.52,247.52,693.37,246.52,689.25,246.34z"/>
		</g>
	</g>
	<g>
		<g>
			<path class="st4" d="M677.89,360.94c3.4,0.52,7.04,0.93,10.89,1.17c10.07,0.64,19.08-0.02,26.68-1.17
				c0.38-5.78,1.02-14.46,2.09-25.05c1.7-16.89,2.73-21.36,0-26.09c-1.38-2.39-6.67-9.94-26.09-10.44
				c-3.43,6.27-7.14,11.04-10.44,14.61c-5.47,5.92-8.54,7.23-9.39,11.48c-1.05,5.27,2.73,8.01,5.22,15.65
				C678.25,345.43,679.45,351.96,677.89,360.94z"/>
		</g>
	</g>
	<g>
		<g>
			<path class="st3" d="M678,363.01c-0.08,0-0.17-0.01-0.25-0.03c-0.54-0.14-0.86-0.69-0.72-1.23c2.37-9.14,1.98-16.74-1.15-22.6
				c-0.74-1.39-1.49-2.43-2.22-3.43c-1.18-1.63-2.29-3.17-2.75-5.56c-1.14-5.87,2.37-12.56,10.42-19.89
				c0.41-0.38,1.05-0.35,1.42,0.07c0.38,0.41,0.35,1.05-0.07,1.42c-7.49,6.83-10.79,12.89-9.79,18.02c0.38,1.96,1.27,3.2,2.41,4.77
				c0.73,1.01,1.56,2.16,2.36,3.66c3.38,6.32,3.82,14.41,1.32,24.06C678.86,362.71,678.45,363.01,678,363.01z"/>
		</g>
	</g>
	<g>
		<g>
			<path class="st0" d="M706.24,280.23c0.18,2.76,0.47,5.71,0.91,8.84c0.46,3.3,1.03,6.36,1.64,9.17
				c-0.54,0.63-4.49,5.11-10.44,4.66c-3.83-0.29-6.42-2.45-7.36-3.32c0.34-6.1,0.68-12.19,1.01-18.29
				C696.74,280.95,701.49,280.59,706.24,280.23z"/>
		</g>
	</g>
	<g>
		<g>
			<path class="st0" d="M681.04,255.03c-1.34,3.21-6.7,16.73-2.59,27.66c0.93,2.49,2.59,6.9,6.73,8.63
				c2.44,1.03,4.91,0.77,5.77,0.68c3.25-0.34,5.46-1.79,7.31-3c3.3-2.16,5.17-4.64,5.71-5.4c2.25-3.15,3.21-6.32,3.65-8.55
				C709.98,268.67,708.86,261.64,681.04,255.03z"/>
		</g>
	</g>
	<g>
		<g>
			<path class="st0" d="M680.2,266.13c2.57,9.78,14.92,18.48,23.33,15.26c0.35-0.13,0.68-0.28,1-0.45c0,0,0,0,0.01-0.01
				c1.28-0.66,2.35-1.56,3.23-2.5c1.68-1.8,2.66-3.76,3.04-4.52c0.56-1.12,2.75-5.52,1.5-10.5c-0.32-1.28-0.84-2.47-1.51-3.57
				c-3.33-5.43-10.47-8.5-16.5-8.64c-1.34-0.03-9.84-0.23-13.32,5.48C678.7,260.43,679.82,264.68,680.2,266.13z"/>
		</g>
	</g>
	<g>
		<g>
			<path class="st3" d="M690.17,270.34c-0.13,1.06,0.24,1.98,0.83,2.06c0.59,0.07,1.18-0.73,1.31-1.79
				c0.13-1.06-0.24-1.98-0.83-2.06C690.89,268.48,690.31,269.28,690.17,270.34z"/>
		</g>
	</g>
	<g>
		<g>
			<path class="st3" d="M685.37,279.38c-2.29,0-3.48-0.44-3.82-1.41c-0.29-0.81,0.21-1.5,0.7-2.16c0.23-0.31,0.49-0.67,0.72-1.08
				c0.73-1.31,1.01-2.92,0.82-4.8c-0.04-0.44,0.28-0.83,0.72-0.87c0.44-0.04,0.83,0.28,0.87,0.72c0.21,2.21-0.13,4.14-1.02,5.73
				c-0.28,0.5-0.58,0.92-0.83,1.25c-0.19,0.25-0.44,0.6-0.47,0.74c0.04,0,0.44,0.29,2.31,0.29c0.21,0,0.45,0,0.7-0.01
				c0.41-0.01,0.81,0.33,0.83,0.77c0.02,0.44-0.33,0.81-0.77,0.83C685.86,279.38,685.61,279.38,685.37,279.38z"/>
		</g>
	</g>
	<g>
		<g>
			<path class="st3" d="M694.9,271.36c-0.22,0-0.43-0.11-0.56-0.32c-0.04-0.07-1.1-1.8-3.06-1.92c-1.3-0.08-2.26,0.59-2.62,0.88
				c-0.27,0.23-0.68,0.19-0.91-0.09c-0.23-0.28-0.18-0.68,0.09-0.91c0.47-0.38,1.75-1.27,3.51-1.16c2.6,0.15,3.95,2.3,4.1,2.54
				c0.18,0.31,0.08,0.7-0.22,0.89C695.13,271.33,695.01,271.36,694.9,271.36z"/>
		</g>
	</g>
	<g>
		<g>
			<path class="st3" d="M680.77,269.16c-0.13,1.06,0.24,1.98,0.83,2.06c0.59,0.07,1.18-0.73,1.31-1.79
				c0.13-1.06-0.24-1.98-0.83-2.06C681.49,267.29,680.9,268.09,680.77,269.16z"/>
		</g>
	</g>
	<g>
		<g>
			<path class="st3" d="M684.18,270.15c-0.28,0-0.54-0.19-0.62-0.47c0-0.01-0.38-1.27-1.59-1.59c-0.87-0.24-1.81,0.08-2.39,0.8
				c-0.22,0.28-0.63,0.32-0.91,0.1c-0.28-0.22-0.32-0.63-0.1-0.91c0.91-1.12,2.37-1.61,3.73-1.24c1.92,0.52,2.47,2.41,2.49,2.49
				c0.1,0.34-0.1,0.7-0.45,0.8C684.29,270.15,684.23,270.15,684.18,270.15z"/>
		</g>
	</g>
	<g>
		<g>
			<path class="st3" d="M683.84,283.71c-0.22,0-0.44-0.1-0.58-0.29c-0.24-0.32-0.17-0.77,0.15-1.01c0.09-0.07,0.24-0.17,0.43-0.27
				c1.01-0.53,1.95-0.35,2.78-0.2c0.53,0.1,1.03,0.19,1.54,0.12c0.56-0.08,1.12-0.36,1.66-0.84c0.3-0.26,0.76-0.24,1.02,0.06
				c0.27,0.3,0.24,0.76-0.06,1.02c-0.76,0.67-1.57,1.08-2.42,1.2c-0.75,0.11-1.42-0.02-2.01-0.13c-0.72-0.13-1.28-0.24-1.83,0.05
				c-0.11,0.06-0.19,0.11-0.24,0.15C684.14,283.66,683.99,283.71,683.84,283.71z"/>
		</g>
	</g>
	<g>
		<g>
			<path class="st3" d="M687.09,286.49c-0.52,0-1.04-0.12-1.52-0.35c-0.33-0.16-0.46-0.54-0.31-0.87c0.16-0.33,0.55-0.46,0.87-0.31
				c0.24,0.11,0.62,0.25,1.07,0.22c0.84-0.05,1.39-0.58,1.59-0.8c0.24-0.27,0.65-0.29,0.92-0.06c0.27,0.24,0.29,0.65,0.06,0.92
				c-0.31,0.35-1.17,1.17-2.5,1.24C687.21,286.49,687.15,286.49,687.09,286.49z"/>
		</g>
	</g>
	<g>
		<g>
			<g>
				<path class="st0" d="M724.06,360.57c1.1-4.62-2.16-9.16-6.88-9.68c-8.34-0.92-20.87-1.99-21.99-0.2
					c-1.69,2.69,5.39,3.37,5.39,3.37l12.6,2.64c0,0-19.67-3.32-21.36-0.63c-1.69,2.69,1.14,2.97,1.14,2.97s-1.69,2.69,1.01,4.38
					c2.69,1.69,15.43,2.91,15.43,2.91c-2.77-0.5-11.83-2.01-12.87,0.19c-0.35,0.75-0.14,1.41-0.14,1.41c0.36,1.1,1.9,1.49,2.69,1.69
					c7.74,1.89,11.47,1.68,15.22,1.81c3.09,0.11,5.97-1.58,7.36-4.34C722.55,365.33,723.46,363.12,724.06,360.57z"/>
			</g>
		</g>
		<g>
			<g>
				<path class="st3" d="M714.57,372.53c-0.1,0-0.2,0-0.31-0.01c-0.54-0.02-1.08-0.03-1.63-0.04c-3.32-0.07-7.08-0.15-13.82-1.79
					c-0.87-0.21-2.92-0.72-3.48-2.41c-0.04-0.11-0.34-1.11,0.19-2.23c0.09-0.19,0.21-0.44,0.48-0.7c-1.13-0.3-2.06-0.64-2.63-0.99
					c-1.46-0.91-2.18-2.29-2.03-3.86c0.03-0.28,0.08-0.54,0.14-0.78c-0.41-0.23-0.83-0.57-1.08-1.09c-0.44-0.89-0.28-1.94,0.47-3.14
					c0.6-0.95,2.41-1.4,4.85-1.53c-0.74-0.38-1.36-0.87-1.67-1.5c-0.36-0.74-0.29-1.57,0.2-2.36c0.54-0.87,1.68-2.67,23.05-0.31
					c2.59,0.29,4.93,1.67,6.43,3.8c1.48,2.1,2,4.74,1.41,7.23c0,0,0,0,0,0c-0.54,2.29-1.38,4.56-2.49,6.75
					C721.12,370.62,717.97,372.53,714.57,372.53z M700.63,366.46c-2.11,0-2.96,0.32-3.12,0.54c-0.15,0.32-0.08,0.61-0.07,0.62
					c0.11,0.33,0.75,0.65,1.9,0.93c6.5,1.59,10.13,1.67,13.34,1.73c0.56,0.01,1.11,0.02,1.66,0.04c2.68,0.09,5.15-1.38,6.34-3.74
					c1.03-2.04,1.81-4.15,2.31-6.27c0.44-1.88,0.06-3.86-1.06-5.45c-1.14-1.61-2.91-2.66-4.87-2.88
					c-17.83-1.97-20.61-0.88-20.97-0.65c-0.05,0.1-0.06,0.15-0.06,0.15c0.14,0.48,2.32,1.26,4.65,1.48c0.04,0,0.08,0.01,0.12,0.02
					l12.6,2.64c0.59,0.12,0.97,0.69,0.86,1.28c-0.11,0.59-0.66,0.98-1.27,0.88c-8.82-1.49-19.07-2.29-20.26-1.1
					c-0.36,0.58-0.37,0.9-0.34,0.96c0.05,0.11,0.4,0.26,0.68,0.29c0.38,0.04,0.71,0.28,0.87,0.62c0.16,0.34,0.15,0.74-0.05,1.06
					c-0.25,0.41-0.95,1.85,0.66,2.86c1.01,0.64,4.1,1.28,7.46,1.8c1.89,0.09,4.36,0.38,7.58,0.96c0.58,0.1,0.98,0.65,0.9,1.24
					c-0.08,0.59-0.6,1-1.2,0.95c-0.67-0.06-4.03-0.4-7.54-0.94C701.34,366.47,700.97,366.46,700.63,366.46z M724.06,360.57
					L724.06,360.57L724.06,360.57z M696.05,351.36L696.05,351.36L696.05,351.36z"/>
			</g>
		</g>
	</g>
	<g>
		<g>
			<path class="st3" d="M687.82,294.02c-0.39,0-0.71-0.31-0.72-0.7c-0.02-0.4,0.3-0.74,0.7-0.75c2.32-0.09,5.85-0.63,9.49-2.72
				c2.71-1.56,5.07-3.75,6.82-6.34c0.22-0.33,0.67-0.42,1-0.19c0.33,0.22,0.42,0.67,0.19,1c-1.88,2.77-4.4,5.12-7.3,6.79
				c-3.9,2.24-7.67,2.82-10.16,2.91C687.84,294.02,687.83,294.02,687.82,294.02z"/>
		</g>
	</g>
	<g>
		<g>
			<path class="st4" d="M699.61,320.34l4.65,52.57l-8.35,50.1h11.48L722,372.9v-52.97c0-2.44-0.68-4.87-2.1-6.86
				c-2.85-4-7.62-6.03-11.9-5.08c-1.85,0.41-3.54,1.36-4.95,2.7C700.46,313.17,699.29,316.77,699.61,320.34z"/>
		</g>
	</g>
	<g>
		<g>
			<path class="st3" d="M704.09,372.02c-0.52,0-0.96-0.39-1-0.92l-3.55-40.15c-0.05-0.55,0.36-1.04,0.91-1.09
				c0.56-0.04,1.04,0.36,1.09,0.91l3.55,40.15c0.05,0.55-0.36,1.04-0.91,1.09C704.15,372.02,704.12,372.02,704.09,372.02z"/>
		</g>
	</g>
	<g>
		<g>
			<path class="st3" d="M677.65,249.28c1.7,2.77,4.39,7,7.97,11.97c5.78,8.04,6.72,8.07,8.28,11.24c3.76,7.6,2.32,23.45,2.32,23.45
				c-0.09,0.92-2.02,23.3,8.8,32.65c2.26,1.95,8.45,6.25,21.92,4.17c-12.65-6.26-15.45-11.77-15.65-15.65
				c-0.23-4.33,2.82-5.68,7.31-15.65c3.08-6.84,5.45-12.1,5.22-18.79c-0.28-8.1-4.22-13.96-6.82-17.84
				c-2.68-3.99-7.46-11.36-17.12-14.92C689.93,246.23,681.05,248.29,677.65,249.28z"/>
		</g>
	</g>
	<g>
		<g>
			<path class="st0" d="M703.56,270.94c0,0,4.22-2.51,5.77-1.01c1.55,1.5,2.61,6.84-2.84,8.76
				C701.04,280.61,703.56,270.94,703.56,270.94z"/>
		</g>
	</g>
	<g>
		<g>
			<path class="st3" d="M705.84,276.36c-0.3,0-0.56-0.21-0.63-0.51c-0.08-0.35,0.15-0.69,0.49-0.77c1.06-0.23,1.56-1.16,1.45-1.7
				c-0.06-0.29-0.32-0.59-0.67-0.78c-0.5-0.26-1.09-0.29-1.64-0.07c-0.33,0.13-0.71-0.03-0.84-0.36c-0.13-0.33,0.03-0.71,0.36-0.84
				c0.9-0.36,1.9-0.31,2.73,0.13c0.7,0.38,1.19,0.98,1.33,1.65c0.26,1.22-0.68,2.84-2.44,3.23
				C705.93,276.35,705.89,276.36,705.84,276.36z"/>
		</g>
	</g>
	<g>
		<g>
			<path class="st3" d="M667,605.01c-0.51,0-0.95-0.38-1-0.9l-24.11-218.32c-0.06-0.56,0.34-1.06,0.89-1.12
				c0.56-0.07,1.06,0.34,1.12,0.89l24.11,218.32c0.06,0.56-0.34,1.06-0.89,1.12C667.07,605.01,667.04,605.01,667,605.01z"/>
		</g>
	</g>
	<g>
		<g>
			<path class="st3" d="M586,602.01c-0.04,0-0.08,0-0.12-0.01c-0.55-0.06-0.95-0.56-0.89-1.12l19.26-170.16
				c0.06-0.55,0.57-0.95,1.12-0.89c0.55,0.06,0.95,0.56,0.89,1.12l-19.26,170.16C586.95,601.63,586.51,602.01,586,602.01z"/>
		</g>
	</g>
	<g>
		<g>
			<path class="st3" d="M613,441.01c-0.31,0-0.62-0.14-0.82-0.41l-14-19c-0.33-0.45-0.24-1.08,0.21-1.42
				c0.45-0.33,1.08-0.24,1.42,0.21l14,19c0.33,0.45,0.24,1.08-0.21,1.42C613.42,440.95,613.21,441.01,613,441.01z"/>
		</g>
	</g>
	<g>
		<g>
			<path class="st3" d="M545.15,319.92c4.29-8.49,10.46-13.5,20.85-22.75c3.7-3.29,6.87-5.85,9.01-7.52
				c0.16,1.56,0.68,4.35,2.58,7.17c3.27,4.85,8.26,6.25,9.62,6.59c-1.4,11.43-5.82,31.56-21.65,43.79
				c-1.6,1.23-15.8,12.19-22.5,7.67c-2.48-1.67-3.02-4.91-3.52-8.22C537.75,334.72,542.79,324.59,545.15,319.92z"/>
		</g>
	</g>
	<g>
		<g>
			<g>
				<path class="st0" d="M614.31,252.22c0.99-0.12,3.88,27.7,3.88,27.7c-2.2,5.69-7.93,8.54-12.55,7.14
					c-4.93-1.5-6.42-7.19-6.49-7.47l-0.11-24.4L614.31,252.22z"/>
			</g>
		</g>
		<g>
			<g>
				<path class="st0" d="M585.77,231.64c-0.93,3.59-1.84,8.42-1.98,14.18c-0.03,1.37-0.01,2.64,0.04,3.86
					c0.19,4.24,0.72,7.66,1.14,9.84c0.11,0.55,0.21,1.08,0.31,1.58c0,0.01,0,0.01,0,0.02c2.35,9.28,5.31,10.73,6.23,11.11
					c0.62,0.25,1.25,0.39,1.91,0.44c2.62-0.15,5.67-1.24,8.93-2.4c2.64-0.94,4.54-1.63,6.27-2.82c0.49-0.33,0.97-0.71,1.44-1.15
					c4.42-4.03,4.95-9.91,5.46-15.64c0.43-4.82,1.01-11.35-3.09-17.1c-0.49-0.68-1.57-2.18-3.2-3.4
					C600.98,223.97,586.84,231.08,585.77,231.64z"/>
			</g>
		</g>
		<g>
			<g>
				<path class="st0" d="M585.79,243.44c3.51,10.14,17.29,18.33,25.93,14.24c0.36-0.17,0.7-0.36,1.02-0.56c0,0,0,0,0.01-0.01
					c1.3-0.8,2.36-1.84,3.21-2.9c1.64-2.05,2.51-4.2,2.85-5.03c0.5-1.23,2.46-6.07,0.73-11.23c-0.45-1.33-1.09-2.55-1.89-3.65
					c-3.97-5.47-11.77-8.14-18.16-7.79c-1.42,0.07-10.43,0.56-13.64,6.89C583.74,237.53,585.27,241.94,585.79,243.44z"/>
			</g>
		</g>
		<g>
			<g>
				<path class="st3" d="M594.02,273.53c-0.22,0-0.45-0.01-0.66-0.03c-0.76-0.05-1.47-0.21-2.16-0.5
					c-2.78-1.14-5.04-5.05-6.71-11.61l-0.12-0.24l0.03-0.09l0,0l0-0.01c-1.7-6.87-2.09-14.15-1.17-21.64
					c0.06-0.46,0.47-0.79,0.94-0.74c0.46,0.06,0.79,0.48,0.74,0.94c-0.91,7.35-0.51,14.48,1.17,21.2l0.12,0.25l-0.04,0.1
					c1.49,5.74,3.49,9.38,5.66,10.27c0.52,0.21,1.06,0.34,1.64,0.38c1.83,0.14,4.06-0.51,7.14-1.41c3.42-1,5.64-1.65,7.38-3.53
					l0.18-0.2c0.98-1.13,1.71-3.19,3.05-6.94c0.9-2.51,1.55-4.6,1.95-5.91c0.13-0.45,0.6-0.7,1.05-0.57
					c0.45,0.13,0.7,0.61,0.57,1.05c-0.4,1.33-1.07,3.44-1.97,5.99c-1.4,3.94-2.18,6.11-3.35,7.46c-0.04,0.05-0.09,0.1-0.14,0.16
					l-0.07,0.08c-2.07,2.24-4.6,2.98-8.1,4.01C598.18,272.88,595.98,273.53,594.02,273.53z"/>
			</g>
		</g>
		<g>
			<g>
				<path class="st3" d="M596.68,247.08c-0.05,1.13,0.41,2.08,1.04,2.11c0.63,0.03,1.19-0.87,1.24-2c0.05-1.13-0.41-2.08-1.04-2.11
					C597.29,245.05,596.74,245.95,596.68,247.08z"/>
			</g>
		</g>
		<g>
			<g>
				<path class="st3" d="M591.44,257.05c-1.87,0-2.87-0.37-3.25-1.16c-0.3-0.62-0.06-1.16,0.14-1.59c0.16-0.35,0.32-0.7,0.35-1.25
					c0.03-0.46-0.05-0.74-0.16-1.09c-0.07-0.25-0.15-0.5-0.19-0.79c-0.23-1.47,0.37-3.05,1.76-4.69c0.3-0.36,0.84-0.4,1.19-0.1
					c0.36,0.3,0.4,0.84,0.1,1.19c-1.06,1.25-1.52,2.37-1.38,3.33c0.03,0.21,0.09,0.39,0.14,0.56c0.12,0.41,0.27,0.92,0.23,1.68
					c-0.05,0.85-0.32,1.45-0.5,1.84c-0.03,0.06-0.06,0.13-0.08,0.19c0.22,0.08,0.99,0.28,3.18,0.1c0.46-0.04,0.87,0.31,0.91,0.78
					c0.04,0.47-0.31,0.87-0.78,0.91C592.49,257.02,591.93,257.05,591.44,257.05z"/>
			</g>
		</g>
		<g>
			<g>
				<path class="st3" d="M601.71,247.78c-0.17,0-0.33-0.06-0.46-0.18c-2.38-2.18-6.22-1.98-6.26-1.98c-0.38,0.02-0.7-0.26-0.73-0.64
					c-0.02-0.38,0.26-0.7,0.64-0.73c0.18-0.01,4.46-0.25,7.27,2.34c0.28,0.26,0.3,0.69,0.04,0.97
					C602.09,247.71,601.9,247.78,601.71,247.78z"/>
			</g>
		</g>
		<g>
			<g>
				<path class="st3" d="M586.63,246.6c-0.05,1.13,0.41,2.08,1.04,2.11c0.63,0.03,1.19-0.87,1.24-2c0.05-1.13-0.41-2.08-1.04-2.11
					C587.24,244.57,586.69,245.46,586.63,246.6z"/>
			</g>
		</g>
		<g>
			<g>
				<path class="st3" d="M591.67,247.3c-0.17,0-0.33-0.06-0.46-0.18c-2.38-2.18-6.22-1.98-6.26-1.98c-0.38,0.02-0.7-0.26-0.73-0.64
					c-0.02-0.38,0.26-0.7,0.64-0.73c0.18-0.01,4.46-0.25,7.27,2.34c0.28,0.26,0.3,0.69,0.04,0.97
					C592.04,247.22,591.85,247.3,591.67,247.3z"/>
			</g>
		</g>
		<g>
			<g>
				<path class="st3" d="M610.07,235.14c-0.83-0.05-1.67,0.14-2.76,0.32c-4.67,0.77-7.66,2.48-9.31,3.21
					c-4.76,2.12-13.23,2.81-16.42-1.25c-2.73-3.48-1.4-10.18,2.51-14.07c3.74-3.72,9.48-4.61,13.85-2.54
					c2.6,1.23,4.1,3.22,4.83,4.35c3.18-0.45,5.69-0.05,7.31,0.35c4.25,1.06,10.46,4.24,10.72,8.56
					C620.82,234.5,620.9,235.82,610.07,235.14z"/>
			</g>
		</g>
		<g>
			<g>
				<path class="st3" d="M601.76,236.57c1.93,0.62,4.66,1.85,6.65,4.44c1.38,1.8,1.72,3.36,2.87,7c0.72,2.29,1.81,5.58,3.35,9.57
					c0,0,0.01-0.01,0.01-0.01c0.12-0.1,1.57-1.33,3.43-3.18c1.75-2.24,2.68-4.59,3.04-5.5c0.53-1.34,2.63-6.63,0.79-12.27
					c-0.47-1.45-1.16-2.78-2.01-3.98c-1.31-0.48-8.63-3.03-14.77,0.89C603.69,234.44,602.59,235.52,601.76,236.57z"/>
			</g>
		</g>
		<g>
			<g>
				<path class="st0" d="M610.89,246.62c0,0,4.26-3,6.02-1.54c1.76,1.46,3.32,7.03-2.29,9.5
					C609.02,257.06,610.89,246.62,610.89,246.62z"/>
			</g>
		</g>
		<g>
			<g>
				<path class="st3" d="M613.7,252.17c-0.29,0-0.57-0.19-0.66-0.49c-0.11-0.36,0.1-0.75,0.46-0.85c1.1-0.33,1.56-1.35,1.4-1.91
					c-0.09-0.3-0.39-0.59-0.78-0.77c-0.54-0.24-1.18-0.22-1.74,0.06c-0.34,0.17-0.75,0.03-0.92-0.31c-0.17-0.34-0.03-0.75,0.31-0.92
					c0.92-0.46,1.98-0.49,2.9-0.08c0.77,0.34,1.34,0.94,1.54,1.64c0.37,1.27-0.49,3.06-2.32,3.61
					C613.83,252.16,613.76,252.17,613.7,252.17z"/>
			</g>
		</g>
		<g>
			<g>
				<path class="st3" d="M606.91,239.72c0.08,1.19,0.14,2.42,0.18,3.68c0.07,2.41,0.03,4.71-0.07,6.87
					c0.57,0.08,1.82,0.54,2.31-0.28c0.53-0.88,3.99-10.24,3.99-10.24c0.01-0.28,0.04-2.24-1.08-2.92
					C611.01,236.09,608.46,236.96,606.91,239.72z"/>
			</g>
		</g>
		<g>
			<g>
				<path class="st3" d="M617.95,280.75c-0.43,0-0.79-0.32-0.84-0.76l-2.33-21.49c-0.05-0.46,0.29-0.88,0.75-0.93
					c0.45-0.05,0.88,0.29,0.93,0.75l2.33,21.49c0.05,0.46-0.29,0.88-0.75,0.93C618.01,280.75,617.98,280.75,617.95,280.75z"/>
			</g>
		</g>
		<g>
			<g>
				<path class="st0" d="M587.59,231.41c-0.94,0-2.04-0.15-2.72-1.03c-0.84-1.07-0.74-2.84,0.21-3.86c0.95-1.02,2.53-0.99,3.68-0.62
					c0.8,0.25,1.69,0.76,1.77,1.41c0.08,0.6-0.55,1.05-0.76,1.2c-0.17,0.12-0.42,0.08-0.55-0.09c-0.12-0.18-0.08-0.42,0.09-0.55
					c0.42-0.3,0.43-0.45,0.43-0.45c-0.02-0.12-0.4-0.51-1.25-0.77c-0.92-0.29-2.16-0.34-2.86,0.41c-0.68,0.73-0.75,2.08-0.16,2.84
					c0.64,0.82,1.92,0.75,2.85,0.71c2.98-0.15,5.35-1.94,6.82-3.41c0.15-0.15,0.4-0.15,0.55,0c0.15,0.15,0.15,0.4,0,0.55
					c-1.56,1.57-4.11,3.47-7.33,3.64C588.14,231.4,587.87,231.41,587.59,231.41z"/>
			</g>
		</g>
		<g>
			<g>
				<path class="st0" d="M618.14,238.09c-0.17,0-0.33-0.11-0.38-0.29c-2.88-10.41-11.69-9.14-12.06-9.08
					c-0.21,0.03-0.41-0.11-0.45-0.33c-0.03-0.21,0.11-0.41,0.32-0.45c0.1-0.02,9.87-1.46,12.94,9.64c0.06,0.21-0.06,0.42-0.27,0.48
					C618.21,238.09,618.18,238.09,618.14,238.09z"/>
			</g>
		</g>
		<g>
			<g>
				<path class="st3" d="M609.26,243.78c-0.2,0.62,0.13,1.28,0.75,1.48c0.62,0.2,1.28-0.13,1.48-0.75s-0.13-1.28-0.75-1.48
					C610.13,242.83,609.47,243.16,609.26,243.78z"/>
			</g>
		</g>
		<g>
			<g>
				<g>
					<path class="st3" d="M571.88,230.67c-0.12,0-0.25-0.03-0.37-0.09c-0.36-0.17-0.73-0.38-1.11-0.61
						c-0.81-0.49-1.57-1.06-2.28-1.7c-0.35-0.31-0.37-0.85-0.06-1.2c0.31-0.35,0.85-0.37,1.2-0.06c0.62,0.57,1.3,1.07,2.02,1.5
						c0.34,0.2,0.67,0.38,0.98,0.53c0.42,0.21,0.59,0.71,0.39,1.13C572.49,230.5,572.19,230.67,571.88,230.67z"/>
				</g>
			</g>
			<g>
				<g>
					<path class="st3" d="M571.21,237.46c-0.06,0-0.12,0-0.18,0c-0.94-0.01-1.89-0.12-2.82-0.31c-0.46-0.1-0.75-0.54-0.66-1
						c0.1-0.46,0.55-0.75,1-0.66c0.82,0.17,1.66,0.26,2.5,0.27c0.39,0.01,0.77-0.01,1.12-0.03c0.48-0.03,0.87,0.32,0.91,0.78
						c0.03,0.47-0.32,0.87-0.78,0.91C571.95,237.45,571.59,237.46,571.21,237.46z"/>
				</g>
			</g>
		</g>
		<g>
			<g>
				<path class="st3" d="M607.11,244.71c0,0-2.05,9.42-4.99,11.41c-2.95,2-7.21-1.4-12.32,0.18c-5.1,1.59-3.55,0.16-5.66-1.09
					c0,0-1.63,18.48,5.3,22.38c6.94,3.9,23.34-1.49,22.81-7.57c-0.54-6.08-2.15-24.33-2.15-24.33L607.11,244.71z"/>
			</g>
		</g>
		<g>
			<g>
				<path class="st0" d="M590.97,261.23c0.79-0.02,1.73-0.1,2.76-0.32c1.79-0.39,3.21-1.06,4.2-1.63c0.17,0.57,0.51,1.9-0.09,3.27
					c-0.57,1.32-2,2.68-5.26,3.33l-0.8-2.33c0,0,1.39-0.39,2.35-1.26c-0.15,0.05-0.3,0.1-0.46,0.15c-0.51,0.14-0.98,0.2-1.38,0.22
					C591.83,262.18,591.4,261.7,590.97,261.23z"/>
			</g>
		</g>
	</g>
	<g>
		<g>
			<path class="st0" d="M646.52,334.31c-0.49,0-0.92-0.36-0.99-0.86l-4.82-33.95c-0.08-0.55,0.3-1.05,0.85-1.13
				c0.55-0.08,1.05,0.3,1.13,0.85l4.82,33.95c0.08,0.55-0.3,1.05-0.85,1.13C646.61,334.31,646.56,334.31,646.52,334.31z"/>
		</g>
	</g>
	<g>
		<g>
			<g>
				<path class="st0" d="M581.75,292.16c0,0,1-10.21,0.6-19.24c-0.4-9.03,3.05-3.33,4.28,0.34c1.23,3.67,3.52,7.3,3.15,11.04
					S585.75,295.22,581.75,292.16z"/>
			</g>
		</g>
		<g>
			<g>
				<path class="st3" d="M583.73,293.8c-0.87,0-1.72-0.31-2.53-0.93c-0.25-0.19-0.38-0.49-0.35-0.8c0.01-0.1,0.99-10.25,0.59-19.11
					c-0.17-3.85,0.29-5.52,1.6-5.76c2.29-0.43,4.22,5.14,4.43,5.77c0.34,1.02,0.78,2.07,1.2,3.08c1.12,2.67,2.28,5.44,1.99,8.34
					c-0.28,2.87-2.36,7.76-5.38,9.07C584.77,293.69,584.25,293.8,583.73,293.8z M582.69,291.71c0.63,0.35,1.24,0.38,1.88,0.1
					c2.24-0.97,4.07-5.22,4.3-7.6c0.24-2.45-0.78-4.89-1.86-7.47c-0.44-1.04-0.89-2.12-1.25-3.2c-0.69-2.06-1.74-3.84-2.32-4.41
					c-0.13,0.41-0.31,1.42-0.2,3.74C583.59,280.69,582.89,289.47,582.69,291.71z"/>
			</g>
		</g>
	</g>
	<g>
		<g>
			<g>
				<path class="st0" d="M593.01,273.5c1.83-1.17,5.05-2.39,11.49-4.79c7.14-2.66,10.27-3.29,11.3-2.01
					c0.45,0.55,0.38,1.32,0.36,1.48c-0.17,1.26-1.73,2.3-4.58,3.6c-3.88,1.77-8.43,3.93-8.43,3.93s5.51,2.63,4.12,5.65
					c0.26,0.07,1.58,0.45,2.35,1.77c0.94,1.61,0.27,3.26,0.19,3.45c0.52,0.34,1.78,1.29,1.86,2.64c0.07,1.18-0.8,2.19-2.38,3.44
					c-3.32,2.62-6.89,4-11.23,5.37c-1.69,0.53-3.96,1.21-6.68,1.91c-3.59,1.27-7.36,0.51-9.54-1.91c-1.58-1.75-1.85-3.86-1.91-4.77
					C581.07,288.85,584.3,279.04,593.01,273.5z"/>
			</g>
		</g>
		<g>
			<g>
				<path class="st3" d="M587.9,301.44c-2.62,0-5.07-0.98-6.73-2.82c-1.6-1.78-2.05-3.87-2.14-5.32c-0.01-0.09,0-0.19,0.03-0.28
					c1.35-5.23,4.9-14.83,13.46-20.29v0c1.91-1.22,5.13-2.44,11.66-4.87c7.98-2.97,10.97-3.39,12.31-1.74
					c0.7,0.86,0.58,1.96,0.55,2.17c-0.24,1.75-2.13,2.94-5.09,4.29c-2.46,1.12-5.18,2.4-6.85,3.18c1.79,1.19,3.56,3,3.26,5.03
					c0.65,0.32,1.46,0.88,2.03,1.87c0.79,1.37,0.67,2.74,0.47,3.56c1.05,0.85,1.64,1.88,1.7,2.94c0.09,1.63-1.02,2.85-2.72,4.19
					c-3.32,2.62-6.87,4.06-11.52,5.52c-2.21,0.7-4.47,1.34-6.72,1.92C590.37,301.23,589.12,301.44,587.9,301.44z M580.84,293.33
					c0.09,1.15,0.46,2.75,1.67,4.08c1.95,2.16,5.31,2.81,8.57,1.66c2.29-0.59,4.53-1.23,6.71-1.92c4.45-1.4,7.84-2.77,10.95-5.22
					c1.49-1.17,2.08-1.95,2.04-2.68c-0.05-0.88-0.93-1.6-1.46-1.95c-0.36-0.24-0.5-0.7-0.33-1.1c0.06-0.14,0.57-1.42-0.14-2.64
					c-0.56-0.96-1.52-1.28-1.8-1.35c-0.26-0.07-0.47-0.25-0.58-0.49c-0.11-0.24-0.12-0.52,0-0.76c0.97-2.12-3.64-4.44-3.69-4.46
					c-0.31-0.15-0.51-0.47-0.51-0.81c0-0.35,0.2-0.66,0.51-0.81c0,0,4.55-2.16,8.44-3.93c1.82-0.83,3.92-1.91,4.06-2.9
					c0.02-0.11,0.03-0.54-0.17-0.79c-0.96-1.19-7.73,1.34-10.28,2.29c-6.41,2.39-9.57,3.59-11.32,4.7v0
					C585.53,279.33,582.16,288.32,580.84,293.33z M593.01,273.5L593.01,273.5L593.01,273.5z"/>
			</g>
		</g>
		<g>
			<g>
				<path class="st3" d="M604,282.9c-0.38,0-0.73-0.24-0.85-0.62c-0.16-0.47,0.1-0.98,0.57-1.14l3-1c0.47-0.16,0.98,0.1,1.14,0.57
					c0.16,0.47-0.1,0.98-0.57,1.14l-3,1C604.19,282.89,604.09,282.9,604,282.9z"/>
			</g>
		</g>
		<g>
			<g>
				<path class="st3" d="M607,287.9c-0.38,0-0.73-0.24-0.85-0.62c-0.16-0.47,0.1-0.98,0.57-1.14l3-1c0.47-0.16,0.98,0.1,1.14,0.57
					c0.16,0.47-0.1,0.98-0.57,1.14l-3,1C607.19,287.89,607.09,287.9,607,287.9z"/>
			</g>
		</g>
		<g>
			<g>
				<path class="st3" d="M601,276.9c-0.38,0-0.73-0.24-0.85-0.62c-0.16-0.47,0.1-0.98,0.57-1.14l3-1c0.47-0.16,0.98,0.1,1.14,0.57
					c0.16,0.47-0.1,0.98-0.57,1.14l-3,1C601.19,276.89,601.09,276.9,601,276.9z"/>
			</g>
		</g>
	</g>
	<g>
		<g>
			<path class="st0" d="M549.28,314.4c-0.24,0-0.48-0.09-0.68-0.26c-0.41-0.37-0.43-1.01-0.06-1.41
				c0.14-0.15,14.41-15.59,25.88-23.88c0.45-0.32,1.07-0.22,1.4,0.22c0.32,0.45,0.22,1.07-0.22,1.4
				c-11.3,8.17-25.43,23.46-25.58,23.62C549.82,314.29,549.55,314.4,549.28,314.4z"/>
		</g>
	</g>
	<g>
		<g>
			<path class="st0" d="M564.88,349.67c-0.34,0-0.68-0.18-0.86-0.49c-0.28-0.48-0.12-1.09,0.36-1.37
				c18.27-10.72,20.43-44.8,20.45-45.15c0.03-0.55,0.5-0.97,1.05-0.94c0.55,0.03,0.97,0.5,0.94,1.06
				c-0.08,1.44-2.23,35.5-21.43,46.76C565.23,349.62,565.05,349.67,564.88,349.67z"/>
		</g>
	</g>
	<g>
		<g>
			<path class="st0" d="M604.69,365.84c-5.4,0-10.82-0.41-16.18-1.23c-2.58-0.39-4.49-2.66-4.42-5.27l0.88-35.45
				c0.07-2.7,2.15-4.88,4.85-5.06h0c7.86-0.53,22.63-1.36,33.35-1.02c2.68,0.08,4.88,2.26,5.01,4.96l1.66,35.65
				c0.12,2.59-1.65,4.84-4.21,5.35c-4.67,0.93-9.44,1.56-14.19,1.86C609.19,365.77,606.94,365.84,604.69,365.84z M589.95,320.82
				c-1.66,0.11-2.94,1.45-2.99,3.12l-0.88,35.45c-0.04,1.61,1.13,3,2.72,3.25c7.45,1.13,15.02,1.47,22.5,0.99
				c4.66-0.3,9.34-0.91,13.92-1.83c1.58-0.32,2.67-1.7,2.6-3.29l-1.66-35.65c-0.08-1.66-1.43-3-3.08-3.05
				C612.09,319.46,596.25,320.4,589.95,320.82L589.95,320.82z"/>
		</g>
	</g>
	<g>
		<g>
			<g>
				<g>
					<path class="st4" d="M718.66,478.08l-37.01,0.33c-0.53,0-0.96-0.42-0.97-0.95l-0.2-22.2c-0.09-9.68,7.72-17.62,17.4-17.7
						l3.82-0.03c9.68-0.09,17.62,7.72,17.7,17.4l0.2,22.2C719.61,477.64,719.19,478.08,718.66,478.08z M682.59,476.48l35.09-0.31
						l-0.19-21.25c-0.08-8.62-7.15-15.57-15.77-15.5l-3.82,0.03c-8.62,0.08-15.57,7.15-15.5,15.77L682.59,476.48z"/>
				</g>
			</g>
		</g>
		<g>
			<g>
				<g>
					<g>
						<path class="st0" d="M736.56,557.95l-35.67,0.76l-0.05,0l-35.68-0.13c-2.41-0.01-4.31-1.97-4.18-4.29
							c0.24-3.96,0.47-7.92,0.7-11.88c0.1-1.75,0.2-3.51,0.3-5.26c0.02-0.31,0.04-0.62,0.05-0.93c0.05-0.88,0.11-1.74,0.16-2.62
							c0.03-0.48,0.06-0.95,0.09-1.43c0.93-16.01,1.88-32.03,2.82-48.03c0.36-6.21,0.72-12.43,1.09-18.64
							c0.13-2.15,1.98-3.84,4.22-3.83l29.6,0.11l29.59-0.63c2.24-0.05,4.12,1.61,4.28,3.76c0.48,6.2,0.95,12.41,1.42,18.61
							c1.22,15.99,2.45,31.98,3.67,47.98c0.04,0.48,0.07,0.95,0.11,1.43c0.07,0.87,0.14,1.74,0.2,2.62
							c0.02,0.31,0.05,0.62,0.07,0.93c0.13,1.75,0.27,3.51,0.4,5.26c0.3,3.95,0.6,7.91,0.91,11.86
							C740.83,555.91,738.96,557.9,736.56,557.95z"/>
					</g>
				</g>
			</g>
			<g>
				<g>
					<g>
						
							<rect x="666.29" y="464.2" transform="matrix(1 -8.804826e-03 8.804826e-03 1 -4.0683 6.1828)" class="st3" width="67.72" height="1.86"/>
					</g>
				</g>
			</g>
			<g>
				<g>
					<g>
						<path class="st3" d="M705.38,551.1c-17.31-6.32-25.27-15.65-28.9-22.37c-3.98-7.36-3.79-13.19-3.78-13.43l2.23,0.09
							l-1.12-0.05l1.12,0.04c0,0.05-0.15,5.56,3.59,12.41c3.46,6.34,11.06,15.16,27.63,21.21L705.38,551.1z"/>
					</g>
				</g>
			</g>
			<g>
				<g>
					<g>
						<path class="st3" d="M708.83,543.34c-10.09,0.09-17.27-2.46-21.95-5.07c-7.31-4.07-10.29-9.08-10.41-9.3l1.93-1.13
							c0.03,0.05,2.86,4.77,9.69,8.54c6.32,3.49,17.48,6.84,34.7,3.04l0.48,2.18C717.91,542.78,713.11,543.3,708.83,543.34z"/>
					</g>
				</g>
			</g>
			<g>
				<g>
					<g>
						<path class="st3" d="M700.91,559.72l-35.75-0.13c-1.45,0-2.85-0.61-3.83-1.65c-0.96-1.02-1.44-2.34-1.36-3.71
							c0.23-3.86,0.46-7.73,0.68-11.6l0.62-10.53c0.65-11.16,1.31-22.32,1.96-33.48l0.86-14.55c0.36-6.21,0.72-12.42,1.09-18.64
							c0.16-2.69,2.45-4.79,5.22-4.79c0,0,0.01,0,0.01,0l29.6,0.11l29.57-0.63c2.76-0.06,5.1,2,5.31,4.69
							c0.48,6.21,0.95,12.41,1.42,18.62l0.98,12.85c0.9,11.71,1.79,23.42,2.68,35.13l0.78,10.24c0.3,3.95,0.6,7.91,0.91,11.86
							c0.11,1.38-0.35,2.7-1.29,3.74c-0.96,1.06-2.34,1.68-3.79,1.71L700.91,559.72z M670.4,462.67c-1.69,0-3.1,1.27-3.19,2.88
							c-0.37,6.21-0.73,12.42-1.09,18.63l-0.86,14.55c-0.66,11.16-1.31,22.32-1.96,33.48l-0.62,10.53
							c-0.23,3.87-0.45,7.73-0.68,11.6c-0.05,0.82,0.24,1.6,0.81,2.21c0.6,0.64,1.46,1.01,2.36,1.01l35.68,0.13l35.69-0.76
							c0.9-0.02,1.75-0.4,2.34-1.05c0.56-0.62,0.83-1.41,0.77-2.22c-0.31-3.95-0.61-7.91-0.91-11.86l-0.78-10.23
							c-0.89-11.72-1.79-23.42-2.68-35.13l-0.98-12.85c-0.47-6.2-0.94-12.41-1.42-18.61c-0.13-1.62-1.58-2.83-3.25-2.83l-29.59,0.63
							L670.4,462.67C670.4,462.67,670.4,462.67,670.4,462.67z"/>
					</g>
				</g>
			</g>
		</g>
	</g>
	<g>
		<g>
			<g>
				<g>
					<path class="st4" d="M725.42,473.54l-36.53,5.92c-0.52,0.08-1.01-0.27-1.1-0.79l-3.55-21.92c-1.55-9.55,4.97-18.58,14.52-20.13
						l3.78-0.61c9.55-1.55,18.58,4.97,20.13,14.52l3.55,21.92C726.3,472.96,725.94,473.46,725.42,473.54z M689.52,477.41l34.64-5.61
						l-3.4-20.97c-1.38-8.51-9.42-14.31-17.93-12.93l-3.78,0.61c-8.51,1.38-14.31,9.42-12.93,17.93L689.52,477.41z"/>
				</g>
			</g>
		</g>
		<g>
			<g>
				<g>
					<g>
						<path class="st5" d="M755.18,549.79l-35.14,6.14l-0.05,0.01l-35.29,5.26c-2.38,0.36-4.56-1.29-4.78-3.61
							c-0.36-3.95-0.73-7.9-1.1-11.85c-0.17-1.75-0.33-3.5-0.49-5.25c-0.03-0.31-0.06-0.62-0.09-0.93
							c-0.08-0.87-0.16-1.74-0.24-2.61c-0.04-0.48-0.09-0.95-0.13-1.43c-1.5-15.97-2.98-31.94-4.47-47.91
							c-0.59-6.19-1.17-12.39-1.74-18.59c-0.2-2.15,1.37-4.1,3.59-4.43l29.27-4.36l29.16-5.1c2.21-0.38,4.31,0.97,4.8,3.07
							c1.41,6.06,2.81,12.12,4.21,18.19c3.63,15.62,7.26,31.24,10.88,46.87c0.11,0.47,0.22,0.93,0.33,1.4c0.2,0.85,0.4,1.7,0.6,2.55
							c0.07,0.31,0.14,0.61,0.21,0.91c0.4,1.71,0.79,3.43,1.19,5.14c0.89,3.86,1.79,7.73,2.69,11.59
							C759.1,547.12,757.55,549.37,755.18,549.79z"/>
					</g>
				</g>
			</g>
			<g>
				<g>
					<g>
						
							<rect x="671.31" y="462.61" transform="matrix(0.9871 -0.1598 0.1598 0.9871 -65.0291 118.6817)" class="st3" width="67.72" height="1.86"/>
					</g>
				</g>
			</g>
			<g>
				<g>
					<g>
						<path class="st3" d="M723.33,547.72c-18.06-3.63-27.34-11.65-31.95-17.75c-5.05-6.68-5.74-12.46-5.77-12.71l2.22-0.25
							l-1.11,0.12l1.11-0.13c0.01,0.05,0.69,5.52,5.42,11.73c4.38,5.74,13.23,13.32,30.52,16.79L723.33,547.72z"/>
					</g>
				</g>
			</g>
			<g>
				<g>
					<g>
						<path class="st3" d="M725.57,539.53c-9.96,1.61-17.44,0.18-22.47-1.69c-7.84-2.92-11.54-7.42-11.7-7.62l1.74-1.4
							c0.03,0.04,3.55,4.29,10.87,6.98c6.78,2.49,18.31,4.12,34.76-2.24l0.81,2.08C734.46,537.61,729.79,538.85,725.57,539.53z"/>
					</g>
				</g>
			</g>
		</g>
	</g>
	<g>
		<g>
			<g>
				<path class="st3" d="M696.2,425.76c-2.27,3.72-3.02,6.74-3.26,8.87c-0.18,1.51-0.01,1.77-0.29,3.55
					c-0.65,4.12-2.2,6.84-1.38,7.23c0.14,0.07,0.39,0.08,0.98-0.21c2.18-1.08,3.17-3.49,3.67-5.21
					C697.43,434.73,696.54,428,696.2,425.76z"/>
			</g>
		</g>
		<g>
			<g>
				<path class="st0" d="M706,447c-0.09,0.03-0.56,0.21-1,0c-1.79-0.86-0.49-6.96-0.5-6.96c-0.01,0-0.13,1.39-0.36,3.47
					c-0.15,1.31-0.26,2.19-0.34,2.84c-0.1,0.84-0.75,1.51-1.59,1.63c-0.07,0.01-0.14,0.02-0.22,0.02c-1.19,0.1-2.1-0.3-2.5-0.5
					c-0.25,0.16-0.78,0.46-1.5,0.5c-0.14,0.01-0.27,0.01-0.4,0c-0.93-0.07-1.62-0.91-1.59-1.84c0.02-0.91,0.06-1.93,0.12-3.02
					c0.07-1.31,0.15-2.46,0.21-3.27c0.02-0.23,0.04-0.43,0.05-0.61c-0.02,0.17-0.03,0.38-0.05,0.61c-0.16,1.79-0.42,5.07-0.55,7.53
					c-0.13,0.11-0.8,0.67-1.78,0.6c-0.81-0.06-1.41-0.76-1.34-1.57c0.33-3.86,0.86-10.05,0.86-10.05l2.92-14.65
					c3.18-0.24,6.35-0.49,9.52-0.73c1.72,5.23,2.15,9.47,2.2,12.45c0.02,1.14-0.11,3.24-0.42,7.44
					C707.48,444.39,707.23,446.53,706,447z"/>
			</g>
		</g>
	</g>
</g>
<g id="mobile">
	<g>
		<g>
			<g>
				<g>
					<path class="st0" d="M515.18,209.03v400.45c0,13.55-10.98,24.53-24.53,24.53H332.87c-13.55,0-24.53-10.98-24.53-24.53V209.03
						c0-13.55,10.98-24.53,24.53-24.53h157.79C504.2,184.5,515.18,195.48,515.18,209.03z"/>
				</g>
			</g>
			<g>
				<g>
					<path class="st3" d="M490.66,635.47H332.87c-14.33,0-25.99-11.66-25.99-25.99V209.03c0-14.33,11.66-25.99,25.99-25.99h157.79
						c14.33,0,25.99,11.66,25.99,25.99v400.45C516.65,623.81,504.99,635.47,490.66,635.47z M332.87,185.97
						c-12.71,0-23.06,10.34-23.06,23.06v400.45c0,12.71,10.34,23.06,23.06,23.06h157.79c12.71,0,23.06-10.34,23.06-23.06V209.03
						c0-12.71-10.34-23.06-23.06-23.06H332.87z"/>
				</g>
			</g>
			<g>
				<g>
					<path class="st3" d="M515.18,209.03v0.1H308.34v-0.1c0-13.55,10.98-24.53,24.53-24.53h157.79
						C504.2,184.5,515.18,195.48,515.18,209.03z"/>
				</g>
			</g>
			<g>
				<g>
					<path class="st3" d="M330.73,609.47V209.03c0-13.55,10.98-24.53,24.53-24.53h-22.39c-13.55,0-24.53,10.98-24.53,24.53v400.44
						c0,13.55,10.98,24.53,24.53,24.53h22.39C341.71,634,330.73,623.02,330.73,609.47z"/>
				</g>
			</g>
			<g>
				<g>
					<path class="st4" d="M316.4,318.36L316.4,318.36c-2.23,0-4.03-1.8-4.03-4.03v-58.2c0-2.23,1.8-4.03,4.03-4.03l0,0
						c2.23,0,4.03,1.8,4.03,4.03v58.2C320.43,316.56,318.63,318.36,316.4,318.36z"/>
				</g>
			</g>
		</g>
		<g>
			<g>
				<path class="st5" d="M467.59,222.65c-0.14,0.13-0.3,0.27-0.48,0.43c-2.71,2.34-9.72,7.64-20.06,8.37
					c-13.05,0.93-22.25-6.08-24.93-8.35c-0.22-0.19-0.38-0.33-0.51-0.45l-36.59-28.85l-9.32-7.35h44.75l2.66,2.04
					c2.3,1.77,4.61,3.54,6.91,5.3C442.55,203.42,455.07,213.04,467.59,222.65z"/>
			</g>
		</g>
		<g>
			<g>
				<path class="st2" d="M512.59,222.65c-0.25,0.22-0.64,0.56-1.13,0.96c-3.16,2.56-11.08,8-22.35,7.85
					c-11.54-0.17-19.36-6.1-22-8.37c-0.2-0.16-0.36-0.3-0.5-0.43l-36.59-28.85l-9.32-7.35h45.59L512.59,222.65z"/>
			</g>
		</g>
		<g>
			<g>
				<path class="st5" d="M543.94,221.26c1.08,0.78,1.22,2.33,0.3,3.29c-2.25,2.39-6.63,6.04-13.07,6.9
					c-10.11,1.34-17.33-5.28-19.71-7.85c-0.49-0.52-0.77-0.88-0.83-0.96l-46.3-36.19h31.85
					C512.11,198.06,528.02,209.66,543.94,221.26z"/>
			</g>
		</g>
		<g>
			<g>
				<path class="st2" d="M422.59,222.65c-0.15,0.14-0.3,0.29-0.47,0.45c-2.69,2.5-8.15,6.83-16.16,8.35
					c-15.81,3.02-27.81-7.42-29.35-8.8l-45.91-36.19h44.75l2.66,2.04c2.3,1.77,4.61,3.54,6.91,5.3
					C397.55,203.42,410.07,213.04,422.59,222.65z"/>
			</g>
		</g>
		<g>
			<g>
				<path class="st3" d="M543.89,223.66H376.61c-0.56,0-1.01-0.45-1.01-1.01c0-0.56,0.45-1.01,1.01-1.01h167.28
					c0.56,0,1.01,0.45,1.01,1.01C544.9,223.21,544.45,223.66,543.89,223.66z"/>
			</g>
		</g>
	</g>
	<g>
		<g>
			<path class="st4" d="M208.24,400.02c-1.06,0-2.12-0.38-2.97-1.15l-22.49-20.52c-0.92-0.84-1.44-2.03-1.44-3.28
				c0.01-1.25,0.54-2.43,1.47-3.27l22.49-20.09c1.82-1.62,4.6-1.47,6.23,0.35c1.62,1.82,1.46,4.6-0.35,6.23l-18.84,16.83
				l18.88,17.23c1.8,1.64,1.93,4.43,0.28,6.23C210.63,399.53,209.44,400.02,208.24,400.02z"/>
		</g>
	</g>
	<g>
		<g>
			<g>
				<rect x="227.54" y="288.08" class="st4" width="120" height="177"/>
			</g>
		</g>
		<g>
			<g>
				<g>
					<path class="st2" d="M296.44,318.8c-5.44-2.19-10.58-1.77-10.58-1.77s-5.58,0.46-11.12,4.12
						c-11.12,7.33-31.92,45.48-13.49,67.43c6.34,7.55,17.39,13.28,29.32,12.31c0.79-0.06,15.2-1.44,24.04-12.9
						C332.38,364.95,309.81,324.21,296.44,318.8z M287.54,367.47c-11.99,0-20.56-12.73-20.82-24.04
						c-0.26-11.54,8.1-24.41,19.72-24.95c12.15-0.56,22.06,12.64,21.91,24.95C308.22,354.77,299.52,367.47,287.54,367.47z"/>
				</g>
			</g>
			<g>
				<g>
					<path class="st3" d="M287.58,369.83c-8.35,0-16.05-4.82-19.86-12.53c-0.21-0.43-0.04-0.94,0.39-1.15
						c0.43-0.21,0.94-0.04,1.15,0.39c3.68,7.46,11.31,11.98,19.41,11.54c7.3-0.4,13.87-4.82,17.16-11.54
						c0.21-0.43,0.72-0.6,1.15-0.4c0.43,0.21,0.6,0.72,0.39,1.15c-3.56,7.28-10.69,12.07-18.61,12.5
						C288.38,369.82,287.98,369.83,287.58,369.83z"/>
				</g>
			</g>
			<g>
				<g>
					<path class="st3" d="M280.52,397.94c-0.06,0-0.11,0-0.17-0.02c-4.03-0.79-14.05-3.62-19.91-12.69
						c-3.1-4.8-3.92-9.64-4.23-11.46c-0.91-5.34-0.49-10.96,1.2-16.24c0.15-0.45,0.62-0.7,1.08-0.56c0.45,0.15,0.7,0.63,0.56,1.08
						c-1.61,5.02-2.01,10.35-1.14,15.42c0.29,1.73,1.07,6.32,3.98,10.82c5.5,8.52,14.97,11.18,18.79,11.94
						c0.47,0.09,0.77,0.54,0.68,1.01C281.28,397.66,280.92,397.94,280.52,397.94z"/>
				</g>
			</g>
			<g>
				<g>
					<path class="st3" d="M307.94,357.73c-1.08,0.42-1.95-0.92-1.15-1.76c0.74-0.79,1.61-1.47,2.47-1.69c2.35-0.59,2.93,1.76,0,2.93
						C308.78,357.4,308.34,357.57,307.94,357.73z"/>
				</g>
			</g>
			<g>
				<g>
					<path class="st3" d="M264.07,350.25c-2.12,0-4.81-0.46-6.89-2.37l0.79-0.86c3.45,3.17,9.17,1.72,9.23,1.7l0.3,1.13
						C267.38,349.89,265.95,350.25,264.07,350.25z"/>
				</g>
			</g>
			<g>
				<g>
					<path class="st3" d="M309.19,350.38c-1.02,0-1.61-0.13-1.68-0.15l0.27-1.14c0.04,0.01,3.8,0.83,9.38-2.15l0.55,1.03
						C313.93,349.99,310.93,350.38,309.19,350.38z"/>
				</g>
			</g>
		</g>
		<g>
			<g>
				<path class="st3" d="M347.54,296.01h-120c-0.56,0-1.01-0.45-1.01-1.01s0.45-1.01,1.01-1.01h120c0.56,0,1.01,0.45,1.01,1.01
					S348.1,296.01,347.54,296.01z"/>
			</g>
		</g>
		<g>
			<g>
				<path class="st5" d="M302.54,443h-30c-6.33,0-11.5-5.17-11.5-11.5l0,0c0-6.33,5.17-11.5,11.5-11.5h30
					c6.32,0,11.5,5.17,11.5,11.5l0,0C314.04,437.83,308.87,443,302.54,443z"/>
			</g>
		</g>
	</g>
	<g>
		<g>
			<path class="st0" d="M298.04,432h-21c-0.55,0-1-0.45-1-1s0.45-1,1-1h21c0.55,0,1,0.45,1,1S298.6,432,298.04,432z"/>
		</g>
	</g>
	<g>
		<g>
			<g>
				<rect x="369.17" y="288.08" class="st4" width="120" height="177"/>
			</g>
		</g>
		<g>
			<g>
				<path class="st3" d="M489.17,295.91h-120c-0.56,0-1.01-0.45-1.01-1.01c0-0.56,0.45-1.01,1.01-1.01h120
					c0.56,0,1.01,0.45,1.01,1.01C490.18,295.46,489.73,295.91,489.17,295.91z"/>
			</g>
		</g>
		<g>
			<g>
				<g>
					<path class="st5" d="M444.17,443h-30c-6.32,0-11.5-5.17-11.5-11.5l0,0c0-6.33,5.18-11.5,11.5-11.5h30
						c6.32,0,11.5,5.17,11.5,11.5l0,0C455.67,437.83,450.5,443,444.17,443z"/>
				</g>
			</g>
			<g>
				<g>
					<path class="st0" d="M439.67,432h-21c-0.55,0-1-0.45-1-1s0.45-1,1-1h21c0.55,0,1,0.45,1,1S440.23,432,439.67,432z"/>
				</g>
			</g>
		</g>
		<g>
			<g>
				<g>
					<path class="st3" d="M470.99,390.5c-0.24,0.55-0.7,0.99-1.3,1.2c-2.22,0.78-5.25,1.36-8.89,1.8c-1.92,0.23-4,0.42-6.2,0.58
						c-9,0.61-20.07,0.62-30.65,0.37c-12.5-0.3-24.13-0.61-34.77-1.56c-0.79-0.07-1.43-0.56-1.77-1.2c0.24-0.98,0.45-1.96,0.68-2.95
						c0.56-2.55,2.22-7.76,4-18.78c0.52-3.27,0.99-7.66,0.88-13.07c-0.01-1.42-0.08-2.9-0.2-4.45c-0.05-0.58-0.08-1.17-0.14-1.77
						c0.06,0,0.12-0.01,0.18-0.01c7.08-0.51,14.49-0.82,22.2-0.82c2.17-0.01,4.32,0.01,6.44,0.06c1.19,13.33,7.02,19.17,9.55,21.28
						c1.8,1.51,4.44,3.39,18.24,7.06c0.33,0.08,0.68,0.18,1.04,0.26c2.49,0.66,5.13,1.34,7.91,2.03c2.48,0.6,5.09,1.2,7.8,1.84
						c0.78,0.17,1.57,0.35,2.37,0.54c0.89,0.2,1.6,0.93,1.74,1.84l0.46,3.02L470.99,390.5z"/>
				</g>
			</g>
			<g>
				<g>
					<path class="st0" d="M470.56,387.76l0.6,3.85c0.17,1.08-0.45,2.11-1.47,2.48c-2.22,0.77-5.25,1.36-8.88,1.79
						c-1.92,0.23-4,0.42-6.21,0.58c-9,0.61-20.07,0.62-30.65,0.37c-12.5-0.3-24.13-0.61-34.77-1.56c-1.35-0.13-2.27-1.42-1.96-2.74
						c0.3-1.26,0.59-2.52,0.87-3.79c11.49,0.64,43.16,2.1,67.42,0.56c2.39-0.15,4.71-0.33,6.93-0.54
						C465.33,388.49,468.06,388.16,470.56,387.76z"/>
				</g>
			</g>
			<g>
				<g>
					<path class="st3" d="M421.44,349.9c1.2,13.34,7.03,19.17,9.56,21.28c1.8,1.51,4.44,3.39,18.24,7.06
						c-1.87,0.42-8.38-0.31-14.39-2.88c-10.73-4.6-15.53-13.22-17.01-15.97c-2.28-4.28-2.85-7.46-2.83-9.55
						c1.16-3.54,2.73-6.05,3.95-7.67c1.51-2,1.95-1.96,2.09-1.92C422.18,340.55,421.93,345.34,421.44,349.9z"/>
				</g>
			</g>
			<g>
				<g>
					
						<ellipse transform="matrix(0.9981 -0.0613 0.0613 0.9981 -21.7639 25.5096)" class="st0" cx="404.65" cy="367.27" rx="6.98" ry="6.98"/>
				</g>
			</g>
			<g>
				<g>
					<path class="st0" d="M468.35,382.9c0.9,0.21,1.6,0.93,1.74,1.84l0.47,3.02l0.6,3.85c0.17,1.08-0.45,2.11-1.47,2.48
						c-2.22,0.77-5.25,1.36-8.88,1.79c-1.92,0.23-4,0.42-6.21,0.58c0.11-2.01,0.37-4.46,0.92-7.16c0.55-2.74,1.4-5.74,2.66-8.79
						c2.48,0.61,5.09,1.22,7.8,1.84C466.75,382.54,467.55,382.72,468.35,382.9z"/>
				</g>
			</g>
			<g>
				<g>
					<path class="st0" d="M439.87,381.16c-0.34,0-0.67-0.07-0.99-0.22c-0.68-0.32-1.17-0.95-1.3-1.69l-0.78-4.37l-7.22,0.3
						c-0.67,0.03-1.3-0.23-1.76-0.7c-0.46-0.47-0.7-1.12-0.66-1.77l0.26-3.94l-4.12-0.14c-0.79-0.03-1.5-0.44-1.91-1.12
						c-0.41-0.67-0.45-1.5-0.11-2.21l1.9-3.97l-4.32-2.48c-0.71-0.4-1.14-1.13-1.17-1.95c-0.02-0.81,0.37-1.57,1.05-2.01l3.8-2.48
						c0.28-0.18,0.65-0.1,0.83,0.17c0.18,0.28,0.1,0.64-0.17,0.83l-3.8,2.48c-0.33,0.22-0.52,0.58-0.51,0.98
						c0.01,0.4,0.22,0.75,0.57,0.95l4.8,2.75c0.27,0.16,0.38,0.49,0.24,0.77l-2.14,4.47c-0.17,0.35-0.15,0.74,0.05,1.07
						c0.2,0.33,0.54,0.53,0.93,0.54l4.73,0.16c0.16,0.01,0.31,0.08,0.42,0.2s0.16,0.28,0.15,0.44l-0.3,4.55
						c-0.02,0.32,0.09,0.63,0.32,0.86c0.23,0.23,0.53,0.35,0.85,0.34l7.74-0.32c0.31-0.01,0.56,0.2,0.61,0.49l0.87,4.88
						c0.07,0.37,0.3,0.67,0.63,0.82c0.34,0.16,0.72,0.14,1.04-0.04l5.25-2.99c0.29-0.16,0.65-0.06,0.81,0.22
						c0.16,0.29,0.06,0.65-0.22,0.81l-5.25,2.99C440.66,381.05,440.26,381.16,439.87,381.16z"/>
				</g>
			</g>
			<g>
				<g>
					<path class="st0" d="M421.64,352.3c-0.19,0-0.37-0.09-0.48-0.25c-0.11-0.16-0.14-0.36-0.08-0.55
						c0.24-0.7,6.08-17.07,13.7-14.53c1.96,0.65,2.88,2.03,2.59,3.87c-0.69,4.53-9.09,11.34-15.72,11.45
						C421.65,352.3,421.64,352.3,421.64,352.3z M433.15,337.9c-5.1,0-9.44,10.11-10.63,13.15c5.89-0.66,13.08-6.55,13.66-10.38
						c0.19-1.26-0.39-2.09-1.79-2.56C433.98,337.96,433.56,337.9,433.15,337.9z"/>
				</g>
			</g>
			<g>
				<g>
					<path class="st0" d="M433.66,356.15c-4.15,0-8.81-1.12-11.68-3.48c-0.15-0.12-0.23-0.31-0.22-0.51
						c0.02-0.19,0.12-0.37,0.29-0.47c0.64-0.37,15.7-9.06,19.85-2.17c1.06,1.76,0.87,3.41-0.54,4.63
						C439.85,355.47,436.91,356.15,433.66,356.15z M423.46,352.29c4.9,3.32,14.2,3.5,17.13,0.96c0.96-0.83,1.06-1.85,0.3-3.11
						C437.82,345.06,426.56,350.62,423.46,352.29z"/>
				</g>
			</g>
		</g>
	</g>
	<g>
		<g>
			<path class="st4" d="M485,520H360c-6.6,0-12-5.4-12-12v-1c0-6.6,5.4-12,12-12h125c6.6,0,12,5.4,12,12v1
				C497,514.6,491.6,520,485,520z"/>
		</g>
	</g>
	<g>
		<g>
			<path class="st4" d="M492,548H353c-2.75,0-5-2.25-5-5l0,0c0-2.75,2.25-5,5-5h139c2.75,0,5,2.25,5,5l0,0
				C497,545.75,494.75,548,492,548z"/>
		</g>
	</g>
</g>
</svg>
