<?xml version="1.0" encoding="utf-8"?>
<!-- Generator: Adobe Illustrator 15.0.2, SVG Export Plug-In . SVG Version: 6.00 Build 0)  -->
<!DOCTYPE svg PUBLIC "-//W3C//DTD SVG 1.1//EN" "http://www.w3.org/Graphics/SVG/1.1/DTD/svg11.dtd">
<svg version="1.1" id="Layer_1" xmlns="http://www.w3.org/2000/svg" xmlns:xlink="http://www.w3.org/1999/xlink" x="0px" y="0px"
	 width="1159px" height="771px" viewBox="0 0 1159 771" style="enable-background:new 0 0 1159 771;" xml:space="preserve">
<style type="text/css">
<![CDATA[
	.st0{filter:url(#Adobe_OpacityMaskFilter);}
	.st1{fill:#1F1271;}
	.st2{enable-background:new    ;}
	.st3{opacity:0.65;fill:url(#SVGID_1_);}
	.st4{mask:url(#SVGID_22_);fill:url(#SVGID_24_);}
	.st5{filter:url(#Adobe_OpacityMaskFilter_10_);}
	.st6{fill:#5751CF;}
	.st7{mask:url(#SVGID_28_);fill:url(#SVGID_30_);}
	.st8{fill:#BBC1E4;}
	.st9{mask:url(#SVGID_2_);fill:url(#SVGID_4_);}
	.st10{fill:#BCECFD;}
	.st11{fill:#272525;}
	.st12{fill:#F7F5FA;}
	.st13{fill:#F93904;}
	.st14{fill:url(#SVGID_3_);}
	.st15{fill:url(#SVGID_6_);}
	.st16{fill:url(#SVGID_8_);}
	.st17{fill:url(#SVGID_9_);}
	.st18{mask:url(#SVGID_38_);fill:url(#SVGID_40_);}
	.st19{fill:#FA7900;}
	.st20{fill:#FCAE00;}
	.st21{fill:#FDD3CC;}
	.st22{fill:#FFFFFF;}
	.st23{fill:#CCD4F5;}
	.st24{fill:#382999;}
	.st25{fill:#6F67EC;}
	.st26{mask:url(#SVGID_10_);fill:url(#SVGID_12_);}
	.st27{mask:url(#SVGID_5_);fill:url(#SVGID_7_);}
	.st28{mask:url(#SVGID_13_);fill:url(#SVGID_15_);}
	.st29{mask:url(#SVGID_16_);fill:url(#SVGID_18_);}
	.st30{mask:url(#SVGID_31_);fill:url(#SVGID_33_);}
	.st31{mask:url(#SVGID_19_);fill:url(#SVGID_21_);}
	.st32{fill:url(#SVGID_11_);}
	.st33{fill:url(#SVGID_14_);}
	.st34{fill:url(#SVGID_17_);}
	.st35{fill:url(#SVGID_20_);}
	.st36{fill:url(#SVGID_23_);}
	.st37{fill:url(#SVGID_25_);}
	.st38{fill:url(#SVGID_26_);}
	.st39{fill:url(#SVGID_27_);}
	.st40{fill:url(#SVGID_29_);}
	.st41{fill:url(#SVGID_32_);}
	.st42{fill:url(#SVGID_34_);}
	.st43{fill:url(#SVGID_35_);}
	.st44{fill:url(#SVGID_36_);}
	.st45{fill:url(#SVGID_37_);}
	.st46{fill:url(#SVGID_39_);}
	.st47{fill:url(#SVGID_42_);}
	.st48{fill:#423CB1;}
	.st49{filter:url(#Adobe_OpacityMaskFilter_1_);}
	.st50{filter:url(#Adobe_OpacityMaskFilter_2_);}
	.st51{filter:url(#Adobe_OpacityMaskFilter_3_);}
	.st52{filter:url(#Adobe_OpacityMaskFilter_4_);}
	.st53{filter:url(#Adobe_OpacityMaskFilter_5_);}
	.st54{filter:url(#Adobe_OpacityMaskFilter_6_);}
	.st55{filter:url(#Adobe_OpacityMaskFilter_7_);}
	.st56{filter:url(#Adobe_OpacityMaskFilter_8_);}
	.st57{filter:url(#Adobe_OpacityMaskFilter_9_);}
	.st58{mask:url(#SVGID_41_);fill:url(#SVGID_43_);}
]]>
</style>
<rect class="st22" width="1159" height="771"/>
<g>
	<path class="st48" d="M551.6,686.3c-0.8-0.3-2.1-0.7-4.1-1c-1.2-0.2-2.1-0.4-2.6-0.6s-1.1-0.4-1.5-0.7s-0.8-0.7-1.1-1.2
		s-0.4-1-0.4-1.6c0-1.1,0.5-2.1,1.4-3s2.3-1.3,3.9-1.3c1.5,0,2.8,0.4,3.8,1.2s1.5,1.7,1.5,2.7c0,0.3,0.1,0.5,0.2,0.7
		s0.3,0.2,0.5,0.2c0.2,0,0.4-0.1,0.5-0.2s0.2-0.4,0.2-0.8V677c0-0.4-0.1-0.6-0.2-0.8s-0.3-0.2-0.5-0.2s-0.4,0.1-0.5,0.2
		s-0.2,0.4-0.2,0.8v0.5c-1.5-1.3-3.3-2-5.3-2c-2,0-3.7,0.6-4.9,1.7s-1.9,2.4-1.9,4c0,1.6,0.5,2.8,1.6,3.6s2.8,1.5,5.3,1.9
		c1.8,0.3,3,0.6,3.5,0.8c0.8,0.4,1.4,0.8,1.8,1.4s0.6,1.3,0.6,2.1c0,1.3-0.5,2.4-1.6,3.3s-2.5,1.4-4.4,1.4s-3.3-0.4-4.4-1.3
		s-1.7-1.9-1.7-2.9c0-0.3-0.1-0.5-0.2-0.7s-0.3-0.2-0.5-0.2c-0.2,0-0.4,0.1-0.5,0.2s-0.2,0.4-0.2,0.8v4.1c0,0.4,0.1,0.6,0.2,0.8
		s0.3,0.2,0.5,0.2c0.2,0,0.4-0.1,0.5-0.2s0.2-0.4,0.2-0.8v-0.8c1.5,1.6,3.6,2.4,6.2,2.4c2.3,0,4.1-0.6,5.4-1.8s2-2.6,2-4.3
		c0-1.1-0.3-2.1-0.8-2.9S552.6,686.8,551.6,686.3z"/>
	<path class="st48" d="M585.5,695.1h-1.2v-17.6h0.9c0.4,0,0.6-0.1,0.8-0.2s0.2-0.3,0.2-0.5s-0.1-0.4-0.2-0.5s-0.4-0.2-0.8-0.2h-3.6
		l-5.5,12.7l-5.6-12.7h-3.6c-0.4,0-0.6,0.1-0.8,0.2s-0.2,0.3-0.2,0.5s0.1,0.4,0.2,0.5s0.4,0.2,0.8,0.2h0.9v17.6h-1.2
		c-0.4,0-0.6,0.1-0.8,0.2s-0.2,0.3-0.2,0.5c0,0.2,0.1,0.4,0.2,0.5s0.4,0.2,0.8,0.2h5.4c0.4,0,0.6-0.1,0.8-0.2s0.2-0.3,0.2-0.5
		c0-0.2-0.1-0.4-0.2-0.5s-0.4-0.2-0.8-0.2h-2.7v-17.6h0.3l5.7,12.9h1.7l5.6-12.9h0.3v17.6H580c-0.4,0-0.6,0.1-0.8,0.2
		s-0.2,0.3-0.2,0.5c0,0.2,0.1,0.4,0.2,0.5s0.4,0.2,0.8,0.2h5.4c0.4,0,0.6-0.1,0.8-0.2s0.2-0.3,0.2-0.5c0-0.2-0.1-0.4-0.2-0.5
		S585.8,695.1,585.5,695.1z"/>
	<path class="st48" d="M614.3,695.1H613v-17.6h0.9c0.4,0,0.6-0.1,0.8-0.2s0.2-0.3,0.2-0.5s-0.1-0.4-0.2-0.5s-0.4-0.2-0.8-0.2h-3.6
		l-5.5,12.7l-5.6-12.7h-3.6c-0.4,0-0.6,0.1-0.8,0.2s-0.2,0.3-0.2,0.5s0.1,0.4,0.2,0.5s0.4,0.2,0.8,0.2h0.9v17.6h-1.2
		c-0.4,0-0.6,0.1-0.8,0.2s-0.2,0.3-0.2,0.5c0,0.2,0.1,0.4,0.2,0.5s0.4,0.2,0.8,0.2h5.4c0.4,0,0.6-0.1,0.8-0.2s0.2-0.3,0.2-0.5
		c0-0.2-0.1-0.4-0.2-0.5s-0.4-0.2-0.8-0.2H598v-17.6h0.3l5.7,12.9h1.7l5.6-12.9h0.3v17.6h-2.7c-0.4,0-0.6,0.1-0.8,0.2
		s-0.2,0.3-0.2,0.5c0,0.2,0.1,0.4,0.2,0.5s0.4,0.2,0.8,0.2h5.4c0.4,0,0.6-0.1,0.8-0.2s0.2-0.3,0.2-0.5c0-0.2-0.1-0.4-0.2-0.5
		S614.6,695.1,614.3,695.1z"/>
</g>
<g>
	<linearGradient id="SVGID_1_" gradientUnits="userSpaceOnUse" x1="265.5244" y1="569.6094" x2="1104.7623" y2="318.7038">
		<stop  offset="0" style="stop-color:#FFFFFF"/>
		<stop  offset="0.2012" style="stop-color:#DDDBFB"/>
		<stop  offset="0.5789" style="stop-color:#A29DF3"/>
		<stop  offset="0.8557" style="stop-color:#7D76EE"/>
		<stop  offset="1" style="stop-color:#6F67EC"/>
	</linearGradient>
	<path class="st3" d="M884.6,397.2c-129.1-62.4-109-90.9-186.3-115.1c-163.8-51.4-477.7,6.4-526.7,110.4
		c-30.4,64.4,48.5,130.8,106.6,161.9c11.5,6.2,191.9,69.7,320.9,67.3c116.6-2.2-103.9-104,8.1-101.9
		c103.2,2,187.5,170.9,336.1,101.1c60.1-28.3,80-54,77-89.7C1017.1,493.5,1004,454.8,884.6,397.2z"/>
	<g>
		<g>
			<path class="st25" d="M408.6,527.7c-2.3-1.3-6.1-1.3-8.5,0c-2.3,1.3-2.3,3.5,0,4.9c2.3,1.3,6.1,1.3,8.5,0
				C410.9,531.2,410.9,529,408.6,527.7z"/>
			<path class="st25" d="M382.5,512.6c-2.3-1.3-6.1-1.3-8.5,0s-2.3,3.5,0,4.9c2.3,1.3,6.1,1.3,8.5,0S384.9,514,382.5,512.6z"/>
			<path class="st25" d="M356.5,497.6c-2.3-1.3-6.1-1.3-8.5,0s-2.3,3.5,0,4.9s6.1,1.3,8.5,0S358.8,498.9,356.5,497.6z"/>
			<path class="st25" d="M330.5,482.6c-2.3-1.3-6.1-1.3-8.5,0s-2.3,3.5,0,4.9s6.1,1.3,8.5,0S332.8,483.9,330.5,482.6z"/>
			<path class="st25" d="M304.4,467.5c-2.3-1.3-6.1-1.3-8.5,0c-2.3,1.3-2.3,3.5,0,4.9c2.3,1.3,6.1,1.3,8.5,0
				C306.8,471.1,306.8,468.9,304.4,467.5z"/>
			<path class="st25" d="M278.4,452.5c-2.3-1.3-6.1-1.3-8.5,0c-2.3,1.3-2.3,3.5,0,4.9c2.3,1.3,6.1,1.3,8.5,0
				C280.8,456,280.8,453.9,278.4,452.5z"/>
			<path class="st25" d="M252.4,437.5c-2.3-1.3-6.1-1.3-8.5,0c-2.3,1.3-2.3,3.5,0,4.9c2.3,1.3,6.1,1.3,8.5,0
				S254.7,438.8,252.4,437.5z"/>
			<path class="st25" d="M226.4,422.5c-2.3-1.3-6.1-1.3-8.5,0s-2.3,3.5,0,4.9s6.1,1.3,8.5,0S228.7,423.8,226.4,422.5z"/>
			<path class="st25" d="M431.2,514.6c-2.3-1.3-6.1-1.3-8.5,0s-2.3,3.5,0,4.9s6.1,1.3,8.5,0C433.5,518.1,433.5,515.9,431.2,514.6z"
				/>
			<path class="st25" d="M405.2,499.6c-2.3-1.3-6.1-1.3-8.5,0c-2.3,1.3-2.3,3.5,0,4.9c2.3,1.3,6.1,1.3,8.5,0
				C407.5,503.1,407.5,500.9,405.2,499.6z"/>
			<path class="st25" d="M379.1,484.5c-2.3-1.3-6.1-1.3-8.5,0c-2.3,1.3-2.3,3.5,0,4.9c2.3,1.3,6.1,1.3,8.5,0
				C381.5,488.1,381.5,485.9,379.1,484.5z"/>
			<path class="st25" d="M353.1,469.5c-2.3-1.3-6.1-1.3-8.5,0c-2.3,1.3-2.3,3.5,0,4.9c2.3,1.3,6.1,1.3,8.5,0
				C355.5,473,355.5,470.8,353.1,469.5z"/>
			<path class="st25" d="M327.1,454.5c-2.3-1.3-6.1-1.3-8.5,0c-2.3,1.3-2.3,3.5,0,4.9c2.3,1.3,6.1,1.3,8.5,0
				C329.4,458,329.4,455.8,327.1,454.5z"/>
			<path class="st25" d="M301.1,439.4c-2.3-1.3-6.1-1.3-8.5,0s-2.3,3.5,0,4.9s6.1,1.3,8.5,0S303.4,440.8,301.1,439.4z"/>
			<path class="st25" d="M275,424.4c-2.3-1.3-6.1-1.3-8.5,0c-2.3,1.3-2.3,3.5,0,4.9c2.3,1.3,6.1,1.3,8.5,0
				C277.4,427.9,277.4,425.8,275,424.4z"/>
			<path class="st25" d="M249,409.4c-2.3-1.3-6.1-1.3-8.5,0c-2.3,1.3-2.3,3.5,0,4.9c2.3,1.3,6.1,1.3,8.5,0
				C251.3,412.9,251.3,410.7,249,409.4z"/>
			<path class="st25" d="M453.8,501.5c-2.3-1.3-6.1-1.3-8.5,0c-2.3,1.3-2.3,3.5,0,4.9c2.3,1.3,6.1,1.3,8.5,0
				C456.2,505,456.2,502.9,453.8,501.5z"/>
			<path class="st25" d="M427.8,486.5c-2.3-1.3-6.1-1.3-8.5,0s-2.3,3.5,0,4.9s6.1,1.3,8.5,0S430.2,487.8,427.8,486.5z"/>
			<path class="st25" d="M401.8,471.5c-2.3-1.3-6.1-1.3-8.5,0s-2.3,3.5,0,4.9s6.1,1.3,8.5,0C404.1,475,404.1,472.8,401.8,471.5z"/>
			<path class="st25" d="M375.8,456.4c-2.3-1.3-6.1-1.3-8.5,0c-2.3,1.3-2.3,3.5,0,4.9c2.3,1.3,6.1,1.3,8.5,0
				C378.1,460,378.1,457.8,375.8,456.4z"/>
			<path class="st25" d="M349.7,441.4c-2.3-1.3-6.1-1.3-8.5,0c-2.3,1.3-2.3,3.5,0,4.9c2.3,1.3,6.1,1.3,8.5,0
				C352.1,444.9,352.1,442.7,349.7,441.4z"/>
			<path class="st25" d="M323.7,426.4c-2.3-1.3-6.1-1.3-8.5,0c-2.3,1.3-2.3,3.5,0,4.9c2.3,1.3,6.1,1.3,8.5,0
				C326,429.9,326,427.7,323.7,426.4z"/>
			<path class="st25" d="M297.7,411.3c-2.3-1.3-6.1-1.3-8.5,0s-2.3,3.5,0,4.9s6.1,1.3,8.5,0S300,412.7,297.7,411.3z"/>
			<path class="st25" d="M271.6,396.3c-2.3-1.3-6.1-1.3-8.5,0s-2.3,3.5,0,4.9s6.1,1.3,8.5,0S274,397.7,271.6,396.3z"/>
			<path class="st25" d="M476.5,488.4c-2.3-1.3-6.1-1.3-8.5,0c-2.3,1.3-2.3,3.5,0,4.9c2.3,1.3,6.1,1.3,8.5,0
				C478.8,492,478.8,489.8,476.5,488.4z"/>
			<path class="st25" d="M450.5,473.4c-2.3-1.3-6.1-1.3-8.5,0c-2.3,1.3-2.3,3.5,0,4.9c2.3,1.3,6.1,1.3,8.5,0
				C452.8,476.9,452.8,474.8,450.5,473.4z"/>
			<path class="st25" d="M424.4,458.4c-2.3-1.3-6.1-1.3-8.5,0c-2.3,1.3-2.3,3.5,0,4.9c2.3,1.3,6.1,1.3,8.5,0
				S426.8,459.7,424.4,458.4z"/>
			<path class="st25" d="M398.4,443.4c-2.3-1.3-6.1-1.3-8.5,0s-2.3,3.5,0,4.9s6.1,1.3,8.5,0S400.7,444.7,398.4,443.4z"/>
			<path class="st25" d="M372.4,428.3c-2.3-1.3-6.1-1.3-8.5,0s-2.3,3.5,0,4.9s6.1,1.3,8.5,0S374.7,429.7,372.4,428.3z"/>
			<path class="st25" d="M346.3,413.3c-2.3-1.3-6.1-1.3-8.5,0c-2.3,1.3-2.3,3.5,0,4.9c2.3,1.3,6.1,1.3,8.5,0
				C348.7,416.8,348.7,414.6,346.3,413.3z"/>
			<path class="st25" d="M320.3,398.3c-2.3-1.3-6.1-1.3-8.5,0c-2.3,1.3-2.3,3.5,0,4.9c2.3,1.3,6.1,1.3,8.5,0
				C322.6,401.8,322.6,399.6,320.3,398.3z"/>
			<path class="st25" d="M294.3,383.2c-2.3-1.3-6.1-1.3-8.5,0c-2.3,1.3-2.3,3.5,0,4.9c2.3,1.3,6.1,1.3,8.5,0
				C296.6,386.8,296.6,384.6,294.3,383.2z"/>
			<path class="st25" d="M499.1,475.4c-2.3-1.3-6.1-1.3-8.5,0s-2.3,3.5,0,4.9s6.1,1.3,8.5,0C501.5,478.9,501.5,476.7,499.1,475.4z"
				/>
			<path class="st25" d="M473.1,460.3c-2.3-1.3-6.1-1.3-8.5,0c-2.3,1.3-2.3,3.5,0,4.9c2.3,1.3,6.1,1.3,8.5,0
				C475.4,463.9,475.4,461.7,473.1,460.3z"/>
			<path class="st25" d="M447.1,445.3c-2.3-1.3-6.1-1.3-8.5,0c-2.3,1.3-2.3,3.5,0,4.9c2.3,1.3,6.1,1.3,8.5,0
				C449.4,448.8,449.4,446.7,447.1,445.3z"/>
			<path class="st25" d="M421,430.3c-2.3-1.3-6.1-1.3-8.5,0c-2.3,1.3-2.3,3.5,0,4.9c2.3,1.3,6.1,1.3,8.5,0
				C423.4,433.8,423.4,431.6,421,430.3z"/>
			<path class="st25" d="M395,415.3c-2.3-1.3-6.1-1.3-8.5,0c-2.3,1.3-2.3,3.5,0,4.9c2.3,1.3,6.1,1.3,8.5,0S397.3,416.6,395,415.3z"
				/>
			<path class="st25" d="M369,400.2c-2.3-1.3-6.1-1.3-8.5,0s-2.3,3.5,0,4.9s6.1,1.3,8.5,0S371.3,401.6,369,400.2z"/>
			<path class="st25" d="M342.9,385.2c-2.3-1.3-6.1-1.3-8.5,0s-2.3,3.5,0,4.9s6.1,1.3,8.5,0S345.3,386.5,342.9,385.2z"/>
			<path class="st25" d="M316.9,370.2c-2.3-1.3-6.1-1.3-8.5,0s-2.3,3.5,0,4.9s6.1,1.3,8.5,0C319.2,373.7,319.2,371.5,316.9,370.2z"
				/>
		</g>
	</g>
	<g>
		<polygon class="st13" points="156.7,347.8 156.7,347.8 156.7,347.8 		"/>
		<path class="st13" d="M181.3,353.7c-6.8-3.9-15.7-5.9-24.5-5.9v1.8c9,0,17.3,2,23.6,5.6c6,3.4,9.2,7.9,9.2,12.6
			c0,4.7-3.3,9.1-9.2,12.6c-6.3,3.6-14.7,5.6-23.6,5.6s-17.3-2-23.6-5.6c-6-3.4-9.2-7.9-9.2-12.6s3.3-9.1,9.2-12.6
			c6.3-3.6,14.7-5.6,23.6-5.6l0-1.8c0,0,0,0,0,0c-8.9,0-17.8,2-24.5,5.9c-13.6,7.8-13.6,20.5,0,28.3c6.8,3.9,15.7,5.9,24.5,5.9
			c8.9,0,17.8-2,24.5-5.9C194.8,374.2,194.8,361.5,181.3,353.7z"/>
		<path class="st13" d="M242.6,371.9c-3.3-1.9-7.6-2.8-11.9-2.8v0.7c4.4,0,8.5,1,11.5,2.8c3,1.7,4.6,3.9,4.6,6.3s-1.6,4.6-4.6,6.3
			c-3.1,1.8-7.2,2.8-11.6,2.8s-8.5-1-11.6-2.8c-3-1.7-4.6-3.9-4.6-6.3c0-2.3,1.6-4.6,4.6-6.3c3.1-1.8,7.2-2.8,11.6-2.8l0-0.7
			c0,0,0,0,0,0c-4.3,0-8.6,0.9-11.9,2.8c-6.6,3.8-6.6,9.9,0,13.7c3.3,1.9,7.6,2.8,11.9,2.8c4.3,0,8.6-0.9,11.9-2.8
			C249.2,381.9,249.2,375.7,242.6,371.9z"/>
		<polygon class="st13" points="230.7,369.1 230.7,369.1 230.7,369.1 		"/>
	</g>
	<g>
		<path class="st13" d="M761.3,591.5c-6-3.5-13.8-5.2-21.6-5.2v2.3c7.8,0,15.1,1.7,20.5,4.9c5.1,2.9,7.8,6.7,7.8,10.5
			c0,3.9-2.8,7.6-7.8,10.5c-5.4,3.1-12.7,4.9-20.5,4.9s-15.1-1.7-20.5-4.9c-5.1-2.9-7.8-6.7-7.8-10.5c0-3.9,2.8-7.6,7.8-10.5
			c5.4-3.1,12.7-4.9,20.5-4.9l0-2.3c0,0,0,0,0,0c-7.8,0-15.7,1.7-21.6,5.2c-12,6.9-12,18.1,0,25c6,3.5,13.8,5.2,21.6,5.2
			c7.8,0,15.7-1.7,21.6-5.2C773.3,609.6,773.3,598.4,761.3,591.5z"/>
		<polygon class="st13" points="739.7,586.4 739.7,586.4 739.7,586.4 		"/>
		<path class="st13" d="M685.5,542.9c-2-1.2-4.7-1.8-7.4-1.8c-2.7,0-5.4,0.6-7.4,1.8c-4.1,2.4-4.1,6.2,0,8.6c2,1.2,4.7,1.8,7.4,1.8
			s5.4-0.6,7.4-1.8C689.6,549.1,689.6,545.3,685.5,542.9z M685.1,550.8c-1.9,1.1-4.4,1.7-7,1.7c-2.7,0-5.2-0.6-7-1.7
			c-1.7-1-2.7-2.3-2.7-3.6s1-2.6,2.7-3.6c1.9-1.1,4.4-1.7,7-1.7s5.2,0.6,7,1.7c1.7,1,2.7,2.3,2.7,3.6S686.8,549.8,685.1,550.8z"/>
	</g>
	<g>
		<g>
			<path class="st22" d="M667.9,447.7c-2.2-1.3-5.8-1.3-8,0c-2.2,1.3-2.2,3.4,0,4.6c2.2,1.3,5.8,1.3,8,0
				C670.1,451.1,670.1,449,667.9,447.7z"/>
			<path class="st22" d="M643.1,433.4c-2.2-1.3-5.8-1.3-8,0c-2.2,1.3-2.2,3.4,0,4.6s5.8,1.3,8,0S645.3,434.7,643.1,433.4z"/>
			<path class="st22" d="M763.7,478.2c-2.2-1.3-5.8-1.3-8,0c-2.2,1.3-2.2,3.4,0,4.6s5.8,1.3,8,0S765.9,479.5,763.7,478.2z"/>
			<path class="st22" d="M714.2,449.6c-2.2-1.3-5.8-1.3-8,0s-2.2,3.4,0,4.6c2.2,1.3,5.8,1.3,8,0C716.4,453,716.4,450.9,714.2,449.6z
				"/>
			<path class="st22" d="M689.4,435.3c-2.2-1.3-5.8-1.3-8,0c-2.2,1.3-2.2,3.4,0,4.6s5.8,1.3,8,0
				C691.6,438.7,691.6,436.6,689.4,435.3z"/>
			<path class="st22" d="M664.6,421c-2.2-1.3-5.8-1.3-8,0c-2.2,1.3-2.2,3.4,0,4.6s5.8,1.3,8,0S666.9,422.3,664.6,421z"/>
			<path class="st22" d="M785.2,465.8c-2.2-1.3-5.8-1.3-8,0s-2.2,3.4,0,4.6s5.8,1.3,8,0C787.5,469.1,787.5,467,785.2,465.8z"/>
			<path class="st22" d="M760.5,451.5c-2.2-1.3-5.8-1.3-8,0c-2.2,1.3-2.2,3.4,0,4.6c2.2,1.3,5.8,1.3,8,0
				C762.7,454.8,762.7,452.7,760.5,451.5z"/>
			<path class="st22" d="M735.7,437.2c-2.2-1.3-5.8-1.3-8,0c-2.2,1.3-2.2,3.4,0,4.6c2.2,1.3,5.8,1.3,8,0
				C737.9,440.5,737.9,438.4,735.7,437.2z"/>
			<path class="st22" d="M711,422.9c-2.2-1.3-5.8-1.3-8,0c-2.2,1.3-2.2,3.4,0,4.6s5.8,1.3,8,0S713.2,424.1,711,422.9z"/>
			<path class="st22" d="M686.2,408.6c-2.2-1.3-5.8-1.3-8,0s-2.2,3.4,0,4.6s5.8,1.3,8,0S688.4,409.8,686.2,408.6z"/>
			<path class="st22" d="M806.8,453.3c-2.2-1.3-5.8-1.3-8,0s-2.2,3.4,0,4.6s5.8,1.3,8,0S809,454.6,806.8,453.3z"/>
			<path class="st22" d="M782,439c-2.2-1.3-5.8-1.3-8,0s-2.2,3.4,0,4.6c2.2,1.3,5.8,1.3,8,0C784.2,442.4,784.2,440.3,782,439z"/>
			<path class="st22" d="M757.3,424.7c-2.2-1.3-5.8-1.3-8,0c-2.2,1.3-2.2,3.4,0,4.6s5.8,1.3,8,0S759.5,426,757.3,424.7z"/>
			<path class="st22" d="M732.5,410.4c-2.2-1.3-5.8-1.3-8,0s-2.2,3.4,0,4.6s5.8,1.3,8,0S734.7,411.7,732.5,410.4z"/>
			<path class="st22" d="M707.7,396.1c-2.2-1.3-5.8-1.3-8,0s-2.2,3.4,0,4.6c2.2,1.3,5.8,1.3,8,0
				C709.9,399.5,709.9,397.4,707.7,396.1z"/>
		</g>
	</g>
	<defs>
		<filter id="Adobe_OpacityMaskFilter" filterUnits="userSpaceOnUse" x="675.9" y="496.7" width="56.1" height="28">
			<feColorMatrix  type="matrix" values="1 0 0 0 0  0 1 0 0 0  0 0 1 0 0  0 0 0 1 0"/>
		</filter>
	</defs>
	<mask maskUnits="userSpaceOnUse" x="675.9" y="496.7" width="56.1" height="28" id="SVGID_2_">
		<g class="st0">
			<g>
				<linearGradient id="SVGID_3_" gradientUnits="userSpaceOnUse" x1="673.1074" y1="520.6787" x2="730.0831" y2="506.6299">
					<stop  offset="0" style="stop-color:#FFFFFF"/>
					<stop  offset="1" style="stop-color:#000000"/>
				</linearGradient>
				<polygon class="st14" points="675.9,524.7 729.9,517.8 731.9,496.7 718.6,498.4 				"/>
			</g>
		</g>
	</mask>
	<linearGradient id="SVGID_4_" gradientUnits="userSpaceOnUse" x1="735.4404" y1="505.5742" x2="660.8114" y2="522.2074">
		<stop  offset="0" style="stop-color:#5751CF"/>
		<stop  offset="1" style="stop-color:#1F1271"/>
	</linearGradient>
	<polygon class="st9" points="675.9,524.7 729.9,517.8 731.9,496.7 718.6,498.4 	"/>
	<g>
		<path class="st48" d="M679.3,474.4c-2.5-1.3-5.5-1.3-7.9,0l-33.9,18.9h-7v5.8h0c0,1,0.5,2,1.5,2.5l39.4,22c2.5,1.4,5.5,1.4,7.9,0
			l40.5-22c1-0.6,1.5-1.5,1.6-2.5h0v-5.8h-7.2L679.3,474.4z"/>
		<g>
			<path class="st22" d="M719.7,490.5l-40.5-22c-1.2-0.6-2.5-1-3.9-1c-1.4,0-2.7,0.4-3.9,1l-39.4,22c-0.9,0.5-1.5,1.5-1.5,2.5
				c0,1.1,0.6,2,1.5,2.5l39.4,22c1.2,0.7,2.6,1,3.9,1h0c1.3,0,2.7-0.3,3.9-1l40.5-22c1-0.5,1.5-1.5,1.5-2.6
				C721.2,492,720.6,491,719.7,490.5z"/>
			<path class="st22" d="M719.8,490.4l-40.5-22c-1.2-0.7-2.6-1-3.9-1c-1.4,0-2.8,0.3-4,1l-39.4,22c-2.1,1.2-2.1,4.2,0,5.3l39.4,22
				c1.2,0.7,2.6,1,4,1c1.4,0,2.7-0.3,3.9-1l40.5-22C721.9,494.6,721.9,491.6,719.8,490.4z M719.6,495.5l-40.5,22
				c-1.2,0.6-2.5,1-3.8,1c-1.4,0-2.7-0.3-3.9-1l-39.4-22c-0.9-0.5-1.4-1.4-1.4-2.4c0-1,0.5-1.9,1.4-2.4l39.4-22c1.2-0.7,2.5-1,3.9-1
				c1.3,0,2.6,0.3,3.8,1l40.5,22c0.9,0.5,1.4,1.4,1.4,2.4C721.1,494.1,720.5,495,719.6,495.5z"/>
		</g>
		<path class="st25" d="M719.8,489.7l-40.5-22c-2.5-1.3-5.5-1.3-7.9,0L645.7,482l-13.8,7.7c-2.1,1.2-2.1,4.1,0,5.3l14.5,8.1
			l24.9,13.9c2.5,1.4,5.5,1.4,7.9,0l26.1-14.2l11.4-6.2l3-1.6C721.9,493.9,721.9,490.8,719.8,489.7z"/>
	</g>
	<g>
		<g>
			<g>
				<path class="st48" d="M996.1,349.5l-81.7-45c-0.9-0.5-1.7-0.7-2.5-0.7c-0.6,0-1.1,0.1-1.6,0.4l-6.3,3l3.9,9.4
					c0,0,0.3-0.1,0.3-0.1c0.1,0,0.1,0,0.2,0.1c0.1,0.1,0.1,0.2,0.1,0.3v52.4c0,4,2.7,8.8,6.1,10.7l17.7,9.8c1.2,0.7,2.3,1.9,3,3.4
					l15.7,25.5c0.8,1.6,2.2,2.8,3.3,2.8c0.3,0,0.6-0.1,0.9-0.4l15.6-8c0.4-0.4,1-0.6,1.6-0.6c0.6,0,1.2,0.2,1.8,0.5l19,10.2
					c0.1,0.1,0.2,0.2,0.2,0.3c0,0.1-0.1,0.2-0.2,0.3l-0.3,0.2l1.1,4.4l5.7-2.8c1.5-0.4,2.4-2,2.4-4.3v-61.1
					C1002.2,356.1,999.4,351.4,996.1,349.5z"/>
				<path class="st48" d="M996.2,349.2l-81.7-45c-0.9-0.5-1.8-0.8-2.7-0.8c-0.7,0-1.2,0.2-1.7,0.5l0,0l-6.6,3.1l4.2,10l0.5-0.1v52.4
					c0,4.1,2.8,9,6.3,10.9l17.7,9.8c1.1,0.6,2.2,1.8,2.9,3.3l15.7,25.5c0.9,1.8,2.4,3,3.6,3c0.4,0,0.8-0.1,1-0.4l15.7-8.1
					c0.4-0.3,0.8-0.5,1.3-0.5c0.5,0,1,0.2,1.6,0.5l19,10.2l-0.5,0.3l1.3,5l6-2.9v0c1.6-0.4,2.7-2.1,2.7-4.6v-61.1
					C1002.5,356,999.7,351.1,996.2,349.2z M1001.9,421.3c0,2.1-0.8,3.6-2.2,4c-0.1,0-0.1,0-0.2,0.1l-5.2,2.5l-1-3.7l0.1,0
					c0.2-0.1,0.3-0.4,0.3-0.6c0-0.2-0.1-0.5-0.4-0.6l-19-10.2c-0.7-0.4-1.3-0.5-1.9-0.5c-0.6,0-1.2,0.2-1.7,0.6l-15.6,8
					c-0.1,0-0.1,0.1-0.1,0.1c-0.2,0.1-0.4,0.2-0.6,0.2c-0.8,0-2.1-0.9-3-2.6l-15.6-25.4c-0.8-1.6-1.9-2.9-3.2-3.6l-17.7-9.8
					c-3.3-1.8-5.9-6.5-5.9-10.4v-52.4c0-0.2-0.1-0.4-0.3-0.5c-0.1-0.1-0.3-0.1-0.4-0.1c0,0-0.1,0-0.1,0l-3.7-8.9l5.9-2.8
					c0,0,0.1,0,0.1-0.1c0.4-0.2,0.9-0.4,1.4-0.4c0.7,0,1.5,0.2,2.3,0.7l81.7,45c3.3,1.8,5.9,6.5,5.9,10.4V421.3z"/>
			</g>
			<g>
				<path class="st8" d="M989.5,352.6l-81.7-45c-0.9-0.5-1.7-0.7-2.5-0.7c-2,0-3.3,1.7-3.3,4.4v61.1c0,4,2.7,8.8,6.1,10.7l17.7,9.8
					c1.2,0.7,2.3,1.9,3,3.4l15.7,25.5c0.8,1.6,2.2,2.8,3.3,2.8c0.3,0,0.6-0.1,0.9-0.4l15.6-8c0.4-0.4,1-0.6,1.6-0.6
					c0.6,0,1.2,0.2,1.8,0.5l22.2,11.9c0.9,0.5,1.7,0.7,2.5,0.7c2,0,3.3-1.7,3.3-4.4v-61.1C995.7,359.2,992.9,354.5,989.5,352.6z"/>
				<path class="st8" d="M989.7,352.3l-81.7-45c-1-0.5-1.9-0.8-2.7-0.8c-2.1,0-3.6,1.8-3.6,4.7v61.1c0,4.1,2.8,9,6.3,10.9l17.7,9.8
					c1.1,0.6,2.2,1.8,2.9,3.3l15.7,25.5c0.9,1.8,2.4,3,3.6,3c0.4,0,0.8-0.1,1-0.4l15.7-8.1c0.4-0.3,0.8-0.5,1.3-0.5
					c0.5,0,1,0.2,1.6,0.5l22.2,11.9c1,0.5,1.9,0.8,2.7,0.8c2.1,0,3.6-1.8,3.6-4.7v-61.1C996,359.1,993.2,354.2,989.7,352.3z
					 M995.3,424.4c0,2.5-1.1,4.1-3,4.1c-0.7,0-1.5-0.2-2.3-0.7l-22.2-11.9c-0.7-0.4-1.3-0.5-1.9-0.5c-0.6,0-1.2,0.2-1.7,0.6l-15.6,8
					c-0.1,0-0.1,0.1-0.1,0.1c-0.2,0.1-0.4,0.2-0.6,0.2c-0.8,0-2.1-0.9-3-2.6l-15.6-25.4c-0.8-1.6-1.9-2.9-3.2-3.6l-17.7-9.8
					c-3.3-1.8-5.9-6.5-5.9-10.4v-61.1c0-2.5,1.1-4.1,3-4.1c0.7,0,1.5,0.2,2.3,0.7l81.7,45c3.3,1.8,5.9,6.5,5.9,10.4V424.4z"/>
			</g>
		</g>
		<g>
			<g>
				<path class="st13" d="M956.2,353.7c-4.5,0-8.1,2.6-8.5,2.6c0,0,0,0,0,0c-1.9-6.8-8.4-14.9-13.7-14.9c-2.3,0-4.2,1.5-5.6,4.5
					c-6.4,13.8,18,44,19.4,45.7c1.3-0.4,17-6,21.3-16.1c1.6-3.8,1.5-7.8-0.5-11.9C965.6,357,961.4,353.7,956.2,353.7z"/>
				<path class="st13" d="M956.2,353.5c-4.6,0-8.3,2.7-8.3,2.7c-1.8-6.6-8.3-15-13.8-15c-2.2,0-4.2,1.3-5.7,4.6
					c-6.6,14.4,19.5,45.9,19.5,45.9s29.8-9.7,21.1-28.2C965.1,355.6,960.3,353.5,956.2,353.5z M969.1,375.4
					c-4.2,9.8-19.4,15.3-21.2,15.9c-1.9-2.3-25.6-31.9-19.3-45.4c1.4-3,3.2-4.5,5.5-4.5c5.2,0,11.7,8.1,13.5,14.8
					c0,0.1,0.1,0.2,0.2,0.2c0,0,0.1,0,0.1,0c0.1,0,0.1,0,0.2-0.1c0,0,3.7-2.6,8.2-2.6c5.2,0,9.4,3.3,12.4,9.8
					C970.5,367.7,970.7,371.7,969.1,375.4z"/>
			</g>
		</g>
		<g>
			<g>
				<path class="st48" d="M933.2,344.1c0.5-1.1,1.1-2,2-2.6c-0.4-0.1-0.8-0.1-1.1-0.1c-2.3,0-4.2,1.5-5.6,4.5
					c-6.4,13.8,18,44,19.4,45.7c0.4-0.1,2.3-0.8,4.6-1.7C949.8,386.6,926.9,357.7,933.2,344.1z"/>
				<path class="st48" d="M933.3,344.1c0.6-1.2,1.2-2.1,1.9-2.8c-0.4-0.1-0.8-0.1-1.1-0.1c-2.2,0-4.2,1.3-5.7,4.6
					c-6.6,14.4,19.5,45.9,19.5,45.9s2-0.7,4.8-1.9C950.2,386.8,927,357.8,933.3,344.1z M952.1,389.6c-2.1,1-3.8,1.5-4.3,1.7
					c-1.9-2.3-25.6-31.9-19.3-45.4c1.4-2.9,3.2-4.4,5.5-4.4c0.2,0,0.4,0,0.6,0c-0.6,0.7-1.1,1.5-1.6,2.5
					C926.9,357.4,948.7,385.3,952.1,389.6z"/>
			</g>
		</g>
	</g>
	<g>
		<g>
			<g>
				<path class="st1" d="M637.1,185.1l-53.3-29.3c-0.6-0.3-1.2-0.5-1.7-0.5c-0.4,0-0.8,0.1-1.1,0.3l-4.3,1.9l2.6,6.5l0.5,0v34.2
					c0,2.7,1.8,5.8,4.1,7.1l11.5,6.4c0.8,0.4,1.5,1.2,1.9,2.2l10.2,16.6c0.5,1.1,1.5,1.9,2.3,1.9c0.2,0,0.5-0.1,0.6-0.2l10.2-5.3
					c0.3-0.2,0.6-0.3,0.9-0.3c0.3,0,0.7,0.1,1.1,0.3l12.4,6.8l-0.3,0.1l0.8,3.2l3.9-1.9c1.1-0.3,1.7-1.4,1.7-2.9v-39.9
					C641.2,189.5,639.3,186.3,637.1,185.1z"/>
				<path class="st1" d="M637.1,185l-53.3-29.3c-0.6-0.3-1.2-0.5-1.7-0.5c-0.4,0-0.8,0.1-1.1,0.3l0,0l-4.3,2l2.7,6.5l0.3-0.1v34.2
					c0,2.7,1.8,5.9,4.1,7.1l11.5,6.4c0.7,0.4,1.4,1.2,1.9,2.1l10.2,16.6c0.6,1.2,1.6,1.9,2.3,1.9c0.3,0,0.5-0.1,0.7-0.3l10.2-5.3
					c0.2-0.2,0.5-0.3,0.9-0.3c0.3,0,0.7,0.1,1,0.3l12.4,6.6l-0.3,0.2l0.8,3.3l3.9-1.9v0c1.1-0.3,1.8-1.4,1.8-3v-39.9
					C641.3,189.5,639.4,186.3,637.1,185z M641.1,232.1c0,1.5-0.6,2.6-1.6,2.8c0,0,0,0-0.1,0l-3.7,1.8l-0.8-2.9l0.2-0.1
					c0.1,0,0.1-0.1,0.1-0.2s0-0.1-0.1-0.2l-12.4-6.6c-0.4-0.2-0.8-0.3-1.1-0.3c-0.4,0-0.7,0.1-1,0.4l-10.2,5.3c0,0,0,0,0,0
					c-0.2,0.1-0.3,0.2-0.6,0.2c-0.7,0-1.6-0.8-2.2-1.8l-10.2-16.6c-0.5-1-1.2-1.8-2-2.2l-11.5-6.4c-2.2-1.2-4-4.4-4-7V164
					c0-0.1,0-0.1-0.1-0.1c0,0-0.1,0-0.1,0c0,0,0,0,0,0l-0.2,0l-2.6-6.2l4.1-2c0,0,0,0,0.1,0c0.3-0.2,0.7-0.3,1-0.3
					c0.5,0,1.1,0.2,1.6,0.5l53.3,29.3c2.2,1.2,4,4.4,4,7V232.1z"/>
			</g>
			<g>
				<path class="st25" d="M632.8,187.1l-53.3-29.3c-0.6-0.3-1.2-0.5-1.7-0.5c-1.4,0-2.3,1.2-2.3,3v39.9c0,2.7,1.8,5.8,4.1,7.1
					l11.5,6.4c0.8,0.4,1.5,1.2,1.9,2.2l10.2,16.6c0.6,1.1,1.5,1.9,2.3,1.9c0.2,0,0.5-0.1,0.6-0.2l10.2-5.3c0.2-0.2,0.6-0.3,0.9-0.3
					c0.3,0,0.7,0.1,1.1,0.3l14.5,7.8c0.6,0.3,1.2,0.5,1.7,0.5c1.4,0,2.3-1.2,2.3-3v-39.9C636.9,191.5,635.1,188.4,632.8,187.1z"/>
				<path class="st25" d="M632.9,187l-53.3-29.3c-0.6-0.3-1.2-0.5-1.7-0.5v0.2c0.5,0,1.1,0.2,1.7,0.5l53.3,29.3c2.2,1.2,4,4.4,4,7
					v39.9c0,1.8-0.8,2.9-2.2,2.9c-0.5,0-1.1-0.2-1.7-0.5l-14.5-7.8c-0.4-0.2-0.8-0.3-1.1-0.3c-0.4,0-0.7,0.1-1,0.4l-10.2,5.3
					c0,0,0,0,0,0c-0.2,0.1-0.3,0.2-0.6,0.2c-0.7,0-1.6-0.8-2.2-1.8l-10.2-16.6c-0.5-1-1.2-1.8-2-2.2l-11.5-6.4c-2.2-1.2-4-4.4-4-7
					v-39.9c0-1.8,0.8-2.9,2.2-2.9v-0.2c-1.4,0-2.4,1.1-2.4,3.1v39.9c0,2.7,1.8,5.9,4.1,7.1l11.5,6.4c0.7,0.4,1.4,1.2,1.9,2.1
					l10.2,16.6c0.6,1.2,1.6,1.9,2.3,1.9c0.3,0,0.5-0.1,0.7-0.3l10.2-5.3c0.2-0.2,0.5-0.3,0.9-0.3c0.3,0,0.7,0.1,1,0.3l14.5,7.8
					c0.6,0.3,1.2,0.5,1.7,0.5c1.4,0,2.4-1.1,2.4-3.1v-39.9C637,191.5,635.1,188.3,632.9,187z"/>
			</g>
		</g>
		<g>
			<path class="st20" d="M618.4,200.6l-9.3-7l-3.9-13l-4.2,8.3c0,0.1-0.1,0.1-0.2,0.1c0,0-0.1,0-0.1,0l-9-3.3l6.5,12.2l-1.8,11.1
				c0,0,8.4-1,8.4-1c0.1,0,0.1,0,0.2,0.1l7.9,9.9l-1.3-12.4c0-0.1,0-0.2,0.1-0.2L618.4,200.6z"/>
			<g>
				<path class="st20" d="M609.3,193.4l-4.1-13.6l-4.5,8.8l-9.6-3.5l6.7,12.6l-1.9,11.4l8.7-1l8.4,10.6l-1.4-13.2l7.1-4.9
					L609.3,193.4z M612.5,217l-7.4-9.2c-0.1-0.1-0.2-0.2-0.4-0.2c0,0,0,0-0.1,0l-8,1l1.8-10.7c0-0.1,0-0.2-0.1-0.3l-6.1-11.4
					l8.4,3.1c0.1,0,0.1,0,0.2,0c0.2,0,0.4-0.1,0.4-0.3l3.9-7.7l3.7,12.4c0,0.1,0.1,0.2,0.2,0.3l9,6.7l-6.5,4.5
					c-0.2,0.1-0.2,0.3-0.2,0.5L612.5,217z"/>
			</g>
		</g>
		<g>
			<g>
				<polygon class="st19" points="601,188.4 603.6,186.6 605.9,182.2 605.3,179.9 				"/>
				<path class="st19" d="M602.1,186l-1.3,2.6l3-2.1l2.2-4.4l-0.7-2.4L602.1,186z M603.6,186.5l-2.3,1.6l1-2l2.9-5.8l0.6,1.9
					L603.6,186.5z"/>
			</g>
			<g>
				<polygon class="st19" points="607.7,206.1 598.9,207 600.8,195.7 596.2,187.1 591.2,185.1 598,197.7 596,209 604.8,208 
					613,218.4 612.4,212.1 				"/>
				<path class="st19" d="M607.7,206l-8.7,1l1.9-11.4l-4.6-8.7l-5.1-1.9l6.7,12.6l-1.9,11.4l8.7-1l8.4,10.6l-0.7-6.6L607.7,206z
					 M604.8,208c0,0-0.1-0.1-0.1-0.1c0,0,0,0,0,0l-8.4,1l1.8-11.2c0,0,0-0.1,0-0.1l-6.5-12.2l4.6,1.7l4.6,8.5l-1.9,11.3
					c0,0.1,0,0.1,0,0.2c0,0,0.1,0.1,0.1,0.1c0,0,0,0,0,0l8.6-1l4.7,5.9l0.6,6L604.8,208z"/>
			</g>
			<g>
				<polygon class="st19" points="614.7,203.4 614.7,203.4 618.8,200.6 618.8,200.5 				"/>
				<polygon class="st19" points="614.7,203.4 614.7,203.4 618.8,200.6 618.8,200.5 				"/>
			</g>
		</g>
	</g>
	<g>
		<g>
			<path class="st25" d="M774.6,126.2l-75-41.3c-3.2-1.8-5.8-0.1-5.8,3.6v56.1c0,3.8,2.6,8.3,5.8,10l16.2,9c1,0.6,2,1.7,2.7,3
				l14.4,23.4c1.1,2.2,3.1,3.3,4.2,2.4l14.4-7.4c0.7-0.6,1.6-0.6,2.7,0l20.4,11c3.2,1.8,5.8,0.1,5.8-3.6v-56.1
				C780.4,132.4,777.8,128,774.6,126.2z"/>
			<path class="st25" d="M775.4,192.1l-4.2,2.6l1.2,4.6l5.5-2.7c0,0,0-3.6,0-3.7C777.9,192.8,775.4,192.1,775.4,192.1z"/>
			<polygon class="st25" points="689.5,87.5 693.4,96.7 702.9,94.2 695.6,84.6 			"/>
			<g>
				<path class="st20" d="M768.5,129.3l-75-41.3c-0.8-0.4-1.6-0.7-2.3-0.7c-1.8,0-3,1.5-3,4v56.1c0,3.7,2.5,8,5.6,9.7l16.2,9
					c1.1,0.6,2.1,1.8,2.8,3.1l14.4,23.4c0.8,1.7,2.1,2.5,3,2.5c0.3,0,0.5-0.1,0.8-0.3l14.3-7.4c0.4-0.4,0.9-0.5,1.5-0.5
					c0.5,0,1.1,0.2,1.6,0.5l20.4,11c0.8,0.4,1.6,0.7,2.3,0.7c1.8,0,3-1.5,3-4v-56.1C774.1,135.4,771.6,131,768.5,129.3z"/>
				<path class="st20" d="M768.6,129l-75-41.3c-0.9-0.5-1.7-0.7-2.4-0.7c-2,0-3.3,1.6-3.3,4.4v56.1c0,3.8,2.6,8.3,5.8,10l16.2,9
					c1,0.6,2,1.7,2.7,3l14.4,23.4c0.8,1.7,2.2,2.7,3.3,2.7c0.4,0,0.7-0.1,1-0.4l14.4-7.4c0.3-0.3,0.8-0.5,1.2-0.5
					c0.5,0,1,0.1,1.5,0.4l20.4,10.9c0.9,0.5,1.7,0.7,2.4,0.7c2,0,3.3-1.6,3.3-4.4v-56.1C774.4,135.3,771.8,130.8,768.6,129z
					 M773.7,195.2c0,2.3-1,3.7-2.6,3.7c-0.6,0-1.4-0.2-2.1-0.6l-20.4-10.9c-0.6-0.3-1.2-0.5-1.8-0.5c-0.6,0-1.2,0.2-1.6,0.6
					l-14.3,7.4c-0.1,0-0.1,0.1-0.1,0.1c-0.1,0.1-0.3,0.2-0.5,0.2c-0.7,0-1.9-0.8-2.7-2.4l-14.4-23.3c-0.7-1.5-1.8-2.7-3-3.3l-16.2-9
					c-3-1.7-5.4-5.9-5.4-9.4V91.4c0-2.3,1-3.7,2.6-3.7c0.6,0,1.4,0.2,2.1,0.6l75,41.3c3,1.7,5.4,5.9,5.4,9.4V195.2z"/>
			</g>
		</g>
		<g>
			<path class="st22" d="M728.9,126.9c-5-2.8-9-0.8-9.1,4.5c0,5.3,3.9,12,8.9,14.8c5,2.9,9,0.8,9.1-4.5
				C737.8,136.4,733.8,129.8,728.9,126.9z"/>
		</g>
		<g>
			<path class="st22" d="M728.6,150.6c-6.7-3.8-12.1,0.6-12.1,7.8l24.1,13.8C740.7,165,735.3,154.4,728.6,150.6z"/>
		</g>
		<path class="st13" d="M731.3,144.5c-5-2.9-9-9.5-8.9-14.8c0-1.6,0.4-2.9,1.1-3.9c-2.2,0.5-3.7,2.5-3.7,5.6c0,5.3,3.9,12,8.9,14.8
			c3.4,2,6.4,1.6,7.9-0.6C735.1,146,733.3,145.6,731.3,144.5z"/>
		<path class="st13" d="M719.1,156.6c0-2.9,0.9-5.4,2.5-7c-3,1.1-5,4.4-5,8.7l24.1,13.8c0-1.1-0.1-2.2-0.4-3.4L719.1,156.6z"/>
	</g>
	<defs>
		<filter id="Adobe_OpacityMaskFilter_1_" filterUnits="userSpaceOnUse" x="759" y="393.4" width="65.2" height="35.3">
			<feColorMatrix  type="matrix" values="1 0 0 0 0  0 1 0 0 0  0 0 1 0 0  0 0 0 1 0"/>
		</filter>
	</defs>
	<mask maskUnits="userSpaceOnUse" x="759" y="393.4" width="65.2" height="35.3" id="SVGID_5_">
		<g class="st49">
			<g>
				<linearGradient id="SVGID_6_" gradientUnits="userSpaceOnUse" x1="750.2422" y1="443.0371" x2="811.2427" y2="411.0634">
					<stop  offset="0" style="stop-color:#FFFFFF"/>
					<stop  offset="1" style="stop-color:#000000"/>
				</linearGradient>
				<polygon class="st15" points="759,428.7 821.8,419.9 824.2,393.4 772.6,416.9 				"/>
			</g>
		</g>
	</mask>
	<linearGradient id="SVGID_7_" gradientUnits="userSpaceOnUse" x1="828.6387" y1="405.4048" x2="741.1176" y2="424.9113">
		<stop  offset="0" style="stop-color:#5751CF"/>
		<stop  offset="1" style="stop-color:#1F1271"/>
	</linearGradient>
	<polygon class="st27" points="759,428.7 821.8,419.9 824.2,393.4 773.4,417.7 	"/>
	<g>
		<g>
			<g>
				<g>
					<g>
						<polygon class="st25" points="750.9,438 771.6,426.7 771.9,234.6 750.9,234.5 						"/>
						<path class="st25" d="M750.7,438.3l21.1-11.6l0.2-192.2h-21.2V438.3z M751,234.8h20.5l-0.2,191.7L751,437.7V234.8z"/>
					</g>
				</g>
				<g>
					<g>
						<polygon class="st1" points="733.1,428.3 750.5,438 750.7,234.6 733.4,234.5 						"/>
						<path class="st1" d="M733,428.4l17.6,9.8V234.5h-17.5L733,428.4z M733.6,234.8h16.8v202.9l-17-9.4L733.6,234.8z"/>
					</g>
				</g>
				<path class="st1" d="M785.9,219.9c-8.1-4.7-15.4-5-20.6-1.6l0,0L679.1,268l44.4,66.7l82.6-47.4c5-3,8.1-9.3,8.1-18.2
					C814.3,251,801.6,229,785.9,219.9z"/>
				<g>
					<linearGradient id="SVGID_8_" gradientUnits="userSpaceOnUse" x1="553.1299" y1="334.21" x2="780.377" y2="334.21">
						<stop  offset="0" style="stop-color:#FA7900"/>
						<stop  offset="1" style="stop-color:#F93904"/>
					</linearGradient>
					<path class="st16" d="M743.9,234.6c-5.7-3.3-11.2-5-16.2-5c-2.7,0-5.3,0.5-7.7,1.5c-0.5,0.3-65.5,27.3-106.6,27.3
						c-3.3,0-6.4-0.2-9.2-0.5c-2.7-0.3-5.5-0.5-8.5-0.5c-12.9,0-24.2,3.3-31.1,8.9c-0.1,0.2-11.3,22.6-11.3,39.9
						c0,44.6,31.4,99.1,70.1,121.4c14.7,8.5,37.7,11,38.9,11.1c0.8-0.4,14.3-6.8,20.1-14.4c3.3-4.4,5.7-9.8,7.9-15.1
						c13.5-31.6,39.5-60.4,79.5-87.8c7-3.9,10.8-12.3,10.8-23.6C780.4,274.6,764,246.2,743.9,234.6z"/>
					<linearGradient id="SVGID_9_" gradientUnits="userSpaceOnUse" x1="552.9707" y1="334.2114" x2="780.5332" y2="334.2114">
						<stop  offset="0" style="stop-color:#FA7900"/>
						<stop  offset="1" style="stop-color:#F93904"/>
					</linearGradient>
					<path class="st17" d="M744,234.5c-5.9-3.4-11.4-5-16.3-5c-2.8,0-5.4,0.5-7.7,1.5l0,0l-0.1,0.1c0,0-65.6,27.3-106.5,27.3
						c-3.2,0-6.3-0.2-9.2-0.5c-2.6-0.3-5.5-0.5-8.5-0.5c-10.7,0-23.2,2.4-31.3,9c0,0-11.4,22.5-11.4,40c0,44.8,31.4,99.2,70.2,121.5
						c15.2,8.8,39,11.1,39,11.1s14.1-6.5,20.2-14.4c3.2-4.2,5.5-9.4,8-15.2c15.7-36.8,46.4-65.1,79.4-87.8
						c6.7-3.8,10.9-12,10.9-23.8C780.5,274.5,764.2,246.1,744,234.5z M769.5,321.3c-40,27.5-66,56.2-79.5,87.9
						c-2.3,5.3-4.6,10.7-7.9,15.1c-5.7,7.5-18.8,13.8-20,14.3c-1.6-0.2-24.2-2.7-38.7-11.1c-38.6-22.3-70-76.7-70-121.3
						c0-16.8,10.7-38.5,11.3-39.8c6.9-5.6,18.2-8.9,31-8.9c2.9,0,5.8,0.2,8.4,0.5c2.8,0.4,5.9,0.5,9.3,0.5
						c40.6,0,106.1-27.1,106.7-27.3l0,0c0,0,0.1,0,0.1,0c2.3-1,4.8-1.5,7.6-1.5c5,0,10.5,1.7,16.2,4.9
						c20.1,11.6,36.4,39.9,36.4,63.1C780.2,309.1,776.4,317.4,769.5,321.3z"/>
				</g>
				<path class="st1" d="M612.6,271.9c-38.8-22.4-70.2-4.2-70.2,40.5s31.4,99.2,70.2,121.5c38.8,22.4,70.2,4.2,70.2-40.5
					C682.8,348.7,651.4,294.3,612.6,271.9z"/>
				<g>
					<path class="st23" d="M641,309.1c-10-12.5-21.4-22.6-33-29.3c-9.5-5.5-18.8-8.4-26.8-8.4c-18.6,0-29.7,15.3-29.7,41
						c0,41.8,29.4,92.8,65.6,113.7c9.5,5.5,18.8,8.4,26.8,8.4c18.6,0,29.7-15.3,29.7-41c0-13.4-3.1-28.4-8.9-43.2
						C659,335.6,650.8,321.4,641,309.1z"/>
					<path class="st23" d="M641.1,309c-9.7-12.1-21-22.4-33-29.4c-9.5-5.5-18.8-8.4-26.8-8.4c-18.7,0-29.9,15.4-29.9,41.1
						c0,41.8,29.5,92.9,65.7,113.8c9.5,5.5,18.8,8.4,26.9,8.4c18.7,0,29.9-15.4,29.9-41.1c0-13.9-3.3-28.8-8.9-43.3
						C659.1,335.5,650.9,321.3,641.1,309z M644,434.3c-8,0-17.2-2.9-26.7-8.4c-36.1-20.9-65.5-71.8-65.5-113.5
						c0-25.6,11.1-40.8,29.6-40.8c8,0,17.2,2.9,26.7,8.4c11.6,6.7,23,16.8,32.9,29.3c9.8,12.3,18,26.5,23.7,41
						c5.8,14.9,8.9,29.8,8.9,43.2C673.5,419,662.5,434.3,644,434.3z"/>
				</g>
				<g>
					<path class="st13" d="M640.9,309.6c-9-11.3-19.3-20.5-29.8-26.5c-8.6-5-16.9-7.6-24.2-7.6c-16.8,0-26.8,13.8-26.8,37
						c0,37.8,26.6,83.8,59.3,102.7c8.6,5,17,7.6,24.2,7.6c16.8,0,26.8-13.8,26.8-37c0-12.1-2.8-25.6-8.1-39.1
						C657.2,333.6,649.8,320.7,640.9,309.6z"/>
					<path class="st13" d="M641,309.5c-8.8-11-19-20.3-29.9-26.5c-8.6-5-17-7.6-24.3-7.6c-16.9,0-27,13.9-27,37.2
						c0,37.8,26.6,84,59.4,102.9c8.6,5,17,7.6,24.3,7.6c16.9,0,27-13.9,27-37.2c0-12.6-2.9-26.1-8.1-39.1
						C657.3,333.5,649.9,320.6,641,309.5z M643.6,422.7c-7.2,0-15.5-2.6-24.1-7.5c-32.7-18.8-59.2-64.9-59.2-102.6
						c0-23.1,10-36.9,26.7-36.9c7.2,0,15.6,2.6,24.1,7.5c10.5,6,20.7,15.2,29.8,26.5c8.9,11.1,16.3,23.9,21.4,37.1
						c5.3,13.4,8.1,26.9,8.1,39C670.2,408.9,660.3,422.7,643.6,422.7z"/>
				</g>
				<g>
					<path class="st23" d="M643.8,313.1c-7.8-9.8-16.7-17.7-25.8-22.9c-7.4-4.3-14.6-6.5-20.9-6.5c-14.5,0-23.2,12-23.2,32
						c0,32.6,23,72.5,51.2,88.8c7.4,4.3,14.7,6.5,20.9,6.5c14.5,0,23.2-12,23.2-32c0-10.5-2.4-22.2-7-33.8
						C657.9,333.8,651.5,322.7,643.8,313.1z"/>
					<path class="st23" d="M643.9,313c-7.6-9.5-16.4-17.5-25.8-22.9c-7.4-4.3-14.7-6.6-21-6.6c-14.6,0-23.3,12-23.3,32.1
						c0,32.7,23,72.6,51.3,88.9c7.4,4.3,14.7,6.6,21,6.6c14.6,0,23.3-12,23.3-32.1c0-10.9-2.5-22.5-7-33.8
						C658,333.7,651.6,322.6,643.9,313z M646.1,410.8c-6.2,0-13.4-2.3-20.9-6.5c-28.2-16.3-51.2-56.1-51.2-88.7
						c0-19.9,8.6-31.8,23-31.8c6.2,0,13.4,2.3,20.8,6.5c9,5.2,17.9,13.1,25.7,22.9c7.7,9.6,14.1,20.7,18.5,32.1
						c4.6,11.6,7,23.3,7,33.7C669.2,398.9,660.5,410.8,646.1,410.8z"/>
				</g>
				<g>
					<path class="st13" d="M645.5,315.6c-6.5-8.1-13.8-14.7-21.3-19c-6.1-3.5-12.1-5.4-17.3-5.4c-12,0-19.2,9.9-19.2,26.5
						c0,27.1,19.1,60.1,42.5,73.6c6.2,3.5,12.1,5.4,17.3,5.4c12,0,19.2-9.9,19.2-26.5c0-8.7-2-18.4-5.8-28
						C657.1,332.8,651.8,323.6,645.5,315.6z"/>
					<path class="st13" d="M645.6,315.5c-6.3-7.9-13.6-14.5-21.4-19c-6.2-3.5-12.2-5.4-17.4-5.4c-12.1,0-19.3,10-19.3,26.6
						c0,27.1,19.1,60.2,42.6,73.7c6.2,3.5,12.2,5.4,17.4,5.4c12.1,0,19.3-10,19.3-26.6c0-9-2.1-18.7-5.8-28.1
						C657.3,332.7,651.9,323.5,645.6,315.5z M647.4,396.6c-5.1,0-11.1-1.9-17.2-5.4c-23.4-13.5-42.4-46.4-42.4-73.4
						c0-16.5,7.1-26.3,19-26.3c5.2,0,11.1,1.9,17.2,5.4c7.5,4.3,14.8,10.9,21.3,18.9c6.3,7.9,11.6,17.1,15.3,26.6
						c3.8,9.6,5.8,19.3,5.8,27.9C666.4,386.7,659.3,396.6,647.4,396.6z"/>
				</g>
				<g>
					<path class="st23" d="M648.1,319.4c-5.1-6.4-10.9-11.5-16.8-14.9c-4.8-2.8-9.5-4.3-13.6-4.3c-9.4,0-15.1,7.8-15.1,20.8
						c0,21.2,15,47.2,33.4,57.8c4.8,2.8,9.5,4.3,13.6,4.3c9.4,0,15-7.8,15-20.8c0-6.8-1.6-14.4-4.5-22
						C657.3,332.8,653.1,325.6,648.1,319.4z"/>
					<path class="st23" d="M648.2,319.3c-4.9-6.2-10.7-11.4-16.8-14.9c-4.8-2.8-9.6-4.3-13.7-4.3c-9.5,0-15.2,7.8-15.2,20.9
						c0,21.3,15,47.3,33.4,57.9c4.8,2.8,9.6,4.3,13.7,4.3c9.5,0,15.2-7.8,15.2-20.9c0-7.1-1.7-14.7-4.5-22
						C657.4,332.8,653.2,325.5,648.2,319.3z M649.7,382.9c-4,0-8.7-1.5-13.5-4.2c-18.4-10.6-33.3-36.5-33.3-57.7
						c0-12.9,5.6-20.6,14.9-20.6c4,0,8.7,1.5,13.5,4.2c5.9,3.4,11.7,8.5,16.7,14.9c5,6.2,9.1,13.4,12,20.9c3,7.5,4.5,15.1,4.5,21.9
						C664.6,375.2,659,382.9,649.7,382.9z"/>
				</g>
				<g>
					<path class="st13" d="M650.3,323.1c-3.5-4.3-7.4-7.9-11.5-10.2c-3.3-1.9-6.5-2.9-9.3-2.9c-6.4,0-10.2,5.3-10.2,14.2
						c0,14.5,10.2,32.2,22.8,39.5c3.3,1.9,6.5,2.9,9.3,2.9c6.4,0,10.2-5.3,10.2-14.2c0-4.7-1.1-9.9-3.1-15
						C656.5,332.3,653.7,327.3,650.3,323.1z"/>
					<path class="st13" d="M650.4,323c-3.4-4.2-7.3-7.8-11.5-10.2c-3.3-1.9-6.5-2.9-9.3-2.9c-6.5,0-10.4,5.4-10.4,14.3
						c0,14.6,10.3,32.3,22.9,39.6c3.3,1.9,6.5,2.9,9.4,2.9c6.5,0,10.4-5.4,10.4-14.3c0-4.8-1.1-10-3.1-15.1
						C656.7,332.2,653.8,327.2,650.4,323z M651.4,366.4c-2.7,0-5.9-1-9.2-2.9c-12.5-7.2-22.7-24.9-22.7-39.3c0-8.8,3.8-14,10.1-14
						c2.7,0,5.9,1,9.2,2.9c4,2.3,7.9,5.8,11.4,10.1c3.4,4.3,6.2,9.2,8.2,14.2c2,5.1,3.1,10.3,3.1,15
						C661.4,361.1,657.7,366.4,651.4,366.4z"/>
				</g>
				<g>
					<g>
						<path class="st1" d="M647.2,345l-33.3-25.4c-0.4-0.3-0.9-0.5-1.5-0.5c-0.3,0-0.7,0.1-1.2,0.3l-4.2,2.3l2,51.4l4.7-2.6
							l33.3-21.4c0.7-0.4,1.1-1.2,1.1-2C648.2,346.3,647.8,345.5,647.2,345z"/>
						<path class="st1" d="M647.3,344.9L614,319.5c-0.5-0.4-1-0.5-1.6-0.5c-0.4,0-0.7,0.1-1.1,0.2l0,0l-0.1,0.1c0,0-0.1,0-0.1,0.1
							l-4.3,2.5l2,51.6l4.9-2.7v0c0,0,0,0,0,0l33.3-21.4C648.6,348.2,648.7,346,647.3,344.9z M646.9,349l-33.3,21.3c0,0-0.1,0-0.1,0
							c0,0,0,0,0,0l-4.4,2.5l-2-51l4.1-2.4l0-0.1c0,0,0.1,0,0.1,0c0,0,0.1,0,0.1,0c0.3-0.1,0.6-0.2,1-0.2c0.5,0,1,0.2,1.4,0.5
							l33.3,25.4c0.6,0.5,1,1.2,0.9,2C648,347.9,647.6,348.6,646.9,349z"/>
					</g>
					<g>
						<path class="st25" d="M642.4,347.7l-33.3-25.4c-0.4-0.3-1-0.5-1.5-0.5c-1.2,0-2.5,1-2.5,2.5V371c0,1.5,1.3,2.5,2.5,2.5
							c0.5,0,0.9-0.1,1.3-0.4l33.3-21.4c0.7-0.4,1.1-1.2,1.1-2C643.4,348.9,643.1,348.2,642.4,347.7z"/>
						<path class="st25" d="M642.5,347.6l-33.3-25.4c-0.5-0.4-1-0.5-1.6-0.5c-1.4,0-2.6,1.1-2.6,2.6V371c0,1.5,1.3,2.6,2.6,2.6
							c0.5,0,1-0.1,1.4-0.4l33.3-21.4C643.9,350.9,644,348.7,642.5,347.6z M642.2,351.6L608.9,373c-0.4,0.2-0.8,0.4-1.3,0.4
							c-1.1,0-2.4-0.9-2.4-2.4v-46.8c0-1.5,1.2-2.4,2.4-2.4c0.5,0,1,0.2,1.4,0.5l33.3,25.4c0.6,0.5,1,1.2,0.9,2
							C643.2,350.5,642.8,351.2,642.2,351.6z"/>
					</g>
				</g>
			</g>
		</g>
	</g>
	<g>
		<defs>
			<filter id="Adobe_OpacityMaskFilter_2_" filterUnits="userSpaceOnUse" x="867.8" y="508.5" width="145.5" height="68.5">
				<feColorMatrix  type="matrix" values="1 0 0 0 0  0 1 0 0 0  0 0 1 0 0  0 0 0 1 0"/>
			</filter>
		</defs>
		<mask maskUnits="userSpaceOnUse" x="867.8" y="508.5" width="145.5" height="68.5" id="SVGID_10_">
			<g class="st50">
				<g>
					<linearGradient id="SVGID_11_" gradientUnits="userSpaceOnUse" x1="861.2813" y1="568.8223" x2="1008.187" y2="532.599">
						<stop  offset="0" style="stop-color:#FFFFFF"/>
						<stop  offset="1" style="stop-color:#000000"/>
					</linearGradient>
					<polygon class="st32" points="867.8,577 1007.9,559.9 1013.3,508.5 978.6,512.6 					"/>
				</g>
			</g>
		</mask>
		<linearGradient id="SVGID_12_" gradientUnits="userSpaceOnUse" x1="1022.4121" y1="531.5698" x2="829.883" y2="574.4803">
			<stop  offset="0" style="stop-color:#5751CF"/>
			<stop  offset="1" style="stop-color:#1F1271"/>
		</linearGradient>
		<polygon class="st26" points="1007.9,559.9 1013.3,508.5 867.8,577 		"/>
		<g>
			<g>
				<path class="st23" d="M915.8,475c-33-19.1-86.5-19.1-119.6,0c-16.1,9.3-24.4,21.4-24.7,33.6c-0.2,6.9-0.2,13.9,0,20.8
					c0.4,12.2,8.6,24.3,24.7,33.6c33,19.1,86.5,19.1,119.6,0c16.1-9.3,24.4-21.4,24.7-33.6c0.2-6.9,0.2-13.9,0-20.8
					C940.1,496.4,931.9,484.3,915.8,475z"/>
				<path class="st12" d="M915.8,475c-33-19.1-86.5-19.1-119.6,0s-33,50,0,69c33,19.1,86.5,19.1,119.6,0
					C948.8,524.9,948.8,494,915.8,475z"/>
				<g>
					<path class="st23" d="M903.8,461.7c-26.1-15.1-68.5-15.1-94.7,0c-12.8,7.4-19.3,17-19.6,26.6c-0.2,5.5-0.2,11,0,16.5
						c0.3,9.7,6.8,19.3,19.6,26.6c26.1,15.1,68.5,15.1,94.7,0c12.8-7.4,19.3-17,19.6-26.6c0.2-5.5,0.2-11,0-16.5
						C923,478.7,916.5,469.1,903.8,461.7z"/>
					<path class="st12" d="M903.8,461.7c-26.1-15.1-68.5-15.1-94.7,0c-26.1,15.1-26.1,39.6,0,54.7c26.1,15.1,68.5,15.1,94.7,0
						C929.9,501.3,929.9,476.8,903.8,461.7z"/>
					<g>
						<g>
							<path class="st23" d="M899.9,465.1c-24.2-13.1-63.3-13.1-87.5,0c-24.2,13.1-24.2,34.4,0,47.6c24.2,13.1,63.3,13.1,87.5,0
								C924,499.5,924,478.2,899.9,465.1z"/>
							<path class="st48" d="M895.5,470.8c-21.8-11.8-57.1-11.8-78.9,0c-21.8,11.8-21.8,31,0,42.9c21.8,11.8,57.1,11.8,78.9,0
								C917.3,501.8,917.3,482.6,895.5,470.8z"/>
						</g>
					</g>
				</g>
			</g>
		</g>
		<g>
			<g>
				<polygon class="st19" points="863,459.1 858.7,444.4 853.8,454 843.5,450.1 850.8,463.7 848.7,475.9 858.1,474.8 863.4,481.6 
					862.9,482 862.7,483.1 865,487.4 867.1,486.3 865.6,472 873.3,466.8 				"/>
				<path class="st19" d="M863,459.1l-4.4-14.7l-4.9,9.5l-10.4-3.8l7.3,13.6l-2,12.3l9.4-1.1l5.3,6.7l-0.5,0.5l-0.2,1.1l2.2,4.3
					l2.2-1.2l-1.5-14.3l7.7-5.3L863,459.1z M867.1,486.2l-2.1,1.1l-2.2-4.2l0.2-1.1l0.5-0.4c0,0,0-0.1,0-0.1l-5.3-6.7
					c0,0-0.1,0-0.1,0c0,0,0,0,0,0l-9.2,1.1l2-12.2c0,0,0,0,0-0.1l-7.2-13.3l10.1,3.7c0,0,0,0,0,0c0,0,0.1,0,0.1-0.1l4.7-9.3
					l4.3,14.4c0,0,0,0,0,0.1l10.2,7.6l-7.5,5.2c0,0-0.1,0.1,0,0.1L867.1,486.2z"/>
			</g>
			<g>
				<polygon class="st19" points="841.2,451.3 851.6,455.3 852.6,453.5 843.5,450.1 				"/>
				<path class="st19" d="M841.2,451.3l10.4,4l1-1.9l-9.2-3.4L841.2,451.3z M852.5,453.5l-0.9,1.7l-10.1-3.9l2-1.1L852.5,453.5z"/>
			</g>
			<g>
				<polygon class="st20" points="860.7,460.3 856.5,445.6 851.5,455.2 841.2,451.3 848.5,464.9 846.5,477.2 855.9,476.1 
					864.9,487.3 863.4,473.2 871,468 				"/>
				<path class="st20" d="M860.8,460.3l-4.4-14.7l-4.8,9.5l-10.4-3.8l7.3,13.6l-2,12.3l9.4-1.1l9.1,11.4l-1.5-14.3l7.7-5.3
					L860.8,460.3z M864.8,487.2l-8.9-11.1c0,0-0.1,0-0.1,0c0,0,0,0,0,0l-9.2,1.1l2-12.2c0,0,0,0,0-0.1l-7.2-13.3l10.1,3.7
					c0,0,0,0,0,0c0,0,0.1,0,0.1-0.1l4.7-9.3l4.3,14.4c0,0,0,0,0,0.1l10.2,7.6l-7.5,5.2c0,0-0.1,0.1,0,0.1L864.8,487.2z"/>
			</g>
			<g>
				<polygon class="st13" points="856.5,445.6 860.8,460.2 863,459.1 858.7,444.4 				"/>
				<path class="st13" d="M856.4,445.6l4.4,14.7l2.2-1.2l-4.4-14.7L856.4,445.6z M860.9,460.1l-4.3-14.5l2.1-1.1l4.3,14.5
					L860.9,460.1z"/>
			</g>
			<g>
				<polygon class="st13" points="864.3,472.7 865.6,472 872.4,467.3 871.1,468 				"/>
				<path class="st13" d="M863.4,473.2l2.2-1.2l7.7-5.3l-2.2,1.2L863.4,473.2z M871.5,467.9l-5.9,4l-0.4,0.2l5.9-4L871.5,467.9z"/>
			</g>
		</g>
		<g>
			<g>
				<polygon class="st19" points="863,417.2 858.7,402.5 853.8,412.1 843.5,408.2 850.8,421.8 848.7,434 858.1,432.9 863.4,439.7 
					862.9,440.1 862.7,441.2 865,445.5 867.1,444.4 865.6,430.1 873.3,424.9 				"/>
				<path class="st19" d="M863,417.2l-4.4-14.7l-4.9,9.5l-10.4-3.8l7.3,13.6l-2,12.3l9.4-1.1l5.3,6.7l-0.5,0.5l-0.2,1.1l2.2,4.3
					l2.2-1.2l-1.5-14.3l7.7-5.3L863,417.2z M867.1,444.3l-2.1,1.1l-2.2-4.2l0.2-1.1l0.5-0.4c0,0,0-0.1,0-0.1l-5.3-6.7
					c0,0-0.1,0-0.1,0c0,0,0,0,0,0l-9.2,1.1l2-12.2c0,0,0,0,0-0.1l-7.2-13.3l10.1,3.7c0,0,0,0,0,0c0,0,0.1,0,0.1-0.1l4.7-9.3
					l4.3,14.4c0,0,0,0,0,0.1l10.2,7.6l-7.5,5.2c0,0-0.1,0.1,0,0.1L867.1,444.3z"/>
			</g>
			<g>
				<polygon class="st19" points="841.2,409.4 851.6,413.4 852.6,411.6 843.5,408.2 				"/>
				<path class="st19" d="M841.2,409.4l10.4,4l1-1.9l-9.2-3.4L841.2,409.4z M852.5,411.6l-0.9,1.7l-10.1-3.9l2-1.1L852.5,411.6z"/>
			</g>
			<g>
				<polygon class="st20" points="860.7,418.4 856.5,403.7 851.5,413.3 841.2,409.4 848.5,423 846.5,435.3 855.9,434.1 864.9,445.4 
					863.4,431.3 871,426.1 				"/>
				<path class="st20" d="M860.8,418.4l-4.4-14.7l-4.8,9.5l-10.4-3.8l7.3,13.6l-2,12.3l9.4-1.1l9.1,11.4l-1.5-14.3l7.7-5.3
					L860.8,418.4z M864.8,445.2l-8.9-11.1c0,0-0.1,0-0.1,0c0,0,0,0,0,0l-9.2,1.1l2-12.2c0,0,0,0,0-0.1l-7.2-13.3l10.1,3.7
					c0,0,0,0,0,0c0,0,0.1,0,0.1-0.1l4.7-9.3l4.3,14.4c0,0,0,0,0,0.1l10.2,7.6l-7.5,5.2c0,0-0.1,0.1,0,0.1L864.8,445.2z"/>
			</g>
			<g>
				<polygon class="st13" points="856.5,403.7 860.8,418.3 863,417.2 858.7,402.5 				"/>
				<path class="st13" d="M856.4,403.7l4.4,14.7l2.2-1.2l-4.4-14.7L856.4,403.7z M860.9,418.2l-4.3-14.5l2.1-1.1l4.3,14.5
					L860.9,418.2z"/>
			</g>
			<g>
				<polygon class="st13" points="864.3,430.8 865.6,430.1 872.4,425.4 871.1,426.1 				"/>
				<path class="st13" d="M863.4,431.3l2.2-1.2l7.7-5.3l-2.2,1.2L863.4,431.3z M871.5,426l-5.9,4l-0.4,0.2l5.9-4L871.5,426z"/>
			</g>
		</g>
		<g>
			<g>
				<polygon class="st19" points="863,375.3 858.7,360.6 853.8,370.2 843.5,366.3 850.8,379.9 848.7,392.1 858.1,391 863.4,397.8 
					862.9,398.2 862.7,399.3 865,403.6 867.1,402.5 865.6,388.2 873.3,383 				"/>
				<path class="st19" d="M863,375.2l-4.4-14.7l-4.9,9.5l-10.4-3.8l7.3,13.6l-2,12.3l9.4-1.1l5.3,6.7l-0.5,0.5l-0.2,1.1l2.2,4.3
					l2.2-1.2l-1.5-14.3l7.7-5.3L863,375.2z M867.1,402.4l-2.1,1.1l-2.2-4.2l0.2-1.1l0.5-0.4c0,0,0-0.1,0-0.1l-5.3-6.7
					c0,0-0.1,0-0.1,0c0,0,0,0,0,0l-9.2,1.1l2-12.2c0,0,0,0,0-0.1l-7.2-13.3l10.1,3.7c0,0,0,0,0,0c0,0,0.1,0,0.1-0.1l4.7-9.3
					l4.3,14.4c0,0,0,0,0,0.1l10.2,7.6l-7.5,5.2c0,0-0.1,0.1,0,0.1L867.1,402.4z"/>
			</g>
			<g>
				<polygon class="st19" points="841.2,367.5 851.6,371.5 852.6,369.7 843.5,366.3 				"/>
				<path class="st19" d="M841.2,367.5l10.4,4l1-1.9l-9.2-3.4L841.2,367.5z M852.5,369.7l-0.9,1.7l-10.1-3.9l2-1.1L852.5,369.7z"/>
			</g>
			<g>
				<polygon class="st20" points="860.7,376.5 856.5,361.8 851.5,371.4 841.2,367.5 848.5,381.1 846.5,393.4 855.9,392.2 
					864.9,403.5 863.4,389.4 871,384.2 				"/>
				<path class="st20" d="M860.8,376.5l-4.4-14.7l-4.8,9.5l-10.4-3.8l7.3,13.6l-2,12.3l9.4-1.1l9.1,11.4l-1.5-14.3l7.7-5.3
					L860.8,376.5z M864.8,403.3l-8.9-11.1c0,0-0.1,0-0.1,0c0,0,0,0,0,0l-9.2,1.1l2-12.2c0,0,0,0,0-0.1l-7.2-13.3l10.1,3.7
					c0,0,0,0,0,0c0,0,0.1,0,0.1-0.1l4.7-9.3l4.3,14.4c0,0,0,0,0,0.1l10.2,7.6l-7.5,5.2c0,0-0.1,0.1,0,0.1L864.8,403.3z"/>
			</g>
			<g>
				<polygon class="st13" points="856.5,361.8 860.8,376.4 863,375.3 858.7,360.6 				"/>
				<path class="st13" d="M856.4,361.8l4.4,14.7l2.2-1.2l-4.4-14.7L856.4,361.8z M860.9,376.3l-4.3-14.5l2.1-1.1l4.3,14.5
					L860.9,376.3z"/>
			</g>
			<g>
				<polygon class="st13" points="864.3,388.9 865.6,388.2 872.4,383.5 871.1,384.2 				"/>
				<path class="st13" d="M863.4,389.4l2.2-1.2l7.7-5.3l-2.2,1.2L863.4,389.4z M871.5,384.1l-5.9,4l-0.4,0.2l5.9-4L871.5,384.1z"/>
			</g>
		</g>
		<g>
			<g>
				<polygon class="st19" points="863,333.4 858.7,318.7 853.8,328.2 843.5,324.4 850.8,338 848.7,350.2 858.1,349.1 863.4,355.9 
					862.9,356.3 862.7,357.4 865,361.7 867.1,360.6 865.6,346.2 873.3,341.1 				"/>
				<path class="st19" d="M863,333.3l-4.4-14.7l-4.9,9.5l-10.4-3.8l7.3,13.6l-2,12.3l9.4-1.1l5.3,6.7l-0.5,0.5l-0.2,1.1l2.2,4.3
					l2.2-1.2l-1.5-14.3l7.7-5.3L863,333.3z M867.1,360.5l-2.1,1.1l-2.2-4.2l0.2-1.1l0.5-0.4c0,0,0-0.1,0-0.1l-5.3-6.7
					c0,0-0.1,0-0.1,0c0,0,0,0,0,0l-9.2,1.1l2-12.2c0,0,0,0,0-0.1l-7.2-13.3l10.1,3.7c0,0,0,0,0,0c0,0,0.1,0,0.1-0.1l4.7-9.3
					l4.3,14.4c0,0,0,0,0,0.1l10.2,7.6l-7.5,5.2c0,0-0.1,0.1,0,0.1L867.1,360.5z"/>
			</g>
			<g>
				<polygon class="st19" points="841.2,325.6 851.6,329.6 852.6,327.8 843.5,324.4 				"/>
				<path class="st19" d="M841.2,325.6l10.4,4l1-1.9l-9.2-3.4L841.2,325.6z M852.5,327.8l-0.9,1.7l-10.1-3.9l2-1.1L852.5,327.8z"/>
			</g>
			<g>
				<polygon class="st20" points="860.7,334.6 856.5,319.9 851.5,329.5 841.2,325.6 848.5,339.2 846.5,351.5 855.9,350.3 
					864.9,361.6 863.4,347.5 871,342.3 				"/>
				<path class="st20" d="M860.8,334.6l-4.4-14.7l-4.8,9.5l-10.4-3.8l7.3,13.6l-2,12.3l9.4-1.1l9.1,11.4l-1.5-14.3l7.7-5.3
					L860.8,334.6z M864.8,361.4l-8.9-11.1c0,0-0.1,0-0.1,0c0,0,0,0,0,0l-9.2,1.1l2-12.2c0,0,0,0,0-0.1l-7.2-13.3l10.1,3.7
					c0,0,0,0,0,0c0,0,0.1,0,0.1-0.1l4.7-9.3l4.3,14.4c0,0,0,0,0,0.1l10.2,7.6l-7.5,5.2c0,0-0.1,0.1,0,0.1L864.8,361.4z"/>
			</g>
			<g>
				<polygon class="st13" points="856.5,319.9 860.8,334.5 863,333.4 858.7,318.7 				"/>
				<path class="st13" d="M856.4,319.9l4.4,14.7l2.2-1.2l-4.4-14.7L856.4,319.9z M860.9,334.4l-4.3-14.5l2.1-1.1l4.3,14.5
					L860.9,334.4z"/>
			</g>
			<g>
				<polygon class="st13" points="864.3,347 865.6,346.2 872.4,341.6 871.1,342.3 				"/>
				<path class="st13" d="M863.4,347.5l2.2-1.2l7.7-5.3l-2.2,1.2L863.4,347.5z M871.5,342.2l-5.9,4l-0.4,0.2l5.9-4L871.5,342.2z"/>
			</g>
		</g>
		<g>
			<g>
				<polygon class="st19" points="863,291.5 858.7,276.8 853.8,286.3 843.5,282.5 850.8,296.1 848.7,308.3 858.1,307.2 863.4,314 
					862.9,314.4 862.7,315.5 865,319.8 867.1,318.7 865.6,304.3 873.3,299.2 				"/>
				<path class="st19" d="M863,291.4l-4.4-14.7l-4.9,9.5l-10.4-3.8l7.3,13.6l-2,12.3l9.4-1.1l5.3,6.7l-0.5,0.5l-0.2,1.1l2.2,4.3
					l2.2-1.2l-1.5-14.3l7.7-5.3L863,291.4z M867.1,318.6l-2.1,1.1l-2.2-4.2l0.2-1.1l0.5-0.4c0,0,0-0.1,0-0.1l-5.3-6.7
					c0,0-0.1,0-0.1,0c0,0,0,0,0,0l-9.2,1.1l2-12.2c0,0,0,0,0-0.1l-7.2-13.3l10.1,3.7c0,0,0,0,0,0c0,0,0.1,0,0.1-0.1l4.7-9.3
					l4.3,14.4c0,0,0,0,0,0.1l10.2,7.6l-7.5,5.2c0,0-0.1,0.1,0,0.1L867.1,318.6z"/>
			</g>
			<g>
				<polygon class="st19" points="841.2,283.7 851.6,287.7 852.6,285.9 843.5,282.5 				"/>
				<path class="st19" d="M841.2,283.7l10.4,4l1-1.9l-9.2-3.4L841.2,283.7z M852.5,285.9l-0.9,1.7l-10.1-3.9l2-1.1L852.5,285.9z"/>
			</g>
			<g>
				<polygon class="st20" points="860.7,292.7 856.5,278 851.5,287.6 841.2,283.7 848.5,297.3 846.5,309.5 855.9,308.4 864.9,319.7 
					863.4,305.6 871,300.4 				"/>
				<path class="st20" d="M860.8,292.7l-4.4-14.7l-4.8,9.5l-10.4-3.8l7.3,13.6l-2,12.3l9.4-1.1l9.1,11.4l-1.5-14.3l7.7-5.3
					L860.8,292.7z M864.8,319.5l-8.9-11.1c0,0-0.1,0-0.1,0c0,0,0,0,0,0l-9.2,1.1l2-12.2c0,0,0,0,0-0.1l-7.2-13.3l10.1,3.7
					c0,0,0,0,0,0c0,0,0.1,0,0.1-0.1l4.7-9.3l4.3,14.4c0,0,0,0,0,0.1l10.2,7.6l-7.5,5.2c0,0-0.1,0.1,0,0.1L864.8,319.5z"/>
			</g>
			<g>
				<polygon class="st13" points="856.5,278 860.8,292.6 863,291.5 858.7,276.8 				"/>
				<path class="st13" d="M856.4,278l4.4,14.7l2.2-1.2l-4.4-14.7L856.4,278z M860.9,292.5l-4.3-14.5l2.1-1.1l4.3,14.5L860.9,292.5z"
					/>
			</g>
			<g>
				<polygon class="st13" points="864.3,305.1 865.6,304.3 872.4,299.7 871.1,300.4 				"/>
				<path class="st13" d="M863.4,305.6l2.2-1.2l7.7-5.3l-2.2,1.2L863.4,305.6z M871.5,300.3l-5.9,4l-0.4,0.2l5.9-4L871.5,300.3z"/>
			</g>
		</g>
	</g>
	<defs>
		<filter id="Adobe_OpacityMaskFilter_3_" filterUnits="userSpaceOnUse" x="257.9" y="484" width="121.8" height="60.9">
			<feColorMatrix  type="matrix" values="1 0 0 0 0  0 1 0 0 0  0 0 1 0 0  0 0 0 1 0"/>
		</filter>
	</defs>
	<mask maskUnits="userSpaceOnUse" x="257.9" y="484" width="121.8" height="60.9" id="SVGID_13_">
		<g class="st51">
			<g>
				<linearGradient id="SVGID_14_" gradientUnits="userSpaceOnUse" x1="251.9072" y1="536.0928" x2="375.6811" y2="505.5732">
					<stop  offset="0" style="stop-color:#FFFFFF"/>
					<stop  offset="1" style="stop-color:#000000"/>
				</linearGradient>
				<polygon class="st33" points="257.9,544.9 375.2,529.7 379.7,484 350.7,487.7 				"/>
			</g>
		</g>
	</mask>
	<linearGradient id="SVGID_15_" gradientUnits="userSpaceOnUse" x1="387.6143" y1="504.6069" x2="225.4899" y2="540.7409">
		<stop  offset="0" style="stop-color:#5751CF"/>
		<stop  offset="1" style="stop-color:#1F1271"/>
	</linearGradient>
	<polygon class="st28" points="257.9,544.9 375.2,529.7 379.7,484 337.2,496 	"/>
	<g>
		<path class="st1" d="M218.9,427.1c-1.5-0.8-3.2-1.2-4.8-1.2c-1.7,0-3.4,0.4-4.9,1.3L136,457l-6.4-0.7l-0.7-0.1v0l-0.2,0v17.4l0,0
			c0.1,1.2,0.7,2.4,1.9,3.1l124,66.8c1.5,0.9,3.2,1.3,4.9,1.3c1.7,0,3.3-0.4,4.8-1.2l79.7-43.1c1.2-0.7,1.9-1.9,1.9-3.1l0,0V480
			l-11.3-1.2L218.9,427.1z"/>
		<g>
			<g>
				<path class="st12" d="M344,478.7l-125.3-66.9c-1.4-0.8-3.1-1.2-4.7-1.2c-1.7,0-3.4,0.4-4.8,1.3l-78.4,43.1
					c-1.1,0.6-1.8,1.8-1.8,3.1c0,1.3,0.7,2.4,1.8,3.1l124,66.8c1.5,0.8,3.1,1.3,4.8,1.3c1.6,0,3.3-0.4,4.7-1.2l79.7-43.1
					c1.2-0.6,1.8-1.8,1.8-3.1S345.2,479.3,344,478.7z"/>
				<path class="st12" d="M344.1,478.5l-125.3-66.9c-1.5-0.8-3.2-1.2-4.8-1.2c-1.7,0-3.4,0.4-4.9,1.3l-78.4,43.1
					c-2.6,1.4-2.6,5.1,0,6.5l124,66.8c1.5,0.9,3.2,1.3,4.9,1.3c1.7,0,3.3-0.4,4.8-1.2l79.7-43.1
					C346.7,483.6,346.7,479.9,344.1,478.5z M343.9,484.6l-79.7,43.1c-1.4,0.8-3,1.2-4.6,1.2c-1.6,0-3.3-0.4-4.7-1.2l-124-66.8
					c-1.1-0.6-1.7-1.7-1.7-2.9c0-1.2,0.6-2.3,1.7-2.9l78.4-43.1c1.4-0.8,3.1-1.2,4.7-1.2c1.6,0,3.2,0.4,4.6,1.2l125.3,66.9
					c1.1,0.6,1.7,1.7,1.7,2.9C345.6,483,345,484.1,343.9,484.6z"/>
			</g>
		</g>
		<g>
			<g>
				<path class="st20" d="M344,476.6l-125.3-66.9c-1.4-0.8-3.1-1.2-4.7-1.2c-1.7,0-3.4,0.4-4.8,1.3l-78.4,43.1
					c-1.1,0.6-1.8,1.8-1.8,3.1c0,1.3,0.7,2.4,1.8,3.1l124,66.8c1.5,0.8,3.1,1.3,4.8,1.3c1.6,0,3.3-0.4,4.7-1.2l79.7-43.1
					c1.2-0.6,1.8-1.8,1.8-3.1S345.2,477.2,344,476.6z"/>
				<path class="st20" d="M344.1,476.4l-125.3-66.9c-1.5-0.8-3.2-1.2-4.8-1.2c-1.7,0-3.4,0.4-4.9,1.3l-78.4,43.1
					c-2.6,1.4-2.6,5.1,0,6.5l124,66.8c1.5,0.9,3.2,1.3,4.9,1.3c1.7,0,3.3-0.4,4.8-1.2l79.7-43.1
					C346.7,481.6,346.7,477.8,344.1,476.4z M343.9,482.6l-79.7,43.1c-1.4,0.8-3,1.2-4.6,1.2c-1.6,0-3.3-0.4-4.7-1.2l-124-66.8
					c-1.1-0.6-1.7-1.7-1.7-2.9c0-1.2,0.6-2.3,1.7-2.9l78.4-43.1c1.4-0.8,3.1-1.2,4.7-1.2c1.6,0,3.2,0.4,4.6,1.2l125.3,66.9
					c1.1,0.6,1.7,1.7,1.7,2.9C345.6,480.9,345,482,343.9,482.6z"/>
			</g>
		</g>
		<g>
			<g>
				<path class="st48" d="M251,437.3c-0.4-1-1.4-1.7-2.5-1.7c-0.4,0-0.9,0.1-1.2,0.3l-56.7,31l-4.3-1.5l0,5.7c0.1,0.9,0.6,2,1.9,2.3
					l79.4,21.8c0.2,0.1,0.5,0.1,0.7,0.1c1.2,0,2.3-0.9,2.6-2.1l0.2-6.2l-2.4-0.7L251,437.3z"/>
				<path class="st48" d="M251.3,437.2c-0.4-1.2-1.6-1.9-2.8-1.9c-0.5,0-1,0.1-1.4,0.4l-56.5,30.9l-4.7-1.2v5.7l0,0
					c0.1,1.1,0.8,2.2,2.1,2.6l79.4,21.8c0.3,0.1,0.5,0.1,0.8,0.1c1.4,0,2.6-1.1,2.8-2.5l0,0v-6.5l-2.1-0.5L251.3,437.2z
					 M270.5,492.9C270.5,493,270.5,493,270.5,492.9c-0.2,1.2-1.2,2-2.2,2c-0.2,0-0.4,0-0.6-0.1l-79.4-21.8c-1.1-0.3-1.6-1.2-1.7-2
					c0,0,0-0.1,0-0.1v-4.7l3.9,1c0,0,0.1,0,0.2,0c0.1,0,0.2,0,0.3-0.1l56.5-30.9c0.3-0.2,0.7-0.3,1.1-0.3c1,0,1.8,0.6,2.2,1.5
					l17.7,48.9c0.1,0.2,0.2,0.3,0.4,0.4l1.7,0.4V492.9z"/>
			</g>
			<g>
				<g>
					<path class="st25" d="M251,431.6c-0.4-1-1.4-1.7-2.5-1.7c-0.4,0-0.9,0.1-1.2,0.3l-59.6,32.7c-1,0.5-1.5,1.5-1.3,2.6
						c0.1,1.1,0.9,1.9,1.9,2.2l79.4,21.8c0.2,0.1,0.5,0.1,0.7,0.1c0.8,0,1.6-0.4,2.1-1.1c0.5-0.7,0.6-1.6,0.3-2.4L251,431.6z"/>
					<path class="st25" d="M251.3,431.5c-0.4-1.2-1.6-1.9-2.8-1.9c-0.5,0-1,0.1-1.4,0.4l-59.6,32.7c-2.3,1.3-1.9,4.7,0.6,5.4
						l79.4,21.8c0.3,0.1,0.5,0.1,0.8,0.1c1.9,0,3.4-2,2.7-3.9L251.3,431.5z M270.2,488.2c-0.4,0.6-1.1,1-1.9,1c-0.2,0-0.4,0-0.6-0.1
						l-79.4-21.8c-1.1-0.3-1.6-1.2-1.7-1.9s0.2-1.7,1.2-2.3l59.6-32.7c0.3-0.2,0.7-0.3,1.1-0.3c1,0,1.8,0.6,2.2,1.5l19.7,54.4
						C270.7,486.9,270.6,487.6,270.2,488.2z"/>
				</g>
			</g>
		</g>
	</g>
	<defs>
		<filter id="Adobe_OpacityMaskFilter_4_" filterUnits="userSpaceOnUse" x="327.1" y="231.1" width="199.3" height="162.6">
			<feColorMatrix  type="matrix" values="1 0 0 0 0  0 1 0 0 0  0 0 1 0 0  0 0 0 1 0"/>
		</filter>
	</defs>
	<mask maskUnits="userSpaceOnUse" x="327.1" y="231.1" width="199.3" height="162.6" id="SVGID_16_">
		<g class="st52">
			<g>
				<linearGradient id="SVGID_17_" gradientUnits="userSpaceOnUse" x1="278.7451" y1="434.6572" x2="429.8335" y2="304.686">
					<stop  offset="0" style="stop-color:#FFFFFF"/>
					<stop  offset="1" style="stop-color:#000000"/>
				</linearGradient>
				<polygon class="st34" points="327.1,393.7 526.4,368 470.2,185.9 342.6,233.4 				"/>
			</g>
		</g>
	</mask>
	<linearGradient id="SVGID_18_" gradientUnits="userSpaceOnUse" x1="480.6689" y1="275.3857" x2="274.7337" y2="388.7939">
		<stop  offset="0" style="stop-color:#5751CF"/>
		<stop  offset="1" style="stop-color:#1F1271"/>
	</linearGradient>
	<polygon class="st29" points="327.1,256.5 327.1,393.7 526.4,368 347.3,231.1 	"/>
	<defs>
		<filter id="Adobe_OpacityMaskFilter_5_" filterUnits="userSpaceOnUse" x="284.7" y="365.1" width="43.1" height="35.2">
			<feColorMatrix  type="matrix" values="1 0 0 0 0  0 1 0 0 0  0 0 1 0 0  0 0 0 1 0"/>
		</filter>
	</defs>
	<mask maskUnits="userSpaceOnUse" x="284.7" y="365.1" width="43.1" height="35.2" id="SVGID_19_">
		<g class="st53">
			<g>
				<linearGradient id="SVGID_20_" gradientUnits="userSpaceOnUse" x1="274.2598" y1="409.1094" x2="306.9436" y2="380.9937">
					<stop  offset="0" style="stop-color:#FFFFFF"/>
					<stop  offset="1" style="stop-color:#000000"/>
				</linearGradient>
				<polygon class="st35" points="284.7,400.2 327.8,394.7 315.7,355.3 288.1,365.6 				"/>
			</g>
		</g>
	</mask>
	<linearGradient id="SVGID_21_" gradientUnits="userSpaceOnUse" x1="317.9404" y1="374.6548" x2="273.3915" y2="399.1878">
		<stop  offset="0" style="stop-color:#5751CF"/>
		<stop  offset="1" style="stop-color:#1F1271"/>
	</linearGradient>
	<polygon class="st31" points="284.7,370.6 284.7,400.2 327.8,394.7 289.1,365.1 	"/>
	<g>
		<g>
			<g>
				<polygon class="st22" points="428.2,221.6 394.9,241 361.4,218.3 333.1,233.9 266.4,186.9 266.8,390.6 469.6,277.7 469.4,231.5 
									"/>
				<path class="st11" d="M394.7,240.8l-33.2-22.7L333,233.6l-66.5-47v204.4l203.2-113.2v-46.4l-41.4-10.2L394.7,240.8z
					 M469.2,231.9v45.7L267.1,390.2V187.7l65.6,46.4c0.1,0.1,0.2,0.1,0.3,0.1c0.1,0,0.2,0,0.3-0.1l28.3-15.4l32.9,22.5
					c0.1,0.1,0.2,0.1,0.3,0.1c0.1,0,0.2,0,0.3-0.1l33.4-19.3L469.2,231.9z"/>
			</g>
			<g>
				<polygon class="st24" points="333.1,233.9 350.3,242.9 378.7,227.4 361.4,218.3 				"/>
				<path class="st24" d="M333,233.6l17.3,9.6l28.6-15.6l-17.3-9.6L333,233.6z M350.3,242.6l-16.2-9l27.5-15l16.2,9L350.3,242.6z"/>
			</g>
			<g>
				<polygon class="st25" points="446.9,231.1 445.6,231.2 444.2,231.7 413.6,250 412.1,250.6 410.4,249.9 378.7,227.8 351.8,243 
					350.3,243.5 348.7,242.4 283.7,196.4 284.1,400.2 413.4,329.9 444,311.5 446.9,309.9 486.9,287.3 486.7,241.1 				"/>
				<path class="st25" d="M445.5,230.9l-1.4,0.6l-30.6,18.3l-1.5,0.6l-1.5-0.7l-31.7-22.1l-27.1,15.2l-1.4,0.4l-1.4-1l-65-46v204.4
					l65-35.4l2.8-1.5l58.8-32l3-1.6l30.6-18.5l2.9-1.6l40-22.6v-46.4l-40-10.2L445.5,230.9z M486.5,287.2l-39.7,22.5l-2.9,1.6
					l-30.6,18.5l-3,1.6l-58.8,32l-2.8,1.5l-64.3,35V197.2l64.2,45.4l1.4,1c0.1,0.1,0.2,0.1,0.3,0.1c0,0,0.1,0,0.1,0l1.4-0.4l27-15.1
					l31.4,21.9l1.6,0.7c0.1,0,0.1,0,0.2,0c0.1,0,0.1,0,0.2,0l1.5-0.6l30.7-18.3l1.3-0.5l1.3,0l39.5,10.1V287.2z"/>
			</g>
			<g>
				<polygon class="st1" points="266.8,391.1 283.5,400.2 283.5,196.2 266.4,186.9 				"/>
				<g>
					<path class="st1" d="M266.5,391.1l17.3,9.6V196.2l-17.3-9.6V391.1z M267.1,187.6l16.1,8.9v203.1l-16.1-8.9V187.6z"/>
				</g>
			</g>
			<g>
				<polygon class="st24" points="428.2,221.6 445.7,230.7 485.1,240.4 469.6,231.7 				"/>
				<path class="st24" d="M428.3,221.3l17.3,9.6l41.4,10.2l-17.3-9.6L428.3,221.3z M445.7,230.4l-13.8-7.6l37.5,9.2l13.8,7.6
					L445.7,230.4z"/>
			</g>
			<g>
				<polygon class="st1" points="394.9,241 412,250.1 445.4,230.7 428.1,221.6 				"/>
				<path class="st1" d="M394.7,240.8l17.3,9.6l33.6-19.4l-17.3-9.6L394.7,240.8z M444.5,230.9L412,249.8l-16.2-9l32.5-18.8
					L444.5,230.9z"/>
			</g>
			<g>
				<polygon class="st24" points="361.4,218.3 394.9,240.6 407.3,247.5 378.7,227.9 				"/>
				<path class="st24" d="M361.6,218.1l33.2,22.7l17.3,9.6l-33.2-22.7L361.6,218.1z M395,240.3l-24-16.5l7.6,4.2l24,16.5L395,240.3z
					"/>
			</g>
		</g>
		<g>
			<polygon class="st1" points="348.8,242.5 349.1,364.8 351.6,363.5 351.4,242.8 			"/>
			<g>
				<path class="st1" d="M348.9,365.3l2.8-1.5V242.8l-2.8-0.6V365.3z M349.4,242.9l1.7,0.4v120.1l-1.7,0.9V242.9z"/>
			</g>
		</g>
		<g>
			<polygon class="st1" points="412.1,250.6 410.4,250 410.8,331.3 413.3,329.9 413.2,249.8 			"/>
			<g>
				<path class="st1" d="M410.5,249.7v82.1l3-1.6v-80.4l-1.5,0.6L410.5,249.7z M412.9,250.6v79.2l-1.8,1v-80.2l0.7,0.3
					c0.1,0,0.2,0.1,0.2,0.1c0.1,0,0.1,0,0.2,0L412.9,250.6z"/>
			</g>
		</g>
		<g>
			<polygon class="st1" points="445.6,231.2 444.2,231.8 444.4,311.2 446.9,309.8 446.7,230.9 			"/>
			<g>
				<path class="st1" d="M444.1,231.5l0,80.2l2.9-1.6v-79.2l-1.4,0L444.1,231.5z M446.4,231.5v78.3l-1.7,0.9l0-78.8l1-0.4
					L446.4,231.5z"/>
			</g>
		</g>
	</g>
	<g>
		<g>
			<g>
				<polygon class="st10" points="428.9,277.5 400.4,289.3 378.2,279.3 359.6,284.5 316,253.9 316,387.5 463.9,307.1 463.7,277.1 
									"/>
				<path class="st11" d="M400.3,288.9l-21.9-9.9l-18.9,5.2l-43.9-31v134.9l148.4-80.7v-30.6l-35.2,0.4L400.3,288.9z M463.3,277.5
					v29.4l-146.9,79.9V254.6l42.7,30.2c0.1,0.1,0.3,0.1,0.4,0.1c0.1,0,0.1,0,0.2,0l18.6-5.1l21.6,9.8c0.1,0,0.2,0.1,0.3,0.1
					c0.1,0,0.2,0,0.3-0.1l28.5-11.7L463.3,277.5z"/>
			</g>
			<g>
				<polygon class="st13" points="360.5,284.3 371,290.1 388.8,285.2 378.2,279.3 				"/>
				<path class="st13" d="M359.5,284.2l11.4,6.3l18.9-5.2l-11.4-6.3L359.5,284.2z M371,289.7l-9.5-5.3l16.8-4.6l9.5,5.3L371,289.7z"
					/>
			</g>
			<g>
				<polygon class="st20" points="440.3,283.8 439.5,284.2 411.8,295.6 410.5,295.1 389.6,285.6 371,290.9 369.8,290.1 327.5,260.2 
					327.5,393.8 475.3,313.4 475.1,283.5 				"/>
				<path class="st20" d="M440.3,283.5l-1,0.4l-26.7,11l-1,0.4l-1-0.4l-20.9-9.5l-17.9,5l-0.9,0.3l-0.9-0.7l-42.9-30.3v134.9
					l42.9-23.3l1.9-1l38.8-21.1l2-1.1l26.7-14.5l1.9-1l34.2-18.6v-30.6l-34.2,0.4L440.3,283.5z M474.7,283.8v29.4l-33.8,18.4l-1.9,1
					l-26.7,14.5l-2,1.1l-38.8,21.1l-1.9,1l-41.8,22.7V260.9l41.7,29.5l0.9,0.7c0.1,0.1,0.3,0.1,0.4,0.1c0.1,0,0.1,0,0.2,0l0.9-0.3
					l17.7-4.9l20.6,9.4l1,0.4c0.1,0,0.2,0.1,0.3,0.1c0.1,0,0.2,0,0.3-0.1l1-0.4l26.7-11l0.8-0.3l0.8,0L474.7,283.8z"/>
			</g>
			<g>
				<polygon class="st13" points="315.9,388.1 326.8,394 326.8,259.5 315.6,253.4 				"/>
				<g>
					<path class="st13" d="M315.7,388.1l11.4,6.3V259.5l-11.4-6.3V388.1z M316.1,254l10.5,5.8v133.9l-10.5-5.8V254z"/>
				</g>
			</g>
			<g>
				<polygon class="st13" points="430.3,277.5 440.4,283.1 474.1,282.7 463.9,277.1 				"/>
				<path class="st13" d="M428.9,277.2l11.4,6.3l35.2-0.4l-11.4-6.3L428.9,277.2z M440.5,282.7l-8.7-4.8l32.1-0.4l8.7,4.8
					L440.5,282.7z"/>
			</g>
			<g>
				<polygon class="st19" points="401.1,289 411.7,294.8 439.5,283.4 428.7,277.5 				"/>
				<path class="st19" d="M400.3,288.9l11.4,6.3l28.6-11.8l-11.4-6.3L400.3,288.9z M411.7,294.4L402,289l26.9-11l9.7,5.4
					L411.7,294.4z"/>
			</g>
			<g>
				<polygon class="st13" points="386.8,283.2 390,285 403.3,291 400.1,289.2 				"/>
				<polygon class="st13" points="378.4,279 389.8,285.3 411.7,295.2 400.3,288.9 				"/>
			</g>
		</g>
		<g>
			<polygon class="st13" points="370,290.1 370.2,370.7 371.8,369.9 371.6,290.2 			"/>
			<g>
				<path class="st13" d="M370,371.1l1.9-1v-79.8l-1.9-0.4V371.1z M370.5,290.4l0.9,0.2v79.2l-0.9,0.5V290.4z"/>
			</g>
		</g>
		<g>
			<polygon class="st13" points="411.8,295.4 410.6,295 410.9,348.6 412.5,347.7 412.4,294.8 			"/>
			<g>
				<path class="st13" d="M410.7,294.8v54.2l2-1.1v-53l-1,0.4L410.7,294.8z M412.2,295.5v52.1l-1,0.6v-52.7l0.3,0.1
					c0.1,0,0.1,0,0.2,0c0.1,0,0.1,0,0.2,0L412.2,295.5z"/>
			</g>
		</g>
		<g>
			<polygon class="st13" points="440.3,283.7 439.5,284.1 439.6,333 441.2,332.1 441,283.4 			"/>
			<g>
				<path class="st13" d="M439.4,283.9v49.5l1.9-1v-48.9l-1,0L439.4,283.9z M440.8,283.9V332l-1,0.5v-48.4l0.6-0.2L440.8,283.9z"/>
			</g>
		</g>
	</g>
	<g>
		<defs>
			<filter id="Adobe_OpacityMaskFilter_6_" filterUnits="userSpaceOnUse" x="417.1" y="561.2" width="79.9" height="39.9">
				<feColorMatrix  type="matrix" values="1 0 0 0 0  0 1 0 0 0  0 0 1 0 0  0 0 0 1 0"/>
			</filter>
		</defs>
		<mask maskUnits="userSpaceOnUse" x="417.1" y="561.2" width="79.9" height="39.9" id="SVGID_22_">
			<g class="st54">
				<g>
					<linearGradient id="SVGID_23_" gradientUnits="userSpaceOnUse" x1="413.1309" y1="595.4092" x2="494.3105" y2="575.3923">
						<stop  offset="0" style="stop-color:#FFFFFF"/>
						<stop  offset="1" style="stop-color:#000000"/>
					</linearGradient>
					<polygon class="st36" points="417.1,601.2 494,591.2 496.9,561.2 477.9,563.7 					"/>
				</g>
			</g>
		</mask>
		<linearGradient id="SVGID_24_" gradientUnits="userSpaceOnUse" x1="502.1377" y1="574.7598" x2="395.8048" y2="598.459">
			<stop  offset="0" style="stop-color:#5751CF"/>
			<stop  offset="1" style="stop-color:#1F1271"/>
		</linearGradient>
		<polygon class="st4" points="417.1,601.2 494,591.2 496.9,561.2 469.1,569.1 		"/>
		<g>
			<g>
				<g class="st2">
					<g>
						<g>
							<path class="st20" d="M473.2,565.4c0,0.2-0.1,0.3-0.1,0.5c0,0,0,0.2,0,0.2c-0.1,0.2-0.1,0.4-0.2,0.7
								c-0.1,0.2-0.2,0.5-0.3,0.7l-0.1,0.2c-0.1,0.2-0.2,0.3-0.3,0.5l-0.2,0.2c-0.1,0.1-0.2,0.3-0.3,0.4l-0.2,0.2
								c-0.1,0.1-0.3,0.2-0.4,0.4c0,0-0.2,0.2-0.2,0.2c-0.2,0.2-0.4,0.3-0.7,0.4l-47.9,27.4c-0.9,0.5-2,0.8-3.1,0.8
								c-0.4,0-0.9,0-1.3-0.1l-56.9-12.1l-0.1,3.9l57,12c0.4,0.1,0.8,0.1,1.3,0.1c1.1,0,2.1-0.3,3-0.8l47.9-27.4
								c0.2-0.1,0.5-0.3,0.7-0.4l0.2-0.2c0.1-0.1,0.3-0.2,0.4-0.3l0.2-0.2c0.1-0.1,0.2-0.2,0.4-0.4l0.2-0.2c0.1-0.1,0.1-0.2,0.2-0.3
								l0.1-0.2c0.1-0.2,0.2-0.4,0.4-0.8c0.1-0.2,0.1-0.4,0.2-0.5l0.1-0.5l0.1-0.4c0-0.2,0-0.5,0-0.7l0.1-3.6c0,0.1,0,0.2,0,0.3
								C473.2,565.2,473.2,565.4,473.2,565.4z"/>
							<path class="st20" d="M473.1,565.4c0,0.2-0.1,0.3-0.1,0.5c0,0.1,0,0.2-0.1,0.2c-0.1,0.2-0.1,0.4-0.2,0.5c0,0,0,0.1,0,0.1
								c-0.1,0.2-0.2,0.4-0.3,0.7c0,0.1-0.1,0.1-0.1,0.2c-0.1,0.2-0.2,0.3-0.3,0.5c-0.1,0.1-0.1,0.1-0.2,0.2
								c-0.1,0.1-0.2,0.3-0.3,0.4c-0.1,0.1-0.1,0.1-0.2,0.2c-0.1,0.1-0.3,0.2-0.4,0.4c-0.1,0.1-0.1,0.1-0.2,0.2
								c-0.2,0.2-0.4,0.3-0.7,0.4l-47.9,27.4c-0.9,0.5-2,0.8-3.1,0.8c-0.4,0-0.9,0-1.3-0.1l-57-12v4l57,12c0.4,0.1,0.9,0.1,1.3,0.1
								c1.1,0,2.1-0.3,3.1-0.8l47.9-27.4c0.2-0.1,0.5-0.3,0.7-0.4c0.1-0.1,0.1-0.1,0.2-0.2c0.1-0.1,0.3-0.2,0.4-0.4
								c0.1-0.1,0.1-0.1,0.2-0.2c0.1-0.1,0.2-0.3,0.3-0.4c0.1-0.1,0.1-0.1,0.2-0.2c0,0,0-0.1,0.1-0.1c0.1-0.1,0.2-0.2,0.2-0.4
								c0-0.1,0.1-0.1,0.1-0.2c0.1-0.2,0.2-0.4,0.3-0.6c0,0,0,0,0,0c0,0,0-0.1,0-0.1c0.1-0.2,0.1-0.4,0.2-0.5c0-0.1,0-0.1,0.1-0.2
								c0-0.1,0-0.2,0.1-0.2c0-0.1,0-0.2,0-0.3c0-0.1,0-0.1,0-0.2c0-0.2,0-0.5,0-0.7v-4c0,0.2,0,0.5,0,0.7
								C473.2,565.3,473.1,565.4,473.1,565.4z M473,568.5c0,0.2,0,0.4,0,0.7l0,0.1l0,0.1l0,0.1c0,0,0,0.1,0,0.1c0,0,0,0.1,0,0.1
								l0,0.1c0,0.1,0,0.1-0.1,0.2c0,0.2-0.1,0.4-0.2,0.5c0,0,0,0,0,0.1c0,0,0,0,0,0.1c-0.1,0.2-0.2,0.4-0.3,0.6c0,0,0,0.1,0,0.1
								c0,0,0,0.1,0,0.1l0,0.1c-0.1,0.1-0.1,0.2-0.2,0.3l0,0l0,0c0,0-0.1,0.1-0.1,0.1l0,0.1c-0.1,0.1-0.2,0.3-0.3,0.4
								c-0.1,0.1-0.1,0.1-0.2,0.2c-0.1,0.1-0.3,0.2-0.4,0.3l-0.1,0c0,0-0.1,0.1-0.1,0.1c-0.2,0.2-0.4,0.3-0.6,0.4l-47.9,27.4
								c-0.9,0.5-1.9,0.8-3,0.8c-0.4,0-0.8,0-1.3-0.1l-56.9-12V586l56.8,12c0.4,0.1,0.9,0.1,1.3,0.1c1.1,0,2.2-0.3,3.1-0.8
								l47.9-27.4c0.2-0.1,0.4-0.3,0.7-0.5c0,0,0.1-0.1,0.1-0.1l0.1-0.1c0.1-0.1,0.3-0.2,0.4-0.4c0.1-0.1,0.1-0.1,0.2-0.2
								c0.1-0.1,0.2-0.3,0.4-0.4c0-0.1,0.1-0.1,0.1-0.2c0.1-0.2,0.2-0.3,0.3-0.5l0-0.1c0,0,0-0.1,0.1-0.1c0.1-0.2,0.2-0.4,0.3-0.7
								c0,0,0-0.1,0-0.1l0-0.1c0-0.1,0.1-0.2,0.1-0.3V568.5z"/>
						</g>
						<g>
							<path class="st20" d="M349.6,555.1v3.2c0,2.2,1.1,4.1,3,5.2l36.3,20.8l0-3.8l-36.4-20.9C350.8,558.6,349.7,557,349.6,555.1z"
								/>
							<path class="st20" d="M349.5,554.3v4c0,2.1,1,4.1,3.1,5.3l36.4,20.9v-4l-36.4-20.9C350.6,558.4,349.5,556.3,349.5,554.3z
								 M388.8,584.2l-36.1-20.8c-1.9-1.1-3-3-3-5.1v-2c0.5,1.4,1.5,2.6,2.8,3.4l36.3,20.9V584.2z"/>
						</g>
					</g>
					<g>
						<g>
							<g>
								<g>
									<path class="st1" d="M470.1,559.3l-64.5-37.1c-0.9-0.5-2-0.8-3-0.8c-1.1,0-2.1,0.3-3,0.8L352.7,549c-1.9,1.1-3,3-3,5.2
										c0,2.2,1.1,4.1,3,5.2l36.4,21.1l-28.1,5.2l57,12c0.4,0.1,0.8,0.1,1.3,0.1c1.1,0,2.1-0.3,3-0.8l47.9-27.4c1.9-1.1,3-3,3-5.2
										C473.1,562.4,472,560.4,470.1,559.3z"/>
									<path class="st1" d="M470.1,559.2l-64.5-37.1c-1-0.5-2-0.8-3.1-0.8c-1.1,0-2.1,0.3-3.1,0.8L352.6,549
										c-4.1,2.3-4.1,8.2,0,10.6l36.4,20.9l-28.1,5.4l57,12c0.4,0.1,0.9,0.1,1.3,0.1c1.1,0,2.1-0.3,3.1-0.8l47.9-27.4
										C474.2,567.5,474.2,561.6,470.1,559.2z M470,569.7l-47.9,27.4c-0.9,0.5-1.9,0.8-3,0.8c-0.4,0-0.8,0-1.3-0.1l-56.2-11.9
										l27.4-5.2c0.1,0,0.1-0.1,0.1-0.1c0-0.1,0-0.1-0.1-0.2l-36.4-20.9c-1.9-1.1-3-3-3-5.2c0-2.1,1.1-4.1,3-5.1l46.9-26.8
										c0.9-0.5,1.9-0.8,3-0.8c1.1,0,2.1,0.3,3,0.8l64.5,37.1c1.9,1.1,3,3,3,5.2C473,566.7,471.9,568.6,470,569.7z"/>
								</g>
							</g>
						</g>
					</g>
				</g>
			</g>
			<g>
				<g>
					<g>
						<path class="st25" d="M378.6,546.2c0,2,4.1,4.2,9.5,4.2c5.4,0,9.5-2.2,9.5-4.2v-66.6h-19V546.2z"/>
						<path class="st25" d="M378.4,546.2c0,2.1,4,4.4,9.7,4.4c5.7,0,9.7-2.3,9.7-4.4v-66.9h-19.5V546.2z M378.9,479.8h18.6v66.4
							c0,1.7-3.5,4-9.3,4c-5.8,0-9.3-2.3-9.3-4V479.8z"/>
					</g>
				</g>
				<g>
					<g>
						<path class="st1" d="M388.2,475.2c-5.4,0-9.5,2.2-9.5,4.2c0,2,4.1,4.2,9.5,4.2c5.4,0,9.5-2.2,9.5-4.2
							C397.7,477.4,393.6,475.2,388.2,475.2z"/>
						<path class="st1" d="M388.2,475c-5.7,0-9.7,2.3-9.7,4.4c0,2.1,4,4.4,9.7,4.4c5.7,0,9.7-2.3,9.7-4.4
							C397.9,477.3,393.9,475,388.2,475z M388.2,483.4c-5.8,0-9.3-2.3-9.3-4c0-1.7,3.5-4,9.3-4c5.8,0,9.3,2.3,9.3,4
							C397.4,481,393.9,483.4,388.2,483.4z"/>
					</g>
				</g>
			</g>
			<g>
				<g>
					<g>
						<path class="st23" d="M401.5,558.9c0,2.1,4,4.3,9.6,4.3c5.7,0,9.6-2.3,9.6-4.3l0.1-54.6l-19.4-0.1V558.9z"/>
						<path class="st23" d="M401.4,558.9c0,2.1,4,4.4,9.7,4.4c5.7,0,9.7-2.3,9.7-4.4v-54.7h-19.5V558.9z M401.6,504.4h19.1v54.5
							c0,2-3.9,4.2-9.6,4.2c-5.6,0-9.6-2.2-9.6-4.2V504.4z"/>
					</g>
				</g>
				<g>
					<g>
						<path class="st12" d="M411.2,499.8c-5.7,0-9.6,2.3-9.6,4.3s4,4.3,9.6,4.3c5.7,0,9.6-2.3,9.6-4.3S416.8,499.8,411.2,499.8z"/>
						<path class="st12" d="M411.2,499.8c-5.7,0-9.7,2.3-9.7,4.4c0,2.1,4,4.4,9.7,4.4c5.7,0,9.7-2.3,9.7-4.4
							C420.9,502.1,416.9,499.8,411.2,499.8z M411.2,508.4c-5.6,0-9.6-2.2-9.6-4.2c0-2,3.9-4.2,9.6-4.2c5.6,0,9.6,2.2,9.6,4.2
							C420.7,506.2,416.8,508.4,411.2,508.4z"/>
					</g>
				</g>
			</g>
			<g>
				<g>
					<linearGradient id="SVGID_25_" gradientUnits="userSpaceOnUse" x1="425.0654" y1="552.873" x2="444.0859" y2="552.873">
						<stop  offset="0" style="stop-color:#FA7900"/>
						<stop  offset="1" style="stop-color:#F93904"/>
					</linearGradient>
					<path class="st37" d="M425.1,571.9c0,2,4.1,4.2,9.5,4.2c5.4,0,9.5-2.2,9.5-4.2v-42.3h-19V571.9z"/>
					<linearGradient id="SVGID_26_" gradientUnits="userSpaceOnUse" x1="424.8418" y1="552.873" x2="444.3096" y2="552.873">
						<stop  offset="0" style="stop-color:#FA7900"/>
						<stop  offset="1" style="stop-color:#F93904"/>
					</linearGradient>
					<path class="st38" d="M424.8,571.9c0,2.1,4,4.4,9.7,4.4s9.7-2.3,9.7-4.4v-42.5h-19.5V571.9z M425.3,529.9h18.6v42.1
						c0,1.7-3.5,4-9.3,4c-5.8,0-9.3-2.3-9.3-4V529.9z"/>
				</g>
				<g>
					<g>
						<path class="st13" d="M434.6,525.2c-5.4,0-9.5,2.2-9.5,4.2s4.1,4.2,9.5,4.2c5.4,0,9.5-2.2,9.5-4.2S440,525.2,434.6,525.2z"/>
						<path class="st13" d="M434.6,525c-5.7,0-9.7,2.3-9.7,4.4c0,2.1,4,4.4,9.7,4.4s9.7-2.3,9.7-4.4
							C444.3,527.3,440.3,525,434.6,525z M434.6,533.4c-5.8,0-9.3-2.3-9.3-4c0-1.7,3.5-4,9.3-4c5.8,0,9.3,2.3,9.3,4
							C443.9,531.1,440.3,533.4,434.6,533.4z"/>
					</g>
				</g>
			</g>
			<g>
				
					<rect x="373.2" y="566.6" transform="matrix(-0.8648 -0.5022 0.5022 -0.8648 458.5671 1257.9448)" class="st20" width="50.9" height="1.2"/>
			</g>
			<g>
				
					<rect x="375.8" y="570.4" transform="matrix(-0.8648 -0.5022 0.5022 -0.8648 448.1428 1262.6216)" class="st20" width="36.6" height="1.2"/>
			</g>
		</g>
	</g>
	<g>
		<path class="st21" d="M573.1,334.4c1.8-1.7,4.3-6,3.8-6.7c-0.8-1.1-2.1,1.3-3.7,3.5c-1.8,2.6-4.5,0.2-6.2,0.2
			c-3.5,0.1-4.7,3.2-5.4,4.7c-2.6,5.2-7.5,7.8-10.9,10.2c-2.1,1.5-3.7,2.9-4.8,3.9c-0.7,0.7-0.6,1.9,0.2,2.4l3.2,1.9
			c1,0.6,2.2,0.3,2.8-0.6c3-4.3,11.2-15.5,13.4-14.4c3.1,1.5,10.4-0.2,9.3-1.8c-0.6-0.9-4.3,1.4-4.9,0.1
			C569.8,336.9,571.3,336.1,573.1,334.4z"/>
		<linearGradient id="SVGID_27_" gradientUnits="userSpaceOnUse" x1="501.8076" y1="352.876" x2="559.7783" y2="352.876">
			<stop  offset="0" style="stop-color:#5751CF"/>
			<stop  offset="1" style="stop-color:#1F1271"/>
		</linearGradient>
		<path class="st39" d="M557.7,342.1c-6.2,2.5-18,11.5-19.9,11.5c-1.9,0-21-11.4-24.7-12.8c-3.7-1.4-6.9-1.2-9.6,0.4
			s-2.7,8.5,2.3,12.8c5.6,4.8,27.9,11.8,33.5,11.7c5.6-0.1,15.7-11.5,19.1-17C561.8,343.3,557.7,342.1,557.7,342.1z"/>
	</g>
	<g>
		<defs>
			<filter id="Adobe_OpacityMaskFilter_7_" filterUnits="userSpaceOnUse" x="497.5" y="479.8" width="61.8" height="33.4">
				<feColorMatrix  type="matrix" values="1 0 0 0 0  0 1 0 0 0  0 0 1 0 0  0 0 0 1 0"/>
			</filter>
		</defs>
		<mask maskUnits="userSpaceOnUse" x="497.5" y="479.8" width="61.8" height="33.4" id="SVGID_28_">
			<g class="st55">
				<g>
					<linearGradient id="SVGID_29_" gradientUnits="userSpaceOnUse" x1="489.2363" y1="526.8594" x2="547.0399" y2="496.5613">
						<stop  offset="0" style="stop-color:#FFFFFF"/>
						<stop  offset="1" style="stop-color:#000000"/>
					</linearGradient>
					<polygon class="st40" points="497.5,513.3 557,505 559.3,479.8 510.5,502.1 					"/>
				</g>
			</g>
		</mask>
		<linearGradient id="SVGID_30_" gradientUnits="userSpaceOnUse" x1="563.5234" y1="491.1982" x2="480.5905" y2="509.6822">
			<stop  offset="0" style="stop-color:#5751CF"/>
			<stop  offset="1" style="stop-color:#1F1271"/>
		</linearGradient>
		<polygon class="st7" points="497.5,513.3 557,505 559.3,479.8 511.2,502.8 		"/>
		<defs>
			<filter id="Adobe_OpacityMaskFilter_8_" filterUnits="userSpaceOnUse" x="539" y="489.6" width="61.8" height="33.4">
				<feColorMatrix  type="matrix" values="1 0 0 0 0  0 1 0 0 0  0 0 1 0 0  0 0 0 1 0"/>
			</filter>
		</defs>
		<mask maskUnits="userSpaceOnUse" x="539" y="489.6" width="61.8" height="33.4" id="SVGID_31_">
			<g class="st56">
				<g>
					<linearGradient id="SVGID_32_" gradientUnits="userSpaceOnUse" x1="530.709" y1="536.6196" x2="588.512" y2="506.3219">
						<stop  offset="0" style="stop-color:#FFFFFF"/>
						<stop  offset="1" style="stop-color:#000000"/>
					</linearGradient>
					<polygon class="st41" points="539,523 598.5,514.7 600.7,489.6 551.9,511.9 					"/>
				</g>
			</g>
		</mask>
		<linearGradient id="SVGID_33_" gradientUnits="userSpaceOnUse" x1="604.9951" y1="500.959" x2="522.0627" y2="519.4428">
			<stop  offset="0" style="stop-color:#5751CF"/>
			<stop  offset="1" style="stop-color:#1F1271"/>
		</linearGradient>
		<polygon class="st30" points="539,523 598.5,514.7 600.7,489.6 552.7,512.6 		"/>
		<g>
			<g>
				<g>
					<path class="st13" d="M496.9,504.6c-1,1-2.2,6.3-1.4,7.3c0.5,0.6,1.2,0.9,1.9,1.2c5.9,2.3,15.1-5.6,16.6-7
						c1.4-1.2,2.8-3.9,2-5.5C515.5,499.3,498.2,503.4,496.9,504.6z"/>
					<path class="st12" d="M505.5,499.9c-2.2,0.9-8,4.1-9,5c-1.1,1-1.9,4.5-1,5.4c0.5,0.6,1.9,1.1,2.6,1.3c2.9,1,10.8-2.7,14.8-6.2
						c1.4-1.2,3.7-4,2.9-5.7C515.2,498.4,509.7,498.2,505.5,499.9z"/>
				</g>
				<ellipse class="st13" cx="503.6" cy="508.3" rx="0.8" ry="1.1"/>
				<path class="st13" d="M496.9,505.3c0,0-1.6,1.5-1.1,5.3c0,0,0.7,1.1,2.6,1.3c0,0-0.1-3.9,0.7-5.1l0.4-0.8l-1.7-2.2L496.9,505.3z
					"/>
			</g>
			<path class="st21" d="M497.5,502.3c-0.2,1-0.3,2-0.6,3c0.5-0.3,1.1-0.4,1.6-0.1c0.5,0.3,0.8,1,0.6,1.6c1.4,0.2,3-0.2,4.3-0.7
				c3.7-1.6,4.3-3.7,4-4.4C506.3,499.2,498.5,502.5,497.5,502.3z"/>
		</g>
		<g>
			<g>
				<g>
					<path class="st13" d="M536.1,513.5c-1.1,1.1-2.5,7-1.5,8.1c0.6,0.6,1.4,1,2.2,1.3c6.6,2.5,16.6-6.2,18.3-7.7
						c1.5-1.3,3.1-4.3,2.2-6.1C556.6,507.6,537.5,512.1,536.1,513.5z"/>
					<path class="st12" d="M545.6,508.2c-2.4,0.9-8.8,4.5-9.9,5.6c-1.2,1.1-2.1,4.9-1.1,6c0.6,0.6,2.1,1.2,2.9,1.5
						c3.2,1.1,12-3,16.3-6.9c1.5-1.3,4.1-4.5,3.2-6.3C556.4,506.6,550.3,506.4,545.6,508.2z"/>
				</g>
				<ellipse class="st13" cx="543.5" cy="517.5" rx="0.9" ry="1.2"/>
				<path class="st13" d="M536,514.2c0,0-1.7,1.6-1.2,5.9c0,0,0.7,1.2,2.9,1.4c0,0-0.1-4.3,0.8-5.6l0.5-0.9l-1.8-2.4L536,514.2z"/>
			</g>
			<path class="st21" d="M536.7,510.9c-0.2,1.1-0.4,2.2-0.7,3.3c0.5-0.3,1.2-0.4,1.8-0.1c0.6,0.4,0.8,1.1,0.6,1.7
				c1.5,0.3,3.3-0.2,4.7-0.8c4.1-1.7,4.8-4.1,4.4-4.9C546.4,507.5,537.9,511.1,536.7,510.9z"/>
		</g>
		<linearGradient id="SVGID_34_" gradientUnits="userSpaceOnUse" x1="470.7676" y1="498.4624" x2="511.7258" y2="436.3189">
			<stop  offset="0" style="stop-color:#FA7900"/>
			<stop  offset="1" style="stop-color:#F93904"/>
		</linearGradient>
		<path class="st42" d="M506.5,393.8c-7.8,4.7-9.1,17.7-9.2,22c-0.1,3.9,2.8,30.9,3.2,37.7c-0.9,2.4-5.1,9.4-4.4,21.4
			c0.4,7.3,1.4,27.6,1.4,27.6c2.2,1.7,5.7-0.1,5.7-0.1s8.4-38.5,10.2-50.5c1.6-8.6,13.9-45,5.4-54.1
			C513.8,392.5,508.3,392.7,506.5,393.8z"/>
		<linearGradient id="SVGID_35_" gradientUnits="userSpaceOnUse" x1="530.2246" y1="493.2271" x2="526.8912" y2="419.224">
			<stop  offset="0" style="stop-color:#FA7900"/>
			<stop  offset="1" style="stop-color:#F93904"/>
		</linearGradient>
		<path class="st43" d="M532.2,401.8c-6.1-3.8-12.2,0.9-13.8,2.4c-6.5,6.4-4.4,13.4-3.4,17.6c0.8,3.5,13,37.5,13,37.5
			c-0.4,9.8-0.4,16.3,1.2,23.4c1.6,7.1,7.5,28.3,7.5,28.3c3.7,1.4,6.2-1.8,6.2-1.8s-0.5-40.7-1.6-52
			C540.5,446.4,539.9,406.6,532.2,401.8z"/>
		<g>
			<linearGradient id="SVGID_36_" gradientUnits="userSpaceOnUse" x1="496.6279" y1="378.0059" x2="538.2773" y2="378.0059">
				<stop  offset="0" style="stop-color:#5751CF"/>
				<stop  offset="1" style="stop-color:#1F1271"/>
			</linearGradient>
			<path class="st44" d="M505.2,339c-0.2,0-0.4,0-0.6,0c-2.1,0.2-3.8,1.1-5,2.7c-2.9,3.9-2.9,25.5,0,38.1c1.9,8.2-2.6,20.4-3,25.4
				c-0.1,1.7,0.5,3.4,1.7,4.7c4.4,4.7,16.1,7,21.1,7l0.3,0c13.5-0.3,18.1-8.9,18.1-8.9c3.6-8.6-12.3-51.1-15.3-55.9
				C517.1,343.3,511.5,339,505.2,339z"/>
		</g>
		<path class="st21" d="M516.7,316.2c-6.5,0-14.6,7.3-13,10.5c1.6,3.2,2.2,6.2,2.3,7.6l0,0c0,0,0.4,4.2-1.8,7.4c-1.6,2.4,0.6,5,4,5
			c1.2,0,4.1-0.5,5.5-1.2c0.5-0.3-3.6-1.8-2.4-7c0.6,0.1,4.9,0.6,5.5,0.6c1.7,0,2.9-0.4,3.2-0.8c0.6-0.7,0.8-3.3,1.2-4.6
			c0.4-1.2,1.2-3.5,1.2-4.4c0-1-0.6-2-0.5-2.7c0.1-0.7,0.4-1.3,0.6-2.2c0.3-1.1-0.6-5.7-0.6-5.7
			C520.6,316.9,518.7,316.2,516.7,316.2z"/>
		<path class="st48" d="M508.7,322.3c-3.5,6-3.9,6.5-3.5,7.6c0.4,1.1,1.1,4,1.1,4c0.9,0.5,4.6,1.4,6.5,1.4c0.1,0,0.1,0,0.2,0
			c2.4-0.1,4.4-0.9,3.9-2.3c-0.5-1.4-1.5-4.9-0.3-5.9c0.5-0.4,0.8-0.5,1.1-0.5c1.2,0,1.1,2.9,3,2.9c0,0,0.1,0,0.1,0
			c1.2-0.1-1.1-4.1,0.6-5c1.7-0.9,3.2-4,3.2-4s-4.1-1.3-8.2-1.3C513.3,319.1,510.2,319.8,508.7,322.3z"/>
		<path class="st6" d="M526.7,307.2c-0.1,0-0.1,0-0.2,0c-0.8,0-4,5.2-7.2,5.2c-0.3,0-0.7,0-1,0c-0.8-0.1-1.6-0.1-2.4-0.1
			c-3.8,0-8.1,0.6-10.1,2c-2.5,1.7-5,5.3-3.6,9.1c1.5,3.8,2.6,5.5,2.6,5.5s1.5,1.3,3.4,1.3c1.5,0,3.3-0.9,4.7-4
			c3-6.9,11.6-4.2,14.8-6.2C530.8,318.1,530.8,307.2,526.7,307.2z"/>
	</g>
	<g>
		<path class="st21" d="M561.4,407.5c0.4,0.1,3.6,0.6,2.9-0.6c-0.1-0.2-1.5-0.5-3.5-0.7c-0.4,0-1-0.1-1.4-0.1
			c-0.6,0-5.6,0.5-6.4,0.3c-0.8-0.3-1.7-1.1-2.5-1.5c-0.3-0.2-0.6-0.3-0.9-0.5c-0.3-0.2-0.6-0.4-0.9-0.5c-1-0.6-2-1.2-2.9-1.8
			c-1.1-0.7-2.2-1.3-3.3-1.9c-1.1-0.6-2.2-1.2-3.3-1.7c-1-0.4-2-0.8-3.1-1.1c-0.8-0.2-1.7-0.3-2.6-0.2c-0.2,0-0.3,0.1-0.5,0.1
			c-2.2,0.7-6.3,6.1-4.4,7.3c7,4.3,17.7,3.2,23.3,4.6c1.8,0.7,1.8,4.5,8.9,5c1.1,0.1,1.6,0,2.4,1c1,1.3,3.4,0.5,3.5,0.1
			c0.5-1.8-2.6-4.3-2.6-4.3c0.6,0.2,0.8-0.1,1.5,0.4c1.1,0.9,1.6,2.6,2.3,2.7c1,0.1-0.1-1.8-1-3.2
			C566.1,409.3,558.8,407.1,561.4,407.5z"/>
		<linearGradient id="SVGID_37_" gradientUnits="userSpaceOnUse" x1="506.6123" y1="378.9014" x2="550.0254" y2="378.9014">
			<stop  offset="0" style="stop-color:#5751CF"/>
			<stop  offset="1" style="stop-color:#1F1271"/>
		</linearGradient>
		<path class="st45" d="M527.1,391c-1.2-1.9-3-27.9-4.2-32.5c-1.1-4.6-3.3-7.7-6.4-9.4c-3-1.7-9.3,2.2-9.9,9.8
			c-0.7,8.5,7,35.2,10.6,40.8c3.6,5.6,20.2,9.3,27.1,9.4s5.5-4.7,5.5-4.7C543.8,399.7,528.3,392.9,527.1,391z"/>
	</g>
	<g>
		<path class="st19" d="M663.9,492.6l1.9-8.5c0-0.1,0-0.2,0-0.3l0,0l0-4.6l-2.1,2.6c-0.8-0.1-1.8-0.1-2.8,0.2
			c-2.4,0.6-4.4,2.2-4.7,3.7l-1.7,7.7l-1.3,1.7v4.7l0,0c0.1,0.5,0.4,1,1,1.3c0,0,0.1,0,0.1,0.1l1.5,0.7l48-9.4
			c2.4-0.5,4.7-1.9,5.3-3.4c0.1-0.4,0.1-0.7,0.1-1l0.1,0v-4.1l-21.9,5.2L663.9,492.6z"/>
		<g>
			<path class="st20" d="M704.6,482.1l-40,7.8c-0.6,0.1-1-0.1-1-0.5l2.2-9.7c0.4-1.8-1.8-2.9-4.9-2.2c-2.4,0.6-4.4,2.2-4.7,3.7
				l-3,13.4c-0.2,0.8,0.2,1.6,0.9,2c0,0,0.1,0,0.1,0.1l1.5,0.7l48-9.4c2.4-0.5,4.7-1.9,5.3-3.4C709.7,482.6,707.5,481.5,704.6,482.1
				z"/>
		</g>
	</g>
	<g>
		<defs>
			<filter id="Adobe_OpacityMaskFilter_9_" filterUnits="userSpaceOnUse" x="407.3" y="431.9" width="24.1" height="16">
				<feColorMatrix  type="matrix" values="1 0 0 0 0  0 1 0 0 0  0 0 1 0 0  0 0 0 1 0"/>
			</filter>
		</defs>
		<mask maskUnits="userSpaceOnUse" x="407.3" y="431.9" width="24.1" height="16" id="SVGID_38_">
			<g class="st57">
				<g>
					<linearGradient id="SVGID_39_" gradientUnits="userSpaceOnUse" x1="405.5889" y1="443.9492" x2="430.9377" y2="437.6989">
						<stop  offset="0" style="stop-color:#FFFFFF"/>
						<stop  offset="1" style="stop-color:#000000"/>
					</linearGradient>
					<polygon class="st46" points="407.3,447.9 430.5,443.9 431.4,431.9 425.7,432.9 					"/>
				</g>
			</g>
		</mask>
		<linearGradient id="SVGID_40_" gradientUnits="userSpaceOnUse" x1="433.2891" y1="437.2422" x2="400.1873" y2="444.6198">
			<stop  offset="0" style="stop-color:#5751CF"/>
			<stop  offset="1" style="stop-color:#1F1271"/>
		</linearGradient>
		<polygon class="st18" points="407.3,447.9 430.5,443.9 431.4,431.9 425.7,432.9 		"/>
		<g>
			<g>
				<polygon class="st19" points="430.4,422.3 413.5,425.1 399.2,418.4 399.5,428.9 385,434.3 402.1,437.9 407.5,447.8 417.7,439.7 
					435.4,440.5 424.7,431.8 				"/>
				<path class="st19" d="M430.3,422.2l-16.9,2.8l-14.4-6.6l0.4,10.4l-14.5,5.6l17.1,3.5l5.4,10l10.2-8.2l17.8,0.6l-10.8-8.6
					L430.3,422.2z M435,440.2l-17.3-0.6c0,0,0,0,0,0c0,0-0.1,0-0.1,0l-10,8l-5.3-9.8c0,0-0.1-0.1-0.1-0.1l-16.5-3.4l14-5.4
					c0.1,0,0.1-0.1,0.1-0.2l-0.3-10.1l14.1,6.5c0,0,0,0,0.1,0c0,0,0,0,0,0l16.5-2.8l-5.4,9.3c0,0.1,0,0.2,0,0.2L435,440.2z"/>
			</g>
			<g>
				<polygon class="st13" points="385,434.3 402,437.8 402,433.2 385,429.5 				"/>
				<path class="st13" d="M385,434.4l17.1,3.5v-4.8l-17.1-3.5V434.4z M385.1,429.7l16.7,3.5v4.5l-16.7-3.5V429.7z"/>
			</g>
			<g>
				<polygon class="st13" points="417.7,439.7 435.4,440.3 435.5,435.7 417.7,434.9 				"/>
				<path class="st13" d="M417.7,439.8l17.8,0.6v-4.8l-17.8-0.6V439.8z M417.8,435.1l17.5,0.6v4.5l-17.5-0.6V435.1z"/>
			</g>
			<g>
				<polygon class="st19" points="423.2,426.9 426.5,428.5 430.3,422.2 430.4,417.4 424.7,421.7 				"/>
				<path class="st19" d="M423.2,426.9l3.4,1.7l3.8-6.5v-4.8l-5.7,4.4L423.2,426.9z M430.2,417.7v4.4l-3.7,6.3l-3.1-1.6l1.4-5
					L430.2,417.7z"/>
			</g>
			<g>
				<polygon class="st13" points="399.2,413.6 399.2,418.4 399.4,424.8 401.9,424.9 401.5,419.8 				"/>
				<path class="st13" d="M399.1,413.6v4.8l0.2,6.4l2.7,0.1l-0.4-5.2L399.1,413.6z M399.5,424.7l-0.2-6.3v-4l2.2,5.3l0.4,5
					L399.5,424.7z"/>
			</g>
			<g>
				<polygon class="st20" points="430.4,417.4 413.5,420.3 399.2,413.6 399.5,424 385,429.4 402.1,433 407.5,443 417.7,434.9 
					435.4,435.6 424.7,426.9 				"/>
				<path class="st20" d="M430.3,417.4l-16.9,2.9l-14.4-6.6l0.4,10.3l-14.5,5.6l17.1,3.5l5.4,10l10.2-8.2l17.8,0.6l-10.8-8.6
					L430.3,417.4z M435,435.4l-17.3-0.6c0,0,0,0,0,0c0,0-0.1,0-0.1,0l-10,8l-5.3-9.8c0,0-0.1-0.1-0.1-0.1l-16.5-3.4l14-5.4
					c0.1,0,0.1-0.1,0.1-0.2l-0.3-10.1l14.1,6.5c0,0,0,0,0.1,0c0,0,0,0,0,0l16.5-2.8l-5.4,9.3c0,0.1,0,0.2,0,0.2L435,435.4z"/>
			</g>
		</g>
	</g>
	<g>
		<defs>
			<filter id="Adobe_OpacityMaskFilter_10_" filterUnits="userSpaceOnUse" x="584" y="589.2" width="36.8" height="24.5">
				<feColorMatrix  type="matrix" values="1 0 0 0 0  0 1 0 0 0  0 0 1 0 0  0 0 0 1 0"/>
			</filter>
		</defs>
		<mask maskUnits="userSpaceOnUse" x="584" y="589.2" width="36.8" height="24.5" id="SVGID_41_">
			<g class="st5">
				<g>
					<linearGradient id="SVGID_42_" gradientUnits="userSpaceOnUse" x1="581.3154" y1="607.6221" x2="620.0669" y2="598.067">
						<stop  offset="0" style="stop-color:#FFFFFF"/>
						<stop  offset="1" style="stop-color:#000000"/>
					</linearGradient>
					<polygon class="st47" points="584,613.7 619.4,607.6 620.8,589.2 612,590.7 					"/>
				</g>
			</g>
		</mask>
		<linearGradient id="SVGID_43_" gradientUnits="userSpaceOnUse" x1="623.6611" y1="597.3682" x2="573.0576" y2="608.6466">
			<stop  offset="0" style="stop-color:#5751CF"/>
			<stop  offset="1" style="stop-color:#1F1271"/>
		</linearGradient>
		<polygon class="st58" points="584,613.7 619.4,607.6 620.8,589.2 612,590.7 		"/>
		<g>
			<g>
				<polygon class="st19" points="619.2,574.5 593.3,578.8 571.5,568.6 572,584.6 549.8,592.8 576,598.3 584.2,613.5 599.8,601.1 
					627,602.3 610.5,589 				"/>
				<path class="st19" d="M619.2,574.3l-25.8,4.4l-22-10.1l0.5,15.8l-22.2,8.5l26.1,5.4l8.3,15.3l15.6-12.5l27.3,1l-16.5-13.1
					L619.2,574.3z M626.3,601.9l-26.5-0.9c0,0,0,0,0,0c-0.1,0-0.1,0-0.2,0.1l-15.4,12.3l-8.1-15.1c0-0.1-0.1-0.1-0.2-0.1l-25.3-5.2
					l21.4-8.2c0.1,0,0.2-0.1,0.2-0.2l-0.5-15.4l21.6,9.9c0,0,0.1,0,0.1,0c0,0,0,0,0,0l25.2-4.3l-8.3,14.3c-0.1,0.1,0,0.3,0.1,0.3
					L626.3,601.9z"/>
			</g>
			<g>
				<polygon class="st13" points="549.8,592.8 575.8,598.2 575.9,591.1 549.9,585.6 				"/>
				<path class="st13" d="M549.8,592.9l26.1,5.4V591l-26.1-5.4V592.9z M550,585.9l25.6,5.3v6.8l-25.6-5.3V585.9z"/>
			</g>
			<g>
				<polygon class="st13" points="599.8,601.1 626.9,602.1 627,595 599.9,593.9 				"/>
				<path class="st13" d="M599.8,601.2l27.3,1v-7.4l-27.3-1V601.2z M600,594.1l26.8,0.9v6.9L600,601V594.1z"/>
			</g>
			<g>
				<polygon class="st19" points="608.3,581.5 613.4,584.1 619,574.3 619.2,567.1 610.6,573.7 				"/>
				<path class="st19" d="M608.2,581.6l5.2,2.6l5.8-9.9V567l-8.7,6.7L608.2,581.6z M618.9,567.5v6.8l-5.6,9.6l-4.8-2.4l2.1-7.7
					L618.9,567.5z"/>
			</g>
			<g>
				<polygon class="st13" points="571.5,561.3 571.5,568.6 571.8,578.3 575.7,578.5 575.1,570.7 				"/>
				<path class="st13" d="M571.4,561.3v7.4l0.4,9.8l4.1,0.2l-0.7-8L571.4,561.3z M572,578.2l-0.4-9.6v-6l3.3,8.1l0.6,7.7L572,578.2z
					"/>
			</g>
			<g>
				<polygon class="st20" points="619.2,567.1 593.3,571.4 571.5,561.2 572,577.2 549.8,585.5 576,590.9 584.2,606.1 599.8,593.7 
					627,594.9 610.5,581.6 				"/>
				<path class="st20" d="M619.2,567l-25.8,4.4l-22-10.1l0.5,15.8l-22.2,8.5l26.1,5.4l8.3,15.3l15.6-12.5l27.3,1l-16.5-13.1
					L619.2,567z M626.3,594.5l-26.5-0.9c0,0,0,0,0,0c-0.1,0-0.1,0-0.2,0.1l-15.4,12.3l-8.1-15.1c0-0.1-0.1-0.1-0.2-0.1l-25.3-5.2
					l21.4-8.2c0.1,0,0.2-0.1,0.2-0.2l-0.5-15.4l21.6,9.9c0,0,0.1,0,0.1,0c0,0,0,0,0,0l25.2-4.3l-8.3,14.3c-0.1,0.1,0,0.3,0.1,0.3
					L626.3,594.5z"/>
			</g>
		</g>
	</g>
</g>
</svg>
