<?xml version="1.0" standalone="no"?>
<!DOCTYPE svg PUBLIC "-//W3C//DTD SVG 20010904//EN"
 "http://www.w3.org/TR/2001/REC-SVG-20010904/DTD/svg10.dtd">
<svg version="1.0" xmlns="http://www.w3.org/2000/svg"
 width="192.000000pt" height="192.000000pt" viewBox="0 0 192.000000 192.000000"
 preserveAspectRatio="xMidYMid meet">

<g transform="translate(0.000000,192.000000) scale(0.100000,-0.100000)"
fill="#000000" stroke="none">
<path d="M230 1091 c0 -5 7 -11 14 -14 10 -4 13 -1 9 9 -6 15 -23 19 -23 5z"/>
<path d="M82 1073 c2 -13 12 -18 33 -18 43 0 40 29 -3 33 -28 3 -33 0 -30 -15z"/>
<path d="M280 1000 c0 -5 9 -10 20 -10 11 0 20 5 20 10 0 6 -9 10 -20 10 -11
0 -20 -4 -20 -10z"/>
<path d="M144 979 c-7 -12 12 -29 32 -29 15 0 36 25 27 33 -10 11 -51 8 -59
-4z"/>
<path d="M325 930 c-3 -5 3 -10 15 -10 12 0 18 5 15 10 -3 6 -10 10 -15 10 -5
0 -12 -4 -15 -10z"/>
<path d="M211 897 c-9 -12 -8 -16 4 -21 20 -7 47 4 42 18 -6 17 -32 19 -46 3z"/>
<path d="M378 863 c7 -3 16 -2 19 1 4 3 -2 6 -13 5 -11 0 -14 -3 -6 -6z"/>
<path d="M75 847 c-10 -8 -15 -19 -11 -25 10 -17 51 -15 66 3 25 30 -18 48
-55 22z"/>
<path d="M283 833 c-22 -8 -14 -23 13 -23 15 0 24 5 22 12 -5 14 -18 18 -35
11z"/>
<path d="M420 810 c0 -5 7 -7 15 -4 8 4 15 8 15 10 0 2 -7 4 -15 4 -8 0 -15
-4 -15 -10z"/>
<path d="M157 773 c-15 -14 -6 -33 17 -33 25 0 51 22 39 33 -8 9 -48 9 -56 0z"/>
<path d="M340 770 c-8 -5 -12 -12 -8 -15 10 -10 49 5 43 16 -8 11 -16 11 -35
-1z"/>
<path d="M395 720 c-3 -5 3 -10 14 -10 12 0 21 5 21 10 0 6 -6 10 -14 10 -8 0
-18 -4 -21 -10z"/>
<path d="M242 708 c-17 -17 -15 -28 6 -28 19 0 42 18 42 32 0 12 -35 9 -48 -4z"/>
<path d="M450 680 c0 -5 4 -10 9 -10 6 0 13 5 16 10 3 6 -1 10 -9 10 -9 0 -16
-4 -16 -10z"/>
<path d="M323 663 c-13 -5 -19 -33 -7 -33 3 0 14 5 25 10 34 19 19 38 -18 23z"/>
<path d="M144 630 c-28 -11 -39 -29 -25 -43 14 -14 61 7 61 27 0 20 -11 25
-36 16z"/>
<path d="M390 615 c-10 -12 -10 -15 3 -15 8 0 20 7 27 15 10 12 10 15 -3 15
-8 0 -20 -7 -27 -15z"/>
<path d="M455 591 c-10 -17 12 -21 25 -6 10 12 10 15 -3 15 -9 0 -18 -4 -22
-9z"/>
<path d="M232 574 c-27 -19 -28 -34 -3 -34 23 0 54 28 46 41 -8 13 -17 11 -43
-7z"/>
<path d="M520 570 c0 -5 4 -10 9 -10 6 0 13 5 16 10 3 6 -1 10 -9 10 -9 0 -16
-4 -16 -10z"/>
<path d="M580 559 c0 -5 5 -7 10 -4 6 3 10 8 10 11 0 2 -4 4 -10 4 -5 0 -10
-5 -10 -11z"/>
<path d="M323 543 c-14 -5 -18 -43 -5 -43 10 0 42 33 42 43 0 8 -19 8 -37 0z"/>
<path d="M406 514 c-18 -18 -13 -36 9 -28 17 7 27 32 15 39 -4 3 -16 -2 -24
-11z"/>
<path d="M480 495 c-7 -9 -10 -18 -7 -22 8 -7 37 15 37 28 0 14 -16 11 -30 -6z"/>
<path d="M550 485 c0 -8 4 -15 9 -15 5 0 11 7 15 15 3 9 0 15 -9 15 -8 0 -15
-7 -15 -15z"/>
<path d="M617 493 c-4 -3 -7 -11 -7 -17 0 -6 5 -5 12 2 6 6 9 14 7 17 -3 3 -9
2 -12 -2z"/>
<path d="M670 489 c0 -5 5 -7 10 -4 6 3 10 8 10 11 0 2 -4 4 -10 4 -5 0 -10
-5 -10 -11z"/>
<path d="M727 443 c-4 -3 -7 -11 -7 -17 0 -6 5 -5 12 2 6 6 9 14 7 17 -3 3 -9
2 -12 -2z"/>
<path d="M232 428 c-17 -17 -15 -48 2 -48 19 0 46 27 46 46 0 17 -31 19 -48 2z"/>
<path d="M667 424 c-4 -4 -7 -14 -7 -23 0 -11 3 -12 11 -4 6 6 10 16 7 23 -2
6 -7 8 -11 4z"/>
<path d="M335 400 c-14 -16 -16 -23 -7 -32 9 -9 16 -7 32 7 11 10 20 24 20 32
0 19 -24 16 -45 -7z"/>
<path d="M593 405 c-3 -9 -3 -18 0 -21 9 -9 27 6 27 22 0 19 -19 18 -27 -1z"/>
<path d="M432 398 c-17 -17 -15 -38 3 -38 12 0 35 28 35 44 0 11 -26 6 -38 -6z"/>
<path d="M516 394 c-8 -22 -8 -24 8 -24 12 0 26 20 26 36 0 12 -29 2 -34 -12z"/>
<path d="M791 374 c0 -11 3 -14 6 -6 3 7 2 16 -1 19 -3 4 -6 -2 -5 -13z"/>
<path d="M726 355 c-9 -24 5 -41 16 -20 7 11 7 20 0 27 -6 6 -12 3 -16 -7z"/>
<path d="M864 339 c-3 -6 -1 -16 5 -22 8 -8 11 -5 11 11 0 24 -5 28 -16 11z"/>
<path d="M655 319 c-8 -23 -1 -34 14 -24 13 8 15 45 2 45 -5 0 -13 -9 -16 -21z"/>
<path d="M582 308 c-14 -14 -16 -48 -2 -48 5 0 14 9 21 21 13 25 -1 45 -19 27z"/>
<path d="M804 297 c-4 -10 -2 -23 3 -28 14 -14 24 13 13 32 -7 11 -10 10 -16
-4z"/>
<path d="M950 301 c0 -6 5 -13 10 -16 6 -3 10 1 10 9 0 9 -4 16 -10 16 -5 0
-10 -4 -10 -9z"/>
<path d="M484 274 c-12 -17 -14 -28 -7 -35 13 -13 43 15 43 42 0 27 -16 24
-36 -7z"/>
<path d="M386 274 c-19 -19 -21 -54 -3 -54 20 0 37 22 37 47 0 27 -12 29 -34
7z"/>
<path d="M737 253 c-4 -3 -7 -15 -7 -25 0 -26 24 -17 28 10 3 21 -8 29 -21 15z"/>
<path d="M900 236 c0 -14 5 -26 10 -26 6 0 10 9 10 19 0 11 -4 23 -10 26 -6 4
-10 -5 -10 -19z"/>
<path d="M657 213 c-13 -12 -7 -53 7 -53 14 0 29 37 20 52 -6 10 -18 10 -27 1z"/>
<path d="M1010 201 c0 -20 17 -37 27 -28 7 8 -7 47 -18 47 -5 0 -9 -9 -9 -19z"/>
<path d="M834 186 c-7 -20 2 -46 16 -46 13 0 13 47 0 55 -6 3 -13 -1 -16 -9z"/>
<path d="M565 166 c-18 -27 -13 -60 8 -54 19 7 33 56 20 69 -8 8 -16 4 -28
-15z"/>
<path d="M956 143 c-10 -10 -7 -51 5 -59 15 -9 28 13 22 37 -6 22 -17 31 -27
22z"/>
<path d="M755 120 c-7 -23 2 -60 15 -60 13 0 24 46 16 65 -8 21 -23 19 -31 -5z"/>
</g>
</svg>
