<svg xmlns="http://www.w3.org/2000/svg" version="1.1" viewBox="0 0 3000 3000" width="3000" height="3000">
<defs/><!--ITEM: Illustration component 1--><g transform="translate(780.0 195.0) rotate(0.0 646.875 508.125)  scale(4.3125 4.30614406779661)"><svg width="300.0" height="236.0" viewBox="0.0 0.0 300.0 236.0"><g fill="#caddfd"><path d="m252.537 23.491.409-1.033-2.207-.874c.576.595 1.151 1.185 1.71 1.804.03.031.059.069.088.103z"/><path d="m158.14 16.838-.009.022.02-.016z"/><path d="m134.068 77.763.362.143c-.035-.272-.062-.545-.095-.818z"/><path d="m266.103 67.821 3.855 1.528c.013-2.583-.135-5.166-.415-7.739l-.853-.338z"/><path d="m258.954 85.955 2.588-6.551 5.411 2.143-2.588 6.551z"/><path d="m254.358 97.53 5.411 2.143-2.588 6.55-5.411-2.143z"/><path d="m250.334 116.879-3.124-1.236-2.51 6.354c.941-.763 1.869-1.553 2.781-2.375.984-.89 1.93-1.81 2.853-2.743z"/><path d="m259.612 53.631 5.412 2.144 2.262-5.724c-.106-.365-.225-.726-.336-1.09l-4.749-1.88z"/><path d="m255.043 65.198 5.411 2.143-2.588 6.55-5.411-2.143z"/><path d="m253.296 85.48-2.588 6.551-5.412-2.144 2.589-6.55z"/><path d="m240.707 101.462 5.411 2.142-2.588 6.551-5.411-2.143z"/><path d="m233.554 119.577-2.589 6.551 4.898 1.941c.258-.148.515-.294.769-.447l2.331-5.901z"/><path d="m256.857 43.186-5.411-2.143 2.588-6.551 5.411 2.143z"/><path d="m244.29 59.184 2.588-6.55 5.411 2.143-2.588 6.55z"/><path d="m242.536 79.435-5.411-2.143 2.588-6.551 5.411 2.143z"/><path d="m232.535 88.882 5.411 2.143-2.588 6.55-5.411-2.143z"/><path d="m225.391 106.991 5.411 2.143-2.589 6.551-5.411-2.144z"/><path d="m244.947 26.865 5.412 2.144 2.18-5.517c-.031-.035-.058-.069-.09-.104-.557-.62-1.135-1.211-1.71-1.804l-3.205-1.269z"/><path d="m243.206 47.12-5.412-2.143 2.588-6.55 5.411 2.142z"/><path d="m236.044 65.243-5.411-2.143 2.588-6.55 5.411 2.142z"/><path d="m228.885 83.369-5.411-2.142 2.587-6.551 5.411 2.143z"/><path d="m224.31 94.96-2.588 6.551-5.411-2.144 2.588-6.55z"/><path d="m211.718 110.942 5.411 2.143-2.588 6.55-5.411-2.143z"/><path d="m242.187 16.426.711-1.8c-1.599-1.211-3.241-2.336-4.919-3.388l-1.202 3.044z"/><path d="m229.607 32.405 2.589-6.55 5.411 2.143-2.589 6.55z"/><path d="m227.859 52.682-5.411-2.143 2.588-6.551 5.411 2.144z"/><path d="m220.713 70.789-5.411-2.143 2.588-6.55 5.411 2.143z"/><path d="m213.552 88.914-5.412-2.143 2.588-6.551 5.411 2.143z"/><path d="m203.546 98.363 5.411 2.143-2.588 6.55-5.411-2.143z"/><path d="m227.114 19.142-5.411-2.142 2.588-6.551 5.411 2.143z"/><path d="m219.952 37.271-5.411-2.143 2.588-6.55 5.411 2.142z"/><path d="m212.794 55.39-5.411-2.143 2.588-6.551 5.411 2.143z"/><path d="m205.633 73.517-5.411-2.143 2.588-6.551 5.411 2.143z"/><path d="m201.042 85.089-2.588 6.551-5.411-2.143 2.588-6.55z"/><path d="m188.467 101.088 5.411 2.143-2.588 6.55-5.411-2.142z"/><path d="m218.937 6.573 1.257-3.179c-1.893-.527-3.804-.977-5.73-1.338l-.937 2.375z"/><path d="m206.375 22.56 2.588-6.55 5.411 2.142-2.588 6.551z"/><path d="m204.622 42.811-5.411-2.143 2.588-6.55 5.411 2.142z"/><path d="m197.461 60.935-5.412-2.142 2.588-6.551 5.411 2.143z"/><path d="m190.301 79.06-5.411-2.143 2.588-6.55 5.411 2.143z"/><path d="m180.297 88.508 5.411 2.142-2.588 6.551-5.411-2.143z"/><path d="m205.289 10.498-5.411-2.143 2.588-6.55 5.411 2.143z"/><path d="m198.128 28.623-5.411-2.143 2.587-6.55 5.411 2.142z"/><path d="m190.956 46.764-5.411-2.144 2.588-6.55 5.411 2.143z"/><path d="m180.971 56.194 5.411 2.142-2.588 6.551-5.411-2.143z"/><path d="m179.219 76.446-2.588 6.55-5.411-2.143 2.588-6.55z"/><path d="m166.642 92.442 5.411 2.143-2.588 6.55-5.411-2.142z"/><path d="m189.956 16.044-5.411-2.143 2.588-6.55 5.411 2.142z"/><path d="m177.386 32.039 2.588-6.55 5.411 2.142-2.588 6.551z"/><path d="m175.635 52.293-5.411-2.143 2.588-6.55 5.411 2.143z"/><path d="m165.647 61.725 5.411 2.144-2.589 6.55-5.411-2.143z"/><path d="m158.473 79.862 5.411 2.143-2.588 6.551-5.411-2.143z"/><path d="m176.301 19.982-5.411-2.142 2.587-6.551 5.411 2.143z"/><path d="m169.14 38.105-5.411-2.143 2.588-6.55 5.411 2.143z"/><path d="m161.97 56.242-5.411-2.143 2.588-6.551 5.412 2.143z"/><path d="m157.392 67.804-2.588 6.55-5.411-2.143 2.588-6.55z"/><path d="m144.833 83.787 5.411 2.143-2.589 6.55-5.411-2.143z"/><path d="m160.963 25.534 2.589-6.552-5.401-2.138-.02.016-2.58 6.53z"/><path d="m153.808 43.651-5.411-2.143 2.588-6.551 5.411 2.143z"/><path d="m146.636 61.785-5.411-2.143 2.589-6.551 5.411 2.144z"/><path d="m142.067 73.354-5.412-2.144-2.322 5.876c.033.272.058.545.095.818l5.05 1.999z"/><path d="m148.236 27.124c-.537.69-1.067 1.383-1.575 2.087l.649.256z"/><path d="m142.736 41.042-2.465-.975c-.999 2.137-1.878 4.315-2.646 6.529l2.521.999z"/><path d="m134.617 58.786c-.203 1.336-.358 2.678-.481 4.023l1.44-3.642z"/></g><path d="m157.714 157.242-112.801-18.916 20.087-120.067 112.801 18.916z" fill="#23286b"/><path d="m248.461 189.398-87.015 46.602-49.488-92.622 87.015-46.602z" fill="#a1c3fc"/><ellipse cx="100.068" cy="5.252" fill="#d9e021" rx="5.246" ry="5.252"/><path d="m30.682 27.861-4.353 14.021-14.005-4.358 4.353-14.021z" fill="#23286b"/><path d="m262.816 18.414 1.831-10.704 10.691 1.833-1.831 10.704z" fill="#e94a47"/><path d="m144.582 217.946 2.476-14.474 14.457 2.479-2.476 14.474z" fill="#23286b"/><path d="m134.697 232.544c-.354 0-.694-.208-.84-.558-6.415-15.166-1.493-34.269 11.449-44.436.395-.311.972-.241 1.283.155s.241.973-.155 1.285c-12.315 9.673-16.997 27.852-10.893 42.283.196.465-.02 1-.486 1.198-.117.051-.237.073-.358.073z" fill="#428dfc"/><path d="m82.837 216.22c-.064 0-.13-.005-.194-.02-.493-.108-.806-.595-.7-1.088 3.479-16.096 18.49-28.877 34.918-29.729.481-.038.934.36.959.867.026.505-.362.935-.866.96-15.633.81-29.917 12.971-33.226 28.289-.093.427-.471.721-.891.721z" fill="#428dfc"/><path d="m53.484 31.722c-.437 0-.822-.312-.899-.757-1.633-9.373-9.642-17.687-20.401-21.185-10.752-3.494-22.276-2.156-31.112-.601-.502.084-.97-.246-1.058-.743-.086-.498.245-.971.742-1.059 9.048-1.592 20.858-2.95 31.991.664 11.396 3.702 19.89 12.578 21.638 22.61.086.498-.247.971-.744 1.059-.052.007-.105.012-.157.012z" fill="#428dfc"/><path d="m94.114 162.886-1.062-82.134" fill="none"/><path d="m52.519 115.433h82.139v12.789h-82.139z" fill="#e94a47" transform="matrix(.013 .9999 -.9999 .013 214.1901 26.6647)"/><path d="m123.347 162.886-1.061-82.134" fill="none"/><path d="m81.753 115.433h82.139v12.789h-82.139z" fill="#e94a47" transform="matrix(.013 .9999 -.9999 .013 243.0448 -2.5674)"/><path d="m60.877 64.607h16.261v49.581h-16.261z" fill="#428dfc"/><path d="m278.916 35.366 13.177 9.542-36.94 51.131-13.177-9.542z" fill="#428dfc"/><path d="m300.01 106.373-11.089 11.907-34.884-32.561 11.088-11.907z" fill="#a1c3fc"/><path d="m44.247 51.989h49.523v16.28h-49.523z" fill="#428dfc"/><path d="m92.76 104.947h29.234v12.805h-29.234z" fill="#e94a47"/><path d="m193.471 135.062h-24.782-32.079l25.579-78.658 34.036 78.452z" fill="#fff"/><path d="m142.69 138.044-12.161-3.965 30.829-94.794 40.22 93.505-11.745 5.064-26.811-62.328z" fill="#e94a47"/><path d="m176.042 106.774-4.352 14.021-14.005-4.358 4.353-14.021z" fill="#1d72d8"/><path d="m223.978 119.506-20.164-44.024v3.806h-12.79v-33.129l12.209-2.669 19.915 43.483-.372-44.928 12.789-.108.622 74.845z" fill="#23286b"/><path d="m205.902 150.082v35.304c0 7.403-5.545 13.458-12.322 13.458h-8.951c-6.777 0-12.322-6.056-12.322-13.458v-35.304c.271.07 21.401 0 21.401 0h11.833z" fill="#fff"/><path d="m193.581 205.25h-8.951c-10.319 0-18.717-8.91-18.717-19.86v-35.308h12.79v35.306c0 3.824 2.713 7.055 5.927 7.055h8.951c3.212 0 5.927-3.232 5.927-7.055v-35.306h12.79v35.306c-.001 10.952-8.396 19.862-18.717 19.862z" fill="#23286b"/></svg></g><!--ITEM: Illustration component 2--><g transform="translate(618.75 937.5) rotate(0.0 808.125 941.25)  scale(5.751779359430605 5.739329268292683)"><svg width="281.0" height="328.0" viewBox="0.0 0.0 281.0 328.0"><linearGradient id="a-i2"><stop offset="0" stop-color="#ffbeb6" fill="#000000"/><stop offset="1" stop-color="#f2a19c" fill="#000000"/></linearGradient><linearGradient xmlns:xlink="http://www.w3.org/1999/xlink" id="b-i2" gradientTransform="matrix(-.1904 .0049 -.0049 -.1904 393.66 -.9449)" gradientUnits="userSpaceOnUse" x1="594.8957" x2="960.226" xlink:href="#a-i2" y1="-313.3346" y2="-313.3346"/><linearGradient xmlns:xlink="http://www.w3.org/1999/xlink" id="c-i2" gradientTransform="matrix(-.9997 .0258 .0258 .9997 333.6194 -1.817)" gradientUnits="userSpaceOnUse" x1="77.9146" x2="100.0458" xlink:href="#a-i2" y1="30.0601" y2="30.0601"/><linearGradient xmlns:xlink="http://www.w3.org/1999/xlink" id="d-i2" gradientTransform="matrix(.1905 0 0 -.1905 -59.9981 2.4216)" gradientUnits="userSpaceOnUse" x1="314.9501" x2="733.002" xlink:href="#a-i2" y1="-328.8195" y2="-328.8195"/><linearGradient id="e-i2"><stop offset="0" stop-color="#428dfc" fill="#000000"/><stop offset="1" stop-color="#1d72d8" fill="#000000"/></linearGradient><linearGradient xmlns:xlink="http://www.w3.org/1999/xlink" id="f-i2" gradientTransform="matrix(.1905 0 0 -.1905 -59.9981 2.4216)" gradientUnits="userSpaceOnUse" x1="1470.5778" x2="1360.4094" xlink:href="#e-i2" y1="-645.415" y2="-939.4653"/><linearGradient xmlns:xlink="http://www.w3.org/1999/xlink" id="g-i2" gradientTransform="matrix(-.1854 .0437 -.0437 -.1854 427.1379 -53.0606)" gradientUnits="userSpaceOnUse" x1="1937.3918" x2="2056.2485" xlink:href="#e-i2" y1="-837.8682" y2="-541.8073"/><linearGradient xmlns:xlink="http://www.w3.org/1999/xlink" id="h-i2" gradientTransform="matrix(.1905 0 0 -.1905 -59.9981 2.4216)" gradientUnits="userSpaceOnUse" x1="822.5478" x2="1423.0747" xlink:href="#e-i2" y1="-1258.3046" y2="-1258.3046"/><linearGradient xmlns:xlink="http://www.w3.org/1999/xlink" id="i-i2" gradientUnits="userSpaceOnUse" x1="24.5849" x2="46.7163" xlink:href="#a-i2" y1="33.01" y2="33.01"/><path d="m280.27 26.028c-3.269.303-6.095 2.445-9.143 3.668-1.064.427-2.423.802-3.235-.009-.964-.96-.238-2.577.488-3.729 4.109-6.515 12.446-22.57 8.836-21.24-7.7 4.529-7.346 16.252-14.109 22.093-.722.578-.497-1.626.174-2.771 2.401-4.093 4.803-8.188 7.204-12.281 1.197-2.04 2.417-4.11 4.134-5.734 1.513-1.432 4.3-3.81 2.688-5.129-1.732-1.417-4.205 1.187-5.668 2.886-2.737 3.176-5.083 6.691-6.968 10.439-1.419 2.819-2.591 5.788-4.433 8.349-.855 1.186-1.141 1.487-1.972 1.994-.23.14-.741-.334-.849-.595-.618-1.505-.396-1.767.232-3.266 2.88-6.884 9.731-20.366 8.642-20.651-4.101-1.071-11.482 15.262-14.124 24.642-.316 1.123-.669 2.293-1.491 3.118-2.564 2.566-6.453-1.833-8.448-4.863-1.997-3.031-6.014-6.919-8.169-5.315 3.566 8.727 12.062 16.045 11.265 25.44-.473 5.56-4.195 10.216-7.623 14.615-11.909 15.282-13.381 18.953-23.533 35.457-1.348 2.193-1.088 13.38.378 14.055.831 5.97 1.285 14.005 3.364 18.169 13.57-18.122 20.194-40.339 28.763-61.301 1.994-4.878 4.185-9.83 7.899-13.564 2.837-2.852 6.456-4.876 9.064-7.94.343-.403.662-.838.955-1.293 3.661-3.146 8.343-8.406 11.245-9.976 2.134-1.162 7.003-5.507 4.434-5.268z" fill="url(#b-i2)"/><path d="m255.805 40.805c-.3.837-.692 1.678-1.376 2.244-1.016.841-2.445.906-3.764.931-1.08.021-2.218.028-3.159-.504-1.029-.581-1.634-1.712-1.952-2.851-.317-1.14-.565-2.198-.849-3.347-.515-2.087-3.766-8.062-5.689-10.798-1.95-2.774-3.426-5.855-4.974-8.873.998-.861 3.217-.213 4.48.725.737.548 1.305 1.288 1.862 2.018.932 1.221 1.865 2.441 2.797 3.662 1.479 1.936 3.157 4.004 5.535 4.521.872.19 1.78.151 2.655.329.771.157 1.498.478 2.216.8.566.254 1.147.52 1.574.97.356.375.582.854.766 1.337 1.072 2.811.893 6.005-.122 8.836z" fill="url(#c-i2)"/><path d="m141.197 82.004c2.254-.523 4.567-1.048 6.861-.753 3.432.44 6.359 2.648 8.949 4.948 3.178 2.822 6.14 5.929 8.462 9.49 5.516 8.469 7.052 18.987 6.709 29.094-.345 10.106-2.416 20.066-3.519 30.117-1.143 10.414-1.24 20.943-.292 31.378-23.189-3.334-46.96-2.581-69.892 2.214 15.142-22.036 24.055-49.599 18.723-75.81-1.582-7.778-4.031-16.951 1.321-22.802 2.932-3.205 7.431-4.339 11.659-5.319 3.673-.854 7.346-1.704 11.019-2.557z" fill="#d62929"/><path d="m142.478 123.658c-.22.029-.449.062-.641.193-.6.409-.526 1.448-.383 2.255 2.566 14.446 1.531 29.771-2.939 43.544 8.376-6.24 19.472-.024 29.13-2.502-2.768-6.372-2.136-13.963-2.104-21.135.037-8.445 1.813-19.802.007-27.971-6.799.903-16.272 4.712-23.07 5.616z" fill="#f2a19c"/><path d="m126.163 98.303c-.708 7.384 1.018 13.789 3.835 20.651 3.275 7.973 9.244 15.261 17.386 18.059 8.142 2.797 16.551 1.739 20.535-5.903 1.644-3.155 2.432-8.322 2.372-11.879-.164-9.758-2.466-19.958-9.583-26.624-4.222-3.956-8.617-9.556-14.377-10.049s-13.872 2.081-17.17 6.836c-2.698 3.893-2.544 4.191-2.998 8.909z" fill="#ffbeb6"/><path d="m159.919 122.812c-1.152 1.289-2.823 1.982-4.482 2.457-2.571.735-5.313 1.038-7.928.47-2.614-.569-5.086-2.08-6.463-4.375 1.578.247 3.191.277 4.778.087 7.643-.917 13.767-6.693 18.576-12.713-.275 3.139-.637 5.175-1.413 8.215-.452 1.76-1.855 4.501-3.068 5.859z" fill="#fff"/><g fill="#e94a47"><path d="m122.642 196.259c6.473-27.124 5.455-32.39 5.304-60.277-.034-6.204 2.668-31.183 7.117-38.756 6.238-10.62 11.851-12.382 17.698-14.432-13.789-11.582-31.508.937-35.546 8.082-4.037 7.146-3.951 15.785-4.556 23.975-1.997 27.078-5.424 54.052-10.258 80.767 6.752-.202 13.516.013 20.241.641z"/><path d="m132.158 128.411c-.001 0-.002 0-.003 0-.246-.002-.445-.203-.443-.448.062-9.56 2.049-18.557 6.44-29.173 2.77-6.694 8.844-13.878 12.424-15.828.216-.117.486-.037.602.179.118.216.037.487-.179.604-3.38 1.841-9.369 8.963-12.027 15.385-4.345 10.505-6.311 19.397-6.372 28.838.001.246-.197.443-.442.443z"/><path d="m135.337 124.434c-.019 0-.039-.001-.06-.003-.244-.033-.414-.258-.381-.501 1.956-14.605 8.404-30.297 16.829-40.956.152-.192.432-.225.625-.073s.224.433.073.626c-8.331 10.54-14.711 26.066-16.644 40.52-.031.226-.221.387-.442.387z"/><path d="m97.194 196.118c-.01 0-.019 0-.029-.001-.246-.017-.43-.228-.414-.473 1.745-26.779 5.561-49.991 12.762-77.617l.172-.659c1.725-6.634 4.331-16.661 9.352-21.118.183-.164.465-.146.628.037.163.185.147.466-.037.629-4.818 4.278-7.383 14.147-9.081 20.677l-.172.66c-7.185 27.567-10.994 50.73-12.734 77.448-.018.237-.213.417-.447.417z"/></g><path d="m171.679 152.243c-.262 4.979-.523 9.957-.786 14.935-.012.212-.043.461-.229.562-.116.065-.259.048-.392.03-5.182-.693-8.188 23.515-13.415 23.447-5.535-.073-13.29-24.387-18.79-23.763.013-3.005.025-6.01.039-9.016.004-1.068-.114-3.868-.114-3.868s1.38-1.326 2.356-1.774c3.346-1.542 6.733 3.888 10.246 2.772 1.881-.597 2.902-2.907 4.839-3.282 2.721-.526 4.488 2.977 7.134 3.8 1.631.507 3.413-.088 4.873-.972 1.458-.883 2.736-2.057 4.239-2.871z" fill="#fff"/><path d="m154.918 100.983c6.153-.212 11.724-5.497 12.268-11.64" fill="none" stroke="#23286b" stroke-linecap="round" stroke-miterlimit="10"/><path d="m.721 29.409c3.276.219 6.156 2.287 9.234 3.43 1.075.399 2.443.74 3.234-.092.939-.985.172-2.583-.584-3.715-4.276-6.406-13.024-22.241-9.382-21.005 7.814 4.329 7.763 16.057 14.675 21.721.737.56.455-1.638-.246-2.765-2.506-4.03-5.013-8.061-7.519-12.091-1.249-2.009-2.522-4.046-4.281-5.626-1.549-1.392-4.397-3.698-2.82-5.058 1.695-1.462 4.234 1.078 5.74 2.739 2.818 3.105 5.254 6.557 7.235 10.255 1.491 2.781 2.739 5.719 4.647 8.232.885 1.164 1.179 1.457 2.023 1.942.233.134.732-.353.833-.617.579-1.521.35-1.777-.316-3.259-3.057-6.808-10.253-20.108-9.172-20.421 4.072-1.177 11.872 14.96 14.755 24.269.345 1.114.727 2.275 1.571 3.078 2.629 2.499 6.404-1.999 8.32-5.079 1.918-3.081 5.833-7.072 8.029-5.524-3.34 8.816-11.644 16.351-10.605 25.722.616 5.546 4.457 10.105 7.998 14.414 12.3 14.97 19.426 27.294 30.001 43.53 1.404 2.157 6.645 11.147 5.338 13.364-.82 1.391-2.782-.242-4.229.471-4.17 2.056-7.607 5.566-9.577 9.782-14.032-17.766-21.227-39.804-30.334-60.538-2.119-4.825-4.438-9.718-8.246-13.356-2.91-2.778-6.58-4.708-9.266-7.703-.354-.394-.683-.82-.988-1.268-3.741-3.051-8.557-8.188-11.498-9.682-2.165-1.105-7.144-5.323-4.57-5.15z" fill="url(#d-i2)"/><path d="m222.451 78.434c4.888 5.226 9.777 10.45 14.663 15.676 4.093 4.374 8.49 9.681 7.528 15.597-1.83-.63-3.657-1.261-5.487-1.891.237 4.472 4.662 11.317.713 13.42-2.518 1.34-5.743-.753-7.686 1.336s-2.741 4.968-3.477 7.726c-7.546 28.324-11.923 63.534-19.468 91.858-9.208-13.637-16.471-42.472-22.954-65.722 5.9-9.485 1.674-27.55 12.319-30.902 2.983-.939 2.27.107 4.661-1.911-2.287-2.185-3.088-3.996-.86-6.241 1.636-1.648 4.546-1.161 5.439-3.306s.781-4.552.888-6.874c.501-10.783 8.408-19.377 13.721-28.766z" fill="url(#f-i2)"/><path d="m67.096 92.706c-3.561 6.207-7.53 13.093-11.093 19.301-2.983 5.197-6.048 11.371-3.757 16.91 1.636-1.033 3.271-2.067 4.908-3.1.792 4.41-1.947 12.086 2.378 13.226 2.756.727 5.417-2.052 7.787-.465 2.369 1.587 3.806 4.206 5.152 6.722 13.828 25.838 19.344 65.987 33.172 91.824 6.651-21.169 10.596-45.753 17.791-65.039-7.914-7.878-13.731-35.74-24.859-36.559-3.118-.229-2.186.625-4.975-.789 1.726-2.653 2.091-4.599-.592-6.272-1.969-1.229-4.69-.087-6.05-1.969-1.361-1.882-1.802-4.252-2.439-6.487-2.952-10.378-10.102-19.383-17.423-27.303z" fill="url(#g-i2)"/><path d="m209.627 220.985c.212-2.327-6.392-23.711-9.985-34.289-4.494-13.233-9.294-29.34-12.061-30.264-5.058-1.688-6.673 9.491-16.446 7.295-2.201 3.679-4.401 7.356-6.602 11.036-2.31 3.863-4.621 7.726-6.931 11.59-1.898-2.339-5.286-6.197-8.707-10.025-5.318-5.954-10.716-11.837-10.716-11.837-7.724.514-16.083-1.048-18.883 2.219 0 0-5.401 25.449-7.943 37.315-1.956 9.128-8.541 20.409-8.888 27.276-.397 7.858-1.638 31.415-3.192 60.342 13.483 21.817 37.585 36.357 65.086 36.357 17.341 0 37.532-12.379 46.709-32.893-.109-37.78-2.87-58.388-1.441-74.122z" fill="url(#h-i2)"/><path d="m117.228 234.012c.067.248.269.407.517.34.249-.067.407-.27.339-.518-.067-.248-.269-.407-.517-.34-.248.068-.406.27-.339.518zm16.539 39.757c-.159.203-.092.451.11.609.202.159.45.092.608-.11.159-.203.092-.451-.11-.609-.179-.271-.45-.092-.608.11zm5.66-9.411c-.159.203-.092.451.11.609.202.159.45.092.608-.11.159-.203.092-.451-.11-.609-.087-.136-.449-.091-.608.11zm-19.225-9.785c.202.159.427.204.676.137.159-.203.203-.428.137-.677-.202-.159-.427-.204-.563-.115-.385.158-.429.383-.25.655zm8.94-6.512c.202.159.427.204.676.137.159-.203.203-.428.137-.677-.202-.159-.427-.204-.563-.115-.382.158-.451.496-.25.655zm26.576 28.42c-.044.225.133.498.359.542.224.045.497-.134.542-.359.044-.225-.133-.498-.359-.542-.226-.046-.495.134-.542.359zm1.748-10.913c-.044.225.133.498.359.542.224.045.497-.134.542-.359.044-.225-.133-.498-.359-.542-.226-.045-.496.134-.542.359zm-43.317-19.857c.09.135.404.317.563.115.134-.09.317-.405.114-.563-.09-.135-.404-.317-.563-.115-.248.066-.293.291-.114.563zm8.417-5.094c.09.135.404.317.563.115.134-.09.293-.293.114-.563-.09-.135-.292-.294-.563-.115-.157.202-.203.427-.114.563zm24.478 29.519c-.044.225.021.474.247.519.224.045.361-.043.518-.246.044-.225-.021-.474-.247-.519-.223-.047-.471.02-.518.246zm2.396-9.489c-.044.225.021.474.247.519.224.045.361-.043.518-.246.044-.225-.021-.474-.247-.519-.224-.047-.472.02-.518.246zm-18.973-4.1c-.159.203-.092.451.11.609.202.159.45.092.608-.11.159-.203.092-.451-.11-.609-.202-.16-.451-.093-.608.11zm-21.325-1.762c-.159.203-.092.451.11.609.202.159.45.092.608-.11.159-.203.092-.451-.11-.609-.201-.159-.449-.091-.608.11zm6.764-9.069c-.159.203-.092.451.11.609.202.159.45.092.608-.11.159-.203.092-.451-.11-.609-.201-.159-.45-.092-.608.11zm6.674-9.204c-.159.203-.092.451.11.609.202.159.45.092.608-.11.159-.203.092-.451-.11-.609-.225-.048-.472.02-.608.11zm32.675 30.131c.067.248.269.407.517.34.249-.067.407-.27.339-.518-.067-.248-.269-.407-.517-.34-.224-.045-.406.27-.339.518zm-38.732-44.746c-.271.18-.317.405-.137.677m15.151 37.361c-.044.225.133.498.359.542.224.045.497-.134.542-.359.044-.225-.133-.497-.359-.542-.226-.047-.496.133-.542.359zm-7.75.064c-.044.225.133.497.359.542.224.045.497-.134.542-.36.044-.225-.021-.474-.359-.542-.224-.045-.495.135-.542.36zm3.145-10.863c-.044.225.133.498.359.542.224.045.473-.021.542-.359.044-.225-.133-.498-.335-.656-.249.068-.52.248-.566.473zm-13.963-14.348c-.159.203-.092.451.11.609.202.159.45.092.721-.088.159-.203.092-.451-.088-.723-.337-.067-.586.001-.743.202zm4.44-1.09c-.044.225.043.362.133.498.224.045.361-.043.497-.134.044-.225-.043-.362-.133-.498-.225-.046-.474.021-.497.134z" fill="#fff"/><path d="m25.559 43.549c.321.829.735 1.66 1.434 2.208 1.038.815 2.468.842 3.786.834 1.08-.007 2.218-.03 3.145-.585 1.013-.607 1.59-1.753 1.877-2.901.288-1.147.508-2.212.762-3.368.461-2.099 3.557-8.157 5.409-10.941 1.878-2.823 3.274-5.941 4.743-8.998-1.019-.834-3.222-.13-4.459.84-.722.567-1.271 1.321-1.81 2.065-.901 1.244-1.801 2.488-2.702 3.733-1.429 1.974-3.053 4.084-5.417 4.662-.867.212-1.776.197-2.645.398-.767.177-1.485.516-2.195.857-.559.268-1.133.549-1.549 1.01-.346.384-.56.869-.731 1.357-.997 2.837-.735 6.025.352 8.829z" fill="url(#i-i2)"/></svg></g><!--ITEM: Illustration component 3--><g transform="translate(1023.75 2171.25) rotate(-9.341912948055517 163.125 163.125)  scale(15.333458664285377 15.318339750211289)"><svg width="21.277000000000044" height="21.298000000000002" viewBox="-1850.167 415.745 21.277000000000044 21.298000000000002"><g fill="#a1c3fc"><path d="m-1830.465 420.771-19.515 3.632c-.122.645-.187 1.309-.187 1.989 0 .577.047 1.144.136 1.697l20.943-3.899c-.26-1.231-.732-2.383-1.377-3.419z"/><path d="m-1839.368 415.745-4.129.768c-2.255.91-4.125 2.566-5.306 4.664l16.078-2.993c-1.808-1.498-4.12-2.405-6.643-2.439z"/><path d="m-1832.663 434.547-10.311 1.919c1.086.373 2.249.577 3.46.577 2.61.001 4.999-.939 6.851-2.496z"/><path d="m-1828.89 427.162-20.262 3.772c.579 1.225 1.384 2.322 2.363 3.237l16.871-3.14c.572-1.185.93-2.491 1.028-3.869z"/></g></svg></g><!--ITEM: Illustration component 4--><g transform="translate(2373.75 1391.25) rotate(20.46799402157321 93.75 93.75)  scale(1.875 1.875)"><svg width="100.0" height="100.0" viewBox="0.0 0.0 100.0 100.0"><path d="m71.074 7.041c-8.311 0-15.798 3.511-21.074 9.123-5.276-5.613-12.763-9.123-21.074-9.123-15.976-0-28.926 12.95-28.926 28.926 0 24.843 34.617 51.782 50 56.992 16.639-5.973 50-33.42 50-56.992 0-15.976-12.95-28.926-28.926-28.926z" fill="#e94a47"/></svg></g><!--ITEM: Illustration component 5--><g transform="translate(2088.75 2100.0) rotate(-27.15550436490495 50.625 50.625)  scale(1.0125 1.0125)"><svg width="100.0" height="100.0" viewBox="0.0 0.0 100.0 100.0"><path d="m71.074 7.041c-8.311 0-15.798 3.511-21.074 9.123-5.276-5.613-12.763-9.123-21.074-9.123-15.976-0-28.926 12.95-28.926 28.926 0 24.843 34.617 51.782 50 56.992 16.639-5.973 50-33.42 50-56.992 0-15.976-12.95-28.926-28.926-28.926z" fill="#e94a47"/></svg></g><!--ITEM: Illustration component 6--><g transform="translate(588.75 1848.75) rotate(19.234575361973537 78.75 78.75)  scale(1.575 1.575)"><svg width="100.0" height="100.0" viewBox="0.0 0.0 100.0 100.0"><path d="m71.074 7.041c-8.311 0-15.798 3.511-21.074 9.123-5.276-5.613-12.763-9.123-21.074-9.123-15.976-0-28.926 12.95-28.926 28.926 0 24.843 34.617 51.782 50 56.992 16.639-5.973 50-33.42 50-56.992 0-15.976-12.95-28.926-28.926-28.926z" fill="#e94a47"/></svg></g></svg>