<?xml version="1.0" encoding="utf-8"?>
<!-- Generator: Adobe Illustrator 25.3.1, SVG Export Plug-In . SVG Version: 6.00 Build 0)  -->
<svg version="1.1" id="Layer_1" xmlns="http://www.w3.org/2000/svg" xmlns:xlink="http://www.w3.org/1999/xlink" x="0px" y="0px"
	 viewBox="0 0 3000 3000" style="enable-background:new 0 0 3000 3000;" xml:space="preserve">
<style type="text/css">
	.st0{fill:#FFFFFF;}
	.st1{opacity:0.17;}
	.st2{fill:#00B5F4;}
	.st3{fill:#FC2246;}
	.st4{fill:#34234D;}
	.st5{fill:#1E152D;}
	.st6{opacity:0.64;}
	.st7{fill:#FFB1A9;}
	.st8{fill:#FF5169;}
	.st9{opacity:0.43;}
	.st10{fill:#FFC9C0;}
	.st11{opacity:0.47;}
	.st12{opacity:0.53;}
	.st13{fill:#FDFDFF;}
	.st14{opacity:0.5;}
	.st15{opacity:0.45;}
	.st16{opacity:0.46;}
	.st17{opacity:0.72;}
	.st18{opacity:0.58;}
	.st19{opacity:0.49;}
	.st20{opacity:0.36;}
	.st21{opacity:0.62;}
	.st22{opacity:0.31;}
	.st23{fill:#ACBDBF;}
	.st24{opacity:0.24;}
	.st25{fill:#475472;}
	.st26{fill:#FF6666;}
	.st27{opacity:0.3;}
	.st28{fill:#008AAA;}
	.st29{opacity:0.33;}
	.st30{fill:#00A1CC;}
	.st31{fill:#A5A5AF;}
	.st32{fill:#DB664A;}
	.st33{fill:#FFA591;}
	.st34{opacity:0.54;}
	.st35{opacity:0.2;}
	.st36{fill:#6C7187;}
</style>
<g id="rectangle">
	<g>
		<g>
			<g>
				<g>
					<rect class="st0" width="3000" height="3000"/>
				</g>
			</g>
		</g>
	</g>
</g>
<g id="table_4">
	<g class="st1">
		<path class="st2" d="M2263.96,2200.85c-92.83-21.08-98.15-114.43-231.77-254.94c-166.55-175.14-360.01-242.22-463.53-278.12
			c-299.72-103.93-355.57,17.79-848.11-70.16c-199.35-35.6-366.4-92.53-458.98-229.6c-25.93-38.39-41.52-80.89-51.68-128.82
			c-24.05-113.4-73.8-271.17-1.62-397.13c52.01-90.76,144.62-126.96,198.8-148.93c596.01-241.66,787.55-560.31,1016.27-455.04
			c133.83,61.59,78.84,175.57,232.58,278.08c273.75,182.54,582.57-89.18,755.58,67.98c124.5,113.09-115.41,339.3-17.4,644.92
			c85.81,267.56,317.46,276.02,333.39,485.04C2746.32,1961.32,2444.65,2241.89,2263.96,2200.85z"/>
	</g>
	<g>
		<polygon class="st3" points="2342.5,2300.92 2339.62,2296.76 2334.81,1358.23 2318.54,1358.07 2323.33,2292.55 2011.27,2493.56 
			2007.35,1514.19 1991.08,1514.04 1995.05,2504.02 1988.5,2508.23 1995.1,2517.8 1995.13,2523.3 2011.39,2523.45 2011.36,2514.23 
			2323.44,2313.2 2323.47,2319.23 2339.74,2319.39 2339.65,2302.76 		"/>
	</g>
	<g>
		<polygon class="st3" points="927.13,2300.92 924.26,2296.76 919.44,1358.23 903.17,1358.07 907.97,2292.55 595.91,2493.56 
			591.98,1514.19 575.71,1514.04 579.68,2504.02 573.14,2508.23 579.74,2517.8 579.76,2523.3 596.03,2523.45 595.99,2514.23 
			908.08,2313.2 908.11,2319.23 924.37,2319.39 924.29,2302.76 		"/>
	</g>
	<g>
		<rect x="1407.18" y="1141.33" class="st4" width="84.89" height="224.46"/>
		<path class="st0" d="M1493.98,1367.7h-88.71v-228.27h88.71V1367.7z M1409.08,1363.88h81.08v-220.64h-81.08V1363.88z"/>
	</g>
	<g>
		<rect x="1407.18" y="1231.02" class="st5" width="84.89" height="72.47"/>
	</g>
	<g>
		<path class="st4" d="M1869.52,1275.15h-769.92c-32.52,0-57.64-28.58-53.46-60.83c19.41-149.99,38.82-299.98,58.24-449.97
			c3.48-26.87,26.36-46.99,53.46-46.99h751.89c31.67,0,56.51,27.17,53.69,58.71c-13.4,149.99-26.81,299.98-40.21,449.97
			C1920.73,1253.84,1897.44,1275.15,1869.52,1275.15z"/>
		<path class="st0" d="M1869.52,1277.05h-769.92c-16.05,0-31.33-6.91-41.92-18.97c-10.59-12.05-15.49-28.09-13.43-44.01
			l58.24-449.97c3.59-27.74,27.39-48.65,55.35-48.65h751.89c15.63,0,30.64,6.61,41.18,18.14c10.55,11.53,15.8,27.07,14.41,42.64
			l-40.21,449.97C1922.53,1255.2,1898.63,1277.05,1869.52,1277.05z M1157.84,719.27c-26.05,0-48.22,19.49-51.57,45.32l-58.24,449.97
			c-1.92,14.83,2.64,29.77,12.51,41c9.87,11.23,24.11,17.67,39.06,17.67h769.92c27.12,0,49.38-20.36,51.79-47.37l40.21-449.97
			c1.3-14.5-3.6-28.98-13.42-39.73c-9.83-10.74-23.81-16.9-38.37-16.9H1157.84z"/>
	</g>
	<g class="st6">
		<path class="st0" d="M1847.01,1241.23h-719.95c-20.64,0-36.57-18.13-33.92-38.6c18.64-144.04,37.28-288.07,55.92-432.11
			c2.21-17.05,16.73-29.82,33.92-29.82h702.64c20.09,0,35.86,17.24,34.07,37.25c-12.87,144.04-25.74,288.07-38.62,432.11
			C1879.51,1227.71,1864.72,1241.23,1847.01,1241.23z"/>
	</g>
	<g>
		<path class="st7" d="M475.59,1500.22c511.03,0.33,1022.05,0.66,1533.07,0.99c133.93-53.64,267.85-107.27,401.78-160.91
			c-483.71,0-967.43,0-1451.14,0C798.06,1393.61,636.83,1446.91,475.59,1500.22z"/>
	</g>
	<g>
		<rect x="475.59" y="1500.22" class="st8" width="1532.09" height="57.26"/>
	</g>
	<g>
		<ellipse class="st4" cx="1457.54" cy="1365.25" rx="145.11" ry="26.83"/>
	</g>
	<g>
		<rect x="1220.17" y="872.24" class="st0" width="117.88" height="25.67"/>
	</g>
	<g>
		<rect x="1389.27" y="872.24" class="st0" width="319.84" height="25.67"/>
	</g>
	<g>
		<rect x="1176.58" y="945.59" class="st0" width="307.56" height="25.67"/>
	</g>
	<g>
		<rect x="1523.8" y="945.59" class="st0" width="307.56" height="25.67"/>
	</g>
	<g>
		<rect x="1165.14" y="1014.75" class="st0" width="307.48" height="24.67"/>
	</g>
	<g>
		<rect x="1512.26" y="1014.75" class="st0" width="86.43" height="24.67"/>
	</g>
	<g>
		<rect x="1623.48" y="1014.75" class="st0" width="86.43" height="24.67"/>
	</g>
	<g>
		<rect x="1733.49" y="1014.75" class="st0" width="86.43" height="24.67"/>
	</g>
	<g>
		<rect x="1765.61" y="872.24" class="st0" width="59.39" height="25.67"/>
	</g>
	<g>
		<rect x="1661.56" y="1132.41" class="st0" width="109.48" height="23.84"/>
	</g>
	<g>
		<rect x="1300.39" y="1132.41" class="st0" width="297.06" height="23.84"/>
	</g>
	<g>
		<rect x="1192.75" y="1132.41" class="st0" width="55.16" height="23.84"/>
	</g>
	<path class="st0" d="M1262.42,1062.95v93.29C1302.57,1101.92,1262.42,1062.95,1262.42,1062.95z"/>
	<g>
		<path class="st0" d="M1204.55,897.91V797.46C1204.55,797.46,1161.32,839.42,1204.55,897.91z"/>
		<path class="st0" d="M1350.62,797.46v100.44C1393.85,839.42,1350.62,797.46,1350.62,797.46z"/>
		<path class="st0" d="M1749.99,897.91V797.46C1749.99,797.46,1706.76,839.42,1749.99,897.91z"/>
		<path class="st0" d="M1846.48,797.46v100.44C1889.71,839.42,1846.48,797.46,1846.48,797.46z"/>
		<path class="st0" d="M1785.55,1062.95v93.29C1825.7,1101.92,1785.55,1062.95,1785.55,1062.95z"/>
		<path class="st0" d="M1649.88,1156.24v-93.29C1649.88,1062.95,1609.73,1101.92,1649.88,1156.24z"/>
		<path class="st0" d="M1172.81,1156.24v-93.29C1172.81,1062.95,1132.66,1101.92,1172.81,1156.24z"/>
	</g>
	<g>
		<g>
			<g>
				<path class="st8" d="M741.62,390.19c-1.21-0.56-2.1-2.38-2.76-4.74c-0.73-2.6-1.18-5.85-1.48-8.81
					c0.51-3.59,1.08-7.37,1.7-11.32c1.2-7.57,2.61-15.77,4.28-24.49c0.4-2.04,0.8-4.11,1.22-6.22l0-0.01
					c3.96-19.67,9.24-41.73,16.37-65.12c1.26-4.15,2.58-8.34,3.96-12.58c0.06-0.2,0.14-0.41,0.21-0.65
					c4.3-13.17,24.02-73.16,29.64-69.47c4.1,2.69-0.86,38.29-10.41,80.86c-1.07,4.79-2.2,9.65-3.38,14.57
					c-0.62,2.61-1.27,5.24-1.92,7.87c-2.6,10.47-5.42,21.07-8.4,31.48c-1.93,6.76-3.93,13.44-5.98,19.94
					c-0.98,3.13-2.22,7.01-3.61,11.23c-3.65,11.01-8.4,24.2-12.74,31.68l0,0.01C745.87,388.69,743.54,391.09,741.62,390.19z"/>
			</g>
			<g>
				<g>
					<path class="st0" d="M790.91,202.99c-5.09,21.25-10.7,42.37-16.67,63.38c-5.95,21.02-12.36,41.92-19.22,62.67l-0.76-0.25
						c6.98-20.69,13.51-41.54,19.59-62.52C779.95,245.29,785.69,224.21,790.91,202.99z"/>
				</g>
			</g>
			<g class="st9">
				<g>
					<path class="st10" d="M780.98,282.22c-4.47,1.53-10.26,1.1-15.93-6.33c-1.66-2.17-3.01-4.32-4.09-6.41
						c1.26-4.15,2.58-8.34,3.96-12.58c0.06-0.2,0.14-0.41,0.21-0.65c5.49,5.87,12.89,12.07,19.23,11.4
						C783.3,272.44,782.16,277.31,780.98,282.22z"/>
				</g>
			</g>
		</g>
		<g>
			<path class="st2" d="M761.1,244.29c-0.58,3.41-1.16,6.98-1.78,10.71c-1.06,6.55-2.19,13.58-3.35,21.13
				c-3.87,25.05-8.24,55.75-12.85,92.91c-3.19,8.26-6.15,15.9-8.9,22.96l0,0.01c-1.68,4.34-3.28,8.46-4.79,12.38
				c-29.22,75.34-29.29,74.66-29.34,74.27c-1.16-11.64,2.68-53.06,7.24-94.92l0-0.01c0.49-4.44,0.98-8.88,1.47-13.3
				c1.83-16.36,3.71-32.29,5.35-46.04c2.74-22.85,4.87-39.63,5.19-42.16c0.78-6.14,1.25-10.54,1.36-11.51
				c0.4-3.51,1.31-9.03,3.58-17.59c3.04-20.05,6.08-40.1,9.12-60.14c3.1-23.39,9.65-38.02,16.06-37.62
				c4.86,0.3,8.57,9.18,10.33,13.39C769.96,193.2,764.57,223.6,761.1,244.29z"/>
		</g>
		<g>
			<g>
				<g>
					<path class="st8" d="M733.45,403.99c-0.98,1.14-2.42,1.09-4.01,0.4c-1.76-0.75-3.7-2.27-5.4-3.78
						c-1.58-2.92-3.22-6.02-4.92-9.31c-3.26-6.3-6.72-13.26-10.3-20.87c-0.84-1.79-1.68-3.6-2.54-5.47l0-0.01
						c-7.98-17.41-16.46-37.98-24.6-61.68c-1.44-4.2-2.88-8.51-4.3-12.91c-0.07-0.21-0.14-0.43-0.21-0.68
						c-4.42-13.71-24.47-76.27-19.39-80.87c3.7-3.36,19.39,25.43,36.12,64.32c1.88,4.37,3.77,8.87,5.66,13.45
						c1.01,2.43,2.01,4.9,3.01,7.38c3.97,9.88,7.89,20.11,11.62,30.41c2.43,6.69,4.77,13.41,6.99,20.08
						c1.07,3.21,2.39,7.21,3.8,11.61c3.66,11.52,7.84,25.79,9.28,35.91l0,0.01C735.06,397.78,734.99,402.19,733.45,403.99z"/>
				</g>
			</g>
			<g>
				<g>
					<path class="st0" d="M663.99,223.92c8.43,20.48,16.33,41.17,23.9,61.99c7.57,20.81,14.72,41.78,21.45,62.89l-0.76,0.24
						c-6.6-21.13-13.62-42.14-21.06-62.99C680.07,265.18,672.3,244.44,663.99,223.92z"/>
				</g>
			</g>
			<g class="st11">
				<g>
					<path class="st10" d="M699.54,286.6c-1.72,6.5-5.2,13.4-12.24,15.69c-2.06,0.67-3.93,0.97-5.63,0.99
						c-1.44-4.2-2.88-8.51-4.3-12.91c-0.07-0.21-0.14-0.43-0.21-0.68c6.13-3.05,13.51-8.27,16.73-16.54
						C695.76,277.51,697.65,282.01,699.54,286.6z"/>
				</g>
			</g>
		</g>
		<g class="st12">
			<path class="st4" d="M759.32,255.01c-1.06,6.55-2.19,13.58-3.35,21.13c-3.73-4.51-6.83-9.2-13.67-3.68
				c-4.27,3.44-8.27,5.94-11.61,7.73c-5.58,2.98-9.31,3.95-9.31,3.95l-0.67-13.39c0,0,3-6.97,7.59-12.66
				c4.6-5.73,10.81-10.17,17.19-5.02C749.59,256.36,754.52,256.44,759.32,255.01z"/>
		</g>
		<g>
			<path class="st8" d="M733.29,305.24c-3.27,19.95-6.02,36.74-8.35,50.85c-2.36,14.3-4.28,25.87-5.83,35.22
				c-6.64,39.85-6.77,39.41-6.87,39.11c-2.02-6.79-3.54-24.36-4.91-46.67l0-0.01c-0.36-5.96-0.72-12.25-1.07-18.76l0-0.02
				c-1.21-22.6-2.36-47.87-3.72-70.97c-1.05-17.87-2.23-34.45-3.66-47.49c-0.42-3.79-0.95-8.21-1.67-13.18
				c-1.28-8.96-2.49-15.37-2.8-17.06c-2.85-15.62-2.41-34.64-1.7-64.92c0.25-10.79,0.67-21.43,5.57-29.13
				c1.51-2.37,2.63-4.13,4.28-4.2c6.83-0.27,16.52,28.68,18.28,55.75c0.69,10.57,0.28,22.64,2.88,45.25c0.31,2.75,0.6,5.01,0.8,6.53
				l0,0.01c1.23,10.13,2.48,20.96,3.77,32.52c0.79,7.1,1.58,14.47,2.39,22.11C731.55,288.23,732.41,296.58,733.29,305.24z"/>
		</g>
		<g>
			<g>
				<path class="st0" d="M704.04,140.3c3.28,33.13,6.28,66.28,8.87,99.47c1.3,16.59,2.5,33.2,3.49,49.81
					c0.98,16.62,1.85,33.24,2.11,49.9l-0.8,0.01c-0.2-16.63-1-33.26-1.91-49.88c-0.92-16.62-2.06-33.22-3.29-49.82
					C710.05,206.61,707.18,173.44,704.04,140.3z"/>
			</g>
		</g>
		<g>
			<g>
				<polygon class="st13" points="750.03,197.62 734.07,329.8 733.28,329.69 				"/>
			</g>
		</g>
		<g class="st14">
			<g>
				<path class="st10" d="M720.39,193.37c1.09,7.92,2.2,16.47,3.34,25.64c-2.68,3.95-6.59,6.75-12.3,6.27
					c-6.05-0.52-10.71,3.14-14.21,8.03c-0.73-5.13-1.65-10.85-2.8-17.06c2.43-8.32,7.05-18.19,15.05-16.55
					C714.25,200.69,717.8,197.68,720.39,193.37z"/>
			</g>
		</g>
		<g>
			<path class="st4" d="M791.01,587.19H662.74c0.55-5.43,1.13-10.83,1.68-16.25c0.86-8.33,1.72-16.68,2.59-25
				c4.2-40.83,8.43-81.68,12.65-122.5c0.86-8.33,1.72-16.68,2.57-25c1.99-19.18,3.98-38.33,5.95-57.5h79.62
				c1.81,19.18,3.61,38.33,5.42,57.5c0.8,8.33,1.57,16.68,2.37,25c3.85,40.83,7.7,81.68,11.54,122.5c0.8,8.33,1.57,16.68,2.37,25
				C789.99,576.36,790.5,581.76,791.01,587.19z"/>
		</g>
		<g class="st15">
			<g>
				<path class="st0" d="M775.58,423.43h-95.92c0.86-8.33,1.72-16.68,2.57-25h90.98C774,406.76,774.78,415.11,775.58,423.43z"/>
			</g>
		</g>
		<g class="st15">
			<g>
				<path class="st0" d="M789.49,570.94H664.42c0.86-8.33,1.72-16.68,2.59-25h120.11C787.92,554.26,788.69,562.61,789.49,570.94z"/>
			</g>
		</g>
	</g>
	<g>
		<rect x="500.47" y="573.4" class="st8" width="457.71" height="34.33"/>
	</g>
	<g>
		<polygon class="st8" points="2007.68,1500.22 2410.44,1340.3 2410.44,1387.68 2007.68,1557.48 		"/>
	</g>
	<g>
		<g>
			<g>
				<path class="st8" d="M1907.48,438c13.48,33.03,29.22,68.7,46.07,105.35c16.7,36.34,34.48,73.65,52.19,110.28
					c16.71,34.56,33.36,68.52,48.96,100.51c47.31,96.93,85.12,175.72,86.53,198.23c4.57,73.16,92.32,82.06,99.19-2.63
					c0,0-34.73-116.52-86.27-254c-9.6-25.58-19.77-51.88-30.4-78.29c-17.46-43.32-36.16-86.94-55.62-128.15
					c-11.99-25.39-24.26-49.87-36.7-72.79c-44.11-81.27-90.27-143-133.21-156.87C1841.58,241.33,1860.93,323.84,1907.48,438z"/>
			</g>
			<g>
				<path class="st10" d="M2433.63,1745.78c3.91-0.1,6.96-2.25,6.8-4.8C2418.11,1383.99,2060.64,597.9,2057.03,590
					c-1.12-2.45-5.09-3.82-8.82-3.11c-3.76,0.73-5.89,3.3-4.78,5.74c3.6,7.89,360.58,792.88,382.82,1148.72
					C2426.41,1743.9,2429.72,1745.88,2433.63,1745.78z"/>
			</g>
			<g class="st16">
				<path class="st10" d="M1907.48,438c13.48,33.03,29.22,68.7,46.07,105.35c44.78-34.65,77.71-53.19,114.58-54.05
					c-11.99-25.39-24.26-49.87-36.7-72.79c-26.85-3.48-59.08-6.43-90.73,3.75C1927.57,424.48,1916.92,430.19,1907.48,438z"/>
			</g>
			<g class="st16">
				<path class="st10" d="M2005.74,653.62c16.71,34.56,33.36,68.52,48.96,100.51c39.22-31.12,69.22-50.91,99.44-58.4
					c-9.6-25.58-19.77-51.88-30.4-78.29c-22.49-2.03-47.43-2.04-72.02,5.86C2032.37,629.53,2018.4,639,2005.74,653.62z"/>
			</g>
		</g>
		<g>
			<g>
				<path class="st4" d="M2713.91,428.5c-9.31,33.63-20.55,70.02-32.77,107.44c-12.11,37.11-25.17,75.23-38.25,112.68
					c-12.34,35.33-24.7,70.06-36.26,102.77c-35.06,99.11-62.91,179.65-61.5,202.15c4.57,73.16-81.77,86.67-99.19,2.63
					c0,0,20.07-117.97,54.29-257.73c6.37-26,13.23-52.75,20.53-79.64c11.99-44.1,25.19-88.57,39.44-130.67
					c8.78-25.94,17.96-50.99,27.49-74.49c33.82-83.33,72.13-147.3,113.2-163.41C2755.05,229.01,2746.06,312.27,2713.91,428.5z"/>
			</g>
			<g>
				<path class="st10" d="M2352.71,1759.81c3.91-0.1,6.96-2.25,6.8-4.8c-22.24-355.84,235.59-1157.12,238.2-1165.17
					c0.81-2.5-1.64-4.94-5.48-5.47c-3.81-0.51-7.59,1.07-8.4,3.57c-2.61,8.06-260.8,810.47-238.49,1167.45
					C2345.49,1757.93,2348.79,1759.91,2352.71,1759.81z"/>
			</g>
			<g class="st12">
				<path class="st10" d="M2713.91,428.5c-9.31,33.63-20.55,70.02-32.77,107.44c-48.96-32.17-84.09-48.9-120.94-47.81
					c8.78-25.94,17.96-50.99,27.49-74.49c26.33-4.89,58.08-9.53,90.9-1.06C2692.2,416.09,2703.53,421.23,2713.91,428.5z"/>
			</g>
			<g class="st12">
				<path class="st10" d="M2642.88,648.62c-12.34,35.33-24.7,70.06-36.26,102.77c-42.97-28.94-75.35-47.08-106.4-52.95
					c6.37-26,13.23-52.75,20.53-79.64c22.16-3.22,47.02-4.55,72.51,2.03C2613.34,626.01,2628.44,634.72,2642.88,648.62z"/>
			</g>
		</g>
		<g>
			<g>
				<path class="st8" d="M2804.32,723.44c-9.78,26.11-21.53,54.36-34.27,83.42c-12.63,28.82-26.23,58.43-39.83,87.51
					c-12.83,27.44-25.67,54.42-37.69,79.82c-36.44,76.98-65.42,139.54-64.33,156.96c3.54,56.65-82.96,67.63-99.19,2.63
					c0,0,21.72-91.5,57.9-199.97c6.74-20.18,13.97-40.94,21.64-61.81c12.61-34.24,26.43-68.76,41.27-101.45
					c9.14-20.15,18.67-39.6,28.53-57.86c34.98-64.75,74.18-114.54,115.46-127.26C2848.26,568.66,2838.1,633.21,2804.32,723.44z"/>
			</g>
			<g>
				<path class="st10" d="M2424.53,1757.35c3.44-0.09,6.12-1.98,5.98-4.23c-17.21-275.31,251.73-897.36,254.45-903.61
					c0.94-2.16-0.99-4.4-4.3-5.02c-3.33-0.61-6.77,0.64-7.7,2.8c-2.73,6.26-272.2,629.55-254.91,906.15
					C2418.19,1755.7,2421.09,1757.44,2424.53,1757.35z"/>
			</g>
			<g class="st17">
				<path class="st10" d="M2804.32,723.44c-9.78,26.11-21.53,54.36-34.27,83.42c-48.49-24.63-83.37-37.38-120.23-36.31
					c9.14-20.15,18.67-39.6,28.53-57.86c26.39-3.95,58.2-7.73,90.88-1.37C2782.8,713.96,2794.05,717.87,2804.32,723.44z"/>
			</g>
			<g class="st18">
				<path class="st4" d="M2730.22,894.37c-12.83,27.44-25.67,54.42-37.69,79.82c-42.55-22.16-74.66-36.02-105.62-40.38
					c6.74-20.18,13.97-40.94,21.64-61.81c22.2-2.62,47.07-3.8,72.46,1.14C2701.01,877.04,2715.98,883.69,2730.22,894.37z"/>
			</g>
		</g>
		<g>
			<g>
				<path class="st4" d="M2206.92,622.54c3.45,26.78,8.33,55.88,14,85.87c5.61,29.74,12,60.37,18.51,90.47
					c6.15,28.41,12.41,56.35,18.24,82.66c17.67,79.73,31.41,144.45,26.19,161.56c-16.98,55.6,65.86,75.19,97.36,12.61
					c0,0,0.32-92.59-9.6-203.39c-1.85-20.62-4.05-41.86-6.67-63.25c-4.31-35.09-9.74-70.6-16.62-104.39
					c-4.24-20.83-9.02-41.01-14.41-60.05c-19.15-67.5-46.02-120.64-83.77-137.37C2200.36,465.19,2195.03,529.99,2206.92,622.54z"/>
			</g>
			<g>
				<path class="st10" d="M2337.49,1682.36c2.81-0.07,5.29-1.39,5.86-3.27c82.92-271.51-34.94-914.47-36.14-920.94
					c-0.41-2.23-3.49-3.79-6.94-3.55c-3.42,0.27-5.86,2.29-5.44,4.52c1.2,6.45,118.81,648.13,36.28,918.37
					c-0.67,2.2,1.53,4.34,4.9,4.78C2336.51,1682.36,2337,1682.38,2337.49,1682.36z"/>
			</g>
			<g class="st19">
				<path class="st10" d="M2206.92,622.54c3.45,26.78,8.33,55.88,14,85.87c53.76-19.43,91.26-28.51,127.42-23.74
					c-4.24-20.83-9.02-41.01-14.41-60.05c-25.13-6.56-55.65-13.51-89.46-10.52C2230.44,615.34,2218.4,618.07,2206.92,622.54z"/>
			</g>
			<g class="st20">
				<path class="st10" d="M2239.44,798.89c6.15,28.41,12.41,56.35,18.24,82.66c47.31-17.6,82.33-28.04,113.95-29.23
					c-1.85-20.62-4.05-41.86-6.67-63.25c-21.31-4.83-45.59-8.51-71.85-6.19C2272.43,784.71,2256.05,789.77,2239.44,798.89z"/>
			</g>
		</g>
		<g>
			<path class="st2" d="M2530.18,2311.66c-5.8,47.02-12.75,102.03-20.56,162.29c-17.63,9.96-73.44,38.47-144.96,26.35
				c-43.94-7.44-75.43-27.11-92.24-39.53c-16.05-84.59-26.52-157.77-32.7-211.72c-5.74-50.04-7.78-83.55-7.19-94.32
				c1.24-22.56,3.75-44.49,3.75-44.49c0.39-3.41,0.79-6.78,1.22-10.1c0.33-2.57,0.67-5.12,1.02-7.65
				c2.49-17.94,5.47-34.66,8.74-50.17c0.19-0.96,0.4-1.92,0.6-2.87c4.9-22.89,10.12-41.91,15.47-59.64
				c12.19-40.41,25.09-74.04,36.58-131.15c33-164.04,10.85-305.44-12.32-397.87c75.04-5.53,150.09-11.04,225.14-16.57
				c-41,207.4-34.34,326.57-19.44,397.93c2.93,14,14.44,65.76,28.14,140.82c1.3,7.02,2.59,14.24,3.91,21.66
				c0.03,0.17,0.06,0.35,0.1,0.53c2.39,13.46,4.69,26.81,6.85,39.61c3.02,18,5.79,34.94,8.1,49.71c3.15,19.95,5.49,35.95,6.71,45.25
				c0.48,3.64,0.93,7.45,1.35,11.46c0,0,0.27,2.56,0.52,5.14C2549.36,2150.54,2542.25,2213.83,2530.18,2311.66z"/>
		</g>
		<g class="st21">
			<path class="st0" d="M2540.38,2084.49l-301.86,8c-2.68,19.33-4.78,40.06-5.99,62.24l316.42-8.39L2540.38,2084.49z"/>
		</g>
		<g class="st21">
			<path class="st0" d="M2532.28,2034.79l-285.02,7.54c0.19-0.96,0.4-1.92,0.6-2.86c4.9-22.89,10.12-41.92,15.47-59.64l258.1-6.83
				c1.29,7.02,2.59,14.24,3.91,21.66C2527.76,2008.29,2530.09,2021.82,2532.28,2034.79z"/>
		</g>
		<g class="st22">
			<path class="st23" d="M2530.18,2311.66c-5.8,47.02-12.75,102.03-20.56,162.29c-17.63,9.96-73.44,38.47-144.96,26.35
				c-43.94-7.44-75.43-27.11-92.24-39.53c-30.94-163.02-41.12-283.67-39.89-306.04c1.24-22.56,3.75-44.49,3.75-44.49
				c0.39-3.41,0.79-6.78,1.22-10.1C2297.05,2179.09,2388.83,2256.63,2530.18,2311.66z"/>
		</g>
		<g class="st24">
			<path class="st25" d="M2530.18,2311.66c-5.8,47.02-12.75,102.03-20.56,162.29c-17.63,9.96-73.44,38.47-144.96,26.35
				c-43.94-7.44-75.43-27.11-92.24-39.53c-16.05-84.59-26.52-157.77-32.7-211.72c173.7-4.56,252.22-122.89,285.7-253.88
				c2.39,13.46,4.69,26.81,6.85,39.61c3.02,18,5.79,34.94,8.1,49.71c3.15,19.95,5.49,35.95,6.71,45.25
				c0.48,3.64,0.93,7.45,1.35,11.46c0,0,0.27,2.56,0.52,5.14C2549.36,2150.54,2542.25,2213.83,2530.18,2311.66z"/>
		</g>
		<g class="st16">
			<path class="st10" d="M2548.96,2146.35c-0.25-2.58-0.52-5.14-0.52-5.14c-0.42-4.01-0.88-7.83-1.35-11.46
				c-1.22-9.3-3.56-25.3-6.71-45.25c-2.31-14.77-5.08-31.71-8.1-49.71c-2.16-12.8-4.45-26.15-6.85-39.61
				c-0.03-0.17-0.06-0.35-0.1-0.53c-1.32-7.42-2.61-14.63-3.91-21.66c-13.7-75.06-25.21-126.82-28.14-140.82
				c-14.89-71.36-21.56-190.53,19.44-397.93c-27.44,2.02-54.89,4.04-82.33,6.06c-40.66,206.44-33.99,325.19-19.14,396.37
				c2.93,14,14.44,65.76,28.14,140.82c1.3,7.02,2.59,14.24,3.91,21.66c0.03,0.17,0.06,0.35,0.1,0.53
				c2.39,13.46,4.69,26.81,6.85,39.61c3.02,18,5.79,34.94,8.1,49.71c3.15,19.95,5.49,35.95,6.71,45.25
				c0.48,3.64,0.93,7.45,1.35,11.46c0,0,0.27,2.56,0.52,5.14c0.4,4.19-6.71,67.48-18.77,165.32
				c-5.8,47.02-12.75,102.03-20.56,162.29c-9.39,5.3-29.59,15.85-57.21,22.74c68.76,9.71,122.07-17.55,139.23-27.24
				c7.81-60.26,14.76-115.27,20.56-162.29C2542.25,2213.83,2549.36,2150.54,2548.96,2146.35z"/>
		</g>
	</g>
</g>
<g id="man_3">
	<g>
		<path class="st26" d="M984.67,2756.49c-3.02,19.21-121.09,10.75-198.21-1.79c-44.34-7.21-68.51-14.7-75.06-32.41
			c-5.92-16.05,8.19-25.48,25.73-60.29c1.48-2.93,2.99-6.04,4.5-9.35c11.89-25.96,42.84-93.53,40.15-163.5
			c-0.32-8.04-1.1-17.13,4.73-22.18c15.86-13.73,64.54,16.49,103.78,44.71c-28.95,40.95-68.91,109.06-44.55,149.53
			c0.56,0.93,1.15,1.86,1.97,2.88c3.76,4.73,12.03,11.58,41.85,30.84C963.45,2742.63,986.01,2747.99,984.67,2756.49z"/>
	</g>
	<g>
		<path class="st5" d="M561.84,2084.78l228.86-114.43c-12.71,211.9-25.43,423.81-38.14,635.71c13.5,7.78,32.55,16.75,56.58,22.25
			c39.28,8.99,72.48,4.28,91.54,0c12.66-41.89,180.32-605.3,103.62-788.92c-9.6-22.99-31.2-74.71-81.82-98.77
			c-39.43-18.74-79.75-12.74-158.48,7.22c-62.3,15.8-143.26,38.97-237.12,73.11C526.88,1820.96,367.32,1981.8,561.84,2084.78z"/>
	</g>
	<g class="st27">
		<path class="st0" d="M1004.3,1839.4c-9.6-22.99-31.2-74.71-81.82-98.77c-39.43-18.74-79.75-12.74-158.48,7.22
			c-62.3,15.8-143.26,38.97-237.12,73.11c0,0-3.69,3.72-9.27,10.39c79.75-27.75,149-47.36,203.79-61.25
			c78.73-19.96,119.05-25.96,158.48-7.22c50.62,24.06,72.22,75.78,81.82,98.77c71.08,170.15-67.66,666.38-98.48,771.61
			c15.27-0.63,28.08-2.84,37.45-4.94C913.34,2586.43,1081,2023.02,1004.3,1839.4z"/>
	</g>
	<g>
		<path class="st2" d="M984.67,2756.49c-17.62,33.89-111.05,12.39-198.21-1.79c-44.34-7.21-68.51-14.7-75.06-32.41
			c-2.94-7.97-0.95-14.3,3.96-22.91c4.96-8.74,12.93-19.83,21.77-37.38c7.04,7.55,19.26,18.21,37.24,23.98
			c10.3,3.3,33.78,10.84,53.39-2.06c10.6-6.97,15.7-17.07,17.99-22.71c8.69,8.78,23.24,21.97,43.82,33.73
			c45.74,26.14,90.16,27.28,97.03,46.12c0.33,0.88,0.56,1.8,0.72,2.75C988.25,2749.59,985.78,2754.37,984.67,2756.49z"/>
	</g>
	<g>
		<path class="st28" d="M984.67,2756.49c-17.62,33.89-111.05,12.39-198.21-1.79c-44.34-7.21-68.51-14.7-75.06-32.41
			c-2.94-7.97-0.95-14.3,3.96-22.91c13.04,9.59,31.33,20.52,51.04,24.65l164.87,34.53c25.13,5.26,42.66-8.38,55.32-17.49
			c0.33,0.88,0.56,1.8,0.72,2.75C988.25,2749.59,985.78,2754.37,984.67,2756.49z"/>
	</g>
	<g>
		<g>
			<polygon class="st7" points="609.59,2177.93 362.34,2891 352.1,2888.19 580.08,2169.83 			"/>
		</g>
	</g>
	<g>
		<g>
			<polygon class="st7" points="646.2,2186.37 829.1,2888.39 818.74,2890.8 608.93,2195.04 			"/>
		</g>
	</g>
	<g>
		<g>
			<path class="st7" d="M614.71,2189.17c4.77,6.51,3.62,13.28,4.22,19.97l0.99,20.1l1.97,40.21l3.94,80.41
				c2.56,53.61,5.4,107.21,7.74,160.83l7.28,160.85l6.58,160.88l-11.29,0.48l-9.78-160.74l-9.08-160.77
				c-3.11-53.59-5.73-107.19-8.62-160.79l-4.24-80.4l-2.12-40.2l-1.06-20.1c-0.08-6.71-1.92-13.35,2.18-20.24L614.71,2189.17z"/>
		</g>
	</g>
	<g>
		<g>
			<path class="st10" d="M883.32,2209.85H387.45c-11.98,0-21.7-9.71-21.7-21.7v-70.43c0-11.98,9.71-21.7,21.7-21.7h495.87
				c11.98,0,21.7,9.71,21.7,21.7v70.43C905.02,2200.14,895.3,2209.85,883.32,2209.85z"/>
		</g>
	</g>
	<g>
		<g>
			<path class="st7" d="M383.69,2209.85h503.39c9.91,0,17.94-8.03,17.94-17.94v-9.66c0-9.91-8.03-17.94-17.94-17.94H383.69
				c-9.91,0-17.94,8.03-17.94,17.94v9.66C365.76,2201.82,373.79,2209.85,383.69,2209.85z"/>
		</g>
	</g>
	<g>
		<path class="st26" d="M628.17,1562.1l112.21-15.3c0,0,107.11,20.4,114.76,33.15c7.65,12.75-96.91-10.2-96.91-10.2
			s112.21,25.5,96.91,35.7c-15.3,10.2-96.91-12.75-96.91-12.75s99.46,12.75,91.81,22.95s-91.81,0-91.81,0l-43.35,10.2
			c0,0,45.9-7.65,53.55,10.2c7.65,17.85-43.35,20.4-73.96,10.2c-30.6-10.2-99.46-15.3-99.46-15.3L628.17,1562.1z"/>
		<path class="st2" d="M464.96,1692.16c-24.11,1.7-164.42,9.64-232.07-76.51c-80.55-102.58-42.75-319.08,150.83-463.14
			c106.3,94.6,76.55,265.04,22.59,327.98c35.39,6.93,150.3,29.86,175.96,45.9c34.74,21.71,79.13,65.16,72.64,100.38
			C647.37,1667.71,570.93,1702.05,464.96,1692.16z"/>
	</g>
	<g>
		<path class="st26" d="M1471.66,2799.55c-0.19,19.45-118.24,28.26-196.36,27.07c-44.92-0.68-69.92-4.57-78.98-21.15
			c-8.19-15.02,4.4-26.4,16.68-63.39c1.04-3.11,2.08-6.41,3.09-9.91c7.99-27.41,28.78-98.76,15.93-167.61
			c-1.48-7.91-3.59-16.79,1.45-22.63c13.7-15.89,66.25,6.92,109.19,29.13c-22.68,44.73-52.31,117.92-22.32,154.43
			c0.69,0.83,1.41,1.67,2.37,2.57c4.41,4.13,13.59,9.71,45.89,24.42C1448.65,2788.93,1471.75,2790.94,1471.66,2799.55z"/>
	</g>
	<g>
		<path class="st4" d="M1392.72,2285.03c-6.62,89.33-17.06,201.81-34.32,331.84c-19.1,12.25-63.49,37.07-120.24,35.57
			c-5.58-0.15-11.27-0.54-17.07-1.24c-17.57-2.1-32.91-6.47-45.77-11.44c-10.18-209.62-20.36-419.23-30.54-628.85
			c-0.21-4.12-0.4-8.25-0.6-12.37c0-0.07-0.01-0.14-0.01-0.21c-188.18,93.85-349.08,115.84-448.89,120.64
			c-134.23,6.46-251.06,12.07-311.54-68.39c-5.93-7.89-11.13-16.36-15.6-25.29c-38.42-76.66-23.33-187.11,39.2-257.91
			c83.04-94.01,240.42-108.86,356.12-19.53c0,0,61.22,22.85,100.77,57.07c70.21-19.65,140.43-39.32,210.64-58.98
			c41.33-13.8,145.56-42.48,217.41,11.44c11.79,12.18,29.13,31.61,46.41,57.85C1401.67,1910.89,1412.44,2018.8,1392.72,2285.03z"/>
	</g>
	<g>
		<path class="st2" d="M1471.66,2799.55c-12.5,36.1-108.06,28.41-196.36,27.07c-44.92-0.68-69.92-4.57-78.98-21.15
			c-4.06-7.46-3.02-14.01,0.58-23.24c3.64-9.37,9.91-21.5,16.1-40.15c8.06,6.44,21.71,15.22,40.33,18.3
			c10.67,1.77,35,5.81,52.52-9.81c9.47-8.44,13.04-19.17,14.5-25.09c9.88,7.42,26.19,18.36,48.26,26.99
			c49.06,19.21,93.17,13.87,102.71,31.51c0.45,0.82,0.82,1.69,1.11,2.62C1474.2,2792.2,1472.45,2797.29,1471.66,2799.55z"/>
	</g>
	<g>
		<path class="st28" d="M1471.66,2799.55c-12.5,36.1-108.06,28.41-196.36,27.07c-44.92-0.68-69.92-4.57-78.98-21.15
			c-4.06-7.46-3.02-14.01,0.58-23.24c14.3,7.59,33.98,15.74,54.09,16.96l168.14,10.17c25.62,1.55,40.99-14.5,52.19-25.36
			c0.45,0.82,0.82,1.69,1.11,2.62C1474.2,2792.2,1472.45,2797.29,1471.66,2799.55z"/>
	</g>
	<g class="st27">
		<path class="st0" d="M1338.69,1815.24c-17.28-26.24-34.62-45.67-46.41-57.85c-71.85-53.92-176.08-25.23-217.41-11.44
			c-70.21,19.66-140.43,39.32-210.64,58.98c-6.83-6.09-55.8-49.4-65.22-41.37c-9.81,8.36,28.72,67.89,33.12,74.63
			c88.45-20.39,157.53-37.31,199.51-47.74c121.49-30.18,159.11-41.61,201.68-23.06c17.38,7.57,56.55,29.27,94.4,118
			c49.97,117.15,42.85,222.71,21.78,444.14c-11.94,125.42-22.9,230.73-31.22,308.02c17.72-7.07,31.5-15.15,40.12-20.68
			c17.26-130.03,27.71-242.51,34.33-331.84C1412.44,2018.8,1401.68,1910.89,1338.69,1815.24z"/>
	</g>
	<g>
		
			<rect x="490.64" y="1002.8" transform="matrix(0.9713 0.2378 -0.2378 0.9713 269.1563 -99.7112)" class="st26" width="114.43" height="125.87"/>
	</g>
	<g>
		<path class="st3" d="M640.1,1054.49c-1.75,0.23-3.56,0.47-5.41,0.71c-12.06,1.57-21.61,2.58-22.66,2.68
			c-12.55,1.19-36.52-13.24-52.23-23.74c-1.51-8.9-3.38-17.84-5.67-26.82c-0.06-0.25-0.13-0.51-0.2-0.76
			c0.53,0.22,1.06,0.42,1.59,0.64c27.78,11.17,55.57,22.34,83.35,33.51L640.1,1054.49z"/>
	</g>
	<g>
		<path class="st26" d="M665.8,877.72c12.11,44.75,11.02,47.25,19.36,73.3c8.63,26.98,10.92,27.76,10.11,35.39
			c-3.06,28.96-39.89,54.95-75.11,57.88c-22.9,1.9-39.81-6.49-62.77-17.97c-30.95-15.48-67.74-33.87-85.79-70.12
			c-25.39-50.98-14.28-137.58,45.64-166.57c45.87-22.2,107.6-4.47,131.7,30.72C651.28,823.78,656.07,841.79,665.8,877.72z"/>
	</g>
	<g class="st29">
		
			<ellipse transform="matrix(0.7071 -0.7071 0.7071 0.7071 -285.7325 1169.3938)" class="st4" cx="1268.72" cy="929.61" rx="35.4" ry="35.4"/>
	</g>
	<g>
		<g>
			<path class="st26" d="M1210.5,1116.93c-2.25-10.03-4.93-24.55-6.14-42.23c-1.94-28.37-3.18-42.75,4.61-53.62
				c5.7-7.94,22.06-13.73,54.79-25.32c16.48-5.83,22.19-7,28.78-4.85c16,5.22,21.71,24.97,23.17,30.01
				c1.41,4.89,6.33,21.9-2.07,28.59c-3.28,2.62-7.58,2.85-10.93,2.52c-3.47-8.02-6.94-16.04-10.41-24.06
				c-9.44,2.81-18.87,5.61-28.31,8.42c20.3-8.86,38.47-8.85,44.21-0.7c2.35,3.34,1.54,10.34-0.09,24.34
				c-1.96,16.89-4.94,20.26-7.69,21.7c-2.91,1.53-6.1,1.2-8.26,0.72c-1.99-9.66-3.98-19.33-5.97-28.99
				c-7.13,2.87-14.26,5.74-21.39,8.6c-2,0.8,20.44-5.46,33.96,4.28c9.77,7.04,14.84,22.16,10.22,30.98
				c-1.24,2.37-4.03,5.9-6.89,5.62c-4.93-0.49-5.69-11.89-10.34-12.45c-1.79-0.21-4.57,1.14-8.66,8.76
				c0.69,3.56,1.2,7.42,1.41,11.53c0,0,0.32,6.27-0.38,13.03c-0.93,8.95-10.42,42.59-26.43,87.5c-31.47-7.87-62.93-15.73-94.4-23.6
				C1179.03,1164.13,1194.76,1140.53,1210.5,1116.93z"/>
		</g>
		<g>
			<path class="st26" d="M1250.23,1020.21c3.36-3.44,7.64-8.83,9.98-16.43c1.72-5.61,1.69-10.17,1.72-12.05
				c0.13-7.91,2.23-19.72,10.93-36.7c7.13-17.6,6.63-24.26,3.62-26.22c-0.99-0.64-2.39-0.87-4.33-0.5l0,0
				c-3.34,0.51-6.45,2.94-8.21,6.42c-16.89,29.21-33.78,58.41-50.68,87.62c1.82,1.77,6.75,6.13,13.88,7.4
				c1.89,0.34,3.58,0.39,5.01,0.32l10.09-2.41C1244.91,1025.17,1247.57,1022.69,1250.23,1020.21z"/>
		</g>
	</g>
	<g>
		<path class="st2" d="M1280.52,1201c-38.83,129.29-103.86,201.25-141.6,235.99c-39.04,35.94-62.34,44.44-70.8,47.2
			c-114,37.17-236.54-86.8-251.45-102.27c-2.8,47.01-5.11,98.89-0.72,143.11c0.15,3.61,0.54,7.15,1.1,10.61
			c0.81,5.12,1.98,10.11,3.22,15.01c5.03,19.82,11.26,38.29,0.32,59.25c-5.22,8.9-13.17,14.74-11.44,22.89
			c7.39,12.53,17.86,14.74,20.2,21.81c1.22,3.7,0.67,6.94-0.67,10.04c-1.31,3.03-3.39,5.92-5.31,8.98
			c-1.01,1.59-1.97,3.22-2.77,4.94c-0.49,1.06-0.93,2.12-1.31,3.19c-2.83,7.87-2.66,15.73-1.02,23.48
			c4.74,22.48,21.82,44.01,13.88,62.16c-3.99,9.11-15.15,19.38-47.2,23.6c-32.79,29.97-79.55,65.71-141.6,94.4
			c-94.7,43.8-184.43,52.42-248.66,51.17c-4.26-0.08-8.41-0.21-12.44-0.38c-17.67-0.71-33.07-2.12-45.69-3.6
			c-1.06-13.56-2.2-26.79-3.4-39.68l-0.02-0.18c-0.56-6.01-1.13-11.93-1.72-17.79v-0.01c-8.47-84.79-19.47-154.12-28.61-204.51
			c-17.3-95.37-33.34-141.42-37.06-233.43c-0.24-5.79-0.48-11.48-0.72-17.07c-0.07-1.71-0.15-3.42-0.22-5.11
			c-3.31-75.13-5.8-132.37,24.55-190.22c38.05-72.52,99.97-107.74,118-118c186.84-106.29,431.5,43.07,443.83,50.81h0.01
			c4.75,2.75,9.38,5.49,13.9,8.23h0.01c34.86,21.25,64.39,41.79,92.94,64.08c2.81,2.2,5.62,4.42,8.43,6.66
			c7.96,6.35,15.88,12.86,23.85,19.58h0.01c10.2,13.15,20.4,26.29,30.61,39.44c5.43-5.43,10.86-10.86,16.29-16.29
			c2.29-2.29,4.58-4.58,6.88-6.87c43.54-43.55,87.1-87.1,130.65-130.65l0.47-0.47c3.63-3.63,7.27-7.28,10.91-10.91
			c16.54,12.41,33.09,24.83,49.64,37.24c10.83,8.12,21.65,16.24,32.48,24.36C1272.33,1194.86,1276.42,1197.94,1280.52,1201z"/>
	</g>
	<g>
		<path class="st4" d="M619.43,733.61c12.75,5.87,10.58,7.51,25.28,15.17c31.67,16.51,45.35,10.82,50.56,20.22
			c10.47,18.9-24.47,78.45-69.22,85.67c-19.75,3.19-42.54-1.7-61.19,13.32c-2.88,2.32-5.39,5.41-7.47,9.56
			c-11.44,22.89-22.89,45.77-22.89,45.77s-11.44-22.89-22.89-11.44c-11.44,11.44-11.44,45.77,11.44,57.21
			c3.72,32.21-9.06,55.06-22.89,57.21c-10.38,1.62-20.22-8.6-22.89-11.44c-3.81-3.81-7.63-7.63-11.44-11.44
			c-32.67,2.62-63.73-9.03-79-32.19c-15.43-23.41-12.87-55.75-12.54-59.35c0.83-9.24,2.16-8.61,2.43-16.49
			c0.91-26.94-14.55-37.35-15.17-55.62c-0.33-9.72,3.45-24.1,24.18-42.32c-1.21-4.96-2-11.88,1.1-18.35
			c4.36-9.1,12.98-10.1,21.79-15.98c19.74-13.17,13.99-33.16,28.77-44.69c7.92-6.18,22.43-10.46,51.33-1.08
			c28.66-25.96,45.06-27.79,54.85-24.2c11.25,4.13,9.39,13.81,25.25,24.2C585.47,728.25,594.22,721.99,619.43,733.61z"/>
	</g>
	<g>
		<path class="st4" d="M690.53,1059.41c-26.25,25.13-79-2.89-118-23.6c-7.9-4.2-19.2-11.13-23.6-23.6c-3.82-10.81-0.72-20.87,0-23.6
			c4.16-15.7-1.28-48.71-40.73-123.54c12.83,0.45,28.73,3.19,36.32,14.48c3.91,5.81,4.41,11.67,4.41,14.66
			c0,23.6,47.2,70.8,70.8,70.8c23.6,0,23.6-23.6,47.2-23.6c20.06,0,23.07,17.04,23.52,22.16c-6.31-4.1-16.24-5.85-26.9-4.09
			c-16.9,2.79-29.24,13.35-27.55,23.59c1.69,10.24,16.76,16.27,33.67,13.48c13.39-2.21,23.91-9.29,26.87-17.22
			C708.35,1012.03,706.84,1043.79,690.53,1059.41z"/>
	</g>
	<g>
		<path class="st26" d="M667.09,889.09c5.32,8.97,10.7,15.77,15.07,20.68c9.23,10.38,15.35,13.94,15.07,20.68
			c-0.23,5.51-4.64,10.64-9.39,13.18c-1.17,0.63-5.9,2.98-11.29,1.89c-7.87-1.59-14.27-9.94-15.07-20.68
			C663.35,912.92,665.22,901.01,667.09,889.09z"/>
	</g>
	<g>
		<path class="st4" d="M640.96,893.07c0,4.08-3.31,7.38-7.38,7.38c-4.08,0-7.38-3.31-7.38-7.38c0-4.08,3.31-7.38,7.38-7.38
			C637.66,885.69,640.96,888.99,640.96,893.07z"/>
	</g>
	<g>
		<g>
			<path class="st4" d="M605.22,880.71c2.1-4.3,5.16-7.36,8.44-9.93c3.31-2.53,6.95-4.46,10.8-5.8c3.84-1.36,7.9-2.13,12.07-2.18
				c4.15-0.06,8.44,0.61,12.69,2.62c0.86,3.74,0.14,5.74-0.53,6.83c-2.5,4.07-8.27,1.72-20.21,4.49c-5.17,1.2-5.6,1.97-10.93,2.96
				C613.73,880.41,609.81,880.91,605.22,880.71z"/>
		</g>
	</g>
	<g>
		<path class="st3" d="M534.85,942.32c0,0-14.28-13.52-18.71-4.89c-4.44,8.63,7.43,15.69,7.43,15.69c0.5-0.63,1.01-1.26,1.51-1.9
			c-5.5-3.07-8.33-7.68-7.32-10.98c0.45-1.46,1.81-3.22,3.66-3.66c1.56-0.38,2.92,0.35,5.58,1.8c1.42,0.78,3.33,1.96,5.4,3.69
			C533.22,942.15,534.04,942.24,534.85,942.32z"/>
	</g>
	<g>
		<g>
			<path class="st3" d="M690.75,973.28c-6.97,0.68-17.59,0.12-27.75-6.65c-1.35-0.91-3.15-0.52-4.05,0.81
				c-0.89,1.32-0.52,3.15,0.81,4.05c9.36,6.22,18.96,7.87,26.48,7.87c1.01,0,1.98-0.03,2.9-0.08L690.75,973.28z"/>
		</g>
	</g>
	<g>
		<g>
			<path class="st30" d="M809.14,1385.85l7.32,0.94c-0.11,1.35-0.23,2.69-0.33,4.03C812.02,1388.09,809.14,1385.85,809.14,1385.85z"
				/>
		</g>
		<g>
			<path class="st30" d="M829.24,1391.37c-3.45-0.99-8-2.78-11.06-6.19c-7.49-8.33-0.86-20.4,2.4-27.24
				c7.81-16.36,6.81-34.39,11.44-51.41c4.9-17.99,6.2-45.44-11.44-85.68c9.2,16.94,18.99,40.21,22.89,68.54
				C849.54,1333.58,838.46,1369.64,829.24,1391.37z"/>
		</g>
		<g>
			<path class="st30" d="M828.78,1338.45c-1.29-7.13-3.85-14.94-8.2-23.35C820.58,1315.1,824.32,1325.22,828.78,1338.45z"/>
		</g>
	</g>
	<g class="st27">
		<g>
			<path class="st31" d="M1178.8,1978.92c-1.25,19.64-17.18,29.76-29.14,34.93c-1.51-0.83-3.25-1.83-4.9-2.94
				c-0.2-4.12-0.39-8.25-0.6-12.37c0.94-0.37,1.86-0.7,2.66-1.06c7.74-3.37,11.89-11.06,15.85-18.41
				c8.26-15.36,6.32-30.88,5.56-35.6C1174.15,1953.55,1179.62,1966.32,1178.8,1978.92z"/>
		</g>
	</g>
	<g>
		<path class="st32" d="M1003.65,1083.52l-1.77-0.7C1002.94,1083.19,1003.54,1083.47,1003.65,1083.52z"/>
	</g>
	<g>
		<g>
			<path class="st30" d="M830.81,1341.29l-21.6,70.03c-7.57,23.22-14.95,46.46-21.53,69.91c-6.6,23.43-12.64,47.05-16.83,70.82
				c-2.13,11.86-3.75,23.84-4,35.52l-0.09,4.37c-0.07,1.47,0.18,2.83,0.25,4.25c0.23,2.81,0.35,5.58,0.92,8.52
				c0.48,2.9,1.04,5.81,1.66,8.7l0.98,4.32l0.53,2.14l0.27,1.06l0.14,0.52l0.07,0.25l0.03,0.12c0.04,0.14-0.05-0.2-0.14-0.46
				c-0.09-0.26-0.2-0.51-0.32-0.75l0.46,1.19c1.94,6.4,4.57,12.52,7.45,19.12c2.88,6.55,5.63,13.64,7.7,20.82
				c2.1,7.19,3.61,14.48,4.78,21.74c0.61,3.64,1.07,7.26,1.51,10.89c0.43,3.63,0.78,7.39,1.02,11c1.01,14.54,1.26,28.82,1.44,43.14
				c0.14,14.32,0.11,28.54-0.11,42.9l-20.96-0.84c0.85-14.03,1.52-28.2,2.03-42.29c0.46-14.08,0.84-28.22,0.5-42.06
				c-0.07-3.49-0.23-6.82-0.48-10.25c-0.27-3.44-0.54-6.87-0.96-10.26c-0.78-6.8-1.86-13.5-3.45-20.03
				c-1.58-6.55-3.68-12.85-6.22-19.42c-2.51-6.54-5.19-13.62-7.04-20.92l0.46,1.19c-0.14-0.29-0.26-0.59-0.36-0.89
				c-0.1-0.31-0.2-0.7-0.17-0.6l-0.03-0.15l-0.07-0.3l-0.13-0.59l-0.25-1.17l-0.46-2.33l-0.84-4.65c-0.53-3.1-0.98-6.22-1.36-9.36
				c-0.45-3.08-0.5-6.43-0.61-9.71c-0.01-1.63-0.2-3.32-0.06-4.89l0.31-4.77c0.86-12.71,3.12-24.93,5.84-36.98
				c5.39-24.11,12.55-47.58,20.25-70.83c7.68-23.25,16.13-46.21,24.74-69.06L830.81,1341.29z"/>
		</g>
	</g>
	<g>
		<path class="st33" d="M690.45,963.57c0.08,0.9,0.08,1.44,0.08,1.44c2.28,4.76,4.29,9.55,6.01,14.32L690.45,963.57z"/>
	</g>
	<g class="st34">
		<g>
			<g>
				<polygon class="st0" points="409.5,1275.17 356.59,1201.48 319.26,1270.44 310.91,1265.68 355.46,1183.38 417.19,1269.36 				
					"/>
			</g>
		</g>
		<g>
			<g>
				<polygon class="st0" points="525.22,1194.17 481.2,1114.85 436.14,1179.03 428.4,1173.33 482.17,1096.74 533.54,1189.28 				"/>
			</g>
		</g>
		<g>
			<g>
				<polygon class="st0" points="685.89,1200.35 641.87,1121.03 596.81,1185.21 589.07,1179.51 642.84,1102.92 694.21,1195.46 				
					"/>
			</g>
		</g>
		<g>
			<g>
				<polygon class="st0" points="589.83,1355.4 545.81,1276.09 500.75,1340.26 493,1334.56 546.78,1257.98 598.14,1350.52 				"/>
			</g>
		</g>
		<g>
			<g>
				<polygon class="st0" points="752.75,1400.91 708.72,1321.59 663.66,1385.77 655.92,1380.07 709.7,1303.48 761.06,1396.02 				
					"/>
			</g>
		</g>
		<g>
			<g>
				<polygon class="st0" points="414.85,1434.95 359.65,1362.96 324.51,1433.06 316.01,1428.57 357.95,1344.91 422.35,1428.89 				
					"/>
			</g>
		</g>
		<g>
			<g>
				<polygon class="st0" points="424.96,1612.47 369.76,1540.49 334.62,1610.59 326.13,1606.09 368.06,1522.43 432.47,1606.42 				
					"/>
			</g>
		</g>
		<g>
			<g>
				<polygon class="st0" points="581.7,1526.52 526.5,1454.53 491.36,1524.63 482.86,1520.14 524.8,1436.48 589.2,1520.46 				"/>
			</g>
		</g>
		<g>
			<g>
				<polygon class="st0" points="713.16,1603.48 657.96,1531.5 622.82,1601.6 614.32,1597.1 656.26,1513.44 720.66,1597.43 				"/>
			</g>
		</g>
		<g>
			<g>
				<polygon class="st0" points="581.7,1713.59 526.5,1641.61 491.36,1711.71 482.86,1707.21 524.8,1623.55 589.2,1707.54 				"/>
			</g>
		</g>
		<g>
			<g>
				<polygon class="st0" points="440.13,1804.6 384.93,1732.62 349.79,1802.72 341.29,1798.22 383.23,1714.56 447.63,1798.55 				
					"/>
			</g>
		</g>
		<g>
			<g>
				<path class="st0" d="M394.66,1936.56c-4.26-0.08-8.41-0.21-12.44-0.38l-42.8-55.81l-6.29,12.54l-0.02-0.18l-1.72-17.79v-0.01
					l6.33-12.62L394.66,1936.56z"/>
			</g>
		</g>
		<g>
			<g>
				<polygon class="st0" points="601.92,1900.67 546.72,1828.68 511.58,1898.78 503.09,1894.29 545.03,1810.63 609.43,1894.61 				
					"/>
			</g>
		</g>
		<g>
			<g>
				<polygon class="st0" points="748.55,1795.61 693.35,1723.63 658.21,1793.73 649.71,1789.23 691.65,1705.57 756.05,1789.56 				
					"/>
			</g>
		</g>
		<g>
			<g>
				<path class="st0" d="M819.27,1681.75c-2.83,7.87-2.66,15.73-1.02,23.48l-23.53,46.93l-8.49-4.5L819.27,1681.75z"/>
			</g>
			<g>
				<path class="st0" d="M828.66,1664.64c-1.31,3.03-3.39,5.92-5.31,8.98l4.82-9.62L828.66,1664.64z"/>
			</g>
		</g>
		<g>
			<g>
				<polygon class="st0" points="817.04,1535.65 786.23,1597.1 794.72,1601.6 820.26,1550.65 				"/>
			</g>
		</g>
		<g>
			<g>
				<polygon class="st0" points="864.84,1243.38 809.64,1171.4 774.5,1241.5 766,1237 807.94,1153.34 872.34,1237.33 				"/>
			</g>
		</g>
		<g>
			<g>
				<polygon class="st0" points="965.67,1392.8 893.87,1337.37 877.87,1414.13 868.51,1411.97 887.59,1320.35 971.38,1385.02 				
					"/>
			</g>
		</g>
		<g>
			<g>
				<path class="st0" d="M958.02,1229.72c2.81,2.2,5.62,4.42,8.43,6.66l-13.86,66.52l-9.36-2.17L958.02,1229.72z"/>
			</g>
			<g>
				<path class="st0" d="M1046.09,1273.79l-5.7,7.77l-3.18-2.45c2.29-2.29,4.58-4.58,6.88-6.87L1046.09,1273.79z"/>
			</g>
		</g>
		<g>
			<g>
				<polygon class="st0" points="1119.6,1420.32 1047.79,1364.9 1031.8,1441.66 1022.43,1439.49 1041.52,1347.88 1125.3,1412.55 
									"/>
			</g>
		</g>
		<g>
			<g>
				<polygon class="st0" points="1192.87,1289.21 1109.67,1253.05 1112.96,1331.4 1103.35,1331.59 1099.43,1238.09 1196.49,1280.28 
									"/>
			</g>
		</g>
		<g>
			<g>
				<path class="st0" d="M1268.15,1192.02l-83.19-36.16l3.29,78.35l-9.61,0.19l-3.89-92.82l-0.03-0.69l0.5,0.21l60.55,26.33
					c10.83,8.12,21.65,16.24,32.48,24.36L1268.15,1192.02z"/>
			</g>
		</g>
		<g>
			<g>
				<path class="st0" d="M266.74,1415.67l-3.62,8.93l-57.69-25.07c0.91-3.13,1.86-6.22,2.84-9.27L266.74,1415.67z"/>
			</g>
		</g>
		<g>
			<g>
				<path class="st0" d="M267.31,1522.12l-23.66,65.15c-2.55-2.59-5.01-5.24-7.38-7.93l16.74-46.07l-43.81,4.56
					c-0.91-2.01-1.79-4.03-2.61-6.07c-0.43-1.06-0.85-2.12-1.25-3.19L267.31,1522.12z"/>
			</g>
		</g>
	</g>
	<g class="st35">
		<path class="st36" d="M1175.31,2639.76c-10.18-209.62-20.36-419.23-30.54-628.85c-0.21-4.12-0.4-8.25-0.6-12.37
			c0-0.07-0.01-0.14-0.01-0.21c-188.18,93.85-349.08,115.84-448.89,120.64c-134.23,6.46-251.06,12.07-311.54-68.39
			c-5.93-7.89-11.13-16.36-15.6-25.29c91.63,39.56,251.11,81.92,458.6,33c174.38-41.12,273.22-168.1,338.76-126.4
			c40.15,25.54,36.93,91.67,30.34,237.63C1191.85,2257.43,1185.03,2410.45,1175.31,2639.76z"/>
	</g>
</g>
</svg>
