<?xml version="1.0" standalone="no"?>
<!DOCTYPE svg PUBLIC "-//W3C//DTD SVG 20010904//EN"
 "http://www.w3.org/TR/2001/REC-SVG-20010904/DTD/svg10.dtd">
<svg version="1.0" xmlns="http://www.w3.org/2000/svg"
 width="306.000000pt" height="306.000000pt" viewBox="0 0 306.000000 306.000000"
 preserveAspectRatio="xMidYMid meet">
<metadata>
Created by potrace 1.14, written by Peter Selinger 2001-2017
</metadata>
<g transform="translate(0.000000,306.000000) scale(0.100000,-0.100000)"
fill="#000000" stroke="none">
<path d="M0 3019 c0 -5 5 -7 10 -4 5 3 10 8 10 11 0 2 -4 4 -10 4 -5 0 -10 -5
-10 -11z"/>
<path d="M3045 3020 c3 -5 8 -10 11 -10 2 0 4 5 4 10 0 6 -5 10 -11 10 -5 0
-7 -4 -4 -10z"/>
<path d="M1522 2938 c-20 -25 -24 -83 -8 -122 18 -44 40 -54 66 -31 45 41 28
165 -23 165 -14 0 -29 -6 -35 -12z"/>
<path d="M1126 2884 c-38 -38 4 -164 55 -164 45 0 51 110 8 156 -26 28 -42 30
-63 8z"/>
<path d="M1926 2871 c-38 -42 -38 -150 0 -165 23 -9 70 46 77 90 12 72 -37
119 -77 75z"/>
<path d="M1370 2765 c-10 -31 -9 -44 4 -80 10 -24 23 -46 31 -48 24 -10 47 18
51 64 6 56 -13 93 -48 97 -22 3 -28 -2 -38 -33z"/>
<path d="M1758 2779 c-21 -12 -42 -83 -34 -115 8 -31 33 -54 52 -47 41 16 60
126 26 156 -21 20 -21 20 -44 6z"/>
<path d="M762 2718 c-36 -36 20 -148 74 -148 47 0 47 79 0 126 -36 36 -54 42
-74 22z"/>
<path d="M1020 2690 c-15 -28 3 -90 36 -121 l26 -24 19 24 c21 26 24 48 10 84
-21 55 -71 75 -91 37z"/>
<path d="M2291 2674 c-11 -15 -26 -43 -32 -64 -23 -76 35 -109 85 -49 30 35
39 64 34 105 -2 24 -8 29 -34 32 -25 2 -37 -3 -53 -24z"/>
<path d="M1596 2658 c-29 -41 -15 -138 19 -138 42 0 65 129 26 150 -26 14 -28
13 -45 -12z"/>
<path d="M1266 2644 c-9 -8 -16 -30 -16 -47 0 -33 33 -97 49 -97 17 0 41 43
41 73 0 58 -45 101 -74 71z"/>
<path d="M2107 2640 c-53 -42 -59 -150 -9 -150 44 0 91 96 68 141 -15 31 -28
33 -59 9z"/>
<path d="M1925 2576 c-23 -23 -30 -52 -25 -101 3 -29 15 -38 39 -30 47 15 70
124 31 145 -17 9 -25 6 -45 -14z"/>
<path d="M1459 2536 c-14 -30 -4 -89 17 -107 14 -11 19 -10 35 10 21 26 25 91
7 109 -20 20 -48 14 -59 -12z"/>
<path d="M944 2516 c-11 -47 29 -116 68 -116 21 0 33 38 24 75 -15 59 -80 87
-92 41z"/>
<path d="M718 2519 c-25 -14 -22 -47 8 -91 29 -42 58 -56 79 -38 27 22 18 69
-19 106 -37 37 -42 39 -68 23z"/>
<path d="M1771 2504 c-38 -48 -21 -135 22 -118 33 12 51 100 27 129 -17 21
-25 19 -49 -11z"/>
<path d="M1167 2503 c-13 -12 -7 -79 9 -101 30 -43 64 -24 64 37 0 48 -48 90
-73 64z"/>
<path d="M457 2453 c-4 -3 -7 -18 -7 -32 0 -73 115 -133 135 -71 7 24 -17 74
-47 94 -23 16 -69 21 -81 9z"/>
<path d="M1361 2447 c-18 -18 -13 -92 8 -111 17 -16 20 -16 35 -1 28 28 17
105 -18 118 -7 3 -19 0 -25 -6z"/>
<path d="M1636 2428 c-28 -40 -18 -108 16 -108 26 0 54 65 41 100 -11 33 -37
37 -57 8z"/>
<path d="M2393 2384 c-28 -30 -34 -43 -31 -73 2 -29 8 -37 26 -39 51 -7 112
68 98 122 -10 39 -50 35 -93 -10z"/>
<path d="M2211 2383 c-40 -50 -38 -103 3 -111 35 -7 94 79 81 118 -10 30 -59
26 -84 -7z"/>
<path d="M2635 2400 c-49 -20 -93 -96 -75 -129 14 -26 32 -31 67 -16 57 24 98
108 68 139 -18 18 -30 19 -60 6z"/>
<path d="M2041 2357 c-33 -53 -26 -97 15 -97 31 0 66 53 62 95 -2 24 -8 31
-29 33 -21 2 -31 -4 -48 -31z"/>
<path d="M897 2373 c-23 -22 9 -107 44 -118 26 -8 39 8 39 48 0 44 -60 94 -83
70z"/>
<path d="M1090 2365 c-29 -35 28 -133 58 -103 17 17 15 70 -4 96 -18 26 -36
28 -54 7z"/>
<path d="M1522 2358 c-7 -7 -12 -28 -12 -48 0 -59 37 -81 58 -35 22 47 10 95
-23 95 -6 0 -16 -5 -23 -12z"/>
<path d="M1901 2334 c-24 -31 -27 -76 -7 -93 20 -17 42 -4 61 36 33 69 -10
113 -54 57z"/>
<path d="M1272 2338 c-23 -23 -5 -108 23 -108 35 0 47 59 19 98 -17 25 -25 27
-42 10z"/>
<path d="M687 2333 c-27 -26 13 -104 60 -118 32 -9 49 26 32 66 -18 45 -70 74
-92 52z"/>
<path d="M1778 2303 c-32 -38 -28 -103 7 -103 23 0 47 45 43 82 -3 38 -26 48
-50 21z"/>
<path d="M1420 2265 c-11 -29 5 -85 26 -85 29 0 46 74 22 98 -19 19 -38 14
-48 -13z"/>
<path d="M1662 2258 c-11 -13 -16 -48 -14 -80 3 -25 39 -23 52 2 26 48 -7 115
-38 78z"/>
<path d="M460 2245 c-10 -12 -10 -21 0 -46 16 -39 51 -61 87 -57 23 2 29 8 31
34 6 56 -85 109 -118 69z"/>
<path d="M1030 2216 c0 -41 30 -82 53 -73 23 9 22 69 -1 90 -31 29 -52 22 -52
-17z"/>
<path d="M1197 2233 c-10 -10 -8 -52 3 -74 16 -28 47 -24 54 7 11 42 -32 92
-57 67z"/>
<path d="M857 2223 c-14 -13 -7 -51 14 -77 28 -35 63 -32 67 6 5 42 -57 96
-81 71z"/>
<path d="M1347 2203 c-9 -8 -9 -56 -1 -77 9 -24 33 -19 46 9 19 41 -18 96 -45
68z"/>
<path d="M1554 2186 c-14 -59 22 -102 46 -56 18 33 9 74 -17 78 -17 3 -24 -3
-29 -22z"/>
<path d="M2001 2164 c-12 -15 -21 -40 -21 -55 0 -52 63 -33 84 25 19 53 -28
75 -63 30z"/>
<path d="M2136 2160 c-14 -17 -26 -42 -26 -56 0 -35 51 -34 80 3 49 62 -3 113
-54 53z"/>
<path d="M1885 2156 c-26 -26 -34 -71 -12 -79 22 -7 44 4 56 29 15 33 14 49
-4 64 -11 9 -19 7 -40 -14z"/>
<path d="M2296 2159 c-31 -24 -48 -61 -40 -84 7 -18 53 -19 75 -2 37 28 51 90
23 101 -24 9 -29 8 -58 -15z"/>
<path d="M664 2156 c-9 -23 24 -75 51 -82 57 -14 74 28 30 71 -26 27 -72 33
-81 11z"/>
<path d="M1481 2146 c-19 -23 -10 -71 14 -71 17 0 20 7 20 39 0 42 -14 56 -34
32z"/>
<path d="M1771 2136 c-20 -24 -19 -70 2 -74 28 -6 47 17 47 54 0 27 -4 34 -19
34 -10 0 -24 -6 -30 -14z"/>
<path d="M2464 2130 c-43 -28 -63 -75 -41 -97 21 -21 62 -10 98 27 34 33 37
65 10 80 -26 14 -31 13 -67 -10z"/>
<path d="M1134 2126 c-8 -21 18 -70 38 -74 22 -4 34 38 18 67 -12 24 -48 28
-56 7z"/>
<path d="M243 2123 c-15 -6 -17 -37 -3 -62 5 -10 28 -26 51 -35 38 -15 43 -15
65 -1 13 8 24 20 24 26 0 49 -84 94 -137 72z"/>
<path d="M990 2102 c0 -33 32 -67 55 -59 33 13 2 87 -36 87 -14 0 -19 -7 -19
-28z"/>
<path d="M1277 2124 c-13 -13 -7 -52 9 -69 15 -15 18 -15 32 -1 12 12 14 22 6
43 -9 27 -33 41 -47 27z"/>
<path d="M1670 2099 c-13 -24 -10 -61 6 -66 19 -6 44 27 44 58 0 22 -5 29 -20
29 -10 0 -24 -9 -30 -21z"/>
<path d="M1407 2093 c-4 -3 -7 -22 -7 -40 0 -30 3 -34 23 -31 25 3 35 41 17
64 -14 15 -23 18 -33 7z"/>
<path d="M2655 2085 c-59 -30 -84 -87 -50 -115 22 -18 63 -4 102 35 37 37 41
56 17 79 -19 20 -31 20 -69 1z"/>
<path d="M830 2065 c0 -30 32 -65 60 -65 26 0 28 50 2 73 -29 27 -62 22 -62
-8z"/>
<path d="M1590 2069 c-15 -26 -9 -64 10 -64 21 0 41 45 29 67 -13 24 -26 23
-39 -3z"/>
<path d="M482 2063 c-21 -40 19 -83 78 -83 54 0 48 55 -10 85 -38 20 -57 19
-68 -2z"/>
<path d="M1224 2045 c-11 -27 5 -65 26 -65 15 0 20 7 20 30 0 35 -36 62 -46
35z"/>
<path d="M1093 2034 c-3 -8 -1 -26 5 -40 14 -30 52 -33 52 -3 0 47 -43 80 -57
43z"/>
<path d="M1522 2038 c-15 -15 -16 -55 -1 -64 19 -11 42 22 35 50 -7 29 -16 32
-34 14z"/>
<path d="M1347 2033 c-13 -12 -7 -61 8 -67 21 -8 39 29 25 54 -11 21 -22 25
-33 13z"/>
<path d="M1862 2010 c-42 -39 -22 -85 24 -55 18 12 24 23 22 42 -4 34 -19 38
-46 13z"/>
<path d="M1966 2009 c-32 -25 -36 -69 -6 -69 23 0 60 33 60 54 0 7 -6 19 -14
25 -10 8 -19 6 -40 -10z"/>
<path d="M672 2008 c-22 -22 23 -77 64 -78 42 0 38 57 -6 80 -25 13 -43 13
-58 -2z"/>
<path d="M958 2008 c-13 -36 40 -84 65 -59 9 9 8 19 -3 39 -17 29 -55 41 -62
20z"/>
<path d="M1770 2000 c-24 -24 -26 -48 -5 -56 21 -8 45 14 45 42 0 32 -16 38
-40 14z"/>
<path d="M2833 2000 c-94 -57 -70 -144 31 -110 84 27 105 130 27 130 -15 0
-40 -9 -58 -20z"/>
<path d="M1457 2004 c-10 -10 -9 -62 2 -68 14 -9 33 21 29 45 -3 23 -19 35
-31 23z"/>
<path d="M2061 1984 c-12 -15 -21 -30 -21 -34 0 -16 30 -31 49 -25 24 7 54 52
47 71 -9 23 -53 16 -75 -12z"/>
<path d="M1679 1973 c-7 -18 -6 -30 1 -37 16 -16 44 6 48 38 5 37 -34 37 -49
-1z"/>
<path d="M2187 1962 c-32 -34 -35 -58 -6 -67 32 -10 74 25 74 61 0 40 -32 43
-68 6z"/>
<path d="M1180 1961 c0 -30 11 -51 26 -51 20 0 28 25 14 49 -14 26 -40 27 -40
2z"/>
<path d="M1292 1948 c4 -43 33 -46 33 -3 0 21 -5 31 -18 33 -15 3 -18 -2 -15
-30z"/>
<path d="M1608 1955 c-8 -19 -8 -29 0 -37 18 -18 42 -1 42 32 0 38 -26 41 -42
5z"/>
<path d="M827 1963 c-23 -23 12 -73 51 -73 29 0 29 30 -1 58 -24 23 -39 27
-50 15z"/>
<path d="M1062 1934 c4 -32 32 -54 48 -38 17 17 -5 64 -30 64 -17 0 -21 -5
-18 -26z"/>
<path d="M1396 1945 c-7 -20 3 -45 19 -45 7 0 15 7 19 15 7 20 -3 45 -19 45
-7 0 -15 -7 -19 -15z"/>
<path d="M1545 1929 c-9 -28 9 -46 30 -29 8 7 15 21 15 31 0 26 -37 25 -45 -2z"/>
<path d="M2320 1924 c-39 -34 -38 -68 3 -72 46 -5 100 55 76 84 -17 21 -44 17
-79 -12z"/>
<path d="M290 1921 c-13 -26 -5 -44 29 -64 50 -29 101 -20 101 18 0 52 -106
90 -130 46z"/>
<path d="M1254 1917 c-9 -24 0 -52 16 -52 21 0 24 39 6 55 -13 10 -17 9 -22
-3z"/>
<path d="M1502 1918 c-7 -7 -12 -20 -12 -31 0 -24 33 -19 38 7 5 24 -11 39
-26 24z"/>
<path d="M518 1909 c-24 -14 -23 -25 7 -54 25 -26 78 -34 90 -15 11 18 -6 50
-35 65 -34 17 -39 18 -62 4z"/>
<path d="M940 1897 c0 -27 17 -47 41 -47 27 0 33 18 15 45 -21 33 -56 33 -56
2z"/>
<path d="M1354 1906 c-8 -22 3 -49 19 -43 6 2 12 14 12 27 0 27 -22 39 -31 16z"/>
<path d="M1142 1889 c3 -23 33 -48 44 -37 3 4 4 19 0 33 -8 33 -49 36 -44 4z"/>
<path d="M1449 1883 c-8 -11 -22 -22 -31 -26 -20 -7 -22 -15 -9 -36 10 -15 31
-6 31 13 0 8 8 13 17 12 19 -1 30 31 15 46 -6 6 -14 3 -23 -9z"/>
<path d="M693 1883 c-30 -12 -1 -68 37 -73 31 -5 40 1 40 25 0 17 -9 29 -30
40 -16 8 -30 15 -32 14 -2 0 -9 -3 -15 -6z"/>
<path d="M2470 1873 c-32 -22 -40 -33 -40 -59 0 -47 98 -30 121 20 23 49 -30
74 -81 39z"/>
<path d="M1040 1856 c0 -32 37 -56 47 -30 8 20 -8 48 -31 52 -11 3 -16 -4 -16
-22z"/>
<path d="M1313 1863 c-3 -10 -12 -22 -20 -26 -7 -4 -13 -15 -13 -22 0 -8 -4
-15 -10 -15 -5 0 -10 -9 -10 -20 0 -11 -4 -20 -10 -20 -5 0 -10 -9 -10 -20 0
-11 -5 -20 -11 -20 -6 0 -9 -7 -5 -15 3 -8 2 -15 -3 -15 -9 0 -13 -27 -14
-115 -1 -66 19 -117 54 -136 25 -13 41 -2 16 12 -9 6 -24 23 -32 38 -16 32
-26 141 -12 141 4 0 6 4 3 8 -3 5 2 21 9 36 8 16 12 32 9 37 -3 5 0 9 5 9 6 0
11 7 11 15 0 8 5 15 10 15 6 0 10 9 10 20 0 11 7 20 15 20 8 0 15 6 15 14 0 8
7 17 16 20 18 7 15 47 -3 54 -7 2 -16 -5 -20 -15z"/>
<path d="M1218 1864 c-9 -9 3 -42 18 -48 18 -7 27 9 19 34 -6 19 -25 26 -37
14z"/>
<path d="M833 1853 c-21 -8 -15 -41 11 -58 42 -28 76 5 39 37 -26 21 -36 26
-50 21z"/>
<path d="M1120 1837 c0 -27 12 -47 27 -47 21 0 13 54 -9 58 -11 2 -18 -3 -18
-11z"/>
<path d="M933 1815 c-6 -18 23 -55 44 -55 20 0 16 48 -6 60 -26 13 -31 13 -38
-5z"/>
<path d="M1370 1815 c0 -8 -7 -15 -15 -15 -8 0 -15 -7 -15 -15 0 -8 -4 -15
-10 -15 -5 0 -10 -6 -10 -14 0 -8 -4 -16 -8 -18 -4 -1 -18 -27 -30 -57 -34
-83 -26 -190 16 -206 23 -9 28 4 6 19 -15 12 -19 27 -19 78 0 62 19 128 36
128 5 0 9 7 9 15 0 8 5 15 10 15 6 0 10 7 10 15 0 8 5 15 10 15 6 0 10 7 10
15 0 8 6 14 12 13 7 -2 14 7 16 20 2 15 -2 22 -12 22 -9 0 -16 -7 -16 -15z"/>
<path d="M1192 1798 c2 -12 11 -24 21 -26 14 -3 18 1 15 20 -2 12 -11 24 -21
26 -14 3 -18 -1 -15 -20z"/>
<path d="M1024 1795 c-9 -22 19 -50 41 -41 15 6 16 9 3 28 -19 29 -36 34 -44
13z"/>
<path d="M2623 1795 c-41 -17 -62 -57 -43 -80 28 -34 125 -4 137 43 11 47 -32
64 -94 37z"/>
<path d="M1100 1770 c0 -22 35 -46 45 -30 9 14 -13 50 -30 50 -8 0 -15 -9 -15
-20z"/>
<path d="M368 1769 c-43 -24 -3 -79 58 -79 60 0 68 47 13 75 -33 17 -47 18
-71 4z"/>
<path d="M556 1764 c-31 -30 18 -72 71 -62 32 6 28 45 -6 62 -38 20 -46 20
-65 0z"/>
<path d="M1172 1754 c2 -11 11 -20 22 -22 13 -3 17 1 14 14 -2 11 -11 20 -22
22 -13 3 -17 -1 -14 -14z"/>
<path d="M121 1741 c-27 -27 -27 -35 5 -60 45 -35 134 -23 134 18 0 27 -34 52
-78 58 -32 4 -44 1 -61 -16z"/>
<path d="M700 1740 c0 -14 11 -26 32 -34 37 -16 58 -11 58 13 0 26 -21 41 -57
41 -27 0 -33 -4 -33 -20z"/>
<path d="M830 1730 c0 -26 45 -49 63 -31 17 17 -4 45 -37 49 -21 3 -26 -1 -26
-18z"/>
<path d="M934 1736 c-8 -21 13 -46 38 -46 26 0 20 28 -9 47 -20 14 -23 14 -29
-1z"/>
<path d="M1015 1729 c-8 -12 24 -51 36 -43 15 9 10 41 -7 48 -21 8 -22 8 -29
-5z"/>
<path d="M1090 1718 c0 -16 19 -38 33 -38 4 0 7 10 5 22 -3 25 -38 39 -38 16z"/>
<path d="M1163 1710 c3 -11 1 -20 -5 -20 -5 0 -8 -8 -6 -17 1 -10 -1 -23 -5
-30 -4 -6 -3 -15 3 -18 8 -5 7 -11 -1 -21 -6 -8 -7 -14 -2 -14 6 0 9 -15 7
-32 -8 -67 55 -168 104 -168 24 0 23 1 -8 23 -53 35 -73 78 -75 163 -1 42 2
74 7 74 6 0 8 6 5 14 -3 7 -1 18 5 24 8 8 8 16 -2 27 -18 21 -33 19 -27 -5z"/>
<path d="M2768 1685 c-35 -19 -46 -59 -24 -84 9 -10 13 -21 9 -24 -3 -4 13 -7
36 -7 23 0 40 4 37 9 -3 5 10 18 30 30 30 18 35 25 32 54 -3 30 -5 32 -48 34
-26 2 -57 -4 -72 -12z"/>
<path d="M1015 1670 c-8 -13 13 -40 31 -40 17 0 18 22 2 38 -15 15 -25 15 -33
2z"/>
<path d="M1085 1643 c0 -27 6 -39 18 -41 10 -2 17 3 17 12 0 9 -6 16 -12 16
-7 0 -5 5 5 11 14 8 16 14 6 25 -21 26 -36 16 -34 -23z"/>
<path d="M935 1660 c-9 -15 14 -40 36 -40 21 0 25 20 7 38 -15 15 -35 15 -43
2z"/>
<path d="M734 1645 c-9 -23 15 -45 47 -45 22 0 29 5 29 20 0 34 -65 55 -76 25z"/>
<path d="M840 1647 c0 -20 22 -37 47 -37 27 0 33 34 7 44 -27 10 -54 7 -54 -7z"/>
<path d="M597 1643 c-25 -24 27 -69 68 -59 30 8 34 41 6 56 -22 11 -64 13 -74
3z"/>
<path d="M432 1621 c-38 -24 23 -78 73 -65 34 9 42 30 20 54 -19 21 -69 27
-93 11z"/>
<path d="M1017 1614 c-9 -10 12 -34 30 -34 19 0 12 34 -8 38 -8 1 -18 0 -22
-4z"/>
<path d="M2210 1596 c0 -8 7 -17 16 -20 23 -9 24 -4 2 17 -14 13 -18 14 -18 3z"/>
<path d="M233 1588 c-25 -12 -31 -49 -10 -65 34 -28 127 -13 127 19 -1 45 -66
70 -117 46z"/>
<path d="M940 1593 c0 -15 23 -33 43 -33 30 0 16 34 -16 38 -15 2 -27 -1 -27
-5z"/>
<path d="M864 1575 c-8 -21 4 -35 31 -35 31 0 39 14 19 34 -19 20 -43 21 -50
1z"/>
<path d="M1090 1560 c0 -20 5 -30 15 -30 18 0 20 16 3 23 -10 4 -10 6 0 6 17
1 15 31 -3 31 -10 0 -15 -10 -15 -30z"/>
<path d="M3045 1570 c-3 -5 -1 -10 4 -10 6 0 11 5 11 10 0 6 -2 10 -4 10 -3 0
-8 -4 -11 -10z"/>
<path d="M763 1554 c-7 -19 21 -44 49 -44 27 0 35 30 13 46 -25 19 -54 18 -62
-2z"/>
<path d="M1020 1561 c0 -6 5 -13 10 -16 6 -4 8 -15 5 -26 -4 -11 -2 -19 5 -19
6 0 10 -8 8 -17 -2 -13 5 -19 22 -21 21 -3 22 -2 11 12 -7 8 -10 20 -6 26 3 5
-1 13 -10 16 -12 5 -13 10 -4 20 6 7 8 18 4 24 -8 13 -45 13 -45 1z"/>
<path d="M658 1539 c-10 -5 -18 -17 -18 -25 0 -18 46 -37 71 -29 28 9 24 44
-7 55 -30 12 -25 12 -46 -1z"/>
<path d="M963 1534 c-6 -16 14 -36 31 -31 19 6 17 26 -4 37 -16 9 -22 8 -27
-6z"/>
<path d="M1520 1523 c-23 -9 -60 -45 -60 -60 0 -20 18 -15 25 7 9 27 73 46
111 32 29 -10 29 -10 -11 -11 -49 -2 -89 -20 -93 -45 -4 -18 -2 -18 23 2 15
12 36 22 45 22 34 0 91 -31 129 -70 21 -22 44 -40 50 -40 5 0 8 -7 5 -15 -4
-11 0 -15 16 -15 16 0 20 4 16 15 -3 10 1 15 14 15 26 0 36 21 17 35 -10 7
-17 17 -17 24 0 6 -5 11 -11 11 -6 0 -20 11 -30 24 -11 14 -30 28 -42 32 -12
4 -25 11 -28 16 -13 20 -122 34 -159 21z"/>
<path d="M884 1508 c-4 -6 1 -17 11 -25 22 -15 25 -16 44 -4 12 8 12 12 2 25
-16 19 -47 21 -57 4z"/>
<path d="M1100 1510 c0 -5 7 -10 15 -10 8 0 15 5 15 10 0 6 -7 10 -15 10 -8 0
-15 -4 -15 -10z"/>
<path d="M501 1496 c-24 -29 17 -64 65 -54 27 5 40 33 25 52 -16 20 -74 21
-90 2z"/>
<path d="M804 1475 c-8 -21 4 -35 31 -35 29 0 41 16 25 35 -16 19 -49 19 -56
0z"/>
<path d="M977 1484 c-10 -11 3 -24 24 -24 10 0 19 7 19 15 0 15 -31 21 -43 9z"/>
<path d="M1115 1468 c11 -37 44 -86 72 -108 26 -21 93 -28 93 -10 0 6 -14 10
-31 10 -39 0 -96 54 -105 99 -4 17 -13 31 -21 31 -10 0 -12 -6 -8 -22z"/>
<path d="M328 1449 c-21 -12 -23 -40 -6 -57 30 -30 118 -5 118 33 0 30 -75 46
-112 24z"/>
<path d="M915 1450 c-9 -15 4 -30 25 -30 24 0 36 20 19 31 -19 12 -36 11 -44
-1z"/>
<path d="M697 1436 c-8 -21 17 -38 50 -34 20 2 28 9 28 23 0 16 -8 21 -36 23
-25 2 -38 -2 -42 -12z"/>
<path d="M995 1439 c-4 -6 -2 -15 5 -19 17 -10 42 -1 37 14 -5 16 -34 19 -42
5z"/>
<path d="M1060 1441 c0 -6 5 -11 10 -11 6 0 10 -6 10 -13 0 -21 63 -95 98
-114 23 -14 70 -17 96 -7 30 11 16 22 -21 17 -46 -5 -116 36 -134 79 -6 15
-15 28 -20 28 -5 0 -8 5 -6 12 1 6 -6 14 -15 16 -10 2 -18 -1 -18 -7z"/>
<path d="M1533 1440 c-13 -5 -23 -14 -23 -20 0 -13 6 -13 30 0 30 16 68 1 108
-40 42 -44 57 -62 60 -72 1 -5 2 -9 3 -10 14 -46 -4 -50 -22 -6 -7 18 -30 49
-50 70 -31 32 -43 38 -78 38 -22 0 -41 -5 -41 -11 0 -6 8 -8 20 -4 51 16 122
-63 142 -160 7 -34 16 -55 24 -55 10 0 12 9 8 29 -4 16 -1 32 5 35 11 7 15 -5
12 -32 -2 -15 24 -26 39 -17 8 5 8 11 0 20 -7 8 -9 19 -6 24 4 5 2 12 -4 16
-5 3 -10 15 -10 26 0 10 -5 19 -11 19 -5 0 -8 4 -5 8 3 5 -5 20 -17 33 -12 13
-20 25 -17 28 3 2 -15 21 -40 41 -49 41 -92 54 -127 40z"/>
<path d="M840 1401 c0 -17 6 -21 31 -21 24 0 30 4 27 18 -2 10 -14 18 -31 20
-22 3 -27 -1 -27 -17z"/>
<path d="M582 1398 c-18 -18 -15 -36 8 -48 39 -21 95 15 70 45 -15 18 -61 20
-78 3z"/>
<path d="M945 1401 c-9 -16 3 -31 26 -31 14 0 19 6 17 17 -4 20 -33 29 -43 14z"/>
<path d="M1015 1400 c-3 -5 1 -13 9 -16 9 -3 16 -12 16 -20 0 -8 5 -14 10 -14
6 0 10 -5 10 -10 0 -37 109 -100 173 -100 43 0 89 22 74 36 -4 4 -13 2 -19 -4
-14 -14 -77 -16 -111 -3 -28 11 -107 85 -107 100 0 6 -4 11 -10 11 -5 0 -9 5
-7 12 3 15 -29 23 -38 8z"/>
<path d="M112 1364 c-28 -20 -29 -60 -1 -75 42 -22 129 10 129 47 0 20 -41 44
-75 44 -17 0 -41 -7 -53 -16z"/>
<path d="M763 1373 c-7 -2 -13 -13 -13 -24 0 -15 7 -19 34 -19 39 0 53 14 36
35 -12 15 -34 18 -57 8z"/>
<path d="M1530 1355 c0 -8 6 -12 13 -9 20 7 66 -33 83 -74 16 -39 22 -140 10
-160 -16 -26 -22 -9 -18 48 2 33 -2 75 -8 95 -12 35 -52 75 -76 75 -21 0 -17
-17 5 -23 35 -9 56 -56 57 -127 1 -61 -11 -119 -26 -130 -4 -3 -12 -15 -19
-28 -10 -18 -10 -26 0 -38 11 -13 14 -12 25 8 8 13 13 29 14 36 0 7 7 21 16
30 15 15 16 13 9 -19 -4 -19 -11 -39 -16 -45 -12 -15 -1 -44 17 -44 8 0 14 8
14 18 0 10 4 22 10 28 5 5 11 25 12 44 2 19 7 38 12 42 6 4 4 13 -3 22 -8 9
-9 16 -3 16 11 0 9 87 -3 135 -11 42 -42 83 -75 100 -37 19 -50 19 -50 0z"/>
<path d="M882 1343 c4 -20 27 -27 47 -14 19 12 4 31 -25 31 -19 0 -25 -5 -22
-17z"/>
<path d="M970 1344 c0 -10 7 -14 22 -12 32 5 35 28 4 28 -17 0 -26 -5 -26 -16z"/>
<path d="M1805 1350 c-4 -7 -3 -16 3 -22 14 -14 45 -2 40 15 -6 16 -34 21 -43
7z"/>
<path d="M429 1331 c-20 -16 -22 -23 -13 -38 15 -24 59 -28 90 -8 29 19 31 41
5 55 -29 15 -56 12 -82 -9z"/>
<path d="M659 1311 c-22 -18 -23 -21 -7 -37 11 -11 24 -15 43 -10 34 9 44 35
20 52 -24 18 -28 18 -56 -5z"/>
<path d="M1005 1320 c-3 -5 -4 -14 0 -20 8 -13 35 -1 35 16 0 16 -26 19 -35 4z"/>
<path d="M927 1308 c-10 -5 -15 -13 -12 -19 10 -15 55 -11 55 5 0 19 -22 26
-43 14z"/>
<path d="M1757 1314 c-10 -11 3 -24 24 -24 10 0 19 7 19 15 0 15 -31 21 -43 9z"/>
<path d="M805 1300 c-11 -18 16 -41 39 -34 24 7 37 24 30 36 -7 12 -62 10 -69
-2z"/>
<path d="M1826 1302 c-9 -14 21 -35 40 -28 8 3 14 12 12 19 -6 15 -44 22 -52
9z"/>
<path d="M1035 1289 c-10 -15 1 -23 20 -15 9 3 13 10 10 16 -8 13 -22 13 -30
-1z"/>
<path d="M1510 1282 c0 -4 9 -13 19 -19 43 -27 31 -162 -20 -216 -31 -34 -33
-11 -4 39 33 56 39 134 12 161 -9 9 -20 14 -24 10 -3 -4 -1 -13 5 -19 32 -32
-2 -163 -48 -188 -11 -6 -20 -17 -20 -25 0 -8 -7 -15 -15 -15 -8 0 -15 -5 -15
-11 0 -5 -4 -8 -9 -5 -5 3 -12 -1 -15 -9 -3 -8 -11 -14 -18 -13 -7 2 -14 -7
-16 -19 -4 -25 15 -32 24 -9 3 8 12 12 20 9 8 -3 14 1 14 11 0 9 5 16 11 16 6
0 17 7 25 15 9 8 20 15 25 15 15 0 10 -22 -8 -36 -14 -10 -15 -15 -6 -24 13
-14 37 -4 28 11 -4 5 1 9 9 9 9 0 16 7 16 15 0 8 5 15 10 15 6 0 10 6 10 14 0
8 4 16 8 18 4 2 17 25 29 53 26 60 26 139 0 178 -16 25 -47 37 -47 19z"/>
<path d="M965 1266 c-19 -14 -19 -15 -2 -21 22 -9 50 2 45 17 -6 18 -22 20
-43 4z"/>
<path d="M1772 1268 c3 -7 15 -15 27 -16 16 -3 22 1 19 10 -3 7 -15 15 -27 16
-16 3 -22 -1 -19 -10z"/>
<path d="M1055 1260 c-3 -5 7 -16 22 -22 15 -7 34 -18 40 -25 7 -6 37 -17 67
-24 61 -13 111 -2 141 31 26 29 9 38 -19 11 -18 -17 -36 -23 -68 -23 -40 1
-139 37 -146 55 -5 10 -30 9 -37 -3z"/>
<path d="M261 1247 c-83 -42 -28 -111 56 -70 43 20 54 50 27 70 -22 16 -52 16
-83 0z"/>
<path d="M863 1244 c-3 -8 -1 -20 5 -26 13 -13 52 7 52 27 0 20 -49 19 -57 -1z"/>
<path d="M1850 1240 c0 -13 7 -20 20 -20 11 0 20 -4 20 -10 0 -5 -4 -10 -10
-10 -5 0 -10 -9 -10 -19 0 -23 28 -34 63 -26 18 5 28 2 36 -12 6 -10 11 -13
11 -6 0 13 -24 39 -41 45 -10 3 -14 17 -18 63 -1 6 -17 11 -36 12 -29 3 -35 0
-35 -17z"/>
<path d="M524 1236 c-15 -12 -17 -18 -8 -33 6 -10 22 -19 36 -21 32 -4 74 29
65 51 -8 21 -66 23 -93 3z"/>
<path d="M720 1235 c-16 -20 -4 -35 29 -35 31 0 57 23 46 40 -9 15 -61 12 -75
-5z"/>
<path d="M997 1233 c-13 -12 -7 -23 13 -23 11 0 20 -6 20 -13 0 -14 73 -49
107 -51 13 0 23 -4 23 -7 0 -3 23 -7 51 -8 84 -3 172 54 157 101 -3 8 -11 1
-21 -18 -31 -60 -134 -76 -218 -34 -24 12 -54 28 -66 34 -13 6 -23 14 -23 19
0 9 -34 9 -43 0z"/>
<path d="M1467 1202 c8 -60 -27 -117 -96 -158 -17 -10 -31 -22 -31 -26 0 -4
-7 -5 -15 -2 -10 4 -15 0 -15 -15 0 -26 10 -27 37 -2 12 11 23 18 25 15 8 -8
85 70 102 104 19 37 18 113 -1 119 -8 3 -10 -8 -6 -35z"/>
<path d="M1790 1220 c0 -15 7 -20 25 -20 27 0 32 9 13 28 -18 18 -38 14 -38
-8z"/>
<path d="M1390 1213 c0 -27 -34 -70 -73 -90 -32 -16 -187 -26 -187 -12 0 6
-34 21 -55 23 -5 1 -15 7 -21 15 -6 8 -18 11 -28 8 -23 -9 -20 -37 4 -37 11 0
20 -5 20 -11 0 -6 9 -9 20 -6 10 3 21 0 22 -5 2 -6 27 -11 56 -12 29 0 52 -5
52 -10 0 -6 5 -5 11 1 6 6 17 9 24 7 24 -9 95 17 129 47 36 31 54 75 37 92 -8
8 -11 5 -11 -10z"/>
<path d="M1426 1206 c14 -56 -73 -138 -161 -152 -22 -3 -43 -11 -47 -18 -6 -8
-8 -7 -8 3 0 8 -7 11 -20 8 -11 -3 -20 -2 -20 2 0 5 -17 8 -37 7 -29 -1 -39
-6 -41 -20 -3 -15 0 -18 17 -13 11 2 22 0 24 -7 3 -8 10 -8 26 2 13 7 21 8 21
2 0 -12 52 -2 61 13 4 5 9 3 13 -4 4 -10 7 -11 12 -2 3 7 12 9 20 6 8 -3 14 0
14 6 0 6 6 8 13 5 20 -7 102 60 121 101 19 39 18 76 -2 83 -9 3 -11 -3 -6 -22z"/>
<path d="M923 1213 c-7 -2 -13 -11 -13 -19 0 -11 8 -14 28 -12 16 2 27 9 27
18 0 15 -21 22 -42 13z"/>
<path d="M800 1185 c-14 -17 -7 -45 13 -45 24 0 51 26 44 44 -8 20 -40 21 -57
1z"/>
<path d="M977 1179 c-18 -10 -24 -39 -8 -39 20 0 41 13 41 25 0 20 -13 25 -33
14z"/>
<path d="M1803 1174 c-6 -16 11 -34 35 -34 19 0 14 28 -8 40 -16 9 -22 8 -27
-6z"/>
<path d="M626 1167 c-22 -16 -18 -50 8 -55 30 -6 67 19 64 42 -4 26 -45 33
-72 13z"/>
<path d="M1740 1156 c0 -16 27 -29 41 -20 13 8 -9 34 -27 34 -8 0 -14 -6 -14
-14z"/>
<path d="M391 1147 c-60 -30 -47 -84 17 -73 61 9 92 55 53 76 -25 13 -41 13
-70 -3z"/>
<path d="M1690 1146 c0 -14 24 -29 33 -19 3 3 3 11 0 19 -7 18 -33 18 -33 0z"/>
<path d="M860 1135 c-14 -17 -5 -35 19 -35 20 0 41 19 41 37 0 18 -45 17 -60
-2z"/>
<path d="M1812 1108 c2 -15 11 -24 26 -26 24 -4 30 16 10 36 -20 20 -40 14
-36 -10z"/>
<path d="M1892 1108 c2 -17 11 -24 31 -26 18 -2 27 1 27 10 0 20 -21 38 -43
38 -13 0 -18 -6 -15 -22z"/>
<path d="M718 1109 c-22 -12 -23 -45 -3 -53 32 -12 85 30 69 55 -7 12 -45 11
-66 -2z"/>
<path d="M932 1108 c-18 -18 -14 -38 7 -38 22 0 45 25 36 40 -8 13 -28 13 -43
-2z"/>
<path d="M1690 1106 c0 -18 17 -29 30 -21 8 5 7 11 -1 21 -15 18 -29 18 -29 0z"/>
<path d="M1742 1103 c2 -10 14 -19 26 -21 19 -3 23 1 20 15 -2 10 -14 19 -26
21 -19 3 -23 -1 -20 -15z"/>
<path d="M983 1074 c-9 -23 13 -40 32 -24 8 7 15 19 15 26 0 19 -39 18 -47 -2z"/>
<path d="M502 1064 c-32 -22 -26 -58 11 -62 39 -5 79 23 75 51 -4 28 -53 35
-86 11z"/>
<path d="M812 1064 c-41 -29 -17 -68 28 -44 13 7 20 19 18 32 -4 28 -18 32
-46 12z"/>
<path d="M1684 1067 c-7 -20 3 -37 22 -37 18 0 18 24 -1 40 -12 10 -16 9 -21
-3z"/>
<path d="M1036 1054 c-9 -24 -8 -26 16 -22 29 4 38 38 10 38 -11 0 -23 -7 -26
-16z"/>
<path d="M1740 1051 c0 -19 35 -39 48 -26 9 9 -13 40 -32 43 -10 2 -16 -3 -16
-17z"/>
<path d="M1810 1043 c0 -25 38 -49 53 -34 16 16 -4 45 -32 49 -15 2 -21 -2
-21 -15z"/>
<path d="M1900 1032 c0 -24 16 -38 53 -44 24 -5 27 -2 27 22 0 15 -6 27 -12
28 -7 1 -25 4 -40 8 -24 5 -28 3 -28 -14z"/>
<path d="M882 1028 c-19 -19 -15 -48 6 -48 21 0 52 29 52 48 0 16 -43 15 -58
0z"/>
<path d="M224 1016 c-29 -13 -64 -50 -64 -68 0 -4 11 -15 24 -23 21 -14 28
-14 59 -1 20 8 43 27 53 41 18 27 17 28 -5 46 -27 22 -27 22 -67 5z"/>
<path d="M1670 1011 c0 -22 25 -39 38 -27 8 8 -10 38 -26 44 -7 2 -12 -6 -12
-17z"/>
<path d="M622 1004 c-29 -20 -26 -58 5 -62 28 -4 75 40 67 62 -8 21 -43 20
-72 0z"/>
<path d="M956 1001 c-19 -20 -14 -41 8 -41 18 0 49 37 41 49 -10 17 -30 13
-49 -8z"/>
<path d="M1265 1003 c-29 -7 -39 -19 -31 -39 5 -13 9 -15 18 -6 7 7 20 12 30
12 11 0 18 7 18 20 0 21 -1 21 -35 13z"/>
<path d="M1730 999 c0 -20 21 -49 35 -49 23 0 28 20 9 41 -19 21 -44 26 -44 8z"/>
<path d="M1022 988 c-18 -18 -15 -38 6 -38 21 0 42 18 42 37 0 16 -32 17 -48
1z"/>
<path d="M1087 983 c-4 -3 -7 -15 -7 -25 0 -19 25 -25 35 -8 5 8 11 7 21 -1
16 -13 44 4 44 27 0 17 -22 18 -38 2 -9 -9 -12 -9 -12 0 0 13 -32 17 -43 5z"/>
<path d="M1190 970 c0 -11 7 -20 15 -20 8 0 15 9 15 20 0 11 -7 20 -15 20 -8
0 -15 -9 -15 -20z"/>
<path d="M1814 975 c-8 -20 13 -45 37 -45 25 0 25 36 0 50 -26 13 -31 13 -37
-5z"/>
<path d="M732 964 c-12 -8 -22 -26 -22 -40 0 -19 5 -24 24 -24 32 0 71 47 55
66 -15 18 -29 18 -57 -2z"/>
<path d="M1522 958 c5 -32 28 -35 28 -4 0 17 -5 26 -16 26 -10 0 -14 -7 -12
-22z"/>
<path d="M1652 948 c2 -15 11 -24 26 -26 24 -4 30 16 10 36 -20 20 -40 14 -36
-10z"/>
<path d="M1970 963 c0 -6 -14 -10 -31 -9 -18 0 -34 -4 -36 -9 -6 -18 20 -45
53 -54 l31 -9 -5 42 c-4 38 -12 63 -12 39z"/>
<path d="M1307 953 c-13 -12 -7 -43 8 -43 9 0 15 9 15 25 0 24 -10 32 -23 18z"/>
<path d="M362 930 c-28 -17 -33 -25 -30 -53 3 -29 6 -32 36 -30 78 3 115 103
39 103 -7 0 -27 -9 -45 -20z"/>
<path d="M832 934 c-12 -8 -22 -24 -22 -35 0 -32 29 -35 57 -6 42 42 14 76
-35 41z"/>
<path d="M1410 940 c0 -5 -7 -10 -15 -10 -9 0 -18 -7 -22 -16 -3 -8 -12 -13
-19 -10 -8 3 -18 -3 -24 -13 -6 -13 -17 -17 -29 -14 -15 4 -22 -1 -26 -20 -13
-49 19 -65 36 -20 7 20 12 24 18 14 10 -16 31 -6 31 15 0 10 6 13 18 10 9 -3
27 3 40 14 25 21 30 60 7 60 -8 0 -15 -4 -15 -10z"/>
<path d="M1492 924 c2 -15 9 -29 16 -32 10 -3 13 4 10 24 -2 15 -9 29 -16 32
-10 3 -13 -4 -10 -24z"/>
<path d="M1572 928 c2 -12 11 -24 21 -26 14 -3 18 1 15 20 -2 12 -11 24 -21
26 -14 3 -18 -1 -15 -20z"/>
<path d="M1256 931 c-3 -5 -15 -7 -25 -4 -13 3 -23 -2 -31 -17 -16 -29 2 -49
26 -29 9 7 26 13 38 14 14 0 22 7 24 23 3 22 -21 32 -32 13z"/>
<path d="M1720 922 c0 -21 18 -42 37 -42 19 0 16 47 -3 54 -26 10 -34 7 -34
-12z"/>
<path d="M915 910 c-21 -23 -13 -50 14 -50 21 0 41 27 41 54 0 22 -33 20 -55
-4z"/>
<path d="M1145 907 c-18 -28 -13 -47 10 -47 18 0 31 48 17 62 -7 7 -15 2 -27
-15z"/>
<path d="M1002 908 c-16 -16 -15 -58 1 -58 19 0 47 33 47 53 0 20 -30 23 -48
5z"/>
<path d="M1074 895 c-17 -26 -12 -45 11 -45 18 0 38 37 31 56 -8 21 -24 17
-42 -11z"/>
<path d="M1630 897 c0 -23 17 -47 32 -47 9 0 11 32 2 54 -9 24 -34 19 -34 -7z"/>
<path d="M1454 896 c-3 -8 -14 -18 -25 -21 -25 -8 -27 -65 -3 -65 9 0 18 9 21
19 3 11 14 21 25 24 14 4 19 12 16 28 -4 27 -26 37 -34 15z"/>
<path d="M1540 882 c0 -33 27 -52 37 -25 7 17 -7 45 -25 51 -8 2 -12 -8 -12
-26z"/>
<path d="M1804 896 c-13 -34 28 -74 57 -56 12 8 12 13 -1 37 -18 32 -47 42
-56 19z"/>
<path d="M518 884 c-45 -24 -51 -94 -9 -94 26 0 81 47 81 69 0 19 -19 41 -34
41 -6 -1 -23 -7 -38 -16z"/>
<path d="M1707 873 c-21 -20 1 -73 30 -73 18 0 16 45 -3 64 -18 18 -18 18 -27
9z"/>
<path d="M1905 850 c-11 -35 43 -82 70 -60 17 14 8 47 -18 65 -29 20 -44 19
-52 -5z"/>
<path d="M3045 860 c3 -5 8 -10 11 -10 2 0 4 5 4 10 0 6 -5 10 -11 10 -5 0 -7
-4 -4 -10z"/>
<path d="M639 831 c-35 -36 -35 -65 1 -69 35 -4 72 32 68 66 -4 38 -33 39 -69
3z"/>
<path d="M1216 844 c-12 -31 -7 -56 12 -52 22 4 31 68 9 68 -8 0 -18 -7 -21
-16z"/>
<path d="M1504 846 c-9 -24 0 -51 19 -54 15 -3 18 2 15 29 -3 35 -24 51 -34
25z"/>
<path d="M1596 844 c-4 -9 1 -28 10 -42 14 -22 17 -23 32 -9 14 14 13 18 -2
41 -19 30 -31 33 -40 10z"/>
<path d="M1140 810 c-10 -23 -10 -34 -2 -42 16 -16 54 19 50 46 -5 33 -34 31
-48 -4z"/>
<path d="M1358 815 c-9 -21 -9 -29 4 -41 13 -13 16 -13 27 0 14 17 7 66 -9 66
-6 0 -16 -11 -22 -25z"/>
<path d="M761 811 c-12 -12 -21 -32 -21 -46 0 -20 5 -25 24 -25 28 0 68 45 64
69 -5 24 -44 25 -67 2z"/>
<path d="M1066 808 c-31 -44 -12 -85 25 -52 21 19 23 65 2 71 -6 2 -18 -6 -27
-19z"/>
<path d="M870 793 c-25 -32 -23 -57 7 -61 25 -4 53 31 53 65 0 32 -33 30 -60
-4z"/>
<path d="M977 802 c-18 -20 -23 -57 -8 -66 15 -10 38 4 49 29 22 47 -9 73 -41
37z"/>
<path d="M1787 813 c-22 -21 11 -73 46 -73 23 0 22 42 -1 63 -20 18 -34 21
-45 10z"/>
<path d="M1454 796 c-10 -25 0 -61 18 -64 21 -4 32 31 18 58 -13 23 -28 26
-36 6z"/>
<path d="M1295 770 c-9 -39 7 -59 30 -40 20 17 16 64 -7 68 -11 2 -18 -6 -23
-28z"/>
<path d="M1561 786 c-16 -19 -6 -65 15 -73 33 -12 40 43 10 75 -10 11 -15 10
-25 -2z"/>
<path d="M1665 780 c-8 -24 20 -73 38 -67 29 9 13 87 -18 87 -7 0 -17 -9 -20
-20z"/>
<path d="M1231 751 c-23 -43 -6 -86 25 -60 17 14 15 70 -3 76 -6 2 -16 -5 -22
-16z"/>
<path d="M1401 746 c-20 -23 -10 -71 14 -71 15 0 21 8 23 31 4 38 -19 62 -37
40z"/>
<path d="M1900 745 c-16 -19 -4 -52 26 -71 51 -34 75 16 29 61 -28 29 -38 31
-55 10z"/>
<path d="M1152 728 c-19 -24 -24 -64 -9 -77 22 -18 49 13 45 52 -3 34 -19 45
-36 25z"/>
<path d="M1512 718 c-23 -23 -11 -78 18 -78 23 0 32 24 20 54 -11 31 -24 38
-38 24z"/>
<path d="M373 696 c-34 -29 -46 -68 -28 -92 28 -39 118 25 113 80 -4 42 -43
47 -85 12z"/>
<path d="M1629 696 c-10 -20 -9 -30 5 -51 20 -30 42 -32 51 -5 7 21 -5 49 -29
69 -13 11 -17 9 -27 -13z"/>
<path d="M1756 704 c-9 -24 16 -69 42 -72 30 -5 37 19 17 57 -17 33 -49 41
-59 15z"/>
<path d="M1050 690 c-13 -25 -10 -72 6 -77 21 -7 45 28 42 61 -4 37 -32 47
-48 16z"/>
<path d="M1329 687 c-15 -34 -4 -79 19 -75 13 2 17 14 17 47 0 51 -19 65 -36
28z"/>
<path d="M535 664 c-28 -31 -33 -81 -9 -91 39 -15 103 54 89 97 -9 29 -51 25
-80 -6z"/>
<path d="M946 668 c-25 -40 -24 -78 2 -78 28 0 54 34 50 67 -4 36 -32 42 -52
11z"/>
<path d="M686 649 c-29 -35 -34 -77 -10 -86 35 -13 90 50 80 91 -9 35 -38 33
-70 -5z"/>
<path d="M820 650 c-28 -39 -24 -75 9 -75 33 0 66 45 57 79 -9 35 -39 34 -66
-4z"/>
<path d="M1445 637 c-11 -42 -2 -72 21 -75 27 -4 38 32 21 67 -17 34 -35 37
-42 8z"/>
<path d="M1244 626 c-8 -32 -2 -69 13 -73 19 -7 45 42 37 71 -8 34 -41 35 -50
2z"/>
<path d="M1882 628 c-18 -18 -15 -42 9 -72 27 -35 63 -32 67 5 2 17 -6 34 -24
52 -30 30 -35 32 -52 15z"/>
<path d="M1582 618 c-17 -17 -15 -64 4 -82 20 -21 31 -20 44 3 19 36 -23 104
-48 79z"/>
<path d="M1718 595 c-10 -22 -8 -30 9 -53 26 -35 57 -36 61 -1 3 25 -30 79
-49 79 -5 0 -15 -11 -21 -25z"/>
<path d="M1156 588 c-33 -47 -9 -110 30 -77 18 14 16 90 -3 96 -6 2 -18 -6
-27 -19z"/>
<path d="M1370 570 c-6 -12 -10 -35 -8 -53 2 -27 7 -32 28 -32 21 0 26 5 28
32 3 33 -12 73 -28 73 -5 0 -14 -9 -20 -20z"/>
<path d="M1035 526 c-19 -44 -19 -51 0 -70 20 -20 40 -11 55 24 17 41 10 74
-18 78 -18 3 -26 -4 -37 -32z"/>
<path d="M923 508 c-39 -43 -41 -108 -3 -108 22 0 60 45 60 72 0 23 -17 58
-29 58 -4 0 -17 -10 -28 -22z"/>
<path d="M1504 504 c-10 -38 7 -78 33 -82 29 -4 40 36 23 78 -16 38 -47 40
-56 4z"/>
<path d="M1272 485 c-16 -35 -15 -49 6 -75 17 -21 19 -21 35 -5 17 16 22 60
11 89 -9 24 -39 19 -52 -9z"/>
<path d="M775 474 c-14 -15 -25 -33 -25 -40 0 -7 -2 -18 -5 -26 -9 -23 19 -51
43 -44 41 13 67 97 40 124 -17 17 -26 15 -53 -14z"/>
<path d="M1667 493 c-30 -29 27 -129 58 -103 19 16 19 43 0 80 -14 28 -43 39
-58 23z"/>
<path d="M1847 493 c-10 -10 -8 -52 3 -73 23 -44 80 -48 80 -6 0 50 -58 105
-83 79z"/>
<path d="M627 469 c-41 -24 -64 -120 -31 -133 43 -17 107 72 86 119 -12 27
-27 31 -55 14z"/>
<path d="M1171 426 c-7 -8 -14 -30 -18 -48 -11 -73 59 -86 72 -14 11 57 -25
98 -54 62z"/>
<path d="M1424 415 c-31 -47 12 -127 50 -96 20 17 20 53 1 91 -19 37 -30 37
-51 5z"/>
<path d="M1040 348 c-32 -54 -24 -108 16 -108 29 0 44 27 44 77 0 37 -14 63
-32 63 -5 0 -17 -15 -28 -32z"/>
<path d="M1597 373 c-4 -3 -7 -23 -7 -42 0 -47 25 -83 53 -79 19 3 22 9 21 50
0 25 -6 53 -13 62 -14 16 -42 21 -54 9z"/>
<path d="M1797 353 c-11 -10 -8 -72 3 -93 26 -48 80 -47 80 2 0 60 -54 120
-83 91z"/>
<path d="M1320 314 c-21 -54 -5 -114 30 -114 38 0 54 76 24 118 -20 29 -42 28
-54 -4z"/>
<path d="M900 295 c-31 -33 -35 -111 -7 -129 29 -17 67 33 67 88 0 38 -13 66
-30 66 -4 0 -17 -11 -30 -25z"/>
<path d="M1512 248 c-17 -17 -15 -89 4 -116 19 -28 50 -28 65 -1 13 26 -2 88
-27 114 -19 18 -26 19 -42 3z"/>
<path d="M1200 221 c-11 -22 -14 -90 -4 -115 9 -22 51 -20 64 3 13 25 13 72 0
105 -11 31 -45 35 -60 7z"/>
<path d="M0 40 c0 -5 5 -10 11 -10 5 0 7 5 4 10 -3 6 -8 10 -11 10 -2 0 -4 -4
-4 -10z"/>
</g>
</svg>
